<svg fill="none" height="102" viewBox="0 0 464 102" width="464" xmlns="http://www.w3.org/2000/svg"><path d="m126.598 85.5471c1.014-.5481 1.016 1.8196.223 1.9359-.226.0305-.404-1.2716-.223-1.9359zm7.023-1.6773c1.11-.2224.313 2.4565.126 2.5096-.787.2208-1.209-2.6939-1.768.8195-.486.2252.079-1.228-.2-1.3582-.522-.234-1.195 1.3845-1.759 1.4389-.038-.0032-.076-.0064-.114-.0095.001-.7604-.083-1.5708.003-2.3519.667-.8981 3.437-.9936 3.712-1.0484zm-4.698.6227c.244.2769.033 1.4118.591.8152.031.9393-.53 1.7421-.778 1.7111-.004-.0365.088-.7226.03-.7387-.435-.086-1.166.6511-1.015-1.3162.344 1.1205.925-.7453 1.172-.4714zm-5.572-.3754c-.23 1.3401-.417 1.1526-.656.3186.048-.2964.081-.6034.132-.8954.162.2385.35.3949.524.5768zm-1.128-.3825c-.369 1.5817-1.569.5764-1.278-.1991.429.0263.855.1117 1.278.1991zm156.631-82.59867c1.063-2.7834 3.796.41164 4.465.50916 3.083.44873 5.588-.27688 8.438.08908 1.814.23196 3.424 1.30492 5.222 1.58342.106 3.4437.22 6.86501.334 10.29361-.234-.3029-.33-.7526-.624-.7873-.295-.0273-.961-.5729-1.275 1.0017.129 1.627 1.048 2.0538 1.337 2.0722.558.0323.336-1.5458.749-1.8788.415-.3298.872 1.8682 1.409 1.092 1.261-1.828-.693-3.2251-1.101-2.9099.428-3.57778.995.6899 1.59-2.09-.067-.85727-.462-2.98485-.73-2.38882-.268.60725-.11 2.75752-.52 2.10633-.14-1.99078-.306-4.08625-.442-6.10095.5-.46434 1.096.73298 1.508.71453 2.541-.13976 4.994.18715 7.435.67869 1.927 1.51617 3.844 3.09448 5.753 4.72105-.014-.10207-.025-.21465-.036-.32149-.018-.18257-.036-.36124-.068-.50189-.004.0181-.007.03619-.01.05429-.036-.1734-.102-.28542-.17-.40014-.094-.15751-.19-.32198-.212-.65473.068-.08415.136-.1683.204-.25245.145-.12837.299-.26753.446-.40356.053.91505.106 1.8301.159 2.74514.601.5131 1.2 1.0328 1.799 1.5535.01.1761.026.3573.052.5312.021.1385.041.277.062.4155.044.0833.088.1667.132.25.231.4298.532.7845.776 1.0574.066.0732.13.1358.187.1994.183.2012.327.3605.436.5143.014.0203.03.0385.045.0589-.003.1044-.001.2071.003.3004.036.6873.167.6704.328.3092.018-.0455.035-.0909.053-.1364.062.0724.124.1439.18.2111.209.2505.443.5595.712 1.0275.158.2738.308.5793.471.9092.001.0022.002.0043.003.0064.086.1741.175.3559.27.5433.129.2515.268.51.406.7201.131.1982.303.418.497.5072.416.1903 2.046.9506 2.83 1.4011.347.1991.755-.3817.977-1.333.193.1734.386.3468.579.5203.021-.1051.046-.2026.077-.2754.064-.1394.161-.2237.265-.3085.198-.1609.421-.3399.493-.9938-.196-.0348-.392-.0697-.588-.1045-.013-.0051-.026-.0102-.038-.0154-.094-.4796.729-1.8113.914-1.1054.149.5521-.078 2.4765-.245 3.5871.09.0831.18.1662.27.2492.041-.1565.077-.3609.114-.5723.059-.3326.123-.6962.223-.9735.506-1.4243 1.4-.1837.834 1.644.246.2409.316-.1543.398-.6342.087-.5095.189-1.1087.534-1.1312.407-.002.53.4823.644.9482.06.2474.12.4933.219.6493.09.1408.262.1976.456.2649.426.1474.959.3375.984 1.4974.032 1.2855-.222 1.6431-.437 1.8499.484.4292.97.854 1.455 1.2797.033-.3448.067-.7484.108-1.216.721-.2228.773.7054.563 1.8051.616.5382 1.234 1.0765 1.851 1.607.156-.2002.308-.3591.429-.4664-.008-.4713-.155-.5074-.293-.539-.116-.0267-.227-.0503-.241-.3387-.086-2.3127 1.488-4.6061.977-1.5045-.125.7562-.267 1.6269-.195 2.2561.056.4603.397.8136.548.6401-.005.0403-.011.0807-.017.121.011-.0101.035-.0912.068-.2087.041-.1538.081-.3076.122-.4613.109-.4181.244-.9231.338-1.1783.113-.2844.24-.5318.369-.7776 1.459-2.7737.402-1.4692 1.46.931.085.172.197.1602.302.1539.092-.0055.18-.0043.24.112.117.1864.211.4349.304.6809.174.4623.343.9125.643.8992.009-.0073-.001-.0913-.016-.2157-.369-3.0626.394.8959.421.9602.026.0594.046.1049.043.1567-.033.493-.305.7339-.621 1.0137-.299.2637-.638.5609-.853 1.1412.111.0911.223.1823.334.273.142-.2649.295-.3424.436-.1104.037.0779.015.2661-.006.4528 0 .004 0 .0081-.001.0122.101.0798.201.1597.302.2396.031-.1559.044-.3162.047-.3452.003-.0222.006-.0444.009-.0666.199-.2101.923.2107.963.7852.011.1387.013.2913.005.4475.265.2096.53.417.794.624.035-.079.068-.1315.099-.1326.07-.0301.126.1378.178.3518.131.1022.263.2011.394.3026.005-.0384.009-.0768.013-.1152.031-.2743.064-.5634.097-.6412-.737-.0227-.539-.6848-.318-1.4293.102-.3437.209-.7063.231-1.028.027-.425-.1-.5628-.22-.6923-.151-.1626-.291-.3186-.104-1.0194.352.7061.655.424.96.1357.964-.9088.901 1.624.276 1.4013-.131-.0467-.268-.094-.392.1815-.145.3054-.235 1.0076-.317 1.6395-.038.3018-.076.5903-.116.811.009-.0156.018-.0312.027-.0467.031-.05.685-.5298.743-.5013.362-.0272.332.1878.28.5564-.027.1877-.06.4202-.05.6757.006.0821.046.1442.086.2094.053.0857.105.177.085.3072-.016.1481-.054.3048-.099.4572.085.0642.171.1291.256.193.064-.1688.122-.3005.167-.3107.02.0111.406.5695.404.6342 0 .0116-.006.0438-.017.0905.848.6292 1.698 1.2462 2.55 1.8431.005.0291.011.0581.016.0871.009.0507.017.1039.026.1554.024.1489.048.298.072.447.086.5457.214 1.3622.348 1.977.096.4383.227.9455.404 1.3201.175.3697.478.7756.903.48.288-.2002.583-.5881.835-1.2224.326-.8179.53-1.7883.621-2.3551.026-.1624.046-.3265.058-.4851.093-.3524.162-.6109.168-.6352.278-.5119.232.0607.196.4942-.008.1019-.016.1977-.019.268-.003.2306-.028 1.2949-.047 1.8581.951.6021 1.907 1.1776 2.865 1.7286.97.5571 1.959.9892 2.967 1.3085.645.2046 1.298.3664 1.958.4827-.019-.4451-.01-.8916.228-1.3958.335-.6933.978.4544 1.076.6354.025-.0547.058-.1739.098-.3164.091-.3325.222-.8068.402-.9707.401-.3751 2.486-4.8644 2.808-3.9786.334-.0126.67-.0335 1.006-.0627.118.0676.233.1217.34.1817.021.1838.05.3514.09.4976.423 1.5358 1.399 2.7384 1.851 4.6449-.205.4904-.435.916-.649 1.3727.076.5888.154 1.1821.232 1.7712-.045.2511-.088.4976-.131.7486.352.4684.704.9369 1.056 1.4054.001-.0288.004-.062.006-.0914.155-.1791.199.0414.209.3729.173.2329.346.4659.519.6988.068-.1242.142-.2537.217-.3921.103-.7019.207-1.4037.31-2.1055.069.412.138.8241.207 1.2362.349-.482.662-.5998.778.5002.183-.0521.366-.1041.549-.1561.135-.1855.274-.2575.401-.2176.256-.8491 1.251-5.974 2.164-6.6541-.177 1.7982-.354 3.5964-.531 5.3946.276-.279.553-.558.829-.837.16-1.1299.32-2.2599.479-3.3899-.046.9006-.093 1.8012-.139 2.7018.494-.1056.988-.2111 1.483-.3167.001-.0131.002-.0296.003-.0426.068-.0622.111-.0424.138.0177.067-.0148.135-.0295.202-.0443-.075.7635-.15 1.5269-.224 2.2904.006.0117.012.0316.02.0384.13.109.274-.0556.428-.3316-.023-.3388-.045-.6775-.067-1.0162.71-.7429 1.419-1.4858 2.129-2.2287.04.5097.08 1.0194.12 1.5291.033-.0332.064-.0526.089-.0476.003.0156-.022.3227-.041.6274.016.2076.033.4152.049.6228.013.0004.025.0046.037.0031.264-1.4132.527-2.8265.79-4.2397.366-.0204.732-.0407 1.098-.061.267.2425.519.4999.754.7431.368.9761.736 1.9523 1.103 2.9284.105-.6056.191-1.0511.263-1.3683.155.1957.243.3082.243.3082.049-.3103.098-.6206.147-.9309.191.3042.407 1.199 1.109-.2745-.163 1.6544-.327 3.3087-.491 4.963.042.1639.086.4095.129.7214.74-1.7143 1.48-3.4285 2.219-5.1427.058 2.4752.115 4.9505.173 7.4258.621.4441 1.242.8882 1.863 1.3323.075-.0468.149-.0832.224-.1283-.128-1.007-.256-2.0141-.385-3.0212.389-2.2011.778-4.4021 1.167-6.6031.245 1.7948.49 3.5896.734 5.3844 2.165-2.6402 3.304 6.2369 3.481-4.1856-.293.3756-.586.7512-.879 1.1268.465-1.5127.929-3.0254 1.394-4.5382.205 1.2484.41 2.4967.615 3.745.427-.497.855-.994 1.282-1.491.005 1.2397.01 2.4794.015 3.7192.408-1.1194.817-2.2387 1.225-3.358.09 2.0534.181 4.1067.271 6.1601 1.571-.2909 3.143-.5817 4.714-.8725 1.914 4.7731 1.422-2.1545 3.182-3.9288.625 1.4264 1.248 2.8528 1.873 4.2792.368-1.1288.735-2.2577 1.104-3.3865.183.6891.366 1.3783.55 2.0674 1.121.2921 2.242.5842 3.363.8763-.052-2.0195-.103-4.039-.155-6.0585.246-.3776.491-.7551.737-1.1326.35 2.4916.7 4.9833 1.05 7.4749.503-.7051 1.006-1.4102 1.508-2.1153.576.5036 1.151 1.0071 1.726 1.5107-.098 1.472-.197 2.9439-.295 4.4159.423-2.3513.845-4.7026 1.268-7.0538.909-.3464 1.818-.6928 2.728-1.0392-.615 1.0591-1.23 2.1183-1.844 3.1774.364 1.0228.727 2.0456 1.091 3.0684.535-.6269 1.07-1.2538 1.605-1.8806.222-.9246.444-1.8493.666-2.7739.914 1.0321 1.827 2.0642 2.74 3.0963 1.184.1259 2.368.2517 3.552.3775 1.339-3.3911 2.638 3.0245 3.563-6.4449.901.8433 1.802 1.6865 2.703 2.5298.256-.5114.513-1.0228.77-1.5341.006 1.2459.012 2.4919.018 3.7379.503-1.0604 1.005-2.1208 1.507-3.1812.567.123 1.133.2461 1.7.3692-.252.8466-.504 1.6931-.756 2.5397 1.523 1.314 3.046 2.628 4.569 3.9419.28-2.3326.559-4.6653.839-6.998.553.7202 1.107 1.4404 1.66 2.1606.199-1.4309.398-2.8618.596-4.2928 1.021-.1471 2.042-.2942 3.063-.4413.87 1.935 1.739 3.8699 2.609 5.8049 1.59-3.6535 4.728-7.5609 4.672.8267 1.709-.8979 3.419-1.7958 5.129-2.6936-.205 1.4018-.41 2.8035-.615 4.2053.108.4175.217.8349.325 1.2523.293-2.0743.586-4.1485.879-6.2228.44 1.5355.88 3.071 1.32 4.6065-.308 1.1951-.615 2.3903-.923 3.5854-.234.0212-.469.0423-.703.0635.202 1.4421.404 2.8842.607 4.3262-.017.0354-.035.0707-.052.106 1.437 1.3026 2.605 3.2607 3.625 5.1734.08.164.16.3279.241.4919 1.144 2.5547 1.413 6.4127 1.339 9.4837-.017.687-.054 1.3782-.112 2.0657v.0001c-.262 3.1188-.937 6.1609-1.966 8.3808-.087.1745-.173.349-.259.5235-1.407 2.695-2.791 4.0122-4.051 4.7441.182.4886.35 1.012.468 1.6195-.174.4976-.37.9344-.551 1.3993.058.5744.119 1.1495.179 1.7239-.061.3873-.105.7651-.179 1.1672-.726.0469-1.863 2.2248-2.522 2.3426-.601.1047-.773-1.8208-1.219-1.9336-.447-.1012-2.116 2.4628-1.515-1.3766-.063-.1654-.161-.3147-.217-.5266-.415 4.0519-.746 1.0172-1.419 1.5899-.317.2748-1.48 3.7134-.23-1.9915-.09-.0725-.112-.2856-.18-.444-1.235 4.9952-1.467 3.3156-2.253 1.5752-.44-.9712-1.395-2.1744-1.243 1.6842-.736 2.4168-1.093-1.4458-1.496-1.2096-.401.2398-.061 2.3658-.598 2.6388-.089.0479-.81.0204-.999-.2921-.186-.3156.196-1.8858-.168-1.6801-1.577.8764-3.246 4.2331-4.877 4.9198-4.827 2.049-9.237 1.957-14.09 1.997-.802.008-4.975.324-5.331-1.072-1.219-4.8049 2.378-6.685.238-8.9101-1.714 12.8821-2.758 8.9291-4.709 8.9271-1.439-.002-3.902 1.661-5 .046-1.173-1.7195.008-3.1838-.539-6.0106-.973 5.2865-1.696 6.3186-2.801 6.5396-1.162.231-2.156-1.5105-3.304-2.0167-.386-.1706-1.026.9377-1.442.4364-.519-.626-.12-3.6596-.431-4.1338-.312-.4691-.306 3.0809-.733 3.6075-.193.2388-1.403.2532-1.547-1.1282-.033-.3239.286-1.4305.326-2.4778.022-.5762.398-4.9343.074-4.5877-.585 3.8467-.934 7.7602-1.868 7.9652-1.477.3144-2.687-1.6094-4.196-2.0117-.338-.0829-1.389 2.6993-1.481-.6572-.026-.9829.347-4.7334-.215-4.5874-.484.1247-.7 1.8237-1.217 3.0769-.196.4733-.092-1.3066-.474-.2786-.384 1.0249-1.009 3.3966-.81-1.244-.157 1.4046-.268 2.6498-.407 3.9839-.541.1992-1-5.0156-1.202-.7316-.537-.0248-1.075-.0492-1.612-.074.034-1.5293.071-3.066.106-4.6033.44-1.4314.771.5787 1.07-2.2807-.442-.2646-.889-.533-1.327-.7973-.519 7.6546-2.281 11.3604-1.291 3.3891.186-1.5129-.865-.3177-1.113.1824-.246.5018-.559 3.5854-.814 1.5916-.145-1.1292-.136-2.9864-.884-.9133.274.8915.554 1.9747.827 2.9543-.491-.3974-1.256.608-1.582-1.0637-.08-.4177.466-1.5194.309-2.1914-.158-.6706-1.058-.3691-1.127 2.6312.089-5.8732-.26-1.0277-1.119-.9453-.109.0041-.497-5.6284-1.136-2.6862-.226 1.0478-.3 5.0199-.828 3.2688-.388-1.296.402-4.6193.015-6.5649-.122 4.5055-1.195 7.0297-1.705 7.0969-.904.1261-.534-2.6946-.715-3.9555-.325-2.2729-1.08 1.4142-1.079-2.0383.158-.0742.318-.3408.476-.4868-.282-.4669-.567-.9153-.848-1.382-.142 1.8634-.284 3.7398-.426 5.5872-.59.5705-.627-1.7023-1.035-2.2-.058-.0694-.105 1.2527-.171 1.2658-.527.0719-.633-.6563-1.234 1.9606.369-4.6901-.56-1.6287-.919-3.7399-.101-.595.017-3.0091-.399 2.1349-.913-1.2382-1.707-.8884-2.194-4.8698-.129 5.145-1.295 5.1276-1.85 3.6731-.147-.4011-.003-4.0069-.434-3.4236-.027 1.5451-.058 3.3164-.082 4.9177-.813.4313-.246-4.296-.941-3.8397-.306.2062-.57 5.5376-.916 3.1266-.198-1.3865.163-7.8448-.613.0221-.469.3571.016-2.1827-.263-2.5089-.176-.1981-.634 2.7068-.899 2.3257-.501-.7469-.789-6.3841-1.306-.6118-.43.3772.058-2.0219-.328-1.7364-.517.3825-2.033 4.0773-1.851-.5044-.001.008-.003.0161-.004.0242-.614 2.6044-1.82 1.5498-1.17-2.4318.59 1.147 1.477-3.1493.788-3.1496-.695.0007-.833-.5248-.78-2.1786-.416.7807-.712 2.1667-1.219 2.3662-.359.1411-.769-.7355-1.192-.7125-.062.7391-.137 1.3897-.268 1.766-.339.965-.992-1.3119-1.272-1.3133-.006.0003-.011.0044-.017.0047-.115.7307-.201 1.8978-.529 2.375-.092.1314-.194-.9664-.373-1.6667-.226.2528-.441.4848-.635.492-.073.0023-.147-.0557-.222-.1412-.449.875-1.201 2.269-1.476 2.2711-.163-.0008-.361-1.4717-.417-1.5479-.199-.2126-.274 1.8862-.475 2.0427-1.488 1.169-3.103.4935-4.498 1.0867-1.326.5646-2.051.9247-3.4 1.4544-1.252.488-2.549 4.2945-.711-6.7912-.898-1.1451-.766 1.9012-1.138 4.5536-.22 1.5621-.373.2445-.452.5378-.261 1.009.067 2.0844-.138 2.8305-.822 2.9907-3.198.7374-3.762.8421-2.603.4901-4.689 1.937-7.093 2.4371-1.531.3198-2.912-.2316-4.431.0387-.177-3.2815-.358-6.5443-.541-9.8088.204.2215.295.6329.543.5784.249-.0619.821.2656 1.045-1.3395-.15-1.5283-.932-1.6621-1.176-1.5931-.469.1361-.242 1.5844-.581 2.0277-.34.4399-.78-1.5411-1.211-.6345-1.013 2.1347.663 2.903.999 2.4787-.268 3.5644-.854-.3722-1.283 2.4833.078.805.466 2.7293.676 2.078.209-.6632.02-2.6825.381-2.1792.168 1.8721.363 3.8321.529 5.7284-.409.5957-.942-.3802-1.288-.2366-3.85 1.6149-7.495 1.6775-11.277 2.0433-.347.0339-1.036.085-1.328-.4422-.226-.4164.031-2.8787-.272-2.1605-.035.1301-.041 1.6706-.401 2.049-.682.7263-2.081.9751-2.781 1.0284-6.874.57-13.658 1.7116-20.302-1.4944-.348-.1706-1.701-.2494-1.878-1.1131-.529-2.593-.113-5.9587-.977-.7127-.422.2568.071-2.2709-.055-2.9815-.055-.242-.824 3.3619-.909 2.043-.19-3.0415.577-3.2357.961-4.605-.519-1.7504-1.433 1.1088-2.002 1.1305-.162.0067.053-2.8349.028-2.9315-.583-1.0269-.985 4.558-1.151 6.9044.31.3193.615.6395.925.9352-.718.7635-1.063-.9328-1.661-1.7258-.142-.184-.144 2.3927-.421 1.3857.035-1.8004.085-3.7157.128-5.5569-.977 1.5141-1.365 2.5614-.551 5.5092-.417-.0712-.838-.1165-1.255-.2033.31-1.8694.341-4.8641-.222-3.124-.131.4188-.049 2.4415-.22 3.0257-.172.5786-1.039.0088-1.102-.1475-.575-1.5003-.347-5.5609-1.122-3.4996.189-.0911.803 2.1357.189 3.2008-.685 1.1832-2.877-1.3695-3.512-2.1872-1.082-1.402-1.574-2.4637-2.353-5.4895-.147-.5755.08-3.1131-.215-4.1279-.394-1.35-1.244-2.2161-1.672-3.9134.16-.5334.341-1.0155.509-1.5191-.079-.543-.159-1.0883-.24-1.631.049-.394.082-.7706.142-1.1825.737-.2503 1.818-2.7027 2.483-3.0014.607-.2682.847 1.5636 1.303 1.5487.457-.0239 2.067-2.9938 1.587.9233.07.1441.178.2564.241.449.282-4.0676.721-1.2024 1.385-1.948.313-.3555 1.376-4.0404.303 1.869.094.0453.123.2552.199.3904 1.083-5.2173 1.375-3.6407 2.234-2.1647.481.8224 1.493 1.7196 1.205-1.9937.664-2.5632 1.159 1.0992 1.56.7617.401-.3437-.018-2.3267.52-2.7434.092-.0722.824-.2462 1.024.0063.2.2577-.134 1.8842.229 1.5811 1.571-1.2964 3.151-5.0315 4.784-6.1588.612-.4243 1.219-.8116 1.822-1.1702-1.053-2.2174-1.54-7.2674-4.003 2.8738-1.074.4327-2.147.8653-3.221 1.298-.013-.5748-.025-1.1496-.038-1.7244-.072.042-.138.0817-.196.1122-.432.2257-.934.4125-1.473.5625-1.085.3015-2.474.515-4.061.6639-3.183.2986-7.294.3272-11.636.1143-.027-.0002-.054-.0004-.081-.0006-.025-.0063-.051-.0125-.077-.0187-.13-.0332-.272-.0801-.407-.1445-.076-.0357-.372-.1689-.664-.5824-.08-.1129-.625-.8372-.877-2.7747-.038-.2919-.067-.6103-.089-.9446-.286-.5589-.572-1.1178-.857-1.6767.072-.8065.144-1.6131.217-2.4196-.273.0166-.544.0223-.814.0359-.06.289-.119.578-.178.867-.876.3513-1.751.7025-2.627 1.0537-.183-.6074-.366-1.2148-.549-1.8223-.784-.0059-1.54-.0299-2.255-.0789-.118.9457-.235 1.8914-.352 2.8371-.299-.9847-.599-1.9694-.898-2.9541-.737-.0875-1.415-.2154-2.014-.3711-.013.3725-.027.7451-.04 1.1176-.85 1.0863-1.701 2.1726-2.551 3.259-.237-.8693-.475-1.7386-.712-2.6078-.297.6897-.594 1.3793-.891 2.069-1.036.0806-2.071.1612-3.106.2418-.121-1.5455-.243-3.0911-.365-4.6367-.318.1979-.637.3958-.955.5937.159.9627.317 1.9254.476 2.888-.872.2107-1.743.4215-2.615.6322-.143 1.4376-.286 2.8752-.429 4.3128.267-.2115.524-.3968.742-.3972.184.0045-.006 1.6928.028 1.7358.686.6182 1.029-2.6817 1.17-4.067-.362-.1949-.716-.387-1.076-.568.806-.4384 1.234.5691 1.934 1.0504.167.1119.117-1.4104.455-.8071-.003 1.064-.022 2.1987-.033 3.2864 1.086-.8764 1.507-1.4919.516-3.252.478.0503.958.0853 1.437.145-.316 1.0994-.289 2.8671.318 1.8519.142-.2405.007-1.4409.19-1.7848.185-.3403 1.192.0133 1.263.106.687.8985.512 3.2847 1.353 2.0857-.217.0415-.959-1.276-.281-1.8917.758-.686 3.313.8726 4.056 1.3692 1.267.8511 1.853 1.4797 2.806 3.2856.18.342-.029 1.8461.328 2.4531.479.8068 1.47 1.3347 1.995 2.3478-.057.1049-.121.192-.183.2909-.595.087-1.151.0226-1.614-.2824-2.074 3.3084-4.083 2.7601-4.761 3.0431.012-.0881.027-.1861.048-.29-.083-.0864-.207-.1541-.283-.2688-.102 1.029-.263 1.2854-.473 1.2956-.091-.062-.204-.1412-.345-.2494.002.048 0 .1004.001.1471-.204-.1029-.437-.2132-.691-.0885-.151-.3942-.316-.6976-.465-.9517.015-.0476.031-.0993.047-.1492-.11-.0286-.148-.1467-.238-.2282-.004.0091-.008.0205-.012.0296-.013-.0225-.026-.0491-.038-.0706-.038-.0641-.08-.1304-.121-.2-.225-.385-.491-.8439-.747-1.1958-.272-.375-.557-.4827-.999-.439-.185.0185-.413.0633-.698.1436.544-1.5134.076-4.3626-1.132-4.303-.274 1.2293.24.5205.185 1.1977-.059.6798-.444-.1228-.385 1.1377.709.4095.486-1.0389 1.071-1.2823-.195.7265-.166 2.0956-.318 2.7051-.24.9596-.507.3103-.626.9398-.044.0163-.09.0389-.137.0559-.326-.0847-.654-.1613-.981-.2292-.391.6839-1.375-2.5673-1.878-3.8878.043-.0712.086-.1385.128-.2097-.088-.0342-.176-.0736-.264-.1079-.037-.0822-.066-.1511-.091-.1853-.141-.1794-.192-.6256-.227-.9623.039-.1306.065-.2759.069-.4413-.443-.1283-.902-.2477-1.364-.3717.016-.1857.045-.3659.083-.5443-.669.0049-1.34.0496-2.011.1437-1.046.1471-2.094.4084-3.142.7961-1.037.3836-2.076.7981-3.114 1.2334-.075.5545-.226 1.5897-.262 1.8278-.009.0696-.02.1702-.028.2733-.037.4335-.086 1.0119-.275.4608-.001-.0183-.026-.2869-.059-.6542.014-.1604.022-.3338.024-.5003.005-.5745-.036-1.5614-.221-2.4195-.143-.6663-.369-1.0994-.619-1.3444-.371-.3622-.737-.0065-.971.329-.236.3397-.451.8185-.618 1.2344-.234.5829-.497 1.3621-.672 1.8853-.06.1772-.113.3347-.148.4348-.016.0474-.033.0962-.049.1428-.01.0298-.021.0596-.031.0893-.94.4464-1.881.9076-2.821 1.3866.003.0482.003.0869.001.0981-.017.0712-.481.5431-.504.5519-.042-.018-.08-.1513-.115-.3282-.094.0484-.188.093-.282.1417.019.1577.03.3248.021.4734-.003.1298-.069.2077-.134.2828-.05.0577-.101.1179-.12.1981-.053.2479-.059.48-.063.6685-.01.3716-.018.5947-.37.508-.066.0129-.624-.5677-.648-.624-.006-.0168-.012-.0337-.019-.0506-.015.5909-.03 1.1817-.045 1.7726.001.2982.017.5587.063.7218.077.2906.22.2685.356.2443.24-.0424.464-.0835.29 1.5924-.357.32-.577.0313-.795-.2566-.253-.3353-.504-.6698-.969-.0323-.067-.7199.096-.8468.272-.9817.14-.1077.289-.228.333-.6519.031-.3203-.015-.6975-.058-1.0523-.094-.7692-.176-1.4563.553-1.3563-.019-.0832-.004-.3684.011-.6422.002-.0406.005-.0813.007-.1219-.147.0783-.295.1596-.442.2386-.086.2012-.168.3586-.232.3174-.03-.0061-.056-.0637-.077-.1473-.295.1597-.59.3208-.885.4831-.018.1534-.046.3009-.079.4343-.135.5603-.919.8545-1.081.6138 0-.0183.001-.0367.001-.055 0 0 .018-.1846.013-.3604-.113.0621-.225.1241-.338.1861.001.0041.001.0082.001.0124-.01.1879-.022.383-.072.4533-.177.2045-.313.0965-.409-.1875-.125.071-.252.1421-.377.2134.116.6086.4.9636.65 1.2735.265.3276.491.6073.443 1.0967-.006.0524-.034.1042-.069.1596-.127.1983-.358.5655-.115 2.1587-.996.5316-.615-.7589-.458-1.288.035-.1199.058-.2011.051-.21-.294-.0632-.535.3529-.783.7795-.133.2269-.268.4567-.413.6208-.079.104-.166.0851-.256.0643-.102-.0237-.211-.0482-.323.1076-.092.1391-.366.8638-.63 1.5703-.287.7648-.566 1.5151-.599 1.4689.035-1.139-.168-1.7625-.366-2.3644-.086-.2635-.17-.5295-.234-.8282-.051-.2676-.097-.7932-.135-1.224-.015-.1565-.031-.313-.046-.4694-.013-.1215-.025-.1994-.034-.2112 0 .0368-.001.0735-.001.1103-.12-.1945-.516.1013-.647.5459-.132.456-.169 1.0644-.179 1.6633-.003.3774-.006.7549-.009 1.1324-.01.5058-.044.8976-.168 1.021-.585.5773-.809-1.8998-.541-3.1998.062-.2847.177-.2928.297-.2997.14-.0082.29-.0219.376-.483-.102-.126-.227-.3081-.347-.5313-.697.4201-1.394.8485-2.091 1.2762.023 1.1189-.182 2.0198-.856 1.6801.038-.4662.072-.8724.097-1.2169-.55.339-1.101.6766-1.65 1.0192.178.2397.37.6395.124 1.9031-.218 1.1381-.775 1.2321-1.219 1.3065-.203.0341-.383.067-.495.1913-.123.1372-.222.3641-.323.5976-.044.1022-.09.2032-.138.3009-.286.05-.597.1177-.923.2043-.068-.2395-.071-.5676-.071-.8696-.001-.4884-.003-.9008-.286-.7039.097.726-.004 1.3305-.178 1.7185-.257.0719-.519.1455-.781.2162-.056-.1097-.104-.2571-.138-.4464-.052-.2904-.054-.665-.057-1.0032-.001-.2131-.003-.4169-.017-.5772-.102.0649-.204.1299-.306.1949-.01.5537-.04 1.3071-.095 1.9887-.115.0271-.229.0521-.343.0755-.02-.4565-.176-.6477-.319-.8108-.088-.1006-.173-.1888-.213-.3364-.018-.0762-.025-.1783-.028-.2841-.219.1388-.438.2777-.657.4166-.059-.9752-.367-1.6156-.742-1.4772-.284.1051-.668.2108-1.07.3329.01-.3916-.029-.8292-.28-1.3159-.151.597-.303 1.106-.455 1.5421-.538.1556-1.016.2965-1.219.351-.207.0556-.413.2437-.574.4174-.171.1839-.35.4163-.519.6425-.125.1689-.245.3331-.359.4905-.001-.0001-.002-.0002-.003-.0003-.205.2832-.395.5493-.586.7839-1.016-.0913-2.01-.6317-3.068-.729-.457-.0426-1.13.6919-1.642.4627-.637-.2857-.357-2.0953-.744-2.3227-.389-.2255-.17 1.8289-.631 2.1951-.211.1661-1.608.3463-1.856-.4313-.056-.1839.247-.8722.23-1.4814-.008-.3498.162-2.8969-.19-2.6498-.445 2.3048-.614 4.6089-1.682 4.8632-1.687.397-3.199-.5331-4.966-.5452-.396-.0004-1.445 1.7598-1.751-.1652-.09-.5638.117-2.783-.524-2.6165-.551.1431-.699 1.1571-1.222 1.9556-.198.303-.183-.7409-.564-.0902-.382.6482-.962 2.1018-1.01-.6053-.097.8328-.152 1.5675-.233 2.3569-.613.1901-1.453-2.7432-1.431-.2424-.622.064-1.244.1285-1.866.1926-.053-.887-.103-1.7797-.155-2.6713.424-.8915.927.2181 1.101-1.4757-.527-.0884-1.06-.1786-1.582-.2674-.142 4.4939-1.952 6.8904-1.286 2.1462.124-.8972-1.018-.0518-1.275.2728-.254.3259-.43 2.1442-.844 1.0317-.235-.6304-.337-1.7028-1.077-.3966.369.4747.757 1.0577 1.132 1.5833-.592-.1579-1.415.5328-1.892-.3853-.117-.2294.446-.9393.224-1.3042-.223-.3637-1.243-.061-1.143 1.6804-.249-3.4025-.362-.5623-1.349-.3887-.124.0232-.909-3.1698-1.472-1.3791-.199.6382-.048 2.942-.763 2.0062-.526-.6916.188-2.7261-.377-3.7924.129 2.6192-.959 4.2356-1.543 4.348-1.038.2046-.779-1.476-1.063-2.1778-.512-1.2635-1.165.9725-1.37-1.0214.178-.0657.348-.2468.523-.3543-.355-.2283-.709-.4486-1.062-.677-.053 1.0972-.106 2.2062-.16 3.2941-.647.4151-.825-.8955-1.328-1.122-.07-.0268-.045.7402-.12.7555-.604.1183-.769-.281-1.308 1.3175.146-2.7616-.746-.8613-1.287-2.0312-.151-.3303-.159-1.7323-.332 1.2952-1.129-.5818-2.024-.2637-2.826-2.4911.16 2.987-1.186 3.1451-1.915 2.3874-.195-.2045-.245-2.3104-.71-1.9093.062.8957.131 1.9249.199 2.8526-.912.3655-.539-2.4467-1.315-2.0826-.341.1639-.328 3.2783-.871 1.9422-.311-.77-.28-4.5546-.706.0999-.521.2749-.113-1.2629-.456-1.4102-.215-.0873-.57 1.6551-.899 1.4743-.623-.358-1.295-3.5707-1.547-.1604-.473.2778-.052-1.1729-.479-.9529-.575.2946-2.105 2.6456-2.168-.0287-.001.004-.002.008-.003.012-.553 1.5942-2.012 1.1649-1.5-1.2282.75.5785 1.518-2.0313.721-1.9302-1.305.1653-.995-.6856-1.034-3.8292-.007-.4522-.352-.7019-.229-1.281.124-.5792.957-1.1414.624-2.4344-.065-.2396-.55.7194-.523-.5952-.107.3026-.172.6078-.262.9091-.481-2.8425-.47-3.8149.883-4.1156-.086.6123-.173 1.234-.261 1.8464.252-.7572.476-1.4955.747-2.2588 1.442.1309 3.592-2.2039 4.831-1.3467 1.083.7487-.522 1.1168-.559 1.2272-.389 1.1982.092 1.739.036 2.5327-.058.7938-.803 1.977-.192 1.6071.082-.0573 1.048-2.4408 1.102-2.768.269-1.6862.165-2.3982.374-2.9026-3.567-1.269-6.448-2.485-9.249-3.5137-.739-.2559-1.477-.5118-2.215-.7677-2.657-.8628-4.632-2.1165-6.252-3.2254-.573.3867-1.147.7735-1.721 1.1603-.147-.3738-.294-.7475-.441-1.1212-.935-.1009-1.87-.2018-2.805-.3026.004-.5285.007-1.0571.01-1.5856-1.985 4.843-1.519-6.1815-3.603 2.4112-.595.238-1.191.4759-1.786.7139-.025-1.221-.051-2.4421-.077-3.6631-.08.324-.16.648-.24.9721-.465-.4617-.93-.9233-1.395-1.3849-.45.881-.899 1.7621-1.349 2.6431.038-3.6866-3.353 1.4009-2.514-1.736-.429.0437-.858.0873-1.287.131.141-.4741.282-.9482.423-1.4223-.037-.3461-.074-.6922-.111-1.0383-.362.578-.724 1.156-1.087 1.7341.006-5.4969-.876-1.2631-1.127-.8908-.406.5776-1.074.6572-1.126.7692-.079.1893.399 1.6769-.176 2.4903-.194-.9044-.388-1.8088-.582-2.7132-.072.4942-.145.9883-.217 1.4825-.159-.3094-.318-.6187-.476-.9281.051-.5653.102-1.1307.153-1.6961-.091-.2097-.182-.4194-.273-.6292-.103.4936-.206.9872-.31 1.4808-.484.1941-.969.3882-1.454.5824-.272-.9007-.543-1.8015-.815-2.7022-.189.0822-.378.1643-.5672.2465-.1225.9922-.2451 1.9844-.3676 2.9766-.3847-1.2634-.7693-2.5269-1.154-3.7903-.2883.2147-.5767.4294-.865.6441.0198.5162.0396 1.0324.0594 1.5485.1232-.3041.2464-.6081.3695-.9122-.0163.4294-.0327.8588-.0491 1.2882-.4716.6036-.9432 1.2072-1.4148 1.8108-.131-.4826-.262-.9653-.393-1.4479-.1649.3823-.3297.7646-.4945 1.1468-.5736.0438-1.147.0876-1.7205.1314-.0673-.8591-.1346-1.7182-.2019-2.5773-.1765.1098-.353.2195-.5295.3292.0878.5362.1756 1.0724.2634 1.6085-.4839.1187-.9678.2374-1.4518.356-.1081 1.0833-.2162 2.1665-.3243 3.2498-.1919-.2183-.3838-.4365-.5757-.6547.0384-.5991.0767-1.1982.115-1.7973-.767-1.1423-1.5339-2.2847-2.3009-3.427-.1306 1.1447-.2611 2.2893-.3916 3.434-1.0131-1.8882-2.3449-.4559-3.3517-.9733-.425-.2179-.7391-3.3474-.9139-.242-.8221-.4079-1.6441-.8157-2.4661-1.2236-.2933.5573-.5865 1.1146-.8798 1.6719-.2942-.9149-.5884-1.8298-.8827-2.7446-.7457 2.2718-3.7085 3.5343-3.3423.13-.7005.7491-.5903.0356-1.4555 1.1459-.1264-.6803-.2527-1.3606-.379-2.0409-.3117-.1527-.6234-.3054-.9351-.4581-.4785.5642-.9569 1.1284-1.4353 1.6926-.1983-1.0865-.3965-2.173-.5948-3.2594-.084.8321-.1681 1.6641-.2522 2.4962-.2753.2505-.5505.501-.8258.7515-1.0339 4.0979.7916-7.781-1.772-3.0458.3196.0942.6392.1884.9588.2826.0391 1.0384.0783 2.0768.1174 3.1153-.4885.3796-.9771.7592-1.4656 1.1388-.2919-.3613-.5837-.7227-.8755-1.0841-.2926.2797-.5852.5594-.8778.8391-.6541-.7205-1.3082-1.4409-1.9623-2.1614-.6913.1993-1.3827.3985-2.074.5978-.0655-.6609-.1309-1.3217-.1963-1.9826-.3605.7619-.7209 1.5239-1.0813 2.2858-.1068-.1396-.2136-.2792-.3204-.4188.0135-.5726.027-1.1452.0405-1.7178-.5613.2816-1.1226.5633-1.6839.8449-.3303-.5422-.6605-1.0844-.9908-1.6266-.0275.5061-.0551 1.0121-.0826 1.5182-1.7126-.2049-3.4251-.4098-5.1377-.6146-.0036-.0065-.0073-.0129-.0109-.0193-.0475-1.6114-1.2457 1.8775-.718-3.1106-.095.4862-.1899.9723-.2849 1.4584-.1604-.3095-.3208-.619-.4812-.9285.0603-.5768.1206-1.1536.1808-1.7305-.138-.0361-.2761-.0721-.4142-.1082-.0731.7227-.1463 1.4455-.2194 2.1682.1172.4917.2343.9834.3514 1.4751-.3727-.2845-.7454-.5689-1.1181-.8533.0954-.4841.1908-.9681.2862-1.4522-.3918-1.3973-2.3974 4.301-.2904-7.0376.2332.4994.4664.9987.6996 1.4981-.0653-1.0386-.1307-2.0772-.196-3.1158.1105-.8339.2209-1.6679.3313-2.5019.2023.5703.4045 1.1406.6068 1.7108.1742-.5509.3484-1.1018.5227-1.6528-.0596-.3541-.1193-.7082-.1789-1.0624.1897-.4659.3795-.9318.5692-1.3978.5102-.1123 1.0204-.2247 1.5306-.3371.0556.366.1112.7321.1669 1.0981.8448.2424 1.6897.4848 2.5345.7271-.1576.6361-.3151 1.2721-.4726 1.9082.2253.0393.4507.0786.676.1179.1225-.5798.2449-1.1595.3674-1.7393.2396-.1453.4793-.2906.7189-.4359-.1404 1.1418-.2808 2.2836-.4212 3.4254-.2868.7926-.5736 1.5853-.8604 2.3779.1496.3821.2991.7642.4487 1.1463.1038-.8407.2077-1.6813.3115-2.522.2542.0867.5083.1733.7624.26-.0731-.6268-.1461-1.2536-.2192-1.8804.1214-.6881.2429-1.3762.3643-2.0643.3921-.2733.7842-.5467 1.1763-.8201-.0039.5142-.0077 1.0284-.0115 1.5426.3201-.5795.6402-1.1591.9604-1.7386.1033.3578.2067.7156.3101 1.0734.0861-.3174.1723-.6348.2585-.9522.3037.0847.6074.1693.9111.254.1424.5734.2849 1.1469.4274 1.7203.2349-.4805.47-.961.705-1.4416 1.1118.6303 2.2236 1.2605 3.3354 1.8907 1.0356-2.9201 2.4732 1.7611 2.6111-1.1653.977.1861 1.954.3721 2.931.5582.1566.4827.3132.9655.4698 1.4482 1.0107-.2092 2.0214-.4185 3.0322-.6277 1.1535.9992 2.307 1.9984 3.4605 2.9975-.0379-1.0383-.0759-2.0766-.1138-3.1149.3812.0973.7625.1946 1.1437.2919.1712.7493.3424 1.4987.5135 2.2481.2721-.6101.5441-1.2202.8162-1.8303-.1391 5.213 1.1454-.7921 1.9974 1.0189.9015-4.435 1.0523 3.2193 2.0747-1.394-.072.49-.1441.9801-.2162 1.4702.2055.056.411.1121.6165.1681.4791-.5437.9582-1.0875 1.4372-1.6312-.0428.6742-.0857 1.3485-.1285 2.0227.1742.1371.3485.2743.5228.4114-.1482.5531-.2964 1.1062-.4446 1.6593.1462.194.2926.388.4388.582.6366-.6469 1.2732-1.2938 1.9098-1.9408.1056.5377.2111 1.0754.3167 1.613.121-.4921.2421-.9842.3631-1.4763.3071.4423.6142.8845.9213 1.3268.0178-.511.0357-1.022.0535-1.5329-.1512-.0433-.3024-.0866-.4536-.13.0502-.498.1003-.9961.1504-1.4941.5049.1424 1.0098.2848 1.5147.4271-.0129-.344-.0257-.6881-.0385-1.0322.429.1176.8579.2353 1.2869.3529-.0054-.0395-.0137-.0764-.0187-.1179-.0989-.8528.2943-4.0117-.6106-4.008-.7768.0008-1.0313 1.4202-1.7987 2.3849-.2907.3644-.2216-1.1457-.7819-.3473-.5644.7977-1.4454 2.7075-1.3868-1.2495-.1745 1.1749-.283 2.2208-.4336 3.3386-.8656.0509-1.9051-4.539-1.9898-.8958-.8727-.1406-1.7465-.2812-2.6191-.4218-.0321-1.3089-.0638-2.6186-.0952-3.9342.6338-1.1394 1.2876.6669 1.6096-1.727-.732-.3264-1.4726-.6678-2.1978-.9929-.4067 6.4831-3.0517 9.2858-1.8983 2.6339.2133-1.2577-1.4233-.4585-1.7954-.0832-.3712.3765-.7023 2.9648-1.2287 1.1893-.2996-1.005-.3913-2.6036-1.4878-.9823.4943.8286 1.0093 1.819 1.5079 2.7235-.8198-.451-2.0016.2468-2.625-1.2675-.1545-.3775.6677-1.198.3736-1.8123-.2943-.6129-1.7332-.5599-1.6744 2.0094-.1894-5.0397-.4821-.9437-1.8704-1.0634-.1761-.0215-1.1258-4.9551-1.9953-2.5561-.3071.8556-.2017 4.2524-1.1578 2.6225-.7031-1.203.3889-3.8898-.3512-5.6524.0592 3.8566-1.5374 5.7936-2.3604 5.7373-1.4587-.093-1.0185-2.4376-1.382-3.5643-.6569-2.0327-1.6741.9791-1.8691-1.9943.2522-.0287.4959-.2266.7447-.3173-.4852-.4652-.9716-.9129-1.4546-1.3777-.1248 1.5731-.2465 3.1565-.3723 4.7158-.9245.3611-1.1125-1.6047-1.8047-2.1237-.0972-.0726-.0982 1.0542-.204 1.0487-.8503-.0549-1.0626-.6985-1.8895 1.4218.3317-3.9602-1.0056-1.5275-1.7075-3.4324-.1954-.5388-.1406-2.5793-.5224 1.7569-1.5514-1.27-2.8174-1.1477-3.835-4.6888.0854 4.4078-1.8076 4.1381-2.7913 2.7611-.263-.3705-.232-3.4593-.8998-3.0523.0445 1.3252.0932 2.8456.1445 4.2201-1.2919.1896-.641-3.7535-1.7434-3.5151-.4846.109-.6096 4.6475-1.3077 2.4935-.3999-1.2366-.1823-6.7267-.9939-.1201-.7403.2033-.0954-1.8815-.5692-2.2221-.2969-.2095-.8743 2.1961-1.3251 1.806-.8556-.7534-1.6443-5.6758-2.1553-.8178-.6753.2284-.0178-1.7239-.6261-1.5654-.8161.2115-3.0686 3.0627-3.0335-.8486-.0007.0082-.0013.0163-.002.0244-.8475 2.1102-2.8678.9252-2.0382-2.3638 1.0214 1.1222 2.2163-2.3818 1.0986-2.5355-1.8338-.2498-1.3607-1.3647-1.2694-5.9498.0122-.6601-.4632-1.156-.2632-1.9515.1996-.7958 1.394-1.2985.988-3.3043-.0786-.3773-.8059.8436-.7079-1.0578-.1626.3993-.2656.812-.4056 1.2155-.5409-4.31343-.4806-5.71586 1.4254-5.64417-.149.8589-.2994 1.72526-.4507 2.58375.3875-1.00694.7333-1.99437 1.1486-3.00298 2.0102.7325 5.1236-1.85106 6.8157-.13887 1.4769 1.49209-.766 1.42634-.8338 1.57159-.6011 1.59666.0465 2.56058-.0687 3.69378-.1171 1.1328-1.2162 2.5714-.3433 2.262.116-.0493 1.5714-3.1386 1.6669-3.6026.719-3.72627.0197-4.2363 1.8483-4.97783.6527-.26201 2.4837-.3601 3.1817-.4498.7695-.09497 1.215 1.92218 1.6817 1.75808.4668-.1667.1493-1.45618.697-1.60144 1.0824-.28512 2.491 1.13379 3.4615 1.19683 1.1018.06642 1.5789-1.81252 2.6426-1.73228.7372.05606 1.605 1.60436 2.4849 1.08431.1092 1.04863-.5921 4.90023-.0193 4.70243.6985-.2473-.0388-2.70321.3941-3.82572.7319-.5381.101 1.16002.1195 1.21666.2697.78532.8819.32989 1.2616.7612-.2059-.82329-.4109-1.57191-.6343-2.40524 1.0172 1.41012.6755-1.40404 1.6224-1.87909.2477-.11708.5362 2.86337 1.421 2.14047.2106-.17107 2.2892-1.89673 2.899-1.72302.2608.0772.5798 1.45775.6677 1.53827.3174.27324.4326-1.52064.753-1.56613 2.3732-.3334 4.9532 1.00432 7.1809 1.12904 2.1173.11769 3.274.13727 5.4288.29607 1.9984.14968 4.0623-2.56167 1.1471 6.21519 1.4354 1.404 1.2169-1.2945 1.8057-3.42562.3485-1.25713.5943-.04464.7201-.25811.4189-.75561-.1095-1.84023.2152-2.39525 1.307-2.22373 5.1087.82039 6.0102.98797 4.1541.76691 7.4833.4718 11.3209 1.13936 2.444.42413 4.65 1.53454 7.074 1.99595.287 2.9275.584 5.8374.881 8.7532-.326-.2857-.473-.6741-.869-.7405-.397-.06-1.313-.6115-1.668.6808.242 1.3951 1.493 1.8765 1.882 1.928.749.0974.384-1.2746.926-1.5026.542-.2264 1.245 1.6945 1.933 1.1054 1.615-1.3888-1.063-2.8235-1.598-2.6085.423-2.9675 1.364.7141 2.044-1.562-.126-.7337-.747-2.5874-1.081-2.1181-.334.4789-.031 2.3207-.607 1.7192-.272-1.7028-.584-3.5001-.852-5.2226.652-.3292 1.503.7632 2.055.7971 6.146.3628 11.967 1.9811 18.005 3.3967.555.1297 1.651.4068 2.117.9983.362.4643-.044 2.4786.439 1.9968.057-.0694.058-1.428.637-1.5942 1.088-.3183 3.321.1097 4.441.3847 9.466 2.2901 18.828 4.1804 28.034 8.3967-.067-.3915-.134-.783-.2-1.1744.342-.8411.685-1.6821 1.028-2.5231.92-.2067 1.84-.4133 2.76-.6199.1.6618.201 1.3235.301 1.9853 1.524.4361 3.048.8722 4.572 1.3084-.283 1.1481-.567 2.2962-.851 3.4444.406.0667.813.1335 1.219.2002.221-1.0411.442-2.0822.662-3.1234.432-.2619.864-.5238 1.295-.7856-.253 2.0552-.505 4.1104-.758 6.1656-.335.9213-.669 1.8427-1.004 2.764.004.02.008.044.013.0623.081.2564 1.315-2.5422 1.451-1.3483.022.1977.034.3862.041.5547.231.0806.462.1612.693.2418-.131-1.1298-.262-2.2596-.393-3.3895.218-1.2394.436-2.4787.655-3.7181.707-.4878 1.415-.9756 2.123-1.4635-.007.9182-.015 1.8363-.022 2.7545.577-1.0399 1.153-2.0797 1.73-3.1196.188.6446.375 1.2892.563 1.9338.154-.569.309-1.1379.463-1.7069.547.1521 1.095.3042 1.643.4563.258 1.0282.515 2.0564.773 3.0846.424-.8628.848-1.7256 1.271-2.5885 2.006 1.1381 4.012 2.2761 6.018 3.4142 1.867-5.2593 4.459 3.1693 4.706-2.1043l5.292 1.0011c.283.8711.566 1.7421.849 2.6131 1.82-.376 3.641-.7521 5.462-1.1282 2.082 1.7937 4.164 3.5873 6.246 5.381-.068-1.8657-.136-3.7314-.204-5.5971.686.174 1.373.348 2.06.522.31 1.351.619 2.702.928 4.053.492-1.098.983-2.1961 1.474-3.2942-.25 9.3859 2.064-1.4325 3.601 1.8272 1.608-7.8959 1.891 5.5266 3.683-2.2514-.013-.0991-.026-.2096-.039-.3218.076-.5008.139-1.0207.218-1.513.146.4595.327.7787.49 1.1436-.324 2.0473-.499 1.932-.657.7657-.115.7743-.23 1.5487-.345 2.3231.371.1006.743.2011 1.114.3017.864-.979 1.728-1.958 2.592-2.9371-.077 1.2145-.154 2.429-.231 3.6435.206.1602.412.3204.617.4805.023-.4275.066-.84.136-1.1523 1.097-.6538.888 3.446.059 3.4165-.09-.0051-.156-.3419-.189-.8182-.16.597-.321 1.1941-.481 1.7911.264.3529.528.7058.792 1.0587 1.048-1.0657 2.096-2.1313 3.144-3.197.025-.7932.061-1.6.153-2.3699.45-.7965 1.621-.9073 2.571-.8684.004-.0344.009-.0688.013-.1031.165.0465.331.0931.497.1397.432.0404.758.0875.847.0833.174-.0098.297.0977.382.2586.301.0825.603.1649.904.2474.031-.0432.063-.0792.095-.1084-.022-.5695-.045-1.139-.067-1.7085.775.212 1.549.424 2.324.636.417-.957.64-2.6978.111-2.7347-1.363-.0931-.968-1.4722-.728-6.9274.034-.7846-.302-1.3164-.123-2.2827.179-.9674 1.093-1.6943.863-4.0314-.044-.44-.635 1.092-.491-1.1743-.136.4912-.227.9901-.347 1.4837-.244-5.06169-.147-6.73036 1.279-6.85698-.144 1.03578-.288 2.08258-.433 3.11808.327-1.2374.622-2.44913.97-3.69163 1.478.64571 3.909-2.77376 5.112-.93104 1.051 1.60874-.632 1.78367-.684 1.96387-.509 1.95869-.062 3.027-.189 4.382-.129 1.3574-1.008 3.1957-.344 2.7336.088-.0663 1.303-3.9262 1.386-4.4715.677-4.4995.173-5.02664 1.57-6.10977.499-.38347 1.874-.69884 2.4-.88287.58-.19893.839 2.14856 1.195 1.90098.355-.25038.166-1.74545.582-1.9786.821-.45765 1.823 1.06743 2.548 1.03448.822-.04456 1.25-2.33424 2.043-2.35832.55-.01721 1.142 1.73015 1.821 1.01634.042 1.23192-.627 5.88236-.19 5.58246.533-.37067.072-3.20024.438-4.58161.564-.71496.042 1.33261.044 1.43087.173.9008.649.28883.917.75681-.123-.9531-.248-1.81915-.384-2.78244.709 1.56035.557-1.73406 1.284-2.4036.19-.16935.295 3.33031.985 2.37344.167-.23054 1.786-2.49899 2.236-2.36051.193.06481.38 1.66736.443 1.75215.227.28599.38-1.8469.621-1.93852 1.791-.659602 3.675.63345 5.34.53355 1.581-.0956 2.446-.19698 4.054-.24797 1.491-.04461 3.139-3.49332.626 7.24954 1.023 1.50609.959-1.67822 1.48-4.27368.309-1.52934.448-.10885.551-.38262.341-.94343-.013-2.16903.25-2.86388zm-145.708 72.07927c.706-2.3257.286-3.1911 1.2-.9958-1.257 2.4063.134 3.8973-.039 6.0483-.099 1.2152-.555.4817-.762 1.106-.319.9647-.102 2.5621-.436 3.173-.334.6092-1.226-.611-1.549-.5709-.62.0832-1.207.8468-1.725.9211-.517.0736-1.235-.9776-1.557-1.0922-.32-.1137-.658.1263-.723.2578-.377.7687-.303 2.5079-.754 2.5583.085-1.7013-.353-4.3892.372-5.4262-.091-.0464-.187-.366-.281-.3238-.444.2143-.365 2.5577-.594 2.9699-.386.6853-.033-1.1277-.029-1.2336-.243-1.3914-.183.23-.379.9605-.104.3738-.806 1.1959-.942 1.1583-.133-.0435.102-.9679.013-1.0095-.381-.1842-.771-.4116-1.178-.1969-.408.2215-.736 1.8274-.576-.4832.026-.3651.272-.718.258-1.5586 0-.0041 0-.0081.001-.0122-.006-.2716-.24-1.5674.258-2.3733.14-.227.283-.3471.425-.3869-.071.3132-.141.6293-.213.9437.106.0132.212.0291.318.0451-.115.8144-.237 1.6696-.331 2.4529.081.8593.308-.2705.334-.2782.347.3229.199 1.994.584.0183-.229-.2896-.453-.6195-.671-.9567.033-.4096.066-.8245.098-1.2351.048.0072.096.0169.144.0243-.004-.3328-.01-.6677-.014-.9996.341.1181.672.6313.952 1.213-.141.4683-.3.9996-.442 1.5004.455-.4097.141.6116.403 1.1608.213-1.9746.349-1.5201.592-1.3898.242.1276.014-1.3212.281-1.5077.546-.3722 1.274 1.929 1.602-.9314.545 1.7415-.286 2.0164-.38 2.7183-.396 2.9999 1.063 1.6927 1.383.0425.125.9563.035 2.2996.573 1.9223.73-.5165-.665-2.092.299-2.3943.645-.2002.459 1.2243.749 1.5512.54.5999 1.625-.1631 1.397-2.1552-.092-.7993-.606.2527-.72-.5749-.062-.4621.432-4.5735-.325-1.381-.074.318.111 1.8104-.33 1.8651-.127.0143-.454-1.3213-.838-.9095-.169.18-.955 2.0716-1.304 1.3975-.377-.7112.301-1.1179.186-1.7608-.119-.6434-.655-.5699-.544-1.926.39-1.5404.264.8315.365.7289.394-.4521.256-2.7725.763-2.5147-.006 1.2592-.706 4.6405.123 3.7528.006-.063-.12-.843.147-1.127.466-.4947 1.317-.8221 1.845-.7946.09-1.8724-.571-1.7168-.815-2.9962.739-.3491 1.577-.9557 1.979.8092-.287.2658-.577.5377-.864.8034.324-.1007.648-.1979.97-.2984-.171.7947-1.017 2.7994-.541 3.2193.176-2.0364.906-2.4228 1.242-3.528zm2.963 10.4896c-.48 1.5203-.993 1.1638-1.559 1.1249.234-1.6351 1.105-.847 1.559-1.1249zm-14.483-5.3491c-.203-2.6638 1.266-2.4519 1.838-2.106-.138-.0076-.279-.0077-.417-.0105.024.5662.043 1.1361.068 1.7023-.158.078-.315.1519-.473.2299.141.581.257 1.2397.39 1.8212-.554 2.5244-.48.9386-1.029.5997-.352-.2129-.548.6431-1.007.7364-2.146.4389-4.406 1.7255-6.563 1.4463.133-2.0954.216-2.6182.637-2.9234-.056.6231-.107 1.2564-.161 1.8791.279-.2371.557-.5191.834-.812-.221-.3461-.439-.7045-.653-1.0776.127-.0875.285-.1648.481-.2537.144-.0686.233-.917.418-.8347.395.179.764 2.6914 1.255 1.9918.284-.4066.083-2.7291.661-2.1129-.476 1.7338-.828 3.2395.169 2.4826-.456-1.4576-.058-.8933.194-1.6927.159-.5112-.664-.2667-.079-1.2745.124-.2049 1.812-1.2989 1.655.1388-.344 3.1084-.404 2.7669.759.9335-1.247-1.142.097-3.2878.63-2.4462.272.4321-.335 1.9165.393 1.5826zm-8.099 2.7507c.399.1018.596-1.3196.837-.383.018.1127-.343 1.5551-.544 1.6327-.201.0719-1.42-.4734-1.446-.697-.212-2.4798 1.013-.5937 1.153-.5527zm-1.264-.1243c-.502.0824-1.004.1588-1.506.2412.001-.002.001-.004.002-.006.04-.3137.081-.6253.122-.9391.46.2337.922.4702 1.382.7039zm25.969-.713c-.283 2.0998.182 2.3501.371 2.3035.678-.1665.947 1.5992 1.375-.4849-.307-1.2217-.687.2098-.871.0616-.402-.3385-.293-2.0622-.875-1.8802zm2.513.517c.144.4233-.013 1.5057.207 1.7875.22.2857.891.6746 1.179.2705.288-.4063.358-2.011.61-2.6256-.672.1615-1.32.3638-1.996.5676zm3.819-.6658c-.364-.1324-.962 2.0589-.082 1.6407.038-.017.444-1.4299.636-.553.121.6052-.042 1.1597.127 1.8543.168.6899.91-2.3557-.681-2.942zm8.305 1.5724c-.178.0195-.459 1.0354-.386 1.2111.585 1.306 1.214-1.3042.386-1.2111zm-37.779-1.8516c-.007.0045-.014.0059-.02.0105.001-.0109.002-.0256.003-.0365.005.0095.012.0167.017.026zm36.094 1.4714c.361-.4021.723-.8055 1.084-1.2076-.18-.3542-.359-.7137-.537-1.068-.181.7569-.366 1.5235-.547 2.2756zm-.225-4.3187c-.143 1.3465-.19 2.5458.154 3.3633.175-1.3214.024-2.3224-.154-3.3633zm5.008 3.2253c.378 1.2088 1.052-4.0046.193-1.6682-.082.2286-.22 1.573-.193 1.6682zm-31.699-2.5238c-.005-.0008-.01-.0006-.014-.0012.011-.0817.023-.1674.035-.2482-.007.0814-.015.1678-.021.2494zm180.855 10.9911c-.152-2.0944-.934 3.0875-.896 3.4346.192 1.6456 1.003-1.9358.896-3.4346zm-158.539-14.8036c-.965-1.9758-1.44 2.0795-1.55 2.4855-.572 2.1072-.448-1.4365-.547-1.424-.474.114-.176 3.9043-.117 3.9775.943 1.0215.889-1.9615 1.056-2.882.367-1.9901.947-.421 1.158-2.157zm-22.186 2.8372c-.082-.0284-.164-.0434-.247-.0207.016-.0666.033-.1374.048-.2042-.145-.175-.29-.3455-.435-.5204.206-.2034.413-.4139.618-.6219.006.4541.01.9144.016 1.3672zm43.768 1.8089c-.507-2.6538-3.072.3795-1.583 1.325.257.1609.181-.6914.35-.7241.001.0021.001.0042.002.0063.17-.0264 1.607 1.3729 1.231-.6072zm-30.013-2.5234c.107 1.3293.482.8638.907.6334-.008-.4754-.017-.9538-.025-1.4292-.293.2616-.589.5343-.882.7958zm172.224 12.1415c-.388.4852-.917-.6393-1.121 2.1417.259.3286.518.6676.777.9962.115-1.044.229-2.0939.344-3.1379zm4.034-4.6291c-.398.8934-.18 2.5472-.41 3.8184-.231 1.2682-1.229.6323-.781 3.8607.142.9879 1.602-1.6597 1.826.4899.715-6.2102-.355-1.8303-.644-4.4456-.085-.7876.581-3.7325.009-3.7234zm-143.971-4.4492c.345-.2519.693-.5077 1.039-.7642-.316-.054-.634-.1007-.949-.1593-.03.3083-.061.6151-.09.9235zm41.469 2.9329c-.07.1228-.139.2456-.209.3683-.187.002-.365.0071-.529-.0014-.038-.385-.076-.77-.114-1.155.284.2627.568.5254.852.7881zm-34.555-5.3359c-.489-.8493-1.386 1.1319-1.061 2.3058.391 1.3995 1.855-.9172 1.061-2.3058zm-3.407 2.0295c1.171.5694 2.275-2.6369.626-1.6687-.091.0567-.337 1.6664-.626 1.6687zm41.075 2.906c-.32-1.6452 1.756-3.8918 2.237-3.1077-.245 1.0391-.489 2.0783-.733 3.1174-.074.056-.16.1654-.25.2915-.201.0272-.546.0791-.974.1388-.14-.2272-.268-.455-.277-.5072-.001.0224-.002.0448-.003.0672zm112.934 8.6695c-.647-5.8992-1.374-.3811-.742.9729.077.1663.666.1945.742-.9729zm-178.034-17.4003c.014-.613.667-3.9998-.21-1.3529-.302.9164-.324 1.8326-.998 1.9988.636-.3081.355 2.2357.408 2.423.429 1.5118 1.236-1.5325 1.228-2.8493-.005-.374-.44.3878-.428-.2196zm-27.2 1.0814c-.325-.0343-.654-.0587-.98-.0883.069-.4483.136-.908.205-1.361.261.4723.529.9252.775 1.4493zm201.416 6.4864c-.214 1.7989.13 8.8371.221 9.3164.599 3.0122 1.402-1.1537 2.031.9237.155-4.657-.677-1.6821-.968-3.9706-.088-.702.768-4.593.121-5.8026-.001-.0021-.001-.0041-.002-.0062-.208-.3857-1.173.8142-1.403-.4607zm-106.143-1.6931c-.194-.6385.538-3.6452.844-1.1848.008.1177-.018.3084-.042.4864-.023.1654-.044.3261-.036.4074.032.1896.221.4382.442.7353.451.6072 1.038 1.4071.73 2.2357-.326.0444-.653.0824-.982.1259-.053-.2771-.089-.6175-.123-.9597-.046-.4618-.093-.9244-.185-1.2283-.168-.5349-.432-.5673-.572-.5809-.054-.0052-.089-.0093-.095-.0386.006.0005.013.0011.019.0016zm117.558-3.1684c-.053-.8386-.677-.9781-.788-.2498-.104.6928-.063 1.3068-.028 1.8719.069.0928.138.1883.207.2807-.065.0048-.13.0098-.194.0144.032.6113.027 1.1673-.219 1.715-.565-.1454-1.142-.3116-1.713-.456-.041 1.3294-.084 2.6655-.127 3.9951.152-.4686.306-.9488.458-1.4254.085.4082.169.8214.253 1.2217-.953 7.4486-1.324-.619-2.511 2.8764.129-1.5492.255-3.1612.386-4.6716-1.419-1.7471-.512.172-.718 3.9884-.119 2.1881-.482.2356-.603.5864-.835 2.5265.517 5.6753 1.029 5.5745.511-.0988 1.451-2.9272 2.022-3.0461.339-.0636.253 1.5445.594 1.4831.509-.088 1.389.0608 1.915-1.0277.191-.3972.286-3.3608.27-3.7014-.046-.7898-.389.7509-.496.4974-.105-.2572.081-1.4959-.075-1.6111-.16-.1093-1.086.5366-1.164.7722-.453 1.4392-.05 2.9783-.494 2.7638.26-10.1704 1.276-3.9999 1.54-4.5994.598-1.3905.579-2.1939.443-2.7987-.285-.3469-.56-.7631-.56-.9658.018-2.1018.237-2.3314.471-2.0124.068-.3957.127-.774.108-1.0812-.002.0019-.004.0038-.006.0056zm17.384 11.4481c.968-.1421.052 4.265-.114 4.3208-.692.2082-.796-4.8652-1.585 1.0248-.434.2762.179-2.094-.049-2.3746-.453-.5466-1.241 2.4877-1.725 2.0543.068-1.3019.065-2.7059.208-4.0252.649-1.3915 3.022-.9666 3.265-1.0001zm-211.116-12.2368c.482-.5429.964-1.0863 1.446-1.6244-.656.2535-.903.4643-1.172-1.1763-.09.9312-.183 1.8696-.274 2.8007zm26.166.553c-.045-.1979-1.236.1488-1.316 1.1698.184.3204 1.593.3467 1.316-1.1698zm178.801 13.0301c.915-.7176.707 3.3428.019 3.3704-.195.0011-.233-2.275-.019-3.3704zm-66.908-6.267c-.103-.0593-1.548-.0321-1.624 2.516.744.3952 1.542.7687 2.306 1.1366.019-.7961-.13-1.6647-.215-1.9964-.208-.841-.085-1.4446-.467-1.6562zm68.987 4.9774c.185.5245-.095 2.42.435 1.5188-.014.1928-.028.3856-.042.5784-.146 1.3208-.593 2.2811-.776 2.1889-.006-.0212.139-1.2136.091-1.2602-.364-.2409-1.053.8607-.75-2.4701.195 1.9863.855-1.075 1.042-.5558zm-203.605-16.3415c-.484-.0905-.924 1.8297-.932 3.1008.345-.2566.693-.5139 1.038-.7705-.035-.776-.071-1.5543-.106-2.3303zm126.255 11.1894c.122.2916.246.5722.367.8638-.108.2482-.218.4902-.326.7383.099.288.202.5764.301.8644.241-1.2837.482-2.5693.725-3.8532-.355.4588-.712.928-1.067 1.3867zm57.22-7.4389c-.251-1.7504-.577 3.8743-.405 4.4435.173.5626.702-.6995.699 1.5655-.385 1.076-.602-.3695-1.03.2933-.506.7889-.257 3.5635-.078 2.8233.359-1.493.279-3.6845.694-1.7794.353 1.6275-.57 6.4604-.184 6.7773.491.3914.538-2.6435.503-4.5026.361-.4775.717-.8854 1.076-1.3308-.962-.0156-.774-3.6527-.582-8.2319-.364-.5397-.245 2.6314-.633 2.1886-.136-.1589-.04-2.0879-.06-2.2468zm-16.854 9.9914c-.784.0312-1.072 3.5687-.269 1.9008.172-.356.226-1.1149.269-1.9008zm-168.365-12.2283c.263.0489.526.1031.789.152.03-.3092.062-.625.091-.9296-.263-.0488-.526-.0968-.788-.1457-.03.3082-.062.6152-.092.9233zm-5.267-.5213c.378-.2532.903.7779 1.04-.7458-.301-.2187-.602-.4375-.903-.6515-.046.4616-.092.9312-.137 1.3973zm28.795 2.3661c.068.0823.136.0749.2.0289-.067-.0137-.134-.0275-.201-.0413.001.0041.001.0083.001.0124zm-30.219-2.6326c.292-.2614.587-.5162.879-.7776-.248-.2041-.496-.4155-.743-.6197-.046.4641-.09.9332-.136 1.3973zm90.457 4.5058c.132-.3474.51.0889.861.4949.231.2671.45.5243.58.5325-.933 5.1465-1.548-.7592-1.441-1.0274zm48.255-2.1637c-1.793-.8575-1.776 8.9584-.267 8.7611.278-2.0888-.197-.8689-.127-2.0197.073-1.1472.386.1995.373-1.9288-.609-.6728-.459 1.7734-.978 2.2026.192-1.232.211-3.5371.362-4.5757.283-1.9349.533-.0532.637-2.4395zm64.226 7.0344c.003.0146.008.0283.011.0438.193 1.0344-.218 6.554-.181 6.7347.478 1.4999 1.205-3.5265 1.002-5.5204-.119-1.1622-.759 2.1931-.475-1.2955.387.7394.588.2932.696-.3765-.349.1369-.702.2805-1.053.4139zm13.88 8.0243c.345-2.7458 1.021-1.2047 1.433-1.5826-.545 2.4996-.952 1.7711-1.433 1.5826zm-205.08-17.09c.623.0008.575-1.0972.73-1.7335-.141-.0392-.282-.0756-.421-.1149-.103.615-.207 1.2324-.309 1.8484zm221.01 15.6881c-.154-.0027-.486 1.6805-.436 1.9908.384 2.3596 1.152-1.9719.436-1.9908zm-32.089-4.9393c-.583 1.3766-1.376-.4899-1.635 3.5196.623 2.4694.418 1.0336.951-1.0105.361-1.3752.565 1.1385.684-2.5091zm-59.629-.7502c.225.1624.449.327.673.4974-.02-.7912-.041-1.5966-.06-2.3877-.203.6283-.41 1.2619-.613 1.8903zm-51.534-8.5915c.285-2.1119 1.913.0124 1.569.9279-.688-.4631-.709.2319-.733 1.0961-.012.4098-.024.8604-.109 1.2404-.468 1.9931-.963-1.5107-.727-3.2644zm-81.856-4.0661c.154.3375.309.681.461 1.0187.107-.4355.215-.8739.322-1.3083-.163-.0531-.326-.1041-.487-.1572-.098.1478-.197.2994-.296.4468zm197.18 12.2868c.303 4.3519.177 7.1918.522 3.6024-.105-.3821-.136-.8738-.032-1.2889.049.0186.098.045.147.0674.054-.6004.119-1.3088.192-2.1276-.276-.0817-.552-.1715-.829-.2533zm20.972 1.5752c-.3-.2998-1.003 3.3071-.214 2.7812.037-.037.505-2.3391.591-.8079.051 1.0629-.137 1.9788-.054 3.205.082 1.2203.984-3.8316-.323-5.1783zm-1.566-.2232c-.588.1311-1.161.3361-1.757.5387.086.7554-.144 2.5766.018 3.1069.164.5364.705 1.3326.987.7014.281-.6372.482-3.3514.752-4.347zm-127.04-17.1966c.296-.2359.955-.7547.732.3615-.092.4231-.246.3244-.382.2314-.16-.1101-.299-.2065-.292.6064.429 1.7289.953 1.4148 1.667.9789.022-.0145.043-.0291.064-.0436.009-.0264-.003-.1512-.022-.3326-.047-.4671-.132-1.3094.009-1.8307.035.0917.068.1696.096.2224.256.5021.128.8523.569.9849.028.0084.133.0099.279-.0011.033.1663.074.3095.13.4091.084.152.202.2218.326.2906.2.1114.415.2259.521.7298-.168.8729-.554.273-.869-.226-.195-.3085-.362-.5744-.436-.4225-.017.0337-.074.3641-.144.7842-.113.6735-.263 1.5786-.356 1.8567.033.0671.124.0117.224-.0547.2-.1325.44-.291.345.4699-.005.0323-.009.0646-.014.0969-.004.0384-.009.0768-.013.1152-.001.004-.002.008-.003.012-.147 1.1873-.387 3.1339-.811 3.1538-.038.0113-.052-.1444-.067-.3241-.018-.2095-.04-.4499-.106-.4928-.097-.0457-.215.0192-.334.0884-.156.0907-.315.1881-.429.0253-.035-.0417-.06-.2438-.086-.4606-.034-.2773-.073-.5838-.14-.6303-.052-.0266-.151.1699-.271.4122-.212.429-.492.9918-.696.6827-.141-.197-.222-2.4829.112-2.8755.204-.2482.217.071.228.3499.006.1492.014.284.048.3164.079.063.185.0141.288-.0432.243-.1349.478-.2663.352 1.1932.225.0462.336-1.5528.302-1.8918-.088-1.0197-1.91-2.7357-2.148-2.085-.007.0283-.002.0906.004.1841.028.3768.093 1.275-.403 2.6612-.381 1.044-.73.9243-.891.8685-.048-.0165-.079-.0236-.09.0047-.013.0419-.012.2845-.007.6181.018 1.3429.056 4.188-.837 1.7183-.147.1803-.159.6025-.168.9598-.007.2518-.013.4763-.065.5642-.149.2731-.698.5543-.747.4028.007-.4302.014-.8604.021-1.2906.01-.03.071-.0665.156-.1216.284-.1827.854-.555.901-1.4129-.688.5527-.886.0309-1.298-1.0644-.023-.0478-.051-.1891-.082-.3498-.104-.5393-.259-1.3327-.49.112-.049.3125.036.4631.13.6234.126.2137.267.4543.127 1.156-.348-.0595-.578.417-.853.982-.017.0353-.034.0706-.051.1059-.054-.3953.055-.7232.152-1.004.065-.1914.127-.3663.123-.5287-.002-.1271-.383-1.5553-.406-1.6204-.084-.1132-.309-.1271-.533-.1366-.151-.0063-.304-.0084-.411-.0467-.115-.0317-.247-.2281-.355-.385-.083-.1201-.151-.2205-.188-.2118-.074.0221-.163.2054-.256.389-.113.2257-.233.4622-.334.4313-.05-.0208-.098-.1919-.148-.4045.055-.1648.115-.3363.179-.5178.092-.2613.177-.5173.258-.7623.149-.4437.291-.8675.452-1.2729.008.1598.023.316.044.4569-.002 1.2026.432 1.421 1.129 1.1727.163-.0487.204-.3438.237-.5987.022-.1617.042-.3121.091-.3722.265-.2688.582-.3504.906-.4324.366-.0926.744-.187 1.067-.5598.036-.5467-.141-.4185-.279-.3173-.069.0503-.13.0872-.15.0364-.057-.1673.013-1.801.285-2.1138.505-.5379.58.3553.651 1.2061.034.4175.069.8243.153 1.048.551 1.4014 1.555.4655 1.291-2.0661.485.9874.522.7275.579.3181.025-.1768.054-.3793.125-.5225.575-1.2261.671-1.0773.834-.8059.078.131.174.2924.346.3353.019-.0062.066-.0443.128-.0934zm123.184 16.3158c-.429 3.5369-.052 4.0561.113 4.0153.594-.1355.667 2.9362 1.217-.541-.153-2.1519-.604.2096-.749-.0751-.314-.6625-.068-3.5826-.581-3.3992zm-13.506 2.6587c-.098.3257-.311-.3171-.749-.3753.089.0596.177.1273.266.1878-.119.6812-.269 1.0497-.422 1.2018.427.0797.717-.0615.868-.7234.012-.0969.025-.1948.037-.2909.022-.0748.045-.1939.056-.3874-.001-.0041-.002-.0083-.003-.0124-.018.1302-.036.2667-.053.3998zm-73.245-7.9746c.011.9259.025 1.858.036 2.7839.197-1.2879.395-2.5829.591-3.8706-.208.3607-.419.726-.627 1.0867zm-45.443-2.8252c.154.2815.3.7179.242 1.1657-.225-.2095-.461.1175-.686.5734.004-.0161.007-.0321.011-.0481.004-.018.008-.0361.012-.0541.004-.016.009-.032.013-.048.123-.5036.269-1.0698.408-1.5889zm-1.693-1.1587c.076-.0035.134.0662.18.1865-.04.1564-.079.3118-.116.462-.162.6596-.272 1.2328-.37 1.7942-.159-.0312-.316-.0772-.391-.1492.039-1.0558.265-2.2809.697-2.2935zm225.346 18.6856c-.046.8891-.092 1.7821-.138 2.6712.058-.7309.174-1.7152.283-2.6897-.048.0072-.096.0124-.145.0185zm-57.714-7.1008c-.343-1.5636-1.283 1.6196-1.111 3.6983.21 2.4801 1.664-1.1518 1.111-3.6983zm-80.844-2.5235c-.153-2.968-1.213-3.7369-.654-.5938.142.7896.442.4545.654.5938zm58.071 4.8093c.344-.6104.692-1.2199 1.036-1.8303-.123-.6446-.247-1.2852-.369-1.9297-.221 1.255-.446 2.513-.667 3.76zm14.757-1.0899c-.198-4.6469-2.658-.0155-1.469 1.9226.205.3245.215-1.1356.362-1.1579v.0123c.149-.0073 1.252 2.6875 1.107-.777zm-10.573.2586c.217 2.1373 1.252-6.6232.313-2.8158-.091.3755-.327 2.6364-.313 2.8158zm15.491 1.2748c.951 1.2563 2.186-4.0279.687-2.7232-.085.0941-.441 2.8312-.687 2.7232zm-3.023-.1188c.317-.3562.637-.7134.955-1.0776-.265-.1604-.533-.3211-.797-.4894-.053.5233-.106 1.0436-.158 1.567zm-158.946-13.7413c-.202.1575-.453.1615-.679-.0018.042-.149.083-.2865.119-.4127.049-.1698.1-.3451.152-.514.136.3095.272.619.408.9285zm119.728 10.0294c0 .0756.007.1332.025.1491.003.0018.009-.0104.013-.0111-.012-.0472-.026-.0932-.038-.138zm-.243-2.0233c-.223.6131-.028 1.0264.243 2.0233-.003-.4079.185-1.5008.125-1.5759-.121-.1551-.244-.3177-.368-.4474zm2.174-2.2432c-.104.0185-.208.0522-.304.1338-.135 1.2347-.239 2.6795-.37 3.0499-.05.1385-.086.2158-.111.2357.092.5289.263.8508.463.8657.055-1.5769.125-3.1464.322-4.2851zm20.826.2277c-.242 2.2723-.386 4.3018-.165 5.7744.267-2.2218.224-3.9559.165-5.7744zm-21.534.8093c-.156.7959-.178 1.5303-.116 2.1035.027-.6041.231-1.9834.235-2.0751-.006-.1608-.013-.301-.019-.4181-.037.1095-.071.2414-.1.3897zm2.816-.5723c-.114.0977-.228.4098-.301.9916-.135 1.0954.02 1.562.201 1.6767.365-.4672.153-1.6912.1-2.6683zm-1.349-.6093c-.091.0954-.211.126-.341.1306-.15 1.4993-.093 2.2468.062 2.4737.115-.6586.214-1.5193.279-2.6043zm-317.624-43.2752c.3447.2035 1.1534-1.5687 1.1708.0124-.4206.4938-.0639 3.4572.3754 2.6592.406-.6357.4126-1.3639.2014-2.2739 1.2015.1473 2.6979-.9663 3.5071.8025-.21.2902-.2984.9438-.3894 1.6395-.001.0122-.002.0243-.003.0365.3755.1035.4854 1.2794.9754.872.0169-1.0002-.0817-1.5583-.1869-2.0738.9302.5607 2.4592-1.3866 2.9238 1.1334-.7454-.1174-1.2875-.3678-1.3815 2.9896.3317-.1754.6591-.4079.9828-.5791.3099 2.0608-.7466 3.3731-.2159 3.7243.6042-.8577.5732.928 1.17.043.2173-2.2802.253-4.3492.0283-7.2375 1.764-.3608 3.5623-.8531 5.269-.973-.6908 1.6275-1.2597.6926-1.5683.9159-.2749.2119-.3352 1.4369-.5889 1.782.0438-.092-.5688-1.2819-.5843.343.1903.6198.3826 1.2395.5811 1.825.7192.3703.5635-2.1013 1.1767-2.1247.1838 1.5269 1.7289 2.3324 1.5631-.9163-.3466.0649-.9846 1.3289-.776-.9716.6249-.5388.8179.7651 1.5569-.2247.1847 1.2262-.5892 2.7519-.0089 2.8965.2594-.1705.1863-1.3858.4-1.6815.1192 4.2337 1.3167 3.9032 2.3179 4.3962-.6569 1.3714-1.5708 4.8885-2.1549 3.4576.0494 1.3845-.2671 1.5886-.4004 2.4103-.4717-.8914-2.0263 1.0983-1.5588-.4982.1622-.5359.6124.0274.5918-1.0713-.5372-1.4858-2.0487 3.1606-.7935 3.3697-.3238.1711-.6496.4025-.9734.5737-.1762-2.9722.5639-3.1283.6089-5.4064-.2063-.7011-.9006.2993-1.1782 1.4386.9598-.1464.0542.3905.3777 2.6532-.8965-.7567-1.583 2.0097-2.3407.6673.6166-.4476 1.2049-2.9211 1.7774-5.388-.3949-.6908-1.4199 1.5001-1.5758 3.8369-.4557.0289-.8301-1.0281-.9774 1.3023.2253.2415.4349.5235.5787 1.1082-1.8792 2.647-3.6388 1.5293-6.4497 3.8263-.3411-.4516-.5626-1.4113-.969-1.5881-.6989 1.7173-1.453-.0463-1.7489-.4039-.2946-.3845-.8327.0747-.9735-.149-.8739-1.4943-1.0434-5.6762-1.5281-8.489-.0048-.0065-.0096-.013-.0144-.0196.5867-2.2663.6875-6.1448 1.2056-8.6455zm320.15 45.6983c.362.3088 1.674-4.7303.437-2.2725.028-.7164.056-1.4279.084-2.143-.004-.0202-.009-.0443-.012-.0684-.169 1.4917-.338 2.9925-.509 4.4839zm.618-.5117c.008-.0191.016-.0394.023-.0593-.012-.0133-.027-.0217-.039-.0401.005.0327.012.067.016.0994zm4.066-3.426c-.217-.3607-.44-1.1221-.748-.026.008 1.2104.018 2.4348.027 3.6529.225-.9628.429-1.5503.627-1.8707.03-.5259.063-1.1122.094-1.7562zm-153.569-10.7117c.236 1.7569 1.463 2.228.759.3577-.179-.4686-.515-.2713-.759-.3577zm160.724 10.1665c-.104 1.9038-.124 4.2242-.098 4.2977.611 1.6654.858-1.8143 1.057-3.8253-.125.0459-.247.0717-.362.0554-.005.0301-.011.0603-.016.0905-.213.9196-.27.5324-.274-.2312-.054-.0435-.109-.0876-.159-.1542-.059-.0787-.107-.1588-.148-.2329zm-22.819 1.7182c-.161.096-.32.1321-.466.1142-.043.7572.087 1.0467.524.5339-.025-.2461-.043-.4627-.058-.6481zm-7.905-1.0427c.042.4083.083.8212.126 1.2295.202-1.2731.405-2.5589.609-3.8323-.091-.0222-.185-.048-.274-.0781-.153.8928-.308 1.7882-.461 2.6809zm11.369 1.6518c-.155-.2434-.302.0759-.466.4264.185-.001.383-.0756.565-.2037-.029-.0841-.061-.1624-.099-.2227zm-96.649-8.0816c.23-.2092.463-.4124.693-.6217-.032-.5481-.067-1.1017-.099-1.6498-.199.7565-.398 1.5151-.594 2.2715zm136.402 9.0331c-.017-.3519-1.069-.0211-1.229 1.7099.127.5883 1.331.9438 1.229-1.7099zm10.689-4.4323c-.062 1.5839-.454 6.2009-.263 6.8502.305 1.013.853-.9962.82-3.2448-.009-.6749-.648-2.0011-.557-3.6054zm-60.025 1.4276c.059-.4025.268-.3539.325-.5975-.072-.0977-.145-.1967-.218-.294-.035.2969-.072.5968-.107.8915zm-145.258-12.6179c.187.0214.365.0468.536.0633-.072-.0424-.151-.0676-.253-.0579-.073.0082-.173-.0058-.283-.0054zm1.853-3.0296c-.102.4886.041 1.3531-.326 1.0875-.054-.2624-.111-.5311-.169-.7982-.262.1928-.539.4172-.803.5512.107.7574.215 1.5238.323 2.2812.874.0732 1.499.0821 1.958.0172-.147-.6067-1.244-.8201-1.516-.6417.232-2.106.983.2301 1.415-1.4494-.061-.2723-.244-.7594-.431-1.059-.087-.0069-.174-.0204-.261-.0219-.061-.0011-.125.0105-.19.0331zm-4.718.8293c-.509.2567-1.02.4534-1.532.5943.094.0873.183.2253.253.4744.026.0949-.004.2883-.051.5348.096.0156.191.0333.284.0483.448.0721.871.1315 1.268.1921-.069-.6931-.152-1.3629-.222-1.8439zm-96.7144-6.3475c.1569-.3298.3138-.6597.4707-.9895-.1059-.1151-.2118-.2301-.3176-.3452-.051.4449-.1021.8898-.1531 1.3347zm110.9524 8.9994c.895-.0027 1.15-2.0878.267-1.1168-.188.2065-.234.6537-.267 1.1168zm-19.497-1.7577c-.001.0081-.001.0163-.002.0244.186.0338.372.0627.555.0955.003-.0266.007-.0587.01-.0849-.187-.0056-.375-.0234-.563-.035zm220.921 16.2258c-.211-1.301-.819.0697-.71 1.6678.11 1.5961.969-.0479.71-1.6678zm-61.341-11.821c-.193.8278-.816 4.1568-.911 5.5464-.151 2.2207.122 4.0038.521 2.9164.07-.6759.15-1.2437.268-1.3189.15-1.3815.254-3.4875.612-1.9087.019.0833.045.5063.078 1.0355.302-.3163.817-.6704 1.064-.2966.121-.8068.223-1.6607.256-2.7288.053-1.7623-.641-.852-.871-1.249-.097-.175-.036-1.6607-.052-1.7133-.218-.5222-.432.9747-.685 1.1124-.117.0591-.087-2.2046-.28-1.3954zm-95.097.4705c.396-.2646.794-.5358 1.19-.8005-.145-.1746-.29-.3457-.435-.5204.119-.1444.237-.285.356-.4295-.119-.1721-.241-.3481-.36-.5202-.25.7547-.5 1.5158-.751 2.2706zm142.353 10.3163c-.084-.328-.171-.6491-.257-.9772-.058.7962-.115 1.6027-.173 2.3989.292-.7993.583-1.6019.873-2.4014-.046-.445-.096-.896-.143-1.3411-.1.7686-.199 1.5522-.3 2.3208zm-20.096-3.7252c-.019-.0027-.039.002-.059.0012-.041 1.0662-.151 2.2331-.137 2.4079.203 2.3347.955-1.1747 1.219-3.6096-.153.2139-.347.3801-.586.4899.094-1.0411.192-2.0951.288-3.1364-.244 1.2896-.463 2.5462-.725 3.847zm17.608-8.2009c-.675.0641-1.349.1728-2.02.3206-.242 3.5389-.902 4.6695-1.1 7.7418-.113 1.7754.595 1.0402.804 1.5068.089.2041-.022 1.702-.008 1.7633.194.5885.456-.8731.707-.939.116-.0234.008 2.2634.223 1.4948.218-.7838.94-4 1.081-5.3852.251-2.4879-.04-4.5706-.578-2.6088-.262.9569-.436 4.6302-.798 2.5302-.048-.2915-.03-4.0733-.314-3.8668.514-2.2311 1.57-2.0653 1.963-1.3728.051-.5175.06-.8986.04-1.1849zm-55.268-.0905c-.345-.8975-.832 1.2183-.721 3.4002.034.6557.729 1.765.691 3.3532.008-1.5608.247-6.1783.03-6.7534zm33.594 7.9994c-.111.0253-.197.5155-.265 1.2212.081-.1055.172-.1992.258-.2786.018-.537.029-.9387.007-.9426zm-40.723-4.5976c-.166-1.5271-.986.3243-.664 1.8308.259 1.2043.83-.3053.664-1.8308zm25.706 3.3993c-.338-1.3695-.282-2.698-.855-1.897.158 1.246.463 3.8919.855 1.897zm-111.935-9.829c-.135.1499-.267.3134-.37.5141.151.2506.324.3441.506.3425-.06-.0663-.119-.1325-.178-.1987.014-.2193.028-.4386.042-.6579zm119.718 6.9782c-.156 1.8293-.499 5.155.206 1.4139.075-.399.132-.8015.188-1.1787-.085-.0658-.366.6287-.394-.2352zm11.429 1.9386c-.116.3169-.257.5389-.457.5864.19-.1283.264.2624.281.8505.023.038.047.0783.07.1161.036-.5173.07-1.0358.106-1.553zm-31.651-2.526c.063.4196.128.8399.191 1.2594.075-.7759.151-1.5632.226-2.3391.098.2958.196.5866.294.8822.001-.0041.001-.0082.001-.0122.031-.7926.062-1.5884.093-2.381-.269.8614-.538 1.7295-.805 2.5907zm-104.012-10.4692c.242.0591.486.1133.728.1774.402.1078 1.948.1822 2.169.6965.657 1.5439.252 3.5264 1.129.4438.479-.1452-.034 1.3403.126 1.7623.033.0746.256-.4311.484-.8476.015-.2437.031-.4873.047-.731-1.384-2.0598-2.768-4.1195-4.152-6.1793-.177 1.5593-.354 3.1186-.531 4.6779zm132.115 8.655c-.308.9885-.599 3.0161-.683 4.5366.147-.1682.295-.3441.442-.5142-.034-.3981-.064-.7898-.04-1.2284.07-1.2897.712-3.2095.281-2.794zm-251.027-20.2759c-.259-.0948-.574-.0142-.903.0773.01.35.02.7.03 1.0499.153-.1259.307-.2519.46-.3779-.057.6424-.115 1.2849-.172 1.9273.176.2495.352.4991.528.7487.265-.9538.529-1.9075.794-2.8613-.062-.1093-.124-.2186-.185-.3279-.183-.0851-.366-.1683-.552-.2361zm248.296 24.1017c.131.0452.261.0941.392.1371.024-.3488.048-.7011.072-1.0475-.032-.1416-.059-.3322-.083-.5705-.074-.025-.148-.0482-.222-.0738-.053.5167-.106 1.0381-.159 1.5547zm33.143-4.7296c.113 1.5376-.09 4.06-.308 6.9568.336.6494.33-2.6088.693-2.0489.128.1976-.032 2.1394-.018 2.3015.184 1.8456.692-3.7587.546-4.3949-.149-.6233-.707.5074-.627-1.7921.413-.9877.575.5381 1.014-.013.132-.1668.221-.4821.278-.8403-.157-.0149-.315-.0296-.472-.0457-.091.5427-.162.7262-.308-.032-.266-.0285-.532-.0606-.798-.0914zm-273.315-18.2436c-.227.334-.459.592-.702.7864.012.5196.024 1.0391.036 1.5587.109.0848.219.1695.328.2542.032-.4766.079-.9721.15-1.482.055-.3977.12-.7729.188-1.1173zm255.626 23.8161c-.111-1.3109-.316-4.0836-.767-2.1652.282 1.486.181 2.8171.767 2.1652zm-15.825-4.647c.002.2148-.001.4325-.021.6597-.118 1.3456-.862 3.2145-.306 2.7123.029-.0384.178-.5601.362-1.2314.093-.8206.158-1.6954.174-2.4355-.069.0991-.139.1952-.209.2949zm-222.189-21.3671c-.271 1.2101-.542 2.1845-.815 2.9636.146.7085.293 1.417.44 2.1256-.04.2498-.08.4996-.12.7494.009.0038.02.0048.029.0086.194-.6236.354-1.0159.491-1.2451-.367-1.7644.653-2.8457 1.216-3.7875-.283-.3115-.565-.6231-.847-.9347-.131.0397-.263.0788-.394.1201zm-32.339.0318c-.112.6521-.223 1.3043-.335 1.9564.329-.2459.659-.4919.989-.7378.065.5343.13 1.0685.196 1.6028.179-.6322.358-1.2643.537-1.8965.211.7424.421 1.4849.632 2.2273.168-.9741.336-1.9481.504-2.9222-.045.0665-.096.1281-.153.1587-.203.1089-1.149.0104-1.845-.4243-.175.0119-.35.0237-.525.0356zm67.167 8.3713c.064.0462.128.0924.192.1386-.01-.0743-.019-.1487-.029-.223-.054.0286-.109.0564-.163.0844zm-36.45-3.6819c.045.2447.089.4893.134.734.016.0066.035.01.052.0166-.013-.3318-.026-.6636-.038-.9955-.049.0863-.099.1683-.148.2449zm244.009 15.1609c-.385.0107-.769.0213-1.153.0319-.341 1.9363.12 1.9664.511 1.9784-.143-.5251-.286-1.0591-.419-1.646.284.0484.57.0924.855.133-.051.5225-.103 1.0522-.154 1.5796.078.0362.136.0974.153.2394.094.8445-.319 4.8603.279 3.1228.227-.6627.184-2.5534-.007-2.806.923-1.8986.842-3.004.444-3.4907-.169.2859-.339.5717-.509.8576zm32.094 5.7299c.045 3.0614 1.053 4.146.616.7928-.111-.843-.415-.5905-.616-.7928zm-22.239.7624c.087.048.179.1011.266.1571.18-.8656.361-1.7352.541-2.6007-.027-.4268-.051-.8599-.078-1.2867-.241 1.2381-.486 2.4924-.729 3.7303zm-2.68-6.5275c-.015.7546.229 1.2803.288 1.8005.099.8909-.414 2.1328-.392 2.9929.002.0001.004.0003.005.0004.026.8624.626 1.1737.76.468.287-1.5447-.17-2.8816.363-3.8835.545.3064 1.104.6404 1.655.9473.045-.7041.09-1.41.136-2.114-.94-.1017-1.879-.1695-2.815-.2116zm-278.547-22.3759c-.485-.4297-.354 2.0586-.827 2.7789.271.5903.542 1.1806.813 1.7709-.034-.6031-.068-1.2062-.102-1.8093.137-.5316.274-1.0632.411-1.5948-.041-.5279-.102-.9723-.295-1.1457zm253.096 24.9515c.034.1722.069.391.099.6698.051.0333.103.0591.155.0926.036-.5313.074-1.0641.11-1.5955-.087-.0568-.174-.1135-.261-.1689-.033.3347-.07.6697-.103 1.002zm-59.313-7.9698c-.449 1.4794-.809 2.6078.333 3.4029.008-.0816.018-.1687.026-.249-.413-.3792-.592-1.2679-.359-3.1539zm-122.406-8.3982c-.107.0194-.178.0857-.225.1894.13-.0238.26-.0476.39-.0714.335.8361.537 1.0234.687.86-.312-.5156-.596-1.0228-.852-.978zm187.401 15.5154c0 .1063.004.2226 0 .3553.031-.1515.053-.3084.078-.459-.012-.04-.037-.0116-.078.1037zm-265.626-22.0211c0-.0428 0-.0857 0-.1286-.032-.007-.063-.0188-.095-.0263.032.0517.063.1033.095.1549zm253.695 21.1307c.009-.0389.017-.0816.026-.1203-.004-.0003-.007-.0006-.011-.0009-.005.0395-.01.0816-.015.1212zm-16.136-1.5065c.001.0175.002.0376.004.0555.013.1457.219.1052.457-.121-.154.0271-.308.0474-.461.0655zm-245.2614-21.3972c.046-.088.0921-.176.1382-.264-.0856-.0045-.1693-.025-.2478-.0698.0365.1113.073.2226.1096.3338zm236.9404 18.3963c.02.38.069.7558.164 1.0917.194.6891.492.2495.72-.6071-.301-.212-.602-.3801-.884-.4846zm-233.4031-18.2956c.028-.0854.056-.1709.0841-.2563-.0972-.0472-.1962-.0895-.2942-.1349.0701.1304.1401.2608.2101.3912zm299.2121 22.8718c.002.5051.056.9528.192 1.2778-.001.0041-.001.0082-.001.0122.191.4478 1.172-.5021 1.351.8606.067-.4353.11-1.2056.139-2.126-.56.0082-1.12.0016-1.681-.0246zm-291.507-27.6463c-.302 1.3164-.541 2.6493-.819 3.7595.309.0464.619.0928.929.1392-.029.2956-.059.5912-.088.8868.063-.2685.116-.5617.118-.8537.004-.5032.363-4.1556-.14-3.9318zm141.705 16.5339c.077-.1895.155-.379.232-.5685-.09-.0444-.177-.106-.26-.1811.009.2499.019.4998.028.7496zm40.187 3.3583c.026-.0123.053-.0241.079-.0363 0-.0449 0-.0898 0-.1347-.025.0612-.054.1126-.079.171zm104.21 7.5886c.803 1.3192.817 1.0244.779-.2653-.246-.0299-.492-.063-.739-.0926-.014.1185-.026.2406-.04.3579zm8.604.1276c.219 1.0979.811 1.3667 1.018 1.3655.369-.0049.338-.9814.485-1.558-.5.086-1.002.1493-1.503.1925zm9.411-4.0985c-.504.4493-1.009.8697-1.516 1.2326.075.1518.141.4063.173.872.057.8253-.697 3.6326-.136 3.78.419-.7962.262-2.5378.53-3.7654.215-.9786.862-.5825.949-2.1192zm-178.073-8.9694c.281-.591.562-1.1819.844-1.7729-.191-.2038-.381-.4076-.571-.6113-.091.7947-.182 1.5895-.273 2.3842zm-92.231-8.0907c.02.1119.04.2238.059.3357.005-.1135-.006-.2241-.039-.3402-.007.0017-.013.0027-.02.0045zm271.32 22.6701c.766.19 1.168-3.3256.327-1.853-.179.3132-.258 1.0672-.327 1.853zm-8.438-1.798c.248.4633.516 1.2806.825.7368.205-.3647.309-.7147.343-1.0247-.389.1105-.778.2089-1.168.2879zm15.36-2.3746c-.121.6395-.204 1.3141-.187 1.8035.049 1.396.456-.2014.733-1.6106-.181-.0646-.363-.1352-.546-.1929zm-324.8028-32.3131c-.6436-1.4234-1.9899 1.1119-1.5918 2.9413.4813 2.1824 2.6355-.6242 1.5918-2.9413zm-66.7205-5.8348c.9737-1.0545 4.8437-.1617 5.2364-.1365 1.5648.0908.3252 3.6988.0608 3.7046-1.1103.0251-1.5646-4.374-2.5091.5246-.6912.1448.1698-1.7673-.2186-2.058-.7663-.5696-1.8683 1.8667-2.6778 1.3863-.0012-.0001-.0024-.0002-.0036-.0003.0363-1.1064-.0443-2.3159.1119-3.4207zm32.2521 3.9362c-.2506-.0394-.6923 1.3373-.5946 1.6162.7574 2.118 1.7561-1.4402.5946-1.6162zm-36.9108-4.2779c1.4443-.4163 1.3365 3.0401.2222 2.9097-.3178-.0384-.5062-2.0119-.2222-2.9097zm3.2989-.6543c.3308.4932-.0194 2.0682.7894 1.4076-.0021.0815-.0042.163-.0063.2445-.0908 1.241-.8367 2.0831-1.1607 1.9545-.0082-.0303.1572-1.0157.0769-1.0654-.6038-.289-1.66.5136-1.3586-2.2884.429 1.7554 1.3267-.7429 1.6593-.2528zm63.2232 8.4937c1.6101 1.2637 3.3015-2.9816.9502-2.1927-.1299.0459-.5466 2.2916-.9502 2.1927zm-8.0774-2.4108c-.585-4.0493-4.3108-.6122-2.2741 1.3222.3522.3308.2844-.9274.5231-.9117.0004.0021.0008.0042.0012.0062.2384.0236 2.1833 2.6032 1.7498-.4167zm3.1549 1.6366c-.0003.0041-.0006.0081-.001.0122.4945-.2366.9931-.4833 1.4882-.7266-.4391-.1972-.8817-.3907-1.3202-.5946-.0556.4377-.1113.8712-.167 1.309zm-36.2262-8.2018c-.5028-.3307-1.4431 2.6352-.1903 2.3545.0554-.0146.6842-1.9064.9121-.5667.1423.9277-.1128 1.6821.092 2.7579-.0011-.0001-.0023-.0002-.0035-.0003.2045 1.0634 1.3854-3.0954-.8103-4.5454zm-14.2226 3.0886c.4025-2.2932 1.5863-.8146 2.2334-1.0499-.7424 2.0335-1.4427 1.3191-2.2334 1.0499zm8.8495-3.5576c.1833.6695-.0885 2.1961.2068 2.6879-.0003.004-.0007.0081-.001.0122.2956.4983 1.2178 1.3038 1.6386.8234.4209-.4827.5935-2.7957.9749-3.5933-.9469-.0177-1.8644.0275-2.8193.0698zm14.5719 4.6951c.5242-.4497 1.0502-.9005 1.5744-1.3502-.2357-.5832-.4741-1.1611-.7076-1.7438-.2882 1.0323-.5792 2.0684-.8668 3.094zm6.7382.2099c.4732 1.8987 1.6552-5.4314.3457-2.3537-.126.3052-.3805 2.2109-.3457 2.3537zm-24.7975-6.5818c-.4934 2.9506.1464 3.4756.4122 3.4769.9563.013 1.2481 2.6808 1.9435-.1922-.3719-1.8881-.9696.0504-1.2203-.231-.5471-.6408-.3129-3.098-1.1354-3.0537zm58.9189 2.5651c-.0115 1.3526-.3846 5.2402-.0379 5.8401.5531.9412 1.3262-.6718 1.1448-2.6174-.0569-.5848-1.1636-1.8638-1.1069-3.2227zm-40.9732-2.5484c-.2627 1.904-.3819 3.6183.0611 4.9359.3064-1.8543.1393-3.3564-.0611-4.9359zm53.3714 7.4287c-.416-1.1698-1.324-.1248-1.055 1.2773.268 1.4005 1.569.1761 1.055-1.2773zm-78.1038-19.6217c1.0958-3.11756.5498-4.53767 1.7273-1.0005-1.8733 3.0281.0059 5.7211-.3367 8.7858-.196 1.7291-.8008.4914-1.1188 1.3272-.4885 1.2832-.2606 3.67-.7558 4.4324-.4942.7606-1.6832-1.3456-2.1379-1.4104-.8702-.1122-1.7265.7803-2.4537.6946-.7271-.0873-1.6829-1.8807-2.1277-2.1691-.4443-.2864-.9316-.0693-1.0264.0976-.5618.977-.5365 3.5264-1.1701 3.43.1981-2.4429-.2905-6.5063.7741-7.7385-.1266-.1001-.2463-.6045-.3804-.577-.6313.1431-.628 3.5779-.9682 4.0899-.5766.8593.0152-1.6883.0174-1.8054-.2744-2.1104-.2661.2683-.5734 1.2566-.1599.5045-1.187 1.4454-1.3732 1.3364-.1836-.1131.1883-1.369.0675-1.4643-.5254-.4113-1.0594-.891-1.6392-.7317-.5802.168-1.1118 2.3812-.7801-.9229.0542-.5202.4091-.9365.428-2.163.0005-.0061.001-.0122.0015-.0183.005-.3967-.2606-2.3751.4729-3.3597.208-.2786.4156-.4041.6165-.4077-.1151.4307-.2308.8617-.3461 1.294.1485.0593.2957.1272.4432.1903-.1983 1.1404-.4076 2.334-.5759 3.4369.0742 1.297.4485-.2966.4801-.2721.47.5993.1834 2.9728.8136.2458-.3075-.5073-.6032-1.0707-.8929-1.6429.0654-.5839.1316-1.1742.1958-1.7598.0666.0285.1328.0614.1997.0902.0093-.4873.0192-.9817.0284-1.4676.471.3004.9071 1.1774 1.272 2.1279-.2194.6282-.4639 1.3435-.6856 2.0189.6551-.424.1662.9469.5081 1.8434.3897-2.7956.5588-2.0859.8928-1.8055.3334.2778.0786-1.9117.4621-2.0805.7798-.3406 1.6899 3.2819 2.2822-.758.6823 2.7372-.4913 2.826-.6554 3.81-.693 4.212 1.4063 2.8685 1.9315.5907.1301 1.4374-.0572 3.353.7124 3.006 1.0439-.4773-.8345-3.2968.5277-3.3736.9114-.0502.5857 1.9462.9756 2.5319.7278 1.0768 2.2795.3772 2.0515-2.6088-.0929-1.1905-.8605.1486-.9791-1.105-.0649-.6978.8171-6.47954-.3901-2.1214-.118.4358.0731 2.6627-.5465 2.5757-.1779-.0262-.573-2.0846-1.1296-1.6321-.2432.195-1.4335 2.6627-1.8896 1.5504-.4956-1.1771.4734-1.5151.3397-2.495-.1358-.9791-.8859-1.0685-.6687-2.9962.6196-2.10441.3307 1.3159.4789 1.1917.5709-.5104.4826-3.93725 1.1797-3.37398-.0665 1.82728-1.2006 6.48618.0008 5.50658.0123-.0799-.1333-1.2694.2542-1.5835.6742-.5447 1.8782-.7048 2.6168-.4665.2124-2.6898-.7177-2.71036-.9984-4.66536 1.0489-.22993 2.2479-.79104 2.7287 1.92552-.4151.27844-.8316.56614-1.2445.84504.4581-.0247.9166-.0436 1.3723-.0687-.2767 1.0916-1.5512 3.6804-.9053 4.4689.3414-2.8922 1.3752-3.175 1.8963-4.6553zm258.7348 36.4374c.006-.193.012-.3872.018-.5743-.481-.0519-.944-.2501-1.402-.5157.461.3633.923.7267 1.384 1.09zm-273.6407-25.3087c.2154.4083.4738.7033.7082 1.0333-.3842 1.8675-.6368 1.5261-.9332.2219.0809-.4139.1401-.8488.225-1.2552zm63.5221 5.0582c-.0431-.3081-1.7345-.2569-1.896 1.2007.2399.5355 2.2128 1.1094 1.896-1.2007zm-66.1504-5.7748c.5985.1994 1.1866.4936 1.7745.7798-.591 2.1634-2.2235.2371-1.7745-.7798zm161.921 13.5131c-.205.1735-.406.3622-.565.6264.126.2668.269.4378.42.5497.048-.392.097-.784.145-1.1761zm-89.1888-8.3256c-.1558-.3012-.3134-.5954-.4714-.897-.0482.6739-.0974 1.3597-.1456 2.0335.4276-.6246.8563-1.258 1.2816-1.8831-.101-.3937-.2053-.7897-.3063-1.1834-.1188.6395-.2395 1.2905-.3583 1.93zm286.5618 22.7174c-.266.3308-.628.5779-1.007.7669.213.5201.426 1.0402.639 1.5603.2-.7019.4-1.4038.6-2.1057-.077-.0738-.154-.1477-.232-.2215zm-107.381-14.8802c-.085 3.8755-1.009 6.2346-1.663 6.8799.05.4002.099.8005.148 1.2007.039-.0048.08-.0097.119-.0145.295-1.037.59-2.074.884-3.1109.274.9662.548 1.9324.822 2.8987.175-.0244.35-.0538.523-.0787.236-1.3624.472-2.7248.709-4.0872.22.4799.441.9598.661 1.4398-.245-1.5087-.659-3.7857-1.183-1.7102-.263 1.0465-.313 5.0793-.968 3.2509-.482-1.3498.437-4.6583-.052-6.6685zm-215.6202-17.4166c-1.2576-3.2331-2.1073 2.4685-2.2811 3.0243-.898 2.8524-.5604-2.2489-.6987-2.2759-.669-.0116-.4283 5.6222-.3493 5.7406 1.2736 1.8457 1.3337-2.5282 1.6118-3.7971.6056-2.7527 1.342-.2455 1.7173-2.6919zm212.6062 20.7102c-.202 1.1754-.405 2.3508-.607 3.5262.311-.2312.621-.4624.932-.6936-.142-.827-.075-2.0222-.158-2.8431-.056.0035-.112.007-.167.0105zm-181.9809-29.47312c-.7654-1.5263-1.9167 2.50162-1.59 4.32572.1923 1.0652 1.2065-1.5506.7585 1.3499-1.1931-1.5789-1.2923.9678-1.3119 1.4151-.1481 3.2058-1.2091 4.0038-1.3587 6.6788-.0822 1.5038 1.0241 1.0276 1.391 1.4765.1567.195.0595 1.4674.0874 1.5141.3493.5553.6887-.6429 1.0935-.6433.1865.0055.1398 1.9468.4458 1.3298.3077-.6274 1.299-3.2368 1.4479-4.3989.2657-2.088-.3248-3.9428-1.0856-2.3696-.3708.7673-.4433 3.8876-1.1501 1.9983-.0941-.2497-.2806-3.5208-.729-3.4055.7073-1.809 2.4286-1.4226 3.104-.738.2745-2.2012-1.0105-1.6085-1.3786-2.7739-.3116-.9864.3379-5.60219.2758-5.75902zm202.9239 34.56172c.03-.1669.06-.3339.09-.5008.06-1.3483.127-3.0836-.242-3.2911.05 1.2639.101 2.5279.152 3.7919zm-14.983-2.5919c-.086.1437-.179.2583-.28.3379.114.2505.228.501.343.7515-.021-.3631-.042-.7263-.063-1.0894zm-140.833-13.2634c.247 2.6472 1.946 3.8012 1.048.8168-.229-.7526-.71-.5976-1.048-.8168zm233.588 21.4961c.044.0221.087.0441.13.0661.026-.0877.051-.1755.076-.2632-.068.0665-.138.1302-.206.1971zm-86.666-9.6024c.209-1.5232-1.051-.3913-1.343.0956-.126.2123-.265.9113-.406 1.4728.005.1964.01.3928.015.5892.214-.0556.405-.109.573-.1602.319-.1019.637-.2038.956-.3057.05-.4922.117-1.0578.205-1.6917zm-259.7601-24.708c-.1622-3.95366 1.8864-3.0974 2.67-2.3793-.1922-.0626-.3871-.1212-.58-.1772.0082.8339.0032 1.6722.0113 2.5061-.2243.0539-.4463.1042-.6706.1581.1706.8981.3052 1.8933.4645 2.7892-.8932 3.4676-.7167 1.1892-1.4683.4893-.4827-.4438-.7983.737-1.4448.6996-3.022-.1684-6.24068.8461-9.24342-.371.28266-2.996.42303-3.7199 1.02546-4.0056-.10684.8842-.20778 1.7785-.31263 2.6627.40236-.2399.80601-.5443 1.20698-.8665-.29352-.5869-.58369-1.1826-.86494-1.8059.18162-.0799.40516-.1319.68381-.1877.20534-.0444.3705-1.2507.625-1.0623.54373.409.94322 4.1997 1.66109 3.3672.41635-.4834.24212-3.925 1.02175-2.8115-.74627 2.3412-1.30731 4.3865.1217 3.6608-.56884-2.2868-.0406-1.321.3482-2.3841.2453-.683-.91478-.6327-.0496-1.8784.1753-.2494 2.5982-1.2115 2.3061.8304-.6246 4.3856-.6901 3.853 1.0232 1.6232-1.6931-2.1301.2858-4.73234.9916-3.304.3584.7306-.5588 2.6584.4736 2.4469zm220.5721 20.0799c-.37-.3961-.903.8065-1.392 1.5125.088.4402.176.8804.263 1.3206.217-.8822.434-1.7644.651-2.6466.165.2343.33.4686.495.703.052-.4187.082-.7816-.017-.8895zm-180.7522-17.4323c.0481-.888 1.1164-5.5601-.2326-2.0408-.4651 1.2182-.5372 2.5445-1.4861 2.5336.903-.207.3897 3.3845.4544 3.6765.5307 2.3612 1.8002-1.761 1.8501-3.6792.0131-.5546-.6323.3967-.5858-.4901zm220.8642 23.4609c.018-.0036.038-.004.057-.0074-.014-.0257-.028-.0514-.041-.077-.006.0271-.011.0575-.016.0844zm-38.847-5.6959c-.297-.8585-.548-1.4929-.989.9338.304.4358.607.8717.91 1.3075.027-.7471.053-1.4942.079-2.2413zm-138.2859-22.0538c-.7849-.5666-.8577 2.0518-.7983 3.6817-.5762.2484-1.1403.4428-1.7116.6649 1.5347.4558 1.24 3.5154.9407 7.3984.5832.6373.3878-2.1683 1.0082-1.6059.2182.1994.0676 1.8389.1 1.9806.4033 1.6316.9108-3.0994.6348-3.6708-.2772-.5668-1.1165.2828-1.1167-1.6801.614-.7602.9632.5969 1.6448.2176.808-.4535.4056-2.9781.1199-2.4093-.5696 1.1311-.4391 3.0592-1.1042 1.2181-.5647-1.5749.9006-5.3459.2824-5.7952zm-96.63783 2.963c-.18331-3.6932 1.4479-.4815 1.63753-.3772.55391.2991.89278-1.6878 1.18637-.2373.0234.1601-.55353 2.1422-.83771 2.1715-.28676.0269-1.96195-1.2229-1.98619-1.557zm230.82773 15.599c.23.5488-.09 2.4521.542 1.5766-.006.0976-.011.1952-.016.2927-.115 1.4826-.706 2.5725-.944 2.4567-.007-.0216.157-1.2267.098-1.2781-.441-.2759-1.262.7913-.931-2.571.256 2.0377 1.021-1.0237 1.251-.4769zm23.681 3.8788c-.029-.2884-.075-.1384-.231 1.5486.072.1224.144.2449.217.3673.005-.6386.01-1.2773.014-1.9159zm-218.2016-18.013c.0869 1.9734.6322 1.4307 1.2363 1.2553.0108-.6922.022-1.3815.0328-2.0737-.4215.2706-.8476.5479-1.2691.8184zm53.5899 5.7442c.0011.0001.0023.0002.0035.0003.1442.0607.2902.1282.4337.1956.2431-.7058.4907-1.4193.7338-2.1251-.0681-.3739-.1339-.7517-.2021-1.1256-.3212 1.0131-.6455 2.0421-.9689 3.0548zm-90.02166-8.2362c-.70577-.0689-1.410898-.1454-2.11666739-.2143.00076121-.002.00152274-.0039.00228395-.0059.06995944-.4429.14238444-.881.21460044-1.3234.633202.5129 1.266583 1.0307 1.899783 1.5436zm92.68206-5.08328c-.8162-.14892-2.3111 1.87438-3.2233 1.71418-.5412-.0999-.4063-1.45517-.952-1.55599-.8135-.15718-2.2184-.68665-3.0562.0193-.3034.26343-.4499 2.78389-.4229 3.08219.0749.7025.6223-.4793.7928-.2091.1692.2718-.1291 1.26.1211 1.4312.2524.1694 1.7386.0373 1.8582-.1321.7235-1.0414.074-2.5605.7839-2.1699-.3996 8.7085-2.0326 2.8793-2.4513 3.2857-1.5729 1.5394-.4738 2.4583-.26 3.2491.2122.7903-.5512 1.7442-.4661 2.4905.0026-.0018.0051-.0036.0076-.0055.0874.7514 1.0824 1.1571 1.2592.5773.378-1.2677-.4399-2.5194.3685-3.2644.9023.3852 1.8258.7982 2.7372 1.1851.0645-1.1347.1298-2.2733.1965-3.4075-.2424.3372-.4894.6789-.7324 1.0227-.1357-.3933-.2709-.7868-.4071-1.1734 1.5107-6.03036 2.1158 1.1419 4.0054-1.3484-.2037 1.2862-.4004 2.6298-.6077 3.8813 2.2686 2.1658.8209.0853 1.1433-3.132.1859-1.8497.7695.0164.9613-.2379 1.3281-1.8112-.8392-5.15833-1.656-5.30238zm-18.7633 7.81608c3.0874-3.1784-1.632-4.0907-2.0738-2.6852-.8305 2.6724 1.4111 1.6145 1.6158 2.3528.2008.7454-.2419 4.1148.6305 2.7479.331-.5205.152-2.1573-.1725-2.4155zm-6.9997 2.0345c-.2554-1.1542-.7439-3.5966-1.3671-2.038.5422 1.3429.4547 2.469 1.3671 2.038zm-62.91425-5.3624c-.00974.0041-.01991.0052-.02941.0097.00185-.0152.0056-.033.00763-.0483.00034-.0041.00068-.0081.00102-.0122.00691.0154.01384.0355.02076.0508zm271.45255 22.6016c.208.0521.415.1042.623.1563.007-.0528.017-.1129.023-.1695-.238-.1362-.48-.2714-.719-.4095.024.1409.049.2818.073.4227zm-157.325-20.4778c-1.131 5.0643.572 1.7518 1.036 4.1601-.001-.0001-.003-.0002-.004-.0003.138.7238-.918 2.9765-.001 3.2278.634-.5932.28-2.1329.645-3.1309.367-.9953 1.96.0201 1.242-2.983-.224-.9293-2.557.698-2.918-1.2737zm5.063 7.7074c1.252.3329 1.707-2.6128.427-1.5322-.274.2297-.359.8689-.427 1.5322zm221.491 11.79c.841.4131 8.473-7.4975 5.745 3.6118-.023.0957-.038.1592-.033.1871.523 2.8271 3.565-11.5924 3.536.511-.001.4259-.001.7613.01.7971.047.1649.259-.0714.503-.3437.393-.439.874-.9737.895-.0903-.188.4819-.42.5682-.636.6449-.134.0473-.262.096-.37.2323-.145.1799-.26.5456-.375.9119-.169.5393-.34 1.0771-.603 1.0212-.658-.1267-.241-1.6404-.052-2.3257.048-.1726.08-.294.077-.3243-.019-.0159-.039-.0318-.058-.0478-.632-.549-1.095-.9534-1.806.6816-.143.7993.009.7344.186.6526.15-.0692.319-.1501.339.2857.033 1.139-.53.51-.782.2284-.053-.0593-.094-.0985-.111-.1073-.178.0134-.298.1505-.397.2668-.207.2411-.325.3779-.689-.9275-.045-.1534-.04-.3631-.035-.5419.012-.4122.017-.6744-.623.2172.681-2.4521-.153-3.5425-.93-2.2524-.12.2064-.222.607-.326 1.0139-.211.8271-.434 1.69-.842 1.0748-.217-.3549-.013-1.9872.071-2.1317.029-.0479.081.0052.141.067.12.1231.272.2772.327-.2728-.256-.4209-.612-.5772-.957-.7295-.306-.1349-.605-.2673-.822-.5773-.038-.0674-.033-.2173-.027-.382.055-1.4937-1.233-.93-1.445.3443-.044.1359-.083.2866-.118.4434-.091-.4272-.16-.8676-.233-1.3304-.04-.2559-.081-.521-.128-.7947-.032-.1902-.063-.3682-.09-.5405.383-.9061.364.3766.658.5268zm-303.0718-18.9262c.6988-.6085 1.3977-1.2132 2.0958-1.8149-.9275.1224-1.2838.3371-1.583-2.148-.1699 1.3196-.3428 2.6433-.5128 3.9629zm58.4078-4.8832c-.239 3.9647 1.081 1.766 1.55 3.8847.141.6516-1.217 3.6316-.18 4.9769 0 .0021.001.0041.001.0062.334.4301 1.872-.1698 2.24 1.0454.339-1.4592-.22-7.7221-.367-8.1894-.962-2.88756-2.236.3635-3.244-1.7238zm-83.0834 2.5135c-.0066-.0029-.0141-.0052-.0207-.0079.0198-.1143.0396-.2311.0592-.3442-.0127.1162-.0257.2356-.0385.3521zm264.7554 17.4277c-.429-1.6157-1.532 1.5491-1.301 3.6761.279 2.5334 1.997-1.0421 1.301-3.6761zm-146.285-11.0441c-.309-1.5215-1.601 1.2251-1.427 2.5754.246 1.8759 1.486-2.2476 1.427-2.5754zm-88.7951-8.6111c-.6733-.3151-1.377 2.327-1.4468 4.1724.4949-.2432.9908-.4959 1.4857-.7391-.0134-1.1421-.0255-2.2912-.0389-3.4333zm189.7091.8311c.938-3.82275.58-5.44944 1.329-1.3831-1.515 3.8022-.208 6.7924-.579 10.4682-.212 2.0746-.618.6704-.887 1.6958-.415 1.5771-.334 4.3923-.733 5.3531-.399.9565-1.21-1.4122-1.548-1.4406-.648-.0373-1.324 1.1145-1.865 1.0931-.542-.0237-1.19-2.0379-1.513-2.3319-.321-.2904-.695.0205-.773.2292-.457 1.2232-.533 4.2472-1.004 4.2033.24-2.9226.027-7.6998.871-9.2799-.091-.1033-.163-.6864-.264-.6408-.478.2404-.606 4.3288-.88 4.9733-.46 1.0714.072-1.9859.082-2.1492-.127-2.4785-.209.3449-.477 1.5525-.138.6162-.941 1.84-1.078 1.7349-.133-.113.191-1.6379.105-1.7429-.378-.4299-.761-.9424-1.201-.6888-.441.2652-.922 2.9572-.551-.9956.059-.6264.342-1.1612.403-2.6246 0-.0081.001-.0162.002-.0243.018-.474-.107-2.7897.479-4.0391.166-.3524.325-.5204.475-.5482-.102.5231-.203 1.0481-.305 1.5731.108.0536.216.1098.323.168-.191 1.3769-.389 2.8198-.556 4.149.006 1.5384.348-.4147.368-.3733.001-.0041.001-.0081.001-.0122.329.6608.025 3.5208.599.2156-.212-.5682-.412-1.2045-.608-1.8518.071-.7015.142-1.4163.212-2.1199.049.0266.1.0531.149.0799.025-.5796.049-1.1616.074-1.7394.342.3031.635 1.2999.873 2.3885-.187.7691-.396 1.6427-.587 2.4681.505-.5728.087 1.1137.31 2.1392.396-3.3601.497-2.5438.737-2.2474.239.2917.131-2.2639.423-2.5125.597-.4888 1.144 3.7017 1.739-1.1588.409 3.1775-.476 3.4116-.634 4.6019-.677 5.076.946 3.2375 1.425.4747.043 1.692-.168 3.9873.421 3.49.799-.6836-.501-3.8119.523-4.0539.683-.1578.364 2.2443.634 2.8952.504 1.1968 1.692.1982 1.634-3.3175-.024-1.4123-.649.2611-.691-1.2156-.021-.8315.854-7.775-.213-2.474-.104.5293-.045 3.1509-.506 3.1181-.132-.0174-.352-2.4093-.786-1.8055-.19.2612-1.172 3.3101-1.472 2.0388-.326-1.342.412-1.8476.348-2.9966-.065-1.147-.624-1.1667-.388-3.4811.542-2.5652.197 1.519.312 1.3615.447-.6682.511-4.7264 1.012-4.1354-.118 2.1749-1.144 7.8359-.208 6.5426.015-.0562-.055-1.4849.251-1.9083.526-.7217 1.435-1.0522 1.979-.8508.26-3.2161-.438-3.1367-.575-5.42612.794-.38938 1.715-1.19291 1.974 1.97862-.322.3768-.646.7669-.966 1.144.344-.0802.688-.1516 1.03-.2321-.247 1.3258-1.299 4.5392-.846 5.4049.364-3.4693 1.152-3.9196 1.597-5.7339zm4.627 13.6918c-.481 3.5603-.02 4.116.179 4.0882.715-.0886.834 3.0437 1.462-.4409-.207-2.2046-.728.1646-.906-.1433-.385-.7018-.117-3.6475-.735-3.504zm-223.7833-13.6728c-.1135-.0724-.2287-.1167-.3459-.1148.0244-.0913.0487-.184.0732-.2756-.1945-.3085-.3877-.6101-.5821-.9186.2982-.218.5957-.4473.8924-.6724-.0127.661-.0251 1.3222-.0376 1.9814zm254.8673 19.3547c-.258-4.2671-2.647-1.0519-2.064 1.1437.195.0123.39.0245.584.0368.041-.2581.083-.4924.153-.4956 0 .0041 0 .0082.001.0123.178.0037 1.538 2.8415 1.326-.6972zm5.948 1.9627c1.161 1.3652 2.601-3.9016.806-2.701-.101.0761-.506 2.8479-.806 2.701zm-3.647-.361c.379-.3358.761-.6814 1.141-1.0252-.321-.1851-.645-.3656-.966-.5587-.058.5286-.117 1.0552-.175 1.5839zm-20.097-1.7223c.14-.2018.282-.406.421-.6078 0-.0286 0-.0572 0-.0858.019.0016.037.0031.055.0046.251-.363.503-.7252.754-1.0882-.154-.6658-.31-1.3273-.463-1.9928-.255 1.2578-.513 2.5202-.767 3.77zm-128.646-10.8448c.618-.2474 1.468.9806 1.79-1.3383-.415-.4044-.829-.8208-1.244-1.2252-.181.8534-.365 1.7101-.546 2.5635zm121.914 6.8563c-.364-.3375-1.178 3.2811-.23 2.8104.045-.0363.584-2.3335.704-.7739.027.3984.01.7794-.011 1.1567.121-.3635.242-.727.363-1.0904-.094-.8481-.335-1.647-.826-2.1028zm-192.8049-20.78914c-.8114 1.66612-1.4402 1.74221-2.2298 1.05026-.4308 2.13816-.8629 4.27028-1.2914 6.40878 1.2803.349.6468-3.3046 1.7384-2.7085.2336-1.0052-.4508-.5651-.2873-1.1327.7932-2.758 1.2237 1.0425 2.1216-.4407-.0149-1.05309-.0349-2.11693-.0515-3.17714zm168.0969 19.83154c.441.1702.87.4534 1.3.7277-.524 2.6317-1.674.5293-1.3-.7277zm28.537 4.2555c.207-8.1443-1.076-5.9887-1.455-1.1388.295.0594.59.1189.885.1783.19.3202.38.6403.57.9605zm-207.2308-17.8401c.3655.17.7327.3448 1.0983.5148.0556-.438.1137-.8775.1687-1.3089-.3653-.1698-.7307-.3508-1.096-.5207-.0558.4395-.1152.8754-.171 1.3148zm215.1718 18.0345c.284 2.1993 1.446-6.6322.351-2.8372-.105.3694-.369 2.6561-.351 2.8372zm-13.664-3.8472c-.708.0842-1.396.2423-2.112.3986.054.3772.018 1.0081-.007 1.6164.429-.0619.859-.1239 1.289-.1859.124.231.248.4619.372.6928.146-.9458.289-1.9883.458-2.5219zm8.78-3.1899c-.268 2.2888-.421 4.335-.139 5.8501.298-2.2347.23-3.9974.139-5.8501zm-217.6288-13.7323c.5404-.23025 1.2285 1.4723 1.4897-.70199-.41-.4309-.8218-.85519-1.2324-1.27938-.0857.65645-.1732 1.31788-.2573 1.98137zm24.2662-1.97064c-.5786-.43474-2.6658 3.34104-.6936 1.77325-.0487.67909-.0968 1.35449-.1455 2.03359.278-1.2657.5587-2.54157.8391-3.80684zm-15.4511.5049c.1996.54885.3981 1.10629.5954 1.65474.3535-1.23169.7098-2.45839 1.0633-3.69004-.5524.67619-1.1063 1.35911-1.6587 2.0353zm-10.7918.54041c.4211-.27033.8447-.53004 1.2658-.80037-.3371-.38975-.6736-.79162-1.0085-1.18097-.0861.65934-.1712 1.322-.2573 1.98134zm50.1353 1.50373c-1.0006-2.4318-.6666-1.08811-1.5161.4425-.5744 1.0279-.9018-1.25401-1.0859 1.8505.9282-.9254 2.195 1.0622 2.602-2.293zm-17.5112.3627c1.0444-2.61365-1.6949-5.43289-2.3448.3546.5804-.1661 1.8525.8723 2.3448-.3546zm217.5784 11.2659c-.06 1.6064-.484 6.2654-.246 6.9375.379 1.0532 1.017-.9455.955-3.2336-.02-.6877-.803-2.0832-.709-3.7039zm-61.028-4.6407c.026-4.6772 1.529-3.8857 2.089-3.1201-.142-.0531-.287-.0951-.43-.1402-.025.9877-.059 1.9759-.084 2.9636-.17.0893-.339.1804-.51.2696.094 1.0468.159 2.2092.245 3.2546-.799 4.2151-.582 1.4933-1.118.7454-.345-.4726-.625.9576-1.108.9851-2.258.1359-4.707 1.7014-6.911.5903.324-3.5914.458-4.4665.921-4.8719-.113 1.0621-.224 2.1378-.336 3.1998.31-.3293.623-.7324.935-1.1589-.197-.6634-.39-1.3496-.578-2.0575.139-.1145.309-.1902.519-.2872.156-.0807.323-1.527.507-1.3296.392.4251.551 4.8765 1.12 3.8058.329-.6261.328-4.6853.869-3.4552-.647 2.8625-1.144 5.3645-.047 4.345-.341-2.6556.021-1.571.353-2.8799.208-.8371-.662-.6467.032-2.2207.148-.3194 1.989-1.7293 1.696.718-.633 5.2832-.663 4.6614.704 1.8231-1.187-2.3396.392-5.6502.868-4.0372.241.8271-.518 3.2241.264 2.8581zm48.172 8.2543c-.024-.3589-1.289-.1116-1.464 1.6351.16.6086 1.614 1.0701 1.464-1.6351zm-208.7446-16.39898c.389-1.61383-.7275-1.89359-.8945-1.45318-.6605 1.74802.5015 3.06406.8945 1.45318zm35.3156.59158c-.126-.1795-1.0622-.46574-1.1838.5071 1.0438 5.4182 2.1958.9576 1.1838-.5071zm151.445 7.0544c-.821-3.6958-1.672 3.1661-1.823 3.8468-.78 3.4879-.335-2.6031-.438-2.6154-.501.0609-.531 6.7144-.476 6.8447.885 2.0488 1.093-3.1441 1.348-4.6828.557-3.3384 1.016-.4431 1.389-3.3933zm43.944 9.5535c-.268-1.3417-.988.0042-.839 1.6385.149 1.6302 1.169.0296.839-1.6385zm-79.986-6.0286c.001-4.3658 1.103-.7347 1.241-.6309.404.2927.732-2.105.898-.4147.012.1851-.493 2.5942-.708 2.6663-.215.0641-1.423-1.2254-1.431-1.6207zm127.77 12.0515c-.632-.1258-.131-4.7784.171-.6349.011.1537.023.3143.035.4746-.065.1104-.132.1763-.206.1603zm-64.79-8.2516c-.106-.3405-.214-.6723-.321-1.013-.061.8055-.123 1.623-.184 2.4284.343-.7881.686-1.5816 1.028-2.3699-.061-.4559-.122-.9193-.183-1.3752-.113.772-.227 1.5577-.34 2.3297zm-63.033-5.011c-.527-.0033-1.054-.0128-1.58-.0161.001-.0019.003-.0039.004-.0058.069-.5338.139-1.066.209-1.5995.455.5386.911 1.0828 1.367 1.6214zm59.363-16.11601c-.516-1.72546-1.531 3.19042-1.355 5.31931.105 1.237.964-1.97946.52 1.5136-.835-1.74242-1.002 1.2835-1.033 1.8183-.231 3.8251-1.057 4.8891-1.27 8.0828-.118 1.7965.728 1.1097.986 1.6017.108.2148-.007 1.6943.008 1.783.001.0001.002.0002.003.0003.241.6188.538-.8385.841-.885.139-.0124.032 2.2953.284 1.5306.255-.781 1.094-3.9808 1.25-5.3771.278-2.5089-.095-4.6505-.724-2.7007-.307.9514-.479 4.6669-.937 2.5062-.062-.2872-.078-4.1486-.418-3.9673.598-2.225 1.873-1.9554 2.353-1.2176.289-2.6462-.7-1.7904-.932-3.1346-.197-1.13182.462-6.67311.424-6.87351zm-19.728 13.02111c.069-1.0573 1.045-6.72624-.097-2.3969-.394 1.4969-.498 3.0756-1.208 3.1695.682-.3411.165 3.9649.201 4.3106.31 2.7436 1.416-2.2875 1.525-4.5701.031-.6604-.488.5405-.421-.5131zm-36.613 1.9396c-.006.0056-.014.0109-.021.0166.002-.0223.004-.0446.006-.0669.005.0172.011.0333.015.0503zm24.173.0673c-.009 2.3323.42 1.6294.879 1.354.034-.8239.068-1.6422.102-2.4661-.326.3678-.656.7444-.981 1.1121zm-14.499-1.118c-.005-.0028-.011-.0047-.016-.0074.02-.1369.041-.2759.06-.4115-.014.1384-.03.2802-.044.4189zm81.254 3.0602c.087 3.1148 1.316 4.2917.755.8473-.144-.8638-.51-.6253-.755-.8473zm-21.396-13.9039c-.567-.58543-.72 2.53032-.737 4.4586-.441.3588-.871.6475-1.307.9745 1.133.3699.795 4.044.425 8.6904.413.6944.374-2.6202.818-2.0201.155.2147-.018 2.1641.001 2.3338.24 1.8972.797-3.7774.612-4.4261-.187-.6393-.845.4574-.772-1.8717.488-.9686.699.5965 1.223.072.621-.6272.417-3.5714.182-2.8758-.469 1.4061-.446 3.6928-.875 1.5803-.366-1.8052.876-6.44995.43-6.9159zm-41.462 10.9227c.546-.7999 1.093-1.5943 1.638-2.3861-.699.2483-.975.5393-1.106-2.3775-.177 1.5863-.355 3.1773-.532 4.7636zm-18.173-1.7385c-.082-.0728-.167-.1104-.255-.0949.022-.1101.044-.2209.066-.3314-.134-.3447-.267-.6873-.401-1.032.231-.2919.464-.5971.695-.8973-.034.7851-.071 1.5728-.105 2.3556zm54.206 3.6337c.106.056.214.122.319.1859.208-.8649.42-1.7345.629-2.5994-.037-.4358-.075-.8721-.112-1.3079-.278 1.2368-.556 2.4847-.836 3.7214zm-17.178-1.5449c-.148-1.3415-.421-4.1821-.946-2.266.355 1.5326.247 2.8786.946 2.266zm-14.937-6.3612c-.493-.2997-1.117 2.9039-1.239 5.1024.379-.3436.761-.6938 1.141-1.0374.032-1.3542.065-2.7108.098-4.065zm20.258 3.1752c2.432-4.1177-1.073-4.67836-1.454-2.9579-.722 3.2653.999 1.7545 1.122 2.6116.122.8657-.334 4.9099.37 3.1916.267-.6551.195-2.5707-.038-2.8453zm14.348-11.37756c-.606-.08745-1.803 2.49132-2.481 2.40124-.401-.05917-.249-1.6864-.654-1.74537-.603-.09622-1.635-.57153-2.289.35921-.238.34613-.443 3.366-.433 3.71227.029.82762.484-.63698.601-.33543.117.30384-.143 1.51166.037 1.68752.183.17277 1.3-.15237 1.398-.3667.58-1.31639.151-3.04742.668-2.66351-.626 10.38343-1.631 3.64163-1.959 4.17223-1.236 2.0019-.447 2.9727-.316 3.8875.129.915-.48 2.1367-.444 3.0131.002-.0039.005-.0078.007-.0117.036.8836.768 1.2581.922.549.331-1.5479-.236-2.9426.398-3.9173.661.3567 1.337.7414 2.005 1.0991.091-1.3533.182-2.7094.275-4.0624-.195.4273-.393.863-.588 1.2983-.087-.4519-.173-.9071-.26-1.351 1.358-7.32777 1.543 1.1157 3.051-2.04714-.201 1.55004-.399 3.16924-.601 4.67814 1.619 2.3197.612.0003.975-3.85663.209-2.21163.576-.05518.729-.3799 1.063-2.29773-.435-6.04032-1.041-6.12053zm-36.544 10.32456c.267.1609.535.329.802.4899.059-.5285.118-1.0635.176-1.5839-.267-.1609-.533-.3289-.8-.4898-.059.5281-.12 1.0556-.178 1.5838zm8.17-8.60045c-.67 2.06662-1.143 2.23101-1.708 1.49825-.402 2.58239-.806 5.1563-1.206 7.739.946.2729.606-3.9804 1.402-3.3921.213-1.21936-.316-.6229-.173-1.31309.698-3.36827.878 1.10109 1.607-.75948.028-1.24962.051-2.5147.078-3.77258zm33.785.1936c-.329 4.73948.745 1.97917 1.017 4.44636.077.76589-1.048 4.45339-.323 5.93269.235.4713 1.409-.4088 1.639.9889.309-1.7754.124-9.1641.031-9.68122-.612-3.31904-1.688.68086-2.364-1.68673zm13.403 3.12095c-1.035 6.1298.364 2.0069.622 4.8114.075.8457-.801 3.6247-.126 3.8237.497-.7743.291-2.5524.601-3.7778.312-1.2232 1.47-.1981 1.043-3.68556-.132-1.07786-1.942 1.12276-2.14-1.17174zm3.506 8.5751c.925.2556 1.375-3.2864.375-1.8611-.213.3038-.3 1.0671-.375 1.8611zm-64.259-5.7324c.413-.3292.864 1.617 1.14-.9885-.29-.46546-.582-.92658-.873-1.38402-.089.78757-.179 1.57682-.267 2.37252zm-1.449-.8749c.326-.36781.654-.72601.98-1.09384-.238-.42504-.476-.85995-.712-1.28475-.089.79131-.178 1.5873-.268 2.37859zm8.105-1.83762c.129.62873.257 1.27186.384 1.90032.311-1.50188.624-3.00125.935-4.50314-.439.8642-.879 1.73863-1.319 2.60282zm11.591-2.31704c-.418-.44407-2.118 4.25976-.583 2.18065-.062.81192-.124 1.62249-.186 2.43441.256-1.53399.512-3.08132.769-4.61506zm47.9 7.53936c.473-.3615 1.063.9954 1.391-1.7944-.296-.4338-.59-.8778-.885-1.3115-.168 1.0335-.338 2.0723-.506 3.1059zm-43.229-4.78335c.882-3.21973-1.063-6.27613-1.767.66643.44-.26114 1.352.83782 1.767-.66643zm-2.953-1.36242c.352-1.95655-.472-2.17007-.615-1.63188-.561 2.14925.26 3.58861.615 1.63188zm16.086-1.0213c-.659-2.77586-.458-1.22376-1.151.68748-.47 1.28874-.631-1.38303-.885 2.33293.73-1.20511 1.605 1.00996 2.036-3.02041zm10.347-2.20088c-.086-.19957-.781-.4393-.907.73858.579 6.31127 1.609.88856.907-.73858z" fill="#93cbff"/></svg>