<svg fill="none" height="618" viewBox="0 0 469 618" width="469" xmlns="http://www.w3.org/2000/svg" xmlns:xlink="http://www.w3.org/1999/xlink"><filter id="a" color-interpolation-filters="sRGB" filterUnits="userSpaceOnUse" height="617.67" width="468.706" x="0" y="0"><feFlood flood-opacity="0" result="BackgroundImageFix"/><feColorMatrix in="SourceAlpha" result="hardAlpha" type="matrix" values="0 0 0 0 0 0 0 0 0 0 0 0 0 0 0 0 0 0 127 0"/><feOffset dx="8" dy="8"/><feComposite in2="hardAlpha" operator="out"/><feColorMatrix type="matrix" values="0 0 0 0 0 0 0 0 0 0 0 0 0 0 0 0 0 0 0.3 0"/><feBlend in2="BackgroundImageFix" mode="normal" result="effect1_dropShadow_90_2115"/><feBlend in="SourceGraphic" in2="effect1_dropShadow_90_2115" mode="normal" result="shape"/></filter><g filter="url(#a)"><path d="m2.32715 22.354c0-11.0457 8.95435-20 19.99995-20h415.9999c11.046 0 20 8.9543 20 20v565c0 11.046-8.954 20-20 20h-415.9998c-11.0457 0-20.00005-8.954-20.00005-20z" fill="#fff" shape-rendering="crispEdges"/><path d="m3.44043 479.155.21094 1.113c.10698.586.08437 1.181-.0586 1.758l-.28125 1.125c-.04402.177-.05206.348-.02343.516l.1875 1.125c.05057.294.13183.598.23437.902l.375 1.125c.25974.773.18469 1.554-.16406 2.262l-.26953.562-.28125.563c-.06469.131-.06488.202-.0586.246l.16407 1.125c.02913.2.09986.422.22265.668l.5625 1.125c.29596.591.44414 1.242.38672 1.922l-.09375 1.125c-.04137.48-.14034.96-.28125 1.429l-.16406.563-.17578.562c-.10424.347-.18819.698-.26953 1.043l-.14063.563-.12891.562c-.01598.069-.01706.14.02344.246l.21094.563.22266.562c.21198.555.31275 1.138.28125 1.735l-.03516.562-.02344.563c-.01254.233.00427.472.0586.714l.25781 1.125c.12537.557.1348 1.125.04687 1.688l-.08203.562-.09375.563c-.04415.282-.05537.565-.04687.844l.01172.562.02343.563c.01835.581-.07941 1.154-.28125 1.699l-.42187 1.125c-.04321.117-.04082.199-.02344.281l.11719.563.1289.562c.07496.345.16017.697.25782 1.043l.15234.563.16406.562c.23585.84.05186 1.653-.375 2.332l-.35156.563-.30469.468.17578.422.22266.563c.18714.464.33595.936.42188 1.418l.09375.562.10546.563c.08487.476.12127.96.10547 1.441l-.04687 1.125c-.0226.665-.23217 1.284-.5625 1.84l-.32813.563-.17578.281.23438.34.38672.562c.26541.379.47344.857.48046 1.406.00655.55-.18449 1.031-.44531 1.418l-.375.563-.3164.433.17578.387.23437.563c.26378.613.36342 1.271.25781 1.945l-.08203.562-.09375.563c-.05777.365-.11242.736-.16406 1.102l-.16406 1.125c-.027.191-.0206.387.02344.585l.25781 1.125c.11257.501.16255 1.014.14062 1.524l-.04687 1.125c-.02268.527-.13144 1.043-.30469 1.547l-.1875.562-.14062.375.375.492.41015.563c.44002.594.72469 1.326.65625 2.145l-.09375 1.125c-.05356.633-.26624 1.23-.58594 1.769l-.32812.563-.32813.527.16407.492.17578.563c.15777.483.26673.976.30469 1.476l.03515.563.04688.562c.0264.347.06015.696.10547 1.043l.07031.563.08203.562c.06393.491.06542.985.01172 1.477l-.0586.562-.07031.563c-.05294.481-.15238.962-.30469 1.429l-.1875.563-.17578.562c-.02006.062-.02357.108 0 .176l.19922.563.1875.562c.19437.562.27419 1.151.22266 1.746l-.09375 1.125c-.04429.506-.15731 1.003-.32813 1.489l-.39843 1.125c-.06404.182-.0711.343-.0586.492l.09375 1.125c.02647.303.06929.617.14063.925l.1289.563.14063.562c.07481.323.16974.647.28125.973l.375 1.125c.2479.726.22754 1.478-.0586 2.18l-.46875 1.125c-.08212.203-.10733.38-.10546.539v.562l.01171.563c.0021.172.04154.36.12891.574l.22266.563.23437.562c.28993.711.30822 1.474.04688 2.203l-.39844 1.125c-.07092.199-.10189.38-.09375.551l.03516.563.02343.574c.01803.379.03032.766.04688 1.16l.02344.586.03515.597c.00896.198.05005.38.12891.551l.24609.528.23438.527c.08716.189.20472.367.36328.527l.84375.844c.23777.24.48632.457.73828.656l.44531.352.45703.363c.41891.331.78414.718 1.07813 1.16l.30469.457.29296.457c.15945.24.34356.463.53907.68l.37498.41.3633.41c.2835.314.5605.652.8203 1.008l.3399.481.3515.468c.1011.139.2111.237.3399.305l.5039.258.5039.269c.2458.13.5072.24.7734.317l.5391.152.5508.164c.377.109.7563.223 1.125.34l.5273.164.5391.176c.2914.093.5897.169.8906.223l1.1015.187c.1863.033.3745.037.5743 0l1.125-.211.5742-.047c.5644.006 1.1028.165 1.582.446l.5508.328.3867.222.3867-.199.5625-.305c.5138-.278 1.0654-.471 1.6407-.55l.5625-.082.5625-.071.5742-.023c.5617.032 1.0826.224 1.5469.516l.5625.351.4453.27.3984-.164.5625-.258.6445-.199c.4339-.077.8676-.043 1.2774.093l.5976.282.5625.339.4922.293.4336-.164.5625-.222c.4893-.191.9973-.321 1.5117-.375l3.375-.352c.748-.079 1.4445.116 2.0508.481l.5625.339.293.176.3281-.223.5625-.398c.5329-.371 1.1647-.566 1.8281-.504l.6797.152.5625.211.5625.2c.2652.098.5173.16.7617.187l.5625.07.5625.059c.3821.042.7665.092 1.1485.141l1.125.14c.273.035.5488.044.8203.024l1.125-.094c.1009-.008.2534-.041.457-.164l.5625-.352.5625-.339.5508-.27c.378-.141.7813-.198 1.1953-.164l.6211.117 1.125.352c.2526.08.4927.131.7266.14l.5625.024.5625.011c.211.009.4279-.018.6562-.082l.5625-.152.5625-.164c.7954-.224 1.5792-.085 2.2617.293l.5625.305.5625.316-.0117.012h-.0117v.012l.0234-.024h.0118l.5273-.152.5625-.164c.5774-.17 1.1724-.207 1.7695-.118l1.125.165c.3815.057.7671.123 1.1485.187l1.125.188c.1677.028.3383.02.5156-.024l1.125-.281c.4668-.116.9428-.177 1.418-.199l.5625-.036.5625-.023c.4094-.02.8209-.02 1.2304-.012l1.125.024c.2318.005.4697-.03.7149-.094l.5625-.141.5625-.152c.5822-.152 1.1767-.168 1.7695-.059l.5625.094.5625.106c.4879.09.9737.236 1.4414.433l.5625.246.5625.235c.0328.014.0521.011.0586.011.0037 0 .0219.005.0352 0l1.125-.351c.3884-.122.783-.242 1.1718-.352l.5625-.152.5625-.164.586-.106c.5851-.04 1.1526.106 1.664.387l.5625.317.3164.164.375-.235.5625-.386c.5691-.384 1.2288-.633 1.9571-.633h1.125c.7629 0 1.4461.286 2.0156.703l.5627.41.387.281.316-.14.562-.282c.634-.31 1.331-.425 2.051-.293l.563.094.562.106c.273.05.552.077.821.07l.562-.023.563-.012c.243-.007.492-.045.75-.117l.562-.164.563-.153.574-.105c.57-.048 1.128.069 1.64.328l.563.293.562.281.047.012.551-.153.563-.164c.713-.201 1.437-.138 2.109.141l1.125.469c.169.07.306.08.422.07l1.125-.094c.405-.035.813-.061 1.219-.07l1.125-.023c.213-.005.442-.038.679-.118l.563-.199.562-.187c.491-.166 1.002-.271 1.512-.305l1.125-.07c.367-.025.734-.053 1.101-.082l1.125-.094c.437-.035.876-.043 1.313-.024l.562.036.563.023c.542.024 1.071.135 1.582.328l.563.211.562.223c.029.011.051.011.059.011.003.001.026 0 .058-.011l.563-.199.562-.188c.586-.201 1.198-.273 1.817-.187l1.125.164c.366.051.735.095 1.101.14l1.125.141c.325.04.649.063.973.07l1.125.024c.137.003.299-.021.492-.106l1.125-.492c.527-.231 1.079-.371 1.652-.398l.563-.036.562-.023c.53-.026 1.055.031 1.571.164l1.125.281c.336.087.673.165 1.007.223l.563.094.562.105c.29.05.582.071.868.07h1.125c.509-.001 1.015.057 1.511.188l1.125.305c.072.018.138.023.235-.012l.562-.211.563-.199c.553-.199 1.133-.292 1.722-.258l1.125.07c.208.012.422-.01.645-.07l1.125-.305c.643-.173 1.296-.164 1.934.024l1.125.328c.35.103.705.197 1.054.281l.563.141.562.129c.102.024.199.025.317-.012l1.125-.352c.68-.216 1.387-.215 2.062.012l1.09.363.562-.281.563-.293c.529-.271 1.094-.445 1.687-.492l1.125-.094c.768-.061 1.465.182 2.063.574l.562.364.563.375c.047.031.087.039.105.047l1.125-.141c.352-.048.703-.111 1.055-.176l.563-.105 1.757-.293.563-.071.562-.082c.59-.08 1.177-.026 1.747.141l1.125.328c.006-.002.026-.002.046-.012l.563-.281.562-.269c.681-.331 1.437-.425 2.192-.211l1.125.328c.325.092.651.166.972.222l.563.094.562.106c.154.027.314.021.481-.024l1.125-.304c.627-.17 1.27-.177 1.898-.012l.563.152.516.129.023-.012.562-.328.563-.34c.593-.351 1.268-.542 1.992-.492l1.125.07c.468.033.935.116 1.395.235l.562.14.563.153 1.687.422.563.152c.312.079.629.127.937.164l1.125.141c.087.009.193.005.34-.059l1.125-.492c.525-.229 1.083-.369 1.652-.398l.563-.024.562-.035c.539-.028 1.072.032 1.594.176l.563.164.562.152c.023.006.039.001.047 0s.035-.003.082-.023l.563-.246.562-.235c.707-.306 1.474-.348 2.215-.094l.562.188.563.199h.035s.022.003.059-.012l.562-.21.563-.223c.558-.218 1.143-.326 1.746-.293l1.125.07c.66.038 1.278.25 1.828.586l.562.352.457.269.422-.164.563-.246c.695-.297 1.447-.342 2.179-.105l.563.175.562.188c.219.07.427.099.622.094l.562-.012.563-.024c.323-.009.648-.029.972-.07l1.125-.14c.451-.057.907-.085 1.36-.071l.562.024.563.011c.392.013.791.033 1.183.059l1.125.07c.414.027.83.081 1.242.141l1.125.164c.123.017.255.007.41-.047l1.125-.398c.454-.158.919-.276 1.383-.352l.563-.094.562-.082c.727-.117 1.425.016 2.051.34l1.125.586c.212.11.385.155.527.164l1.125.07c.022.002.1.002.258-.093l1.125-.68c.597-.36 1.281-.559 2.016-.504l.562.035.563.047c.382.029.766.059 1.148.094l.563.059.562.046c.41.038.822.086 1.231.153l1.125.187c.127.021.257.014.41-.035l.562-.187.563-.176c.702-.23 1.433-.21 2.121.047l.563.199.503.187 1.102-.55.656-.235c.23-.048.477-.057.727-.035.242.022.469.072.679.152l.598.317 1.125.773c.198.135.32.161.375.164l1.125.071c.022.001.096.009.246-.082l1.125-.68c.624-.378 1.349-.582 2.121-.469l.563.094.562.082c.41.06.823.133 1.231.223l.562.117.563.129c.064.013.137.008.246-.035l1.125-.446c.663-.264 1.373-.319 2.074-.129l1.125.305c.071.019.131.02.223-.012l1.125-.398c.675-.239 1.386-.26 2.074-.047l1.125.352c.402.124.807.26 1.207.41l.563.211.457.164.515-.282.563-.328c.564-.326 1.191-.533 1.863-.539h1.125c.489-.003.984.047 1.465.153l.562.117.563.129c.432.095.862.215 1.289.363l.562.199.563.188c.003-.001.018.007.035 0l1.125-.492c.724-.316 1.501-.34 2.25-.059l.563.211.48.176.539-.282.563-.293.609-.246c.415-.11.845-.119 1.266-.023l.621.223 1.007.503.457-.234.563-.293c.558-.286 1.166-.455 1.805-.457h1.125c.571-.001 1.129.112 1.664.316l1.125.422c.255.098.496.154.726.176l1.125.117c.158.015.329-.008.516-.07l1.125-.375c.655-.217 1.337-.236 2.004-.047l1.125.328h.035c.01-.003.026-.013.047-.023l.562-.258.563-.27.574-.199c.584-.14 1.189-.093 1.77.153l1.125.468c.195.083.36.11.504.106l1.125-.024c.498-.012.998.033 1.488.141l.562.129.563.117c.091.02.184.019.304-.023l1.125-.399c.548-.192 1.119-.276 1.7-.246l.562.024.563.035c.3.015.601.005.902-.024l.563-.058.562-.047c.648-.062 1.276.051 1.863.305l.563.246.515.211.54-.223.562-.246c.493-.216 1.01-.365 1.535-.434l1.125-.14c.761-.099 1.47.098 2.086.468l.563.34.562.328c.136.082.198.084.211.082l.563-.058.562-.047c.343-.032.688-.075 1.031-.129l.563-.094.562-.082c.224-.035.468-.113.727-.234l1.125-.516c.598-.279 1.248-.413 1.922-.34l.562.059.563.07c.654.071 1.256.314 1.793.668l.562.375.563.363c.02.014.034.029.047.036l.527-.094.562-.117c.508-.098 1.022-.126 1.536-.082l.562.058.563.047c.117.01.252-.012.421-.082l.563-.234.562-.223c.637-.263 1.328-.344 2.016-.199l1.125.234c.223.047.441.058.656.035l1.125-.117c.34-.036.68-.082 1.02-.14l.562-.094.563-.106c.476-.082.96-.112 1.441-.093l1.125.046c.279.012.563-.003.844-.046l.563-.082.562-.094c.555-.085 1.115-.07 1.664.047l.563.129.562.117c.436.092.871.215 1.301.363l.562.188.563.199c.239.082.465.122.68.129l.562.011.563.024c.278.009.561-.013.843-.059l.563-.093.562-.083c.266-.042.538-.125.821-.234l1.125-.422c.805-.309 1.634-.236 2.367.153l.562.304.563.293c.23.123.431.18.597.199l.563.071.539.047c.016-.006.066-.004.129-.047l.562-.387.563-.398.586-.317c.215-.083.454-.131.703-.152.252-.021.495-.005.727.047l.656.234.562.305.469.234.457-.199.563-.246.656-.211c.434-.077.867-.032 1.277.105l.598.27.562.351.563.34c.025.016.046.019.058.024l.539-.106.563-.117c.232-.049.483-.144.75-.281l.562-.281.563-.293.668-.246c.447-.095.898-.061 1.324.082l.621.293.563.363.351.211.34-.188.563-.316c.502-.29 1.065-.446 1.652-.422l.598.082 1.125.281c.249.063.489.098.726.094l1.125-.023c.402-.007.806.007 1.207.023l.563.012.562.023c.303.012.61.007.914-.023l1.125-.117c.661-.066 1.306.06 1.899.328l1.125.515c.181.082.325.098.445.094l.563-.023.562-.012c.324-.012.659-.049.984-.094l.563-.07.562-.082c.185-.026.396-.088.633-.211l1.125-.586.668-.246c.67-.147 1.347-.012 1.946.363l.562.352.563.363c.027.017.056.017.07.023l.539-.093.562-.106c.271-.051.556-.128.844-.246l1.125-.469c.666-.271 1.38-.323 2.086-.129l.563.153.562.164c.214.059.425.073.621.058l.563-.035.562-.047c.344-.026.686-.06 1.02-.105l.551-.082.539-.07c.486-.067.982-.074 1.476-.024l1.149.117c.181.019.346.004.503-.047l.54-.175.527-.176c.126-.041.248-.112.375-.234l.433-.411.422-.41c.56-.543 1.264-.825 2.028-.855l.621-.024.492-.035.27-.351.351-.481c.399-.549.929-.957 1.559-1.207l.55-.223.551-.211c.214-.084.392-.202.551-.339l.445-.375.434-.375c.251-.218.493-.456.726-.703l.399-.434.305-.34-.094-.668-.106-.703c-.106-.741-.005-1.545.493-2.238l.656-.914c.262-.364.57-.717.902-1.067l.434-.469.269-.292-.105-.375-.188-.61c-.226-.75-.173-1.53.176-2.25l.27-.551.257-.55v-.012l-.175-.539-.188-.563c-.126-.386-.247-.773-.363-1.16l-.328-1.125c-.247-.82-.112-1.629.293-2.32l.34-.563.328-.562c.103-.178.117-.297.117-.363v-1.125c-.001-.108-.033-.248-.129-.434l-.293-.563-.281-.562c-.334-.647-.471-1.375-.317-2.121l.235-1.125c.028-.137.029-.273-.012-.422l-.164-.563-.152-.562c-.207-.747-.123-1.492.199-2.168l.269-.562.258-.551-.187-.516-.223-.562c-.214-.559-.315-1.146-.281-1.746l.07-1.125c.032-.566.161-1.119.387-1.641l.492-1.125c.105-.244.165-.47.187-.68l.118-1.125c.016-.155 0-.321-.059-.504l-.176-.562-.187-.563c-.177-.545-.257-1.115-.223-1.687l.07-1.125c.02-.327.023-.658.012-.985l-.012-.562-.023-.563c-.016-.495.027-.988.129-1.476l.234-1.125c.028-.134.029-.265-.011-.41l-.153-.563-.164-.562c-.157-.559-.199-1.135-.129-1.711l.059-.563.07-.562c.019-.155.01-.325-.047-.504l-.351-1.125c-.241-.771-.149-1.543.199-2.238l.281-.563.246-.504-.199-.492-.234-.563c-.341-.805-.288-1.649.105-2.402l.293-.562.152-.305-.269-.363-.422-.563c-.277-.376-.493-.863-.504-1.43-.009-.568.196-1.065.469-1.453l.387-.562.187-.27-.176-.257-.386-.563c-.388-.563-.641-1.221-.657-1.945l-.011-.563-.024-.562c-.017-.796.299-1.501.739-2.075l.421-.562.223-.305-.141-.234-.363-.563c-.231-.368-.391-.807-.41-1.3-.019-.499.111-.956.328-1.348l.317-.563.222-.433-.199-.41-.281-.563c-.35-.696-.441-1.477-.2-2.25l.352-1.125.012-.023c0-.001-.006-.03-.024-.071l-.234-.562-.246-.563c-.291-.688-.333-1.43-.106-2.156l.352-1.125c.098-.31.171-.621.223-.926l.187-1.125c.047-.278.066-.557.059-.832l-.024-1.125c-.013-.501.031-1.007.141-1.5l.258-1.125c.021-.096.018-.195-.024-.316l-.199-.562-.187-.563c-.199-.586-.263-1.199-.176-1.816l.082-.563.07-.562c.011-.083.014-.186-.047-.329l-.246-.562-.234-.563c-.364-.852-.263-1.732.187-2.484l.328-.562.34-.563.012-.035-.27-1.078c-.16-.64-.142-1.292.047-1.922l.176-.563.164-.562c.042-.14.049-.263.024-.387l-.235-1.125c-.102-.491-.148-.989-.129-1.488l.047-1.125c.006-.153-.029-.32-.105-.516l-.211-.562-.223-.563c-.197-.503-.322-1.026-.363-1.558l-.094-1.125c-.046-.598.045-1.185.246-1.746l.399-1.125c.088-.246.141-.483.152-.703l.023-.563.036-.562c.007-.151-.022-.314-.094-.504l-.422-1.125c-.202-.531-.312-1.087-.316-1.653l-.012-.562v-.563c-.004-.517.061-1.032.199-1.535l.305-1.125c.059-.215.085-.422.07-.621l-.047-.562-.035-.563c-.024-.326-.062-.657-.117-.984l-.094-.563-.105-.562c-.079-.467-.106-.936-.094-1.407l.023-1.125c.009-.361.013-.729.012-1.089v-1.125c-.001-.451.037-.9.105-1.348l.165-1.125c.043-.281.069-.566.058-.844l-.047-1.125c-.015-.383-.027-.765-.035-1.148l-.023-1.125c-.012-.583.095-1.156.304-1.7l.211-.562.199-.516-.257-.527-.282-.562c-.389-.788-.395-1.656-.011-2.45l.269-.562.235-.504-.211-.481-.246-.562c-.36-.808-.318-1.659.082-2.426l.293-.562.234-.469-.211-.445-.27-.563c-.229-.48-.396-.977-.492-1.488l-.211-1.125c-.115-.617-.073-1.242.106-1.84l.328-1.125c.11-.368.223-.734.328-1.102l.164-.562.141-.481-.703-1.125c-.426-.686-.588-1.504-.34-2.343l.328-1.125c.114-.386.238-.775.363-1.16l.176-.563.164-.516-.305-.55-.304-.563c-.432-.787-.47-1.682-.071-2.508l.539-1.125c.084-.174.11-.299.106-.398l-.047-1.125c-.006-.129-.045-.299-.152-.504l-.586-1.125c-.299-.572-.476-1.202-.457-1.863l.023-.563.012-.562c.017-.569.146-1.125.363-1.653l.235-.562.222-.563c.085-.207.118-.389.117-.55v-1.125c-.001-.414.016-.83.047-1.243l.047-.562.035-.563c.004-.052.001-.139-.082-.293l-.609-1.125c-.429-.796-.445-1.688-.035-2.507l.562-1.125c.067-.134.064-.211.059-.258l-.141-1.125c-.074-.57-.038-1.143.106-1.699l.14-.563.153-.562v-.024c-.001-.004-.012-.032-.036-.082l-.257-.562-.27-.563c-.274-.573-.428-1.192-.398-1.84l.035-.562.023-.563c.026-.562.157-1.107.375-1.629l.235-.562.187-.469-.269-.48-.305-.563c-.218-.395-.353-.857-.328-1.359.025-.5.205-.946.445-1.313l.363-.562.375-.563.047-.094-.093-.527-.094-.562c-.04-.247-.107-.514-.223-.786l-.246-.562-.234-.563c-.329-.773-.306-1.59.047-2.343l.257-.563.27-.562c.095-.203.126-.373.129-.516l.023-1.125c.004-.192-.03-.401-.105-.621l-.188-.562-.199-.563c-.243-.717-.217-1.459.059-2.156l.445-1.125c.088-.223.135-.424.141-.61l.023-1.125c.007-.27-.01-.545-.059-.82l-.105-.562-.094-.563c-.089-.497-.12-1.009-.082-1.512l.047-.562.035-.563c.026-.344.041-.687.047-1.031l.023-1.125c.002-.091-.022-.218-.117-.398l-.293-.563-.304-.562c-.426-.808-.422-1.707 0-2.52l.293-.562.281-.563c.128-.247.201-.468.234-.668l.188-1.125c.018-.11.005-.229-.047-.375l-.399-1.125c-.155-.429-.285-.866-.386-1.301l-.129-.562-.141-.563c-.155-.67-.095-1.343.141-1.98l.211-.563.176-.503-.282-.516-.304-.563c-.354-.66-.484-1.411-.305-2.179l.258-1.125c.093-.399.201-.798.316-1.196l.328-1.125c.067-.23.089-.456.082-.668l-.011-.562-.024-.563c-.007-.208-.044-.432-.129-.668l-.211-.562-.199-.563c-.263-.735-.229-1.503.07-2.214l.235-.563.211-.516-.235-.515-.269-.563c-.359-.777-.35-1.617.011-2.39l.27-.563.258-.562c.06-.128.055-.208.047-.258l-.082-.563-.094-.562c-.048-.295-.125-.599-.223-.902l-.176-.563-.187-.562c-.173-.539-.252-1.1-.223-1.664l.035-.563.024-.562c.014-.277.004-.554-.035-.833l-.164-1.125c-.069-.485-.077-.977-.035-1.464l.093-1.125c.045-.526.17-1.038.364-1.536l.222-.562.211-.563c.059-.15.074-.271.059-.375l-.164-1.125c-.064-.449-.088-.907-.082-1.359v-.562l.011-.563c.002-.195-.032-.4-.105-.621l-.375-1.125c-.278-.833-.137-1.661.281-2.367l.328-.563.235-.422-.2-.375-.293-.562c-.358-.687-.463-1.46-.234-2.238l.328-1.125c.075-.254.112-.501.117-.739l.024-1.125c.003-.154-.025-.327-.106-.527l-.222-.562-.235-.563c-.32-.795-.261-1.624.118-2.367l.293-.563.281-.562c.098-.193.128-.342.129-.457v-.563l.011-.562c.005-.506.068-1.007.2-1.5l.304-1.125c.066-.246.097-.483.094-.715l-.012-.563v-.562c0-.042-.022-.145-.14-.328l-.727-1.125c-.419-.648-.619-1.424-.445-2.25l.234-1.125c.038-.177.034-.352 0-.527l-.211-1.125c-.091-.471-.143-.954-.14-1.43v-.563l.011-.562c.005-.688.22-1.321.563-1.887l.68-1.125c.1-.166.106-.26.105-.293l-.047-1.125c-.009-.233-.06-.475-.14-.726l-.352-1.125c-.191-.597-.248-1.219-.141-1.84l.106-.563.094-.562c.014-.085.005-.184-.047-.317l-.446-1.125c-.269-.679-.309-1.401-.093-2.109l.175-.563.164-.562c.05-.163.058-.316.036-.457l-.082-.563-.094-.562c-.085-.53-.084-1.063 0-1.594l.082-.562.094-.563c.012-.077.01-.169-.047-.305l-.235-.562-.246-.563c-.363-.859-.246-1.746.211-2.496l.34-.562.211-.352-.199-.34-.34-.562c-.349-.58-.562-1.237-.539-1.945l.023-.563.012-.562c.023-.72.292-1.373.68-1.934l.386-.562.235-.364-.164-.304-.317-.563c-.452-.814-.466-1.726-.023-2.555l.305-.562.293-.563c.02-.037.033-.063.035-.07l-.141-.551-.141-.562c-.147-.592-.159-1.196-.035-1.793l.235-1.125c.062-.299.103-.597.117-.891l.047-1.125c.007-.153-.019-.321-.094-.515l-.211-.563-.223-.562c-.254-.665-.287-1.369-.093-2.063l.152-.562.164-.563c.033-.117.031-.225 0-.34l-.305-1.125c-.145-.545-.186-1.103-.129-1.664l.118-1.125c.032-.316.04-.634.035-.949l-.024-1.125c-.008-.5.049-.998.164-1.488l.141-.563.129-.562c.071-.299.12-.598.141-.891l.035-.562.047-.563c.003-.05-.008-.147-.094-.305l-.61-1.125c-.394-.724-.486-1.544-.187-2.355l.199-.563.211-.562c.048-.13.053-.235.035-.328l-.105-.563-.117-.562c-.109-.565-.102-1.135.011-1.699l.106-.563.117-.562c.011-.054.015-.12-.035-.235l-.492-1.125c-.357-.821-.286-1.678.129-2.437l.609-1.125c.006-.012.009-.029.012-.035l-.153-.528-.164-.562c-.169-.591-.193-1.198-.082-1.805l.094-.562.105-.563c.014-.075.017-.166-.035-.293l-.234-.562-.223-.563c-.323-.794-.272-1.622.106-2.367l.281-.563.258-.527-.199-.469-.235-.562c-.308-.753-.286-1.555.035-2.297l.235-.563.246-.562c.037-.087.032-.119.023-.152l-.14-.563-.153-.562c-.079-.309-.177-.622-.304-.938l-.223-.562-.234-.563c-.222-.549-.331-1.128-.317-1.723l.024-1.125c.008-.339.004-.68-.012-1.019l-.047-1.125c-.028-.602.073-1.189.293-1.746l.445-1.125c.07-.177.091-.325.082-.457l-.047-.563-.035-.562c-.027-.366-.06-.736-.093-1.102l-.059-.562-.047-.563c-.05-.554-.002-1.113.141-1.652l.152-.563.141-.562c.014-.056.023-.109-.012-.199l-.223-.563-.211-.562c-.179-.464-.317-.939-.398-1.418l-.188-1.125c-.122-.73.015-1.434.34-2.063l.586-1.125c.146-.283.251-.552.317-.808l.257-1.032-.75-1.125c-.4-.594-.641-1.301-.586-2.074l.071-1.125c.023-.322.034-.651.023-.973l-.023-.562-.012-.563c-.018-.549.059-1.09.223-1.617l.351-1.125c.018-.058.015-.103-.011-.176l-.399-1.125c-.242-.676-.261-1.384-.047-2.074l.176-.562.164-.563c.03-.094.038-.168.012-.258l-.328-1.125c-.154-.527-.226-1.07-.2-1.617l.036-.562.023-.563c.025-.502.11-1.001.258-1.488l.351-1.125c.025-.081.016-.149-.011-.234l-.176-.563-.188-.562c-.241-.753-.172-1.518.153-2.215l.269-.563.258-.562c.02-.042.022-.07.024-.082 0-.006.003-.019 0-.035l-.282-1.125c-.094-.372-.195-.754-.293-1.125l-.14-.563-.153-.562c-.146-.562-.176-1.136-.093-1.711l.082-.563.07-.562c.077-.538.244-1.061.48-1.559l.27-.562.246-.54-.199-.515-.223-.563c-.291-.739-.279-1.519.024-2.25l.234-.562.223-.551-.223-.551-.223-.562c-.199-.486-.342-.989-.41-1.5l-.07-.563-.082-.562c-.062-.463-.081-.93-.059-1.395l.035-.562.024-.563c.014-.308.002-.617-.024-.926l-.234-2.812-.035-.563c-.056-.683.086-1.341.387-1.933l.293-.563.281-.562c.068-.134.064-.206.058-.246l-.07-.563-.082-.562c-.073-.541-.049-1.082.059-1.617l.117-.563.105-.562c.045-.222.059-.441.035-.657l-.07-.562-.058-.563c-.044-.381-.092-.767-.129-1.148l-.047-.563-.059-.562c-.059-.602.014-1.201.211-1.77l.199-.562.153-.492-.293-.528-.317-.562c-.409-.727-.505-1.568-.199-2.391l.199-.562.211-.563c.105-.282.183-.554.223-.82l.164-1.125c.034-.226.034-.454 0-.68l-.164-1.125c-.076-.498-.086-1-.035-1.5l.047-.562.058-.563c.006-.063.004-.155-.07-.304l-.563-1.125c-.313-.633-.434-1.34-.304-2.063l.105-.562.094-.563c.026-.1485.021-.295-.023-.457l-.305-1.125c-.228-.8316-.055-1.6314.363-2.3086l.34-.5625.352-.5625.046-.0938-.105-.539-.106-.5625c-.066-.3666-.126-.735-.199-1.1016l-.117-.5625-.105-.5625c-.085-.4307-.153-.8673-.188-1.3008l-.047-.5625-.035-.5625c-.05-.6274.056-1.2413.293-1.8164l.234-.5625.223-.5625c.068-.1665.081-.2957.07-.4101l-.093-1.125c-.042-.4482-.05-.899-.024-1.3477l.035-.5625.024-.5625c.019-.3261.024-.6584.011-.9844l-.023-.5625-.012-.5625c-.008-.2037-.052-.4216-.14-.6562l-.422-1.125c-.256-.6807-.289-1.3972-.07-2.0977l.351-1.125c.081-.2607.128-.5177.141-.7617l.023-.5625.035-.5625c.01-.2012-.019-.413-.082-.6328l-.152-.5625-.164-.5625c-.184-.6437-.185-1.3018 0-1.9453l.164-.5625.152-.5625c.035-.1222.041-.2364.012-.3516l-.281-1.125c-.106-.4199-.194-.8429-.258-1.2656l-.082-.5625-.094-.5625c-.094-.6271-.02-1.2468.188-1.8399l.199-.5625.187-.5625c.005-.0125.012-.0228.012-.0234-.001-.0048-.007-.0118-.012-.0234l-.468-1.125c-.332-.7915-.293-1.6281.082-2.3789l.281-.5625.246-.5039-.211-.4571-.258-.5625c-.244-.5379-.393-1.1068-.41-1.6992l-.023-1.125c-.017-.5983.091-1.1833.316-1.7344l.469-1.125c.108-.265.177-.5213.211-.7617l.07-.5625.082-.5625c.033-.2373.033-.4774 0-.7148l-.164-1.125c-.039-.2783-.101-.5651-.199-.8555l-.188-.5625-.199-.5625c-.222-.6579-.239-1.3448-.047-2.0156l.328-1.125c.097-.3353.18-.6751.246-1.0078l.106-.5625.117-.5625c.045-.2264.058-.4478.035-.668l-.07-.5625-.059-.5625c-.038-.3582-.079-.7198-.129-1.0781l-.082-.5625-.07-.5625c-.054-.3887-.099-.7831-.141-1.1719l-.07-.5625-.058-.5625c-.039-.3582-.079-.7197-.129-1.0781l-.164-1.125c-.054-.3788-.103-.758-.153-1.1367l-.07-.5625-.082-.5625c-.088-.6701.026-1.3291.293-1.9336l.492-1.125c.122-.2769.21-.5433.258-.7969l.211-1.125c.05-.2672.066-.5418.058-.8203l-.011-.5742-.012-.586c-.002-.0592-.022-.1382-.106-.2578l-.375-.5156-.363-.5274c-.351-.4948-.613-1.0492-.726-1.6523l-.094-.5391-.106-.5508c-.091-.4898-.119-.9954-.093-1.5117l.023-.6328.024-.5976-.786-.7852c-.299-.2992-.585-.6037-.855-.9023l-.387-.4102-.375-.4219c-.304-.3364-.582-.6989-.832-1.0781l-.316-.4687-.305-.4688c-.177-.26993-.376-.54109-.586-.79687l-.363-.44531-.363-.4336c-.194-.23529-.403-.46233-.633-.66797l-.867-.77343c-.249-.22191-.51-.43367-.786-.63282l-.48-.33984-.469-.35156c-.213-.1545-.446-.27939-.691-.375l-.551-.21094-.539-.21094c-.258-.10052-.523-.17117-.797-.21093l-.586-.08204-.574-.08203c-.219-.03177-.444-.03106-.68.01172l-.597.10547-.586.11719c-.797.14645-1.558-.03921-2.215-.45703l-.551-.33985-.551-.35156c-.023-.01473-.037-.03073-.047-.03516l-.55.10547-.563.10547c-.298.05478-.598.13959-.902.2461l-.563.1875-.562.19921c-.589.20608-1.205.2746-1.828.1875l-.563-.08203-.562-.07031c-.461-.06448-.92-.17366-1.371-.31641l-.563-.17578-.539-.17578v.01172l-1.125.58594c-.598.31095-1.262.46333-1.957.39844l-.563-.04688-.562-.05859c-.455-.04299-.911-.11848-1.359-.23438l-.563-.15234-.562-.14063c-.283-.07323-.571-.11347-.844-.1289l-1.125-.07032c-.139-.00706-.296.01995-.481.09375l-1.125.44532c-.536.21437-1.097.32746-1.675.32812h-1.125c-.394.00014-.791.00374-1.184-.01172l-1.125-.04687c-.381-.01505-.767-.03853-1.148-.0586l-.563-.02343-.562-.03516c-.234-.01229-.472.00471-.715.05859l-1.125.25782c-.889.19887-1.701-.07608-2.344-.55078l-.563-.41016-.562-.42188c-.083-.06122-.139-.07752-.152-.08203l-.539.03516-.563.04687c-.343.02513-.687.05969-1.031.10547l-.563.08203-.562.07032c-.184.02449-.396.08863-.633.21093l-1.125.58594c-.553.28623-1.161.45543-1.793.46875l-1.125.02344c-.641.01277-1.252-.14307-1.816-.42188l-.563-.28125-.562-.26953c-.012-.00576-.018-.02135-.024-.02343l-.539.1875-.562.1875c-.6.19472-1.227.23933-1.852.1289l-.562-.09375-.563-.10547c-.128-.02183-.259-.0123-.41.03516l-1.125.35156c-.71.22352-1.436.19794-2.121-.07031l-1.125-.44531c-.222-.0872-.424-.12431-.61-.12891l-1.125-.02344c-.134-.00307-.299.0204-.492.10547l-1.125.49219c-.53.23384-1.086.37392-1.664.39844l-1.125.04687c-.824.03473-1.544-.28081-2.121-.73828l-1.125-.89062c-.038-.02997-.064-.04866-.082-.0586l-.48.07031-.563.07032c-.454.05787-.915.07407-1.371.05859l-.563-.01172-.562-.02344c-.201-.00641-.411.01482-.633.08204l-1.125.35156c-.684.20795-1.391.18758-2.062-.04688l-1.125-.39843c-.175-.06026-.327-.07285-.469-.0586l-1.125.11719c-.213.02197-.444.08175-.692.1875l-.562.23437-.563.2461c-.699.29842-1.457.33675-2.191.09375l-1.125-.375c-.202-.06629-.388-.09184-.562-.08203l-1.125.07031c-.465.02642-.932.00994-1.395-.04688l-1.125-.14062c-.241-.02938-.485-.02401-.727.01172l-1.125.16406c-.236.03528-.486.10962-.75.22266l-.562.23437-.563.2461c-.895.38362-1.798.22666-2.542-.26954l-.563-.375-.516-.33984-.41.15234-.562.19922c-.481.16853-.977.27828-1.477.32813l-1.125.11719c-.496.04916-.994.03852-1.488-.03516l-.563-.09375-.562-.08203c-.141-.02116-.291-.00538-.457.04687l-1.125.35157c-.674.21184-1.369.20739-2.039-.01172l-1.125-.375c-.389-.12729-.784-.25913-1.172-.39844l-1.125-.39844c-.139-.04937-.247-.05347-.352-.03515l-.562.09375-.563.10546c-.515.09083-1.039.10627-1.558.04688l-.563-.07031-.562-.0586c-.302-.03443-.602-.05665-.903-.04687l-1.125.04687c-.039.00129-.15.01258-.339.14063l-.563.375-.562.38672c-.701.47176-1.564.66614-2.45.36328l-.562-.19922-.563-.1875c-.394-.1351-.789-.27893-1.183-.43359l-.563-.22266-.48-.19922-.504.29297-.563.30469c-.833.4553-1.757.43996-2.578-.02344l-1.125-.63281c-.066-.03763-.116-.05598-.129-.0586h-.011l-1.125.1875c-.28.04628-.575.1281-.868.23438l-1.125.39844c-.662.24004-1.355.27594-2.039.08203l-.562-.16407-.563-.15234c-.317-.09043-.637-.16236-.949-.21094l-.562-.09375-.563-.08203c-.102-.01595-.217-.00873-.363.04688l-1.125.42187c-.585.22269-1.2.31917-1.828.2461l-1.125-.14063c-.336-.03927-.673-.05816-1.008-.07031l-1.125-.04688c-.379-.01376-.758-.02984-1.137-.04687l-1.125-.04688c-.187-.00842-.385.01439-.597.08203l-.563.1875-.562.17579c-.445.14241-.896.25681-1.348.32812l-.563.08203-.562.09375c-.565.08877-1.141.06813-1.699-.05859l-1.125-.25781c-.454-.10316-.905-.24571-1.348-.42188l-1.125-.44531c-.26-.10323-.504-.17205-.738-.19922l-.563-.05859-.562-.07032c-.004-.00041-.011-.00288-.024 0-.019.00477-.067.0257-.14.07032l-.563.35156-.562.33984c-.39.23948-.861.39782-1.383.38672-.521-.01139-.983-.18581-1.359-.43359l-.563-.375-.562-.36328c-.083-.05407-.138-.08584-.165-.09375-.02-.00552-.032-.00019-.035 0l-1.125.07031c-.339.02275-.679.06004-1.019.10547l-.563.08203-.562.07031c-.36.0482-.73.10486-1.09.16406l-1.125.1875c-.501.08187-1.007.09784-1.512.04688l-1.125-.11719c-.392-.0399-.791-.08676-1.183-.14062l-.563-.08204-.562-.07031h-.012c-.015.00376-.06.01673-.129.0586l-1.125.67968c-.616.37542-1.332.5781-2.098.48047l-1.125-.14062c-.258-.03261-.515-.03752-.773-.01172l-1.125.11719c-.801.0813-1.53-.17898-2.133-.59766l-.562-.38672-.563-.39844c-.017-.01171-.036-.01711-.047-.02343l-.492.10546-.562.10547c-.468.09446-.945.14965-1.418.15235h-1.125c-.288.00189-.577.0307-.868.08203l-.562.10547-.563.09375c-.541.0955-1.087.10139-1.629.01172l-1.125-.1875c-.017-.00284-.067-.01558-.187.04687l-1.125.58594c-.411.21462-.885.32871-1.395.28125-.502-.04787-.946-.23931-1.3-.49219l-.563-.39844-.504-.36328-.386.14063-.563.1875c-.653.22211-1.334.2426-2.004.05859l-1.125-.30469c-.079-.02179-.15-.02093-.246.01172l-.562.1875-.563.19922c-.742.25277-1.509.20313-2.215-.10547l-.562-.24609-.528-.23438-.515.23438-.563.24609c-.464.20138-.945.34703-1.429.44531l-1.125.23438c-.717.14506-1.422.03127-2.063-.26953l-.562-.25781-.563-.26954c-.047-.02171-.074-.02249-.082-.02343-.006-.0006-.016-.00484-.035 0l-.563.14062-.562.15235c-.419.10609-.845.19209-1.266.25781l-.562.08203-.563.09375c-.692.10695-1.363-.01771-1.98-.30469l-1.125-.51562c-.021-.00952-.042-.02209-.047-.02344l-.551.1875-.562.17578c-.467.1495-.95.25275-1.43.30469l-1.125.11719c-.634.06789-1.255-.02403-1.84-.25782l-1.125-.44531-.012-.01172v.01172l-1.125.44531c-.767.30443-1.57.27029-2.308-.07031l-.563-.25781-.386-.1875-.434.28125-.563.35156c-.59.37117-1.276.59408-2.015.55078l-1.125-.07031c-.451-.02653-.901-.08066-1.348-.17578l-.562-.12891-.563-.11719c-.436-.09309-.87-.21457-1.301-.36328l-.562-.19922-.563-.1875c-.07-.02438-.113-.0196-.175 0l-1.125.35157c-.465.14844-.941.25215-1.418.30468l-.563.0586-.562.07031c-.385.0421-.775.07254-1.161.10547l-.562.04687-.563.0586c-.381.03254-.767.05501-1.148.08203l-.562.04687-.563.03516c-.417.02952-.837.04109-1.254.03516l-.562-.01172h-.563c-.388-.00558-.783-.01913-1.172-.03516l-1.125-.04687c-.37-.01527-.743-.03411-1.113-.04688l-.563-.01172-.562-.02343c-.447-.01559-.892-.07121-1.336-.15235l-.562-.09375-.563-.10547c-.17-.03106-.34-.02838-.516.01172l-1.125.25781c-.571.13261-1.156.15168-1.734.04688l-1.125-.21094c-.499-.09091-.99-.23646-1.465-.44531l-.562-.24609-.317-.15235-.422.32813-.562.42187c-.35.2655-.786.49319-1.301.55078-.527.05852-1.022-.06765-1.441-.29297l-.563-.30468-.551-.30469-.503.17578-.563.19922c-.541.18215-1.106.25939-1.676.23437l-1.125-.04687c-.428-.01884-.862-.06421-1.289-.12891l-1.125-.16406c-.176-.02604-.352-.02216-.539.02344l-1.125.28125c-.457.11159-.919.18141-1.383.21094l-1.125.07031c-.537.034-1.071-.0288-1.593-.16406l-1.125-.28125c-.354-.0919-.714-.18217-1.067-.25782l-1.125-.23437c-.173-.03714-.343-.04675-.515-.01172l-1.125.23437c-.395.08015-.789.14847-1.184.21094l-.563.09375-.562.08203c-.611.09664-1.229.05463-1.816-.1289l-.563-.17578-.539-.17579-.012.01172-1.125.58594c-.664.34167-1.409.45786-2.168.26953l-1.125-.28125c-.225-.05607-.444-.07414-.656-.05859l-.562.04687-.563.03516c-.473.0347-.946.02374-1.418-.03516l-1.125-.14062c-.496-.06219-.988-.18578-1.465-.36328l-1.125-.42188c-.084-.03109-.139-.02855-.199-.01172l-.563.16407-.562.15234c-.478.13447-.963.22098-1.453.24609l-.563.02344-.562.03516c-.223.01169-.457.05408-.703.14062l-1.125.39844c-.565.19805-1.159.27574-1.758.22266l-1.125-.09375c-.331-.02923-.665-.04597-.996-.04688h-.563l-.562-.01172c-.361-.00096-.729.00372-1.09.01172l-.551.01172-.562.02344c-.472.01044-.951-.02592-1.418-.10547l-.563-.10547-.562-.09375c-.252-.04266-.502-.05473-.75-.03516l-1.125.09375c-.718.05719-1.396-.12816-1.992-.46875l-.563-.3164-.527-.31641-.469.1875-.563.19922c-.443.15881-.894.27633-1.347.36328l-.563.11719-.562.10547c-.484.09262-.976.12288-1.465.10547l-.563-.01172-.562-.02344c-.646-.02323-1.252-.21721-1.805-.52734l-.562-.31641-.399-.22266-.386.22266-.563.31641c-.535.29884-1.117.48956-1.734.53906l-1.125.09375c-.397.03156-.799.05583-1.196.07031l-.562.02344-.563.01172c-.454.01637-.907-.00203-1.359-.0586l-1.125-.14062c-.224-.02806-.452-.01727-.68.02344l-.562.09375-.563.10546c-.645.11497-1.289.05542-1.898-.16406l-.563-.21094-.562-.19921c-.223-.07996-.428-.11545-.621-.11719h-.563l-.562-.01172c-.39-.00282-.782-.00866-1.172-.02344l-1.125-.04687c-.3144-.01195-.6344-.00278-.9493.02343l-1.125.09375c-.379.03156-.7576.06682-1.1367.09375l-.5625.03516-.5625.04688c-.4239.03011-.853.03508-1.2773.02343l-.5625-.01172-.5625-.02343c-.3472-.0095-.6959-.00939-1.043 0l-.5625.02343-.5625.01172c-.4019.01085-.8051.01118-1.207 0l-.5625-.02343-.5625-.01172c-.4466-.01248-.8924-.05254-1.336-.12891l-.5625-.10547-.5625-.09375c-.1363-.0235-.276-.01303-.4336.03516l-.5625.17578-.5625.16406c-.4596.14058-.9242.24098-1.3945.29297l-.5625.05859-.5625.07032c-.4867.05355-.9783.0444-1.4648-.01172l-.5625-.0586-.5625-.07031c-.2285-.02633-.459-.01809-.6914.02344l-.5625.10547-.5625.09375c-.8357.14881-1.6061-.0938-2.2383-.52735l-.5625-.38671-.3633-.2461-.3047.17578-.5625.31641c-.3918.21873-.8481.35854-1.3476.33984-.4971-.01936-.943-.18713-1.3125-.42187l-.5625-.36328-.2813-.17578-.293.22265-.5625.39844c-.6106.43289-1.357.68899-2.1796.58594l-1.125-.14063c-.3097-.03937-.6295-.06052-.9375-.05859h-.5625l-.5625.01172c-.5318.00275-1.0586-.07791-1.5704-.23438l-1.125-.35156c-.3443-.1052-.6883-.19848-1.0312-.28125l-.5625-.12891-.5625-.14062c-.2241-.05406-.444-.07535-.6563-.0586l-1.125.09375c-.3249.02597-.6575.06983-.9843.12891l-.5625.10547-.5625.09375c-.4097.07395-.8196.13267-1.2305.17578l-1.125.11719c-.3778.03963-.7589.0797-1.1367.11719l-1.125.11718c-.3982.03944-.7969.06329-1.1953.08203l-.5625.03516-.5625.02344c-.5741.02689-1.1439-.05995-1.6875-.2461l-.5625-.19921-.5625-.1875c-.2941-.10054-.5844-.16743-.8672-.21094l-.5625-.09375-.5625-.08203c-.3289-.05054-.6569-.08572-.9844-.10547l-1.125-.07031c-.2236-.01348-.4563.00233-.6914.05859l-.5625.14062-.5625.12891c-.3298.07905-.6632.18156-.9961.29297l-1.125.375c-.7455.24858-1.5123.19697-2.2148-.11719l-.5625-.24609-.5625-.25781c-.0112-.00482-.0184-.01015-.0235-.01172l-.5625.1875-.5625.19922c-.574.19401-1.1759.25709-1.7812.1875l-.5625-.0586-.5625-.07031c-.3362-.03862-.6724-.05772-1.0078-.07031l-1.125-.04688c-.4793-.01794-.959-.08391-1.4297-.19922l-1.125-.28125c-.096-.02294-.1908-.01371-.3047.02344l-.5625.17578-.5625.1875c-.2087.06796-.5265.15807-.8555.16406-.0968.00175-.2798-.01902-.5039-.08203l-.2344.16407c-.6511.43597-1.3968.57876-2.1445.44531l-1.1719-.21094c-.1156-.02062-.1927-.00818-.2695.02344l-.5273.21094-.5274.22265c-.1944.08011-.3795.18984-.5508.33985l-.4453.38671-.4336.38672c-.4277.37574-.9153.666-1.4531.85547l-.5156.1875-.5274.1875c-.43.15101-.8846.26704-1.3593.35156l-1.2188.21094c-.1085.01928-.1409.057-.1641.08203l-.3984.42188-.38671.42187c-.19393.20979-.36784.43787-.51563.67969l-.60937.98439c-.29998.4911-.67816.9178-1.13672 1.2656l-.48047.3633-.46875.3516c-.17848.1351-.32112.2942-.4336.4687l-.3164.4805-.31641.4922c-.02272.0358-.04233.0916-.03515.2226l.03515.6328.02344.6328c.04147.7745-.18112 1.5063-.67969 2.1211l-.375.4805-.38672.4688-.02343.0351.03515.5859.02344.586c.02689.5761-.06094 1.1411-.24609 1.6875l-.1875.5625-.1875.5508c-.06168.182-.07294.3554-.0586.5156l.09375 1.125c.02494.2777.0823.5581.16406.8437l.16407.5625.15234.5625c.1203.4197.22728.8428.30469 1.2657l.10547.5625.09375.5625c.08338.4565.13501.9221.14062 1.3828v.5625l.01172.5625c.00861.7273-.23266 1.3941-.60937 1.9687l-.36329.5625-.375.5625c-.01095.017-.02977.0248-.03515.0352l.11719.5156.1289.5625c.06889.3223.15355.6466.25781.9727l.17579.5625.1875.5625c.22745.7103.19768 1.4452-.07032 2.1328l-.44531 1.125c-.08377.2149-.11511.4083-.11719.5859l-.01172.5625v.5625c-.00136.1739.03563.3738.11719.586l.21094.5625.22266.5625c.19549.5103.31213 1.0405.33984 1.582l.02344.5625.03515.5625c.02524.4947-.0131.9877-.10547 1.4765l-.21093 1.125c-.04706.2484-.06402.4958-.04688.7383l.04688.5625.03515.5625c.04045.5626-.02666 1.1229-.1875 1.6641l-.32812 1.125c-.02947.0992-.02852.1834 0 .2812l.32812 1.125c.21406.7389.13508 1.487-.17578 2.168l-.25781.5625-.22266.4805.2461.4922.26953.5625c.23089.476.41135.9705.51562 1.4765l.10547.5625.11719.5625c.1116.5435.12795 1.092.04687 1.6407l-.16406 1.125c-.07454.5029-.21271.9974-.41015 1.4765l-.46875 1.125.23437.5508.23438.5625c.2189.5317.33986 1.0898.35156 1.6641l.02344 1.125c.0099.4919-.03747.9804-.14063 1.4648l-.23437 1.125c-.08559.4017-.18476.8064-.29297 1.207l-.30469 1.125c-.06594.2449-.09694.4845-.09375.7149l.02344 1.125c.00388.2607.02954.5272.09375.7969l.14062.5625.12891.5625c.12253.5154.17407 1.0435.14062 1.5703l-.07031 1.125c-.01248.2043.00064.4133.05859.6328l.30469 1.125c.13013.4877.2026.9882.21094 1.4883v.5625l.01172.5625c.00515.3258.03304.6576.07031.9843l.05859.5625.07032.5625c.05729.503.04895 1.0103-.02344 1.5118l-.16406 1.125c-.04904.3401-.09199.6801-.11719 1.0195l-.03516.5625-.04687.5625c-.03049.4102-.06923.821-.12891 1.2305l-.16406 1.125c-.0116.0797-.0134.1758.04687.3164l.2461.5625.23437.5625c.36729.8553.26646 1.7426-.1875 2.4961l-.67968 1.1252h-.01172l.15234.504.15234.562c.13267.475.21781.956.2461 1.442l.07031 1.125c.02684.461.00603.922-.04687 1.382l-.0586.563-.07031.562c-.03644.317-.04794.634-.04688.95v1.125c.00166.483-.05001.965-.15234 1.441l-.11719.563-.1289.562.01172.023c.00504.014.00974.034.02343.059l.63282 1.125c.22809.409.35878.894.3164 1.418-.04215.514-.2464.954-.5039 1.313l-.39844.562-.32813.434.15235.363.23437.562c.3163.757.3049 1.562-.02344 2.309l-.24609.562-.23437.516.23437.527.24609.563c.25906.588.3788 1.223.31641 1.875l-.05859.562-.04688.563c-.01432.155-.00295.319.0586.504l.375 1.125c.19701.591.25859 1.208.16406 1.828l-.08203.562-.09375.563c-.0457.301-.0697.604-.07032.902v1.125c-.0004.287.03226.577.08204.868l.1875 1.125c.11221.656.03744 1.309-.19922 1.921l-.22266.563-.21094.562c-.06485.169-.08279.31-.07031.434l.11719 1.125c.06058.61-.02689 1.209-.23438 1.781l-.19922.563-.21093.562c-.05466.151-.06371.274-.04688.387l.09375.562.08203.563c.05995.393.10801.79.15235 1.184l.07031.562.05859.563c.04214.374.08676.75.12891 1.125l.05859.562.07032.563c.04867.432.06184.867.05859 1.3v1.125c-.00369.461-.0471.926-.12891 1.383l-.21093 1.125c-.05802.324-.09396.651-.11719.973l-.03516.562-.04687.563c-.02184.305-.01965.609 0 .914l.07031 1.125c.02703.417.03281.836.02344 1.254l-.02344 1.125c-.00494.217.0264.445.09375.679l.16406.563.15235.562c.20618.718.15417 1.446-.12891 2.122l-.46875 1.125c-.08564.204-.11801.382-.11719.539v.562l.01172.563c.00161.277.02598.561.08203.843l.10547.563.11719.562c.06012.302.14979.605.25781.914l.1875.563.19922.562c.23842.683.24843 1.397.02344 2.086l-.375 1.125c-.05381.164-.05392.31-.03516.446l.07031.562.08203.563c.09695.681-.01656 1.346-.29296 1.957l-.25782.562-.1875.41.26953.457.33985.563c.44977.754.55339 1.633.1875 2.484l-.2461.563-.22265.492.25781.504.26953.562c.29849.614.43621 1.294.33985 1.993l-.16407 1.125c-.03107.225-.02536.452.01172.679l.1875 1.125c.11291.696-.00591 1.371-.29297 1.992l-.51562 1.125c-.12537.271-.21276.531-.25781.774l-.21094 1.125c-.04581.247-.05382.496-.03516.738l.04688.563.03515.562c.03149.41.04652.82.04688 1.231l.01172.562v.563c.00023.4-.01378.806-.03516 1.207l-.03516.562-.02343.563c-.01896.354-.0295.712-.03516 1.066l-.02344 1.125c-.00387.245.02046.506.08203.762l.14063.562.12891.563c.0928.386.18691.774.26953 1.16l.23437 1.125c.09558.447.16169.896.1875 1.348l.07031 1.125c.0255.448.01754.899-.02343 1.347l-.0586.563-.04687.562c-.02936.32-.03986.642-.03516.961v.563l.01172.562c.00423.275.03358.562.09375.844l.11719.562.1289.563c.13288.625.1004 1.254-.08203 1.863l-.16406.563-.17578.562c-.0505.168-.05668.322-.03516.469l.16407 1.125c.06776.45.10861.907.10546 1.359l-.01171.563v.562c-.00368.487-.06487.975-.17579 1.453l-.25781 1.125c-.0418.18-.042.355-.01172.528l.1875 1.125c.08388.475.12114.961.10547 1.441l-.01172.563-.02343.562c-.00989.309.00568.617.03515.926l.04688.562.05859.563c.05588.584-.01143 1.164-.1875 1.723l-.35156 1.125c-.06824.216-.10137.417-.09375.609l.04687 1.125c.01393.339.0434.68.08203 1.02l.0586.562.07031.563c.06864.603-.00674 1.197-.19922 1.769l-.1875.563-.1875.539c.00168.004.00635.012.01172.023l.53906 1.125c.22781.476.38921.972.49219 1.477l.23438 1.125c.11633.571.11527 1.151 0 1.722l-.10547.563-.11719.562c-.07414.368-.15304.734-.22266 1.102l-.21093 1.125c-.06394.338-.11512.683-.15235 1.019l-.11719 1.125c-.01229.118-.00396.248.0586.411l.22265.562.21094.563c.22146.571.31925 1.177.26953 1.793l-.04687.562-.03516.563c-.02901.359-.0633.718-.08203 1.078l-.02344.562-.03515.563c-.02952.567-.1605 1.117-.38672 1.64l-.2461.563-.22265.492.25781.504.28125.562c.27765.565.4232 1.176.41016 1.817l-.02344 1.125c-.01011.488-.06854.974-.1875 1.453l-.28125 1.125c-.0865.346-.16888.697-.23438 1.043l-.21093 1.125c-.03471.183-.03753.366 0 .551l.23437 1.125c.08688.427.14803.859.1875 1.289l.04688.562.05859.563c.04503.493.02501.986-.04687 1.476l-.16407 1.125c-.0412.282-.04773.565-.03515.844l.04687 1.125c.01455.319.04523.64.09375.961l.08203.562.09375.563c.0461.304.10813.616.19922.926l.17578.562.16407.563c.23032.782.11605 1.562-.2461 2.25l-.29297.562-.30468.563c-.11642.221-.16208.409-.17579.562l-.04687.563-.05859.562c-.02495.282-.01498.563.01171.844l.04688.562.05859.563c.03115.326.07748.656.14063.984l.21094 1.125c.12583.653.0721 1.305-.15235 1.922l-.21094.563-.17578.48.30469.528.31641.562c.33463.596.50552 1.267.44531 1.981l-.09375 1.125c-.04874.568-.20063 1.121-.44531 1.64l-.26953.563-.25782.515.22266.528.23437.562c.18176.442.32516.895.4336 1.348l.14062.562.12891.563c.15004.629.13286 1.267-.04688 1.886l-.32812 1.125c-.04608.159-.04887.304-.02344.446l.09375.562.10547.563c.12864.718.00378 1.419-.30469 2.051l-.26953.562-.28125.563c-.10508.217-.15312.402-.16406.562l-.03516.563-.03515.515.08203.141.89062 1.125c.48262.615.79025 1.407.64453 2.297l-.1875 1.125c-.0427.258-.05425.519-.03515.773l.04687.563.03516.562c.0382.51.01684 1.02-.08203 1.524l-.11719.562-.10547.563c-.05801.294-.09732.588-.10547.878l-.01172.563-.02343.562c-.01025.367-.008.736-.01172 1.102l-.01172.563v.562c-.00522.492-.06969.983-.1875 1.465l-.28125 1.125c-.06997.287-.11323.576-.12891.855l-.02343.563-.03516.562c-.00145.038.00262.127.09375.282l.32812.562.33985.563c.45757.781.52501 1.684.11719 2.531l-.26954.562-.28125.563c-.05378.112-.04103.166-.03515.199l.10547.563.09375.562c.07544.409.14118.821.1875 1.231l.07031.562.05859.563c.03687.326.08375.655.15235.984l.1289.562.11719.563c.16968.811-.0297 1.578-.43359 2.226l-.35157.563-.23437.363.21094.352.3164.562c.34945.611.52894 1.302.44532 2.039l-.11719 1.125c-.04995.44-.139.877-.2461 1.313l-.1289.562-.14063.563c-.07184.292-.12181.582-.14062.867l-.07031 1.125c-.02058.313-.02882.625-.01172.938l.07031 1.125c.02153.389.03624.782.04687 1.171l.01172.563.02344.562c.00983.36.01434.719.03516 1.079l.07031 1.125c.01922.331.0581.663.10547.996l.07031.562.08203.563c.05554.389.1093.782.15235 1.172l.05859.562.07031.563c.06271.567.0094 1.136-.14062 1.687l-.30469 1.125c-.05679.208-.07458.406-.05859.598l.09375 1.125c.0333.385.06863.775.09375 1.16l.07031 1.125c.04596.705-.13668 1.367-.46875 1.957l-.31641.562-.25781.446.21094.41.28125.562c.38388.778.40508 1.634.03515 2.426l-.26953.563-.17578.375.28125.433.35156.563c.34152.534.58695 1.127.65625 1.769l.11719 1.125c.06961.651-.04011 1.284-.29297 1.875l-.23437.563-.2461.562-.01172.035.39844 1.125c.24279.697.23387 1.426-.01172 2.122l-.39843 1.125c-.07457.211-.09879.406-.09375.585l.01171.563.02344.562c.01254.45-.01536.9-.07031 1.348l-.07031.563-.0586.562c-.03581.292-.04849.588-.03515.879l.04687 1.125c.01342.287.05382.575.11719.867l.11719.563.1289.562c.15776.725.04888 1.438-.25781 2.086l-.26953.563-.19922.422.25781.457.31641.562c.40685.726.50475 1.558.19922 2.379l-.21094.562-.19922.563c-.05958.16-.07376.291-.05859.41l.14062 1.125c.05561.432.08839.868.09375 1.301l.01172.562v.563c.00317.246.03664.503.10547.762l.30469 1.125c.18039.683.13846 1.373-.10547 2.027l-.42188 1.125c-.04289.114-.05264.203-.03515.281l.25781 1.125c.15363.693.07899 1.386-.1875 2.028l-.46875 1.125-.01172.023.01172.012.39844 1.125c.23338.654.26354 1.35.08203 2.027l-.15234.563-.14063.562c-.07339.275-.11593.545-.12891.809l-.03515.562-.02344.563c-.00064.017-.00306.094.09375.246l.36328.562.35156.563c.40106.629.61206 1.369.48047 2.168l-.1875 1.125c-.0448.269-.06065.543-.04687.808l.03515.563.02344.562c.0228.441.02347.885-.01172 1.325l-.09375 1.125c-.03547.441-.10469.886-.19922 1.324l-.23437 1.125c-.06778.314-.123.626-.15234.937l-.04688.563-.05859.562c-.01196.128.00495.274.07031.446l.22266.562.21093.563c.20664.535.31795 1.101.31641 1.675v1.125c-.00219.663-.19007 1.288-.50391 1.852l-.63281 1.125.15234.539.15235.562c.09554.331.21119.663.33984.997l.22266.562.21094.563c.26347.682.3025 1.414.08203 2.121l-.35157 1.125c-.10948.35-.214.704-.30468 1.054l-.14063.563-.15234.562c-.04788.188-.05944.365-.03516.539l.16406 1.125c.06161.443.09425.892.09375 1.336l-.01171.563v.562c.00035.183.03651.382.11718.598l.42188 1.125c.26571.715.26911 1.467 0 2.18l-.22266.562-.21094.563c-.06818.182-.0804.338-.07031.48l.03516.563.04687.562c.042.577-.03259 1.149-.21093 1.699l-.375 1.125c-.04369.136-.04651.251-.02344.364l.23437 1.125c.11599.567.12256 1.142.01172 1.711l-.11719.562-.09375.481c.00634.011.01071.028.02344.046l.41016.563.39844.562c.25972.366.46207.822.49218 1.348.02964.534-.13421 1.017-.375 1.418l-.32812.563-.33985.562c-.02894.048-.04313.081-.04687.094zm18.33987-478.804902c.1107-.033124.5904-.177609 1.125.058593.0692.030705.1161.09237.1758.128907l.4687-.164063c.634-.206558 1.2934-.229855 1.9453-.070312l.5625.140625.5625.128906c.2774.067948.5514.106746.8203.117187l1.125.046875c.4127.015448.8302.046472 1.2422.09375l.5625.058594.5625.070313c.1447.016629.3045.000891.4805-.058594l1.125-.375c.7463-.251607 1.5104-.20929 2.2148.105469l.5625.257812.5625.24609c.0191.00851.0308.0106.0352.01172l1.125-.374997c.4157-.139094.835-.263032 1.2539-.363282l.5625-.128906.5625-.140625c.5128-.1224898 1.0343-.1600998 1.5586-.1289061l.5625.0234375.5625.0351563c.4212.0253784.8458.0760633 1.2656.1406253l.5625.082031.5625.09375c.4662.071726.9279.184142 1.3828.339844l.5625.1875.5625.199222c.2064.07066.3983.09027.5742.08203l1.125-.04688c.3477-.01635.6951-.04752 1.043-.08203l.5625-.05859.5625-.046877c.3709-.036799.7424-.07828 1.1133-.117188l1.125-.117187c.3376-.035423.6807-.091098 1.0195-.152344l.5625-.09375.5625-.105469c.4209-.076029.8429-.1301 1.2656-.164062l1.125-.09375c.5371-.0429107 1.0804.002251 1.6055.128906l.5625.140625.5625.128906c.4038.097442.8047.216817 1.207.339844l.5625.164066.5625.17578c.2366.07231.4633.10682.6797.10547l.5625-.01172h.5625c.4414-.0027.8845.02612 1.3243.08203l.5625.07031.5156.07031c.0088-.00299.0513-.01189.1172-.05859l1.125-.796875.6211-.339844c.2296-.085558.4808-.14255.75-.152343.543-.019758 1.0227.159047 1.4179.410156l.5625.351562.3633.246094.3516-.199219.5625-.316406.6562-.257812c.2325-.057512.4811-.086719.7383-.070313.2547.016452.4949.069561.7148.152344l.5977.316406 1.125.77344c.0267.01828.0445.03963.0586.04687l.5156-.09375.5625-.10547c.5163-.09223 1.0384-.10652 1.5586-.04687l.5625.05859.5625.07032c.2635.03039.5336.02896.7969 0l1.125-.11719c.2769-.03067.5563-.09965.8437-.1875l.5625-.16406.5625-.175786c.5911-.180813 1.2043-.221977 1.8164-.117188l1.125.1875c.3047.052508.6125.085234.9141.093754l.5625.02343.5625.01172c.3468.00965.6962.00934 1.043 0l.5625-.01172.5625-.02343c.4015-.01086.8055-.01098 1.207 0l.5625.02343.5625.01172c.3257.00894.6583-.00028.9844-.02343l.5625-.035161.5625-.046875c.3671-.026094.7344-.05146 1.1015-.082031l1.125-.09375c.4352-.036241.8769-.03999 1.3125-.023438l.5629.011719.562.023437c.358.01354.72.020852 1.078.023438l.563.011719h.562c.553.00456 1.095.104875 1.617.292972l.563.19922.562.21093c.139.04978.249.05345.352.03516l.563-.10547.562-.09375c.523-.0936 1.056-.11288 1.582-.04687l1.125.14062c.294.03663.587.04583.879.03516l.562-.01172.563-.02344c.353-.01291.713-.03043 1.066-.05859l1.125-.09375c.131-.01127.294-.05872.504-.17578l.563-.316411.562-.304688c.831-.4638742 1.761-.4642051 2.59 0l1.125.632809c.196.10973.342.13653.445.14063l1.125.04687c.261.00928.531-.01928.797-.07031l1.125-.21094c.295-.056634.599-.137313.903-.24609l.562-.199219.563-.210937.609-.140625c.616-.074139 1.218.066816 1.758.375l.562.316406.563.328125c.153.08706.237.08457.269.08203l1.125-.09375c.498-.03915.995-.01353 1.489.07031l1.125.1875c.282.04802.565.07648.843.07032l.563-.01172.562-.02344c.387-.00854.774-.01278 1.161-.01172l.562.01172h.563c.418.00115.836.02161 1.253.05859l1.125.09375c.15.01322.309-.00608.493-.07031l.562-.19922.563-.1875c.502-.17615 1.021-.28932 1.547-.316404l.562-.023437.563-.035156c.259-.01328.525-.052367.796-.128907l.563-.164062.562-.152344c.689-.194065 1.388-.163625 2.051.082031l1.125.421875c.273.101444.544.167464.797.199224l1.125.14062c.274.03404.547.04322.82.02344l.563-.04688.562-.03515c.538-.03948 1.081.00977 1.606.14062l1.125.28125.012-.01172c.011-.00366.032-.00972.058-.02343l.563-.29297.562-.28125c.523-.270117 1.093-.398621 1.676-.339847l.586.117187 1.125.35156c.162.05066.306.06883.445.04688l1.125-.1875c.351-.055602.703-.115985 1.055-.187502l1.125-.234375c.576-.117169 1.16-.110491 1.734.011718l.563.128907.562.117187c.397.084833.8.178525 1.196.281255l.562.14062.563.15234c.225.05815.445.07193.656.0586l1.125-.07031c.282-.01814.567-.05854.855-.12891l1.125-.281251c.562-.137321 1.139-.156997 1.711-.070313l1.125.164064c.321.04864.642.07959.961.09375l.563.02344.562.03515c.181.00792.377-.02322.586-.09375l1.125-.374997c.799-.268961 1.6-.169358 2.309.210937l.562.30469.27.15234.363-.28125.562-.421874c.548-.415111 1.22-.6496835 1.922-.5625l.715.199219 1.125.492188c.276.121343.546.211997.797.257817l.563.09375.562.10546c.17.03045.34.02914.516-.01171l1.125-.25782c.572-.132523 1.156-.152796 1.734-.04687l1.125.21094c.302.0552.603.08338.902.09375l.563.02343.562.01172c.379.01306.759.03126 1.137.04688l1.125.04687c.362.01491.729.02997 1.09.03516h.562l.563.01172c.33.00458.665-.00001.996-.02344l.563-.04688.562-.03515c.366-.02598.735-.06246 1.102-.09375l1.125-.09375c.362-.03096.727-.06585 1.089-.10547l1.125-.117189c.271-.029738.55-.097155.833-.1875l1.125-.351562c.683-.217921 1.386-.209131 2.062.023437l.563.199219.562.1875c.318.109834.637.202875.949.269535l1.125.23437c.302.06437.605.11143.903.12891l.562.02344.563.03515c.01.00061.086.00632.246-.09375l1.125-.703124.597-.292968c.413-.141803.851-.183323 1.289-.105469l.657.210937.562.257813.539.257811.528-.210936.562-.222656c.732-.290365 1.508-.291514 2.238 0l1.125.445312c.164.06548.296.08266.41.07031l1.125-.11718c.27-.02929.55-.097007.833-.187505l1.125-.351562.562-.128907c.565-.067553 1.129.025703 1.652.269532l.563.269531.562.257811c.13.06012.204.06706.258.0586l.563-.09375.562-.08204c.328-.051091.654-.127228.985-.210934l1.125-.28125c.736-.186768 1.467-.089695 2.132.222657l.563.257817.562.26953c.106.04938.155.04154.188.03515l1.125-.23437c.266-.05398.546-.133979.832-.257815l1.125-.492187.574-.1875c.389-.0814646.784-.0717352 1.172.011718l.574.1875 1.125.492188.024.011719.011-.011719 1.125-.375c.655-.223164 1.345-.255192 2.016-.070313l.562.152344.563.164063c.076.020266.143.018357.234-.011719l.563-.199219.562-.1875.68-.140625c.442-.029712.866.062555 1.254.234375l.551.316406.562.398434.364.26954.316-.16407.562-.292966c.63-.329029 1.342-.473573 2.075-.351563l1.125.1875c.204.033633.404.03566.609 0l.563-.09375.562-.105468c.457-.080689.922-.126283 1.383-.128907h1.125c.275-.001611.551-.037285.832-.09375l.562-.105468.563-.117188c.853-.1721011 1.645.07025 2.285.515625l.563.386715.562.39844c.06.04113.098.0629.117.07031l1.125-.11718c.488-.04924.978-.03865 1.465.02343l1.125.14063c.003.00036.011.00293.023 0 .019-.00494.062-.01801.129-.05859l.563-.35157.562-.339841c.62-.37762 1.34-.574214 2.11-.46875l.562.082031.563.070313c.357.049106.72.092576 1.078.128906l1.125.117187c.241.024069.482.016652.726-.023437l1.125-.1875c.39-.063933.783-.123669 1.172-.175781l.563-.070313.562-.082031c.406-.054197.813-.089983 1.219-.1171876l1.125-.0703125c.762-.0509357 1.457.1832961 2.051.5742191l.562.363281.328.222656.317-.199219.562-.339843c.61-.374421 1.315-.5791122 2.075-.492188l.562.058594.563.070312c.514.059605 1.022.192062 1.511.386719l1.125.445315c.306.12181.607.21413.903.28125l1.125.25781c.192.04363.377.05244.562.02344l.563-.09375.562-.08203c.296-.04647.599-.12533.903-.22266l1.125-.351562c.533-.170751 1.081-.258885 1.64-.234375l.563.023437.562.035156c.37.016606.744.021727 1.113.035157l1.125.046875c.416.015086.84.045205 1.254.09375l.563.070312.562.05859c.119.01321.249.00298.41-.05859l1.125-.421875c.603-.229685 1.241-.310757 1.887-.210937l.563.082031.562.09375c.438.068083.88.157838 1.313.28125l1.125.328121c.062.01738.115.01877.199-.01171l.562-.210942.563-.199219c.457-.166141.924-.285428 1.394-.363281l1.125-.1875c.758-.1248754 1.479.041054 2.11.398437l.562.316406.387.222659.398-.21094.563-.304687c.737-.402767 1.575-.483324 2.391-.164063l.562.210938.563.222656c.354.139273.713.277516 1.066.398436l.563.1875.421.15235.504-.35157.563-.374997c.559-.37771 1.201-.63178 1.91-.65625l.562-.023438.563-.011719c.448-.014704.901-.004031 1.348.046875l.562.070313.563.058594c.228.026159.458.017078.691-.023438l.563-.09375.562-.105469c.644-.1134074 1.29-.0427535 1.898.175782l1.125.398437c.362.129939.729.256513 1.09.375l1.125.375c.074.02325.128.02193.2 0l1.125-.35156c.584-.18388 1.196-.243477 1.804-.152346l1.125.164066c.252.03739.501.04833.75.02343l.563-.05859.562-.04687c.25-.02494.505-.093721.774-.187505l.562-.1875.563-.199219c.662-.231935 1.316-.188663 1.898.046875l.563.292969.562.375.445.30469.375-.16406.563-.23438c.485-.207887.988-.357934 1.5-.433594l1.125-.164062c.507-.074811 1.015-.085452 1.523-.023438l1.125.140625c.286.034977.572.039297.856.023438l.562-.023438.563-.035156c.573-.03258 1.142.042283 1.687.222656l1.125.374999c.012.00386.022.01154.024.01172v-.01172c.006-.00142.017-.00416.035-.01172l.562-.234372.563-.246094c.502-.214512 1.034-.354879 1.57-.410156l1.125-.117188c.604-.0613473 1.2.02362 1.77.222656l.562.1875.563.199219c.076.026623.124.030213.187.011719l.563-.175781.562-.164063c.526-.159855 1.07-.241213 1.617-.222656l.563.023437.562.011719c.293.009921.585.001985.879-.035156l1.125-.1406251c.875-.1114175 1.648.2030861 2.25.6796871l1.125.890624c.081.06398.132.09699.153.10547l.539-.02344.562-.02343c.171-.00726.367-.05533.586-.15235l1.125-.49219c.558-.246572 1.154-.377321 1.77-.363277l1.125.023437c.561.013402 1.104.13436 1.629.33984l.562.21094.563.22266c.042.01672.074.02314.082.02344.008-.00008.022-.00409.047-.01172l1.125-.35157c.597-.188204 1.219-.238543 1.839-.1289l.563.10547.562.09375c.124.02177.249.0136.399-.03516l.562-.175781.563-.1875c.77-.251193 1.548-.16989 2.25.175781l.562.28125.563.26953c.184.09092.326.11945.433.11719l1.125-.02344c.119-.00255.272-.03864.469-.14062l.563-.29297.562-.281252c.511-.264515 1.052-.451954 1.617-.527344l.563-.070313.562-.082031c.402-.053525.805-.087669 1.207-.117187l.563-.0468753.562-.0351563c.813-.0594459 1.542.2189586 2.133.6562496l.563.421879.562.41015.012.01172.457-.10547.562-.11718c.503-.11236 1.012-.15547 1.524-.12891l.562.02344.563.03515c.368.01939.745.03234 1.113.04688l1.125.04687c.354.01392.713.01185 1.067.01172h1.125c.169-.00063.352-.03326.562-.11719l1.125-.445309c.563-.225048 1.16-.327418 1.77-.292968l.562.023437.563.035156c.476.026982.95.10153 1.418.222657l.562.152343.563.140624c.299.07745.598.12469.89.15235l.563.05859.562.04687c.054.00463.145.00685.293-.07031l1.125-.585936c.698-.361692 1.479-.457877 2.262-.210938l1.125.351563c.296.093749.591.158716.879.199221l1.125.16406c.125.0175.263.00765.422-.04687l1.125-.398442c.445-.155856.903-.27949 1.359-.363282l1.125-.210937.586-.046875c.579.010445 1.124.197463 1.605.503906l.551.351563.539.339847c.022.01414.038.03108.047.03515h.012l.598-.10547.585-.11718c.551-.10132 1.112-.115383 1.665-.03516l.574.09375.586.08203c.498.0726.984.20376 1.453.38672l.551.21094.539.21094c.483.18834.939.43436 1.359.73828l.469.33984.48.35156c.357.25832.705.5295 1.031.82032l.422.38671.434.38672c.345.30815.668.63979.961.9961l.726.89062c.276.33609.537.68336.774 1.04297l.305.46875.316.46875c.165.25047.35.4926.551.71484l.375.4219.375.4101c.235.26.495.5303.761.7969l.844.8438c.597.5969.873 1.3721.832 2.1914l-.035.6211-.023.6211c-.016.3134.003.5873.047.8203l.093.5507.106.5391c.023.1216.085.2755.222.4688l.727 1.0312c.399.5616.647 1.2126.668 1.9219l.012.5859.011.5742c.014.4919-.014.9833-.105 1.4649l-.117.5625-.106.5625c-.093.4945-.237.9819-.445 1.4531l-.258.5625-.246.5625c-.061.1407-.068.2379-.059.3164l.071.5625.082.5625c.048.3697.1.7436.152 1.1133l.07.5625.082.5625c.056.3903.111.7814.153 1.1719l.117 1.125c.039.36.079.7296.129 1.0898l.164 1.125c.053.3866.099.7735.141 1.1602l.117 1.125c.056.5279.033 1.0603-.071 1.582l-.117.5625-.105.5625c-.083.4173-.185.8391-.305 1.2539l-.328 1.125c-.021.0741-.018.1354.012.2227l.375 1.125c.155.4585.274.9239.34 1.3945l.082.5625.07.5625c.072.5117.07 1.035 0 1.5469l-.07.5625-.082.5625c-.071.5064-.202 1.0065-.399 1.4883l-.469 1.125c-.078.1924-.108.3571-.105.5039l.023.5625.012.5625c.004.1561.045.34.141.5507l.515 1.125.2.6094c.125.6089.03 1.2281-.258 1.8047l-.282.5625-.257.5039.211.5039.234.5625c.295.7062.326 1.4601.07 2.1914l-.398 1.125c-.055.1553-.054.2892-.035.4102l.164 1.125c.049.3255.116.656.199.9844l.281 1.125c.16.6326.145 1.2726-.035 1.8984l-.152.5625-.164.5625c-.03.1044-.03.2005 0 .3047l.164.5625.152.5625c.151.5277.216 1.0706.188 1.6172l-.047 1.125c-.027.5046-.129 1.0002-.282 1.4882l-.351 1.125c-.015.0491-.014.0839.012.1524l.421 1.125c.194.5149.307 1.048.329 1.5937l.046 1.125c.017.4241.014.8535-.011 1.2774l-.071 1.125c-.017.2968-.003.5932.024.8906l.094 1.125c.058.6346-.042 1.2584-.282 1.8399l-.234.5625-.223.5625c-.071.1739-.091.3119-.082.4335l.047.5625.035.5625c.026.3155.078.6311.141.9493l.105.5625.118.5625c.075.3815.141.7668.211 1.1484l.211 1.125c.144.7944-.054 1.5426-.446 2.1797l-.351.5625-.34.5625h-.012l.141.5039.152.5625c.161.586.19 1.1932.082 1.7929l-.105.563-.094.562c-.005.028-.008.076.047.188l.281.562.27.563c.297.599.444 1.258.375 1.945l-.118 1.125c-.025.248-.014.499.024.75l.164 1.125c.079.522.09 1.048.012 1.57l-.094.563-.082.562c-.073.483-.202.964-.375 1.43l-.387 1.031.293.516.316.562c.403.714.518 1.537.235 2.356l-.188.562-.199.563c-.062.179-.072.334-.059.48l.047.563.059.562c.036.368.075.746.117 1.113l.07.563.059.562c.06.53.035 1.059-.07 1.583l-.117.562-.106.563c-.043.213-.051.425-.023.632l.07.563.082.562c.096.709-.052 1.39-.363 2.004l-.563 1.125c-.08.158-.087.261-.082.328l.094 1.125c.03.371.051.743.082 1.114l.047.562.058.563c.037.439.044.884.024 1.324l-.035.562-.024.563c-.013.284-.002.569.035.855l.082.563.071.562c.031.238.103.487.211.75l.222.563.235.562c.304.742.306 1.534 0 2.274l-.469 1.125.211.562.223.563c.305.774.268 1.582-.082 2.32l-.54 1.125c-.118.25-.18.481-.21.691l-.165 1.125c-.024.173-.013.353.036.54l.14.562.153.563c.098.377.197.759.293 1.136l.281 1.125c.185.733.098 1.458-.211 2.121l-.258.563-.269.562-.012.036.187.562.176.563c.213.663.215 1.347.012 2.015l-.164.563-.176.562c-.079.261-.117.517-.129.762l-.035.562-.024.563c-.009.201.018.412.083.633l.152.562.164.563c.192.659.191 1.338-.012 1.992l-.351 1.125c-.019.059-.015.102.011.176l.399 1.125c.242.676.262 1.384.047 2.074l-.352 1.125c-.069.221-.089.434-.082.633l.012.562.023.563c.015.426.007.851-.023 1.277l-.047.563-.035.562v.023c.007.024.027.083.082.165l.387.562.375.563c.445.664.666 1.473.445 2.332l-.153.562-.14.563c-.127.493-.322.975-.563 1.441l-.293.562-.281.563c-.062.12-.062.168-.058.187l.105.563.094.562c.045.269.112.548.222.832l.446 1.125c.254.658.3 1.359.117 2.051l-.152.563-.141.562c-.055.209-.076.405-.059.598l.047.562.059.563c.035.383.065.777.094 1.16l.035.563.047.562c.044.614-.058 1.213-.282 1.781l-.445 1.125c-.076.192-.101.357-.094.504l.035.563.024.562c.019.41.022.821.012 1.231l-.024 1.125c-.004.155.025.327.106.527l.445 1.125c.174.432.32.872.434 1.313l.152.562.141.563c.184.716.111 1.434-.176 2.097l-.246.563-.246.539.234.551.234.562.164.598c.105.603.014 1.21-.269 1.769l-.293.563-.258.504.199.504.235.562c.253.621.334 1.284.211 1.957l-.211 1.125c-.026.141-.022.288.023.445l.328 1.125c.227.793.106 1.577-.269 2.262l-.305.563-.27.468.2.457.246.563c.275.634.361 1.32.222 2.016l-.117.562-.105.563c-.037.183-.036.367 0 .55l.211 1.125c.126.655.063 1.304-.164 1.922l-.211.563-.188.492.305.527.305.563c.321.59.494 1.248.445 1.945l-.035.563-.047.562c-.033.457-.104.92-.211 1.371l-.258 1.125c-.06.256-.098.504-.094.75l.024 1.125c.007.434-.014.868-.059 1.301l-.117 1.125c-.019.188.004.382.059.586l.14.562.153.563c.169.635.165 1.289-.012 1.922l-.152.562-.165.563c-.013.051-.018.096.012.175l.223.563.211.562c.213.555.32 1.139.293 1.735l-.035.562-.024.563c-.021.455-.07.909-.164 1.359l-.234 1.125c-.032.152-.039.3 0 .457l.281 1.125c.192.774.065 1.536-.293 2.203l-.305.563-.211.398.223.41.316.563c.225.403.363.879.329 1.395-.035.507-.231.95-.481 1.312l-.773 1.125c-.127.184-.14.284-.141.316l-.012.563-.023.562c-.001.042.004.136.105.305l.68 1.125c.23.383.377.843.375 1.348-.003.503-.155.956-.387 1.336l-.34.562-.293.457.176.422.246.563c.26.613.353 1.273.246 1.945l-.093.562-.082.563c-.035.218-.036.438 0 .656l.082.563.093.562c.098.606.05 1.209-.128 1.793l-.165.563-.175.562c-.012.039-.016.072.011.141l.446 1.125c.244.615.325 1.27.211 1.933l-.188 1.125c-.022.128-.025.259.024.411l.187.562.176.563c.159.497.249 1.007.269 1.523l.047 1.125c.029.714-.175 1.375-.527 1.957l-.34.562-.351.563c-.111.183-.117.303-.118.363l-.011.563v.562c-.002.273.027.554.082.832l.105.563.117.562c.111.572.098 1.154-.023 1.723l-.117.562-.117.504c.005.012.018.034.035.059l.726 1.125c.365.564.611 1.205.621 1.91v.563l.012.562c.007.517-.065 1.033-.199 1.535l-.153.563-.14.562c-.069.257-.104.507-.106.75l-.011.563v.562c-.005.635-.174 1.237-.457 1.793l-.282.563-.269.504.199.504.234.562c.222.549.33 1.128.317 1.723l-.024 1.125c-.011.511-.089 1.016-.234 1.511l-.164.563-.164.527h-.012v.035h.012v-.011l.012.023.586 1.125c.444.85.404 1.774-.071 2.578l-.34.563-.316.527.352 1.055c.174.523.264 1.067.257 1.617l-.011.562v.563c-.004.296.016.592.058.891l.071.562.082.563c.092.646.011 1.287-.223 1.886l-.445 1.125c-.096.248-.146.483-.164.703l-.094 1.125c-.022.262-.014.522.023.786l.082.562.071.563c.066.469.094.945.07 1.418l-.035.562-.024.563c-.009.182.015.377.082.586l.176.562.188.563c.143.443.255.895.328 1.347l.082.563.094.562c.111.697-.004 1.372-.293 1.992l-.27.563-.234.492.234.492.258.563c.347.751.371 1.573.047 2.343l-.469 1.125-.012.024v.012l.199.562.211.563c.184.512.288 1.042.305 1.582l.012.562.023.563c.018.538-.049 1.074-.199 1.593l-.328 1.125c-.101.348-.189.696-.27 1.043l-.14.563-.129.562v.012c.004.012.02.043.035.07l.305.563.293.562c.388.726.474 1.55.175 2.356l-.199.562-.211.563c-.039.108-.041.181-.023.258l.258 1.125c.073.315.165.639.281.961l.211.562.199.563c.216.599.289 1.227.188 1.863l-.188 1.125c-.089.548-.268 1.081-.527 1.582l-.293.562-.235.422.235.434.304.562c.3.568.468 1.195.457 1.852l-.023 1.125c-.007.404-.028.815-.059 1.219l-.035.562-.047.563c-.018.246.002.499.047.75l.094.562.106.563c.083.47.117.943.105 1.418l-.012.562-.023.563c-.015.563-.132 1.114-.34 1.64l-.445 1.125c-.008.02-.01.04-.012.047v.012l.387 1.16c.179.528.279 1.073.269 1.629l-.023 1.125c-.011.606-.167 1.189-.422 1.734l-.258.563-.246.527.223.504.234.563c.204.478.352.973.434 1.476l.187 1.125c.129.807-.094 1.553-.504 2.18l-.375.562-.246.364.199.339.305.563c.415.751.486 1.614.141 2.437l-.469 1.125c-.093.225-.132.426-.141.61l-.035.562-.023.563c-.005.102.021.234.105.41l.27.563.257.562c.32.668.415 1.402.223 2.145l-.281 1.125c-.05.193-.07.382-.047.562l.082.563.07.562c.09.7-.047 1.371-.351 1.981l-.281.562-.223.422.246.445.305.563c.32.593.487 1.258.433 1.957l-.093 1.125c-.026.335-.036.673-.036 1.008v1.125c.001.586-.116 1.157-.339 1.699l-.235.562-.223.563c-.09.22-.135.418-.14.597l-.012.563-.023.562c-.002.088.026.212.117.387l.586 1.125c.283.543.452 1.128.48 1.746l.035.563.024.562c.029.65-.121 1.278-.399 1.852l-.269.562-.223.422.258.457.305.563c.383.701.492 1.495.234 2.297l-.176.562-.187.563c-.117.361-.221.728-.328 1.089l-.176.563-.141.48.352.563.34.562c.421.681.601 1.486.363 2.321l-.328 1.125c-.109.381-.214.767-.328 1.148l-.176.563-.164.562c-.046.152-.048.289-.024.422l.094.563.106.562c.044.235.13.484.258.75l.539 1.125c.385.808.36 1.678-.047 2.461l-.293.562-.258.493.211.457.246.562c.35.785.335 1.625-.035 2.391l-.27.562-.234.457.516 1.032c.362.733.418 1.548.117 2.332l-.223.562-.211.563c-.08.206-.109.395-.105.562l.023 1.125c.007.363.009.727.024 1.09l.046 1.125c.019.472.002.949-.07 1.418l-.094.562-.082.563c-.045.297-.071.596-.07.891v1.125c.001.386-.002.773-.012 1.16l-.023 1.125c-.007.277.011.562.058.843l.188 1.125c.071.42.121.844.152 1.266l.047.563.035.562c.04.55-.018 1.096-.164 1.629l-.304 1.125c-.068.246-.096.483-.094.715v.562l.012.563c.001.182.034.38.117.597l.422 1.125c.212.557.312 1.149.281 1.747l-.024.562-.035.563c-.028.528-.136 1.044-.316 1.546l-.399 1.125c-.067.188-.081.353-.07.504l.035.563.047.562c.017.216.069.447.164.692l.445 1.125c.217.553.316 1.138.293 1.734l-.011.563-.024.562c-.009.25.005.504.059.762l.234 1.125c.131.626.102 1.254-.082 1.863l-.164.563-.176.562c-.035.118-.027.22 0 .328l.282 1.125c.203.812.036 1.595-.364 2.262l-.339.562-.293.458.187.433.246.563c.259.605.363 1.256.27 1.921l-.164 1.125c-.018.131-.009.272.046.434l.2.563.187.562c.213.627.263 1.282.117 1.934l-.257 1.125c-.058.257-.078.513-.071.761l.024 1.125c.012.471-.016.94-.094 1.407l-.188 1.125c-.074.444-.19.886-.328 1.324l-.351 1.125v.035s-.005.02.011.059l.247.562.234.563c.291.688.332 1.429.105 2.156l-.175.562-.176.539c.002.007.016.02.023.036l.563 1.125c.414.827.382 1.723-.059 2.519l-.304.563-.2.351.586.938c.257.406.425.906.387 1.465-.038.547-.263 1.01-.539 1.371l-.422.562-.434.563c-.068.09-.096.15-.105.175-.007.02-.011.014-.012 0l.024 1.125c0 .025.012.131.14.317l.774 1.125c.264.385.461.864.457 1.418s-.201 1.037-.469 1.418l-.398.562-.176.235.199.257.41.563c.26.35.472.782.528 1.289.056.517-.064 1.001-.282 1.418l-.293.562-.269.504.211.469.234.563c.335.791.294 1.626-.082 2.379l-.562 1.125-.024.023.176.551.176.562c.178.57.237 1.163.164 1.758l-.059.563-.07.562c-.02.169-.016.341.035.527l.164.563.152.562c.17.603.199 1.226.071 1.84l-.235 1.125c-.054.26-.078.521-.07.774l.023.562.012.563c.014.421.014.844-.012 1.265l-.07 1.125c-.01.176.006.361.07.563l.375 1.125c.185.566.251 1.163.188 1.758l-.117 1.125c-.058.535-.206 1.057-.422 1.558l-.246.563-.235.562c-.097.226-.153.426-.164.61l-.023.562-.035.563c-.009.147.01.314.082.503l.222.563.211.562c.297.774.244 1.578-.105 2.309l-.539 1.125c-.012.024-.009.049-.012.059l-.012.011.012.012.305 1.125c.166.601.197 1.216.07 1.828l-.234 1.125c-.003.014-.002.027 0 .035.003.015.01.045.035.094l.586 1.125c.289.56.455 1.175.457 1.817v1.125c.001.681-.195 1.318-.527 1.886l-.34.563-.328.551.152.503.176.563c.109.362.221.727.34 1.09l.187.562.176.563c.247.756.188 1.535-.153 2.238l-.539 1.102c-.005.011-.011.022-.011.023h.011c.001.007-.006.025 0 .047l.375 1.219c.278.922.052 1.835-.609 2.531l-.434.469-.445.457c-.252.265-.46.522-.633.761l-.328.457-.293.387c-.001.019.003.064.012.129l.094.692.105.703c.118.814-.047 1.68-.691 2.367l-.399.433-.41.422c-.301.32-.609.629-.937.914l-.446.375-.433.375c-.422.366-.898.661-1.418.868l-.551.21-.551.223c-.103.042-.172.102-.234.188l-.352.468-.34.481c-.515.708-1.276 1.079-2.121 1.113l-.609.024-.621.023c-.017.001-.028.01-.035.012l-.024.011-.843.821c-.44.426-.96.748-1.547.937l-1.078.352c-.559.179-1.141.235-1.723.176l-1.149-.118c-.267-.026-.519-.021-.761.012l-1.102.141c-.394.053-.792.098-1.195.129l-.563.047-.562.035c-.553.041-1.105-.005-1.641-.153l-.562-.164-.563-.152c-.04-.011-.075-.019-.152.012l-1.125.468c-.462.189-.939.331-1.418.422l-1.125.211c-.807.153-1.563-.053-2.203-.457l-.563-.351-.398-.258-.363.199-.563.293c-.508.264-1.044.449-1.605.527l-.563.071-.562.082c-.425.059-.852.089-1.278.105l-1.125.047c-.629.024-1.239-.107-1.804-.363l-1.125-.516c-.154-.068-.265-.079-.352-.07l-1.125.117c-.444.044-.891.053-1.336.035l-1.125-.047c-.347-.014-.696-.017-1.043-.011l-1.125.023c-.51.008-1.014-.062-1.512-.187l-.562-.141-.539-.141c-.009.004-.02.015-.035.024l-1.125.656c-.389.224-.845.365-1.348.352-.503-.015-.951-.186-1.324-.422l-.563-.352-.41-.258-.351.188-.563.293c-.48.246-.984.429-1.5.539l-1.125.234c-.803.17-1.565-.014-2.215-.41l-.562-.34-.457-.281-.399.187-.562.258c-.81.366-1.668.322-2.438-.082l-.562-.293-.328-.176-.375.27-.563.387c-.609.42-1.349.679-2.156.586l-.563-.071-.562-.058c-.582-.068-1.134-.263-1.652-.539l-.563-.293-.527-.293-.481.199-.562.211c-.465.178-.937.309-1.418.387l-1.125.187c-.468.075-.947.109-1.418.094l-.563-.024-.562-.011c-.531-.017-1.052-.12-1.559-.293l-.562-.199-.563-.188c-.318-.109-.637-.203-.949-.27l-1.125-.234c-.198-.042-.394-.052-.586-.023l-.562.093-.563.082c-.469.072-.946.101-1.418.082l-1.125-.046c-.267-.011-.537-.001-.809.046l-.562.106-.563.094c-.406.07-.811.132-1.218.175l-1.125.118c-.533.056-1.069.028-1.594-.082l-.563-.118-.562-.128c-.062-.014-.133-.012-.246.035l-1.125.468c-.578.239-1.197.347-1.828.293l-1.125-.093c-.235-.02-.475-.012-.715.035l-1.125.211c-.825.157-1.588-.06-2.227-.481l-.562-.375-.563-.363c-.213-.141-.373-.189-.468-.199l-1.125-.117c-.077-.008-.18.001-.329.07l-1.125.516c-.49.228-.997.398-1.523.48l-.562.082-.563.094c-.405.063-.813.114-1.219.152l-.562.047-.563.059c-.742.069-1.436-.13-2.039-.493l-1.125-.679c-.068-.041-.111-.054-.129-.059-.012-.003-.019 0-.023 0l-1.125.141c-.224.029-.471.099-.727.211l-1.125.492c-.753.328-1.564.326-2.32 0l-.562-.234-.563-.247c-.161-.068-.285-.08-.387-.07l-.562.047-.563.059c-.445.042-.89.046-1.336.023l-.562-.023-.563-.036c-.167-.008-.35.024-.55.094l-1.125.399c-.628.221-1.289.261-1.946.117l-.562-.117-.563-.129c-.259-.057-.522-.077-.773-.071l-1.125.024c-.604.015-1.193-.106-1.746-.34l-.563-.234-.504-.223-.515.246-.563.27c-.68.319-1.433.4-2.179.187l-.563-.164-.562-.152c-.08-.023-.145-.029-.235 0l-1.125.375c-.562.186-1.154.255-1.746.199l-.562-.047-.563-.059c-.518-.049-1.031-.163-1.523-.351l-.563-.223-.562-.211c-.212-.08-.4-.117-.575-.117h-1.125c-.109 0-.255.031-.445.129l-.562.293-.563.281c-.794.409-1.678.422-2.484.024l-.563-.27-.445-.223-.434.235-.562.305c-.729.386-1.552.465-2.356.164l-.562-.211-.551-.211-.012.011-.562.247-.563.234c-.708.308-1.472.351-2.215.094l-.562-.188-.563-.199c-.319-.11-.635-.201-.949-.27l-.562-.117-.563-.129c-.269-.059-.535-.084-.797-.082h-1.125c-.076.001-.202.022-.386.129l-1.125.656c-.726.42-1.571.534-2.403.223l-1.125-.422c-.347-.13-.697-.244-1.043-.351l-1.125-.352c-.06-.018-.103-.025-.175 0l-1.125.399c-.655.231-1.34.264-2.016.082l-1.125-.305c-.048-.013-.091-.01-.176.023l-1.125.446c-.638.255-1.32.325-2.004.175l-.562-.129-.563-.117c-.339-.074-.681-.138-1.019-.187l-1.125-.164h-.012c-.012.002-.059.016-.129.058l-1.125.68c-.591.356-1.265.563-1.992.516l-.563-.036-.562-.046c-.694-.047-1.325-.303-1.875-.68l-.563-.387-.398-.269-.328.175-.563.282c-.725.367-1.532.432-2.32.14l-1.125-.422c-.062-.023-.094-.015-.141 0l-.562.188-.563.176c-.592.193-1.209.252-1.828.152l-1.125-.187c-.34-.056-.691-.098-1.031-.129l-.562-.047-.563-.059c-.363-.033-.726-.066-1.09-.094l-.562-.035-.563-.047c-.015-.001-.092-.01-.246.082l-1.125.68c-.592.357-1.264.562-1.992.516l-1.125-.071c-.607-.038-1.186-.214-1.723-.492l-.562-.293-.563-.281c-.117-.061-.165-.062-.187-.059l-1.125.188c-.286.047-.582.119-.879.223l-.563.199-.562.187c-.59.206-1.205.278-1.828.188l-1.125-.164c-.336-.049-.674-.084-1.008-.106l-1.125-.07c-.358-.023-.72-.047-1.078-.059l-.563-.011-.562-.024c-.296-.009-.593.01-.891.047l-1.125.141c-.421.052-.843.081-1.265.093l-.563.012-.562.024c-.555.015-1.1-.075-1.629-.246l-.563-.176-.562-.188h-.036c-.006.002-.018.005-.035.012l-1.125.492c-.86.369-1.755.249-2.507-.211l-1.125-.679c-.199-.121-.333-.159-.422-.165l-.563-.035-.562-.023c-.144-.008-.305.009-.493.082l-1.125.445c-.698.273-1.441.292-2.156.047l-.562-.199-.563-.188-.012-.011v.011c-.004.002-.017.005-.035.012l-.562.234-.563.247c-.672.291-1.398.363-2.121.164l-.562-.164-.563-.153c-.224-.062-.437-.081-.644-.07l-.563.023-.562.036c-.181.009-.385.054-.61.152l-.562.246-.563.234c-.598.26-1.237.373-1.898.293l-.563-.07-.562-.059c-.439-.053-.878-.136-1.313-.246l-.562-.14-.563-.153c-.378-.095-.758-.183-1.136-.281l-.563-.152-.562-.141c-.289-.075-.575-.121-.856-.141l-.562-.046-.563-.036c-.026-.001-.106-.007-.258.082l-.562.34-.563.328c-.671.398-1.451.564-2.261.352l-.563-.152-.562-.141c-.12-.031-.231-.032-.352 0l-1.125.305c-.583.158-1.185.187-1.781.082l-.563-.106-.562-.093c-.427-.076-.854-.173-1.277-.293l-.563-.164-.562-.153-.012-.012c-.009.003-.024.013-.047.024l-.563.281-.562.27c-.686.333-1.445.422-2.203.199l-1.125-.328c-.179-.053-.345-.069-.504-.047l-.563.082-.562.07c-.35.048-.704.1-1.055.164l-1.125.211c-.396.073-.798.134-1.195.188l-.563.082-.562.07c-.795.107-1.528-.111-2.145-.516l-.562-.375-.563-.363c-.076-.05-.127-.074-.152-.082-.02-.006-.035-.012-.035-.012l-1.125.094c-.154.013-.334.065-.551.176l-.562.281-.563.293c-.709.364-1.511.452-2.297.188l-1.125-.375c-.073-.025-.119-.022-.187 0l-1.125.351c-.63.2-1.287.226-1.934.071l-.562-.129-.563-.141c-.398-.096-.798-.199-1.195-.316l-.563-.164-.562-.176c-.109-.032-.201-.027-.305 0l-1.125.304c-.524.142-1.065.196-1.605.165l-.563-.036-.562-.023c-.16-.009-.333.012-.528.082l-1.125.398c-.653.236-1.349.274-2.027.094l-.563-.14-.562-.153c-.249-.066-.49-.094-.727-.094h-1.125c-.464.002-.934-.037-1.394-.117l-.563-.094-.562-.105c-.414-.072-.83-.163-1.242-.27l-1.125-.281c-.233-.06-.461-.081-.68-.07l-1.125.047c-.174.009-.367.056-.586.152l-1.125.492c-.557.244-1.157.377-1.769.364l-1.125-.024c-.423-.009-.845-.042-1.266-.094l-1.125-.14c-.381-.047-.767-.1-1.149-.153l-.562-.082-.563-.07c-.129-.018-.271-.009-.433.047l-.563.187-.562.2c-.71.244-1.446.228-2.145-.035l-1.125-.422c-.234-.089-.452-.131-.656-.141l-.562-.035-.563-.024c-.313-.013-.635-.001-.949.024l-.563.035-.562.047c-.379.03-.758.056-1.137.082l-.562.047-.563.035c-.24.016-.491.065-.75.152l-1.125.375c-.511.172-1.035.27-1.57.282l-1.125.023c-.343.008-.688.029-1.031.059l-1.125.093c-.634.055-1.25-.052-1.829-.293l-1.125-.468c-.076-.032-.105-.022-.14-.012l-.563.152-.562.164c-.765.216-1.522.109-2.203-.234l-1.172-.586-.563.164-.562.152c-.489.139-.985.221-1.488.235l-.563.012-.562.023c-.482.013-.965-.029-1.442-.117l-1.125-.211c-.027-.005-.076-.007-.187.047l-.563.281-.562.269c-.419.206-.902.307-1.407.247-.4928-.06-.9184-.263-1.2652-.516l-.5625-.41-.5625-.422c-.0921-.068-.1634-.092-.1992-.106-.032-.011-.0464-.011-.0469-.011h-1.125c-.0213 0-.1097.002-.2813.117l-.5625.387-.5625.375c-.3637.245-.8081.437-1.3125.468-.509.032-.9821-.107-1.3828-.328l-1.125-.609-.0234-.024-.5274.153-.5625.164c-.3611.102-.7283.203-1.0898.316l-1.125.352c-.7256.226-1.4682.185-2.1563-.106l-.5625-.246-.5625-.234c-.2796-.118-.5488-.198-.8086-.246l-1.125-.211c-.1552-.029-.3146-.02-.4804.023l-.5625.141-.5625.152c-.5026.131-1.0192.199-1.5352.188l-.5625-.012-.5625-.023c-.3385-.007-.6809.007-1.0195.023l-1.125.047c-.2733.013-.5505.059-.832.129l-1.125.281c-.571.142-1.1536.156-1.7344.059l-1.125-.188c-.367-.062-.7347-.12-1.1016-.176l-1.125-.164c-.1514-.023-.3092-.015-.4804.035l-1.125.329c-.7983.234-1.5857.111-2.2735-.27l-.5625-.316-.5625-.305c-.0171-.009-.0276-.02-.0351-.023l-.5157.152-.5625.164c-.5202.146-1.056.208-1.5937.187l-1.125-.046c-.5122-.021-1.018-.102-1.5117-.258l-.5625-.188-.4805-.152-.5391.34-.5625.34c-.543.331-1.145.547-1.7929.597l-1.125.094c-.4768.037-.9545.025-1.4297-.035l-1.125-.141c-.3669-.046-.7347-.1-1.1016-.14l-1.125-.118c-.5031-.055-.9943-.184-1.4765-.363l-.5625-.199-.4102-.152-.4688.339-.5625.387c-.3686.257-.8225.456-1.3476.481-.5299.024-1.0084-.136-1.4063-.375l-1.125-.68c-.0739-.044-.1287-.053-.1523-.059-.0175-.004-.0271-.012-.0352-.011l-.5625.058-.5625.071-2.25.234c-.2332.025-.4798.087-.7382.187l-.5625.223-.5625.211c-.8527.333-1.7165.21-2.4493-.234l-.5625-.34-.457-.281-.3984.187-.5625.258c-.8728.392-1.7823.278-2.543-.199l-.5625-.352-.5625-.363-.1172-.059-1.125.164c-.1747.024-.3848.083-.6211.211l-1.125.61c-.8427.456-1.7716.431-2.5898-.047l-1.125-.657c-.0583-.033-.0914-.034-.0938-.035l-.5508.106-.5625.105c-.5476.102-1.1039.097-1.6523 0l-1.1016-.187c-.4325-.077-.8586-.183-1.2773-.317l-.5391-.175-.5273-.165c-.3422-.109-.6918-.214-1.043-.316l-.5508-.164-.5507-.152c-.4622-.135-.9103-.326-1.336-.551l-.5039-.258-.5039-.269c-.5423-.288-.99884-.69-1.35936-1.184l-.33985-.469-.35156-.48c-.20241-.277-.41183-.53-.62109-.762l-.36329-.41-.375-.41c-.29505-.327-.56583-.678-.80859-1.043l-.30469-.457-.29297-.446c-.10971-.165-.26131-.323-.44531-.468l-.44531-.364-.45703-.351c-.35036-.277-.68729-.579-1.00781-.903l-.42188-.421-.41016-.422c-.4001-.404-.72365-.868-.96093-1.383l-.49219-1.055c-.24498-.532-.37383-1.102-.39844-1.687l-.04687-1.172c-.01638-.39-.040792-.774-.058597-1.149l-.023437-.574-.023438-.562c-.027761-.585.060676-1.161.257812-1.711l.39844-1.125c.00417-.012.01149-.022.01172-.024l-.01172-.023-.23438-.563-.22265-.562c-.2182-.535-.344716-1.098-.351565-1.676l-.011719-.562v-.563c-.006964-.59.105895-1.166.328124-1.711l.46875-1.125c.00678-.017.01044-.029.01172-.035v-.012c-.00044-.003-.00727-.01-.01172-.023l-.1875-.563-.19922-.562c-.14406-.422-.264642-.852-.363279-1.278l-.257813-1.125c-.101502-.439-.172-.88-.210937-1.324l-.046875-.562-.058594-.563c-.052291-.599.035639-1.193.234375-1.758l.398438-1.125c.092242-.262.143085-.519.164065-.761l.09375-1.125c.01253-.152-.00615-.319-.07032-.504l-.187495-.563-.199219-.562c-.234751-.68-.246195-1.389-.023438-2.074l.375002-1.125c.09176-.282.14626-.564.17578-.832l.05859-.563.07032-.562c.02742-.254.02145-.508-.01172-.762l-.07032-.563-.08203-.562c-.05231-.402-.08668-.805-.11718-1.207l-.093754-1.125c-.01906-.249-.06553-.508-.152344-.774l-.1875-.562-.175781-.563c-.271373-.831-.135469-1.653.28125-2.355l.328129-.563.33984-.562c.1231-.208.16543-.365.17578-.481l.04688-.562.04687-.539c-.00582-.016-.02873-.057-.08203-.129l-.41016-.563-.421872-.562c-.51141-.691-.7522026-1.579-.433593-2.508l.199218-.562.1875-.563c.084647-.246.131031-.48.140625-.703l.046875-1.125c.01024-.238-.015076-.479-.070312-.727l-.128906-.562-.117188-.563c-.123063-.547-.148209-1.108-.070312-1.664l.082031-.562.070312-.563c.054132-.383.115201-.777.175782-1.16l.09375-.562.082031-.563c.010759-.073.009919-.161-.046875-.293l-.246094-.562-.234375-.563c-.3874517-.901-.231988-1.81.269531-2.554l.562502-.844-.19922-.27-.386719-.562c-.256882-.367-.464548-.824-.492188-1.348-.027245-.528.1261-1.007.363282-1.406l.339843-.563.328122-.562c.11477-.193.1496-.327.15235-.41l.01172-.563.02343-.562c.00856-.267-.01023-.537-.05859-.809l-.10547-.562-.09375-.563c-.04757-.267-.13117-.547-.246093-.832l-.222656-.562-.234375-.563c-.348472-.867-.216765-1.748.246094-2.484l.35156-.563.36328-.562-.14062-.481-.16406-.562c-.11306-.401-.205398-.805-.292973-1.207l-.128906-.563-.117188-.562c-.144985-.667-.093454-1.338.140625-1.969l.421872-1.125c.0751-.203.09828-.384.09375-.551l-.01172-.562-.02343-.563c-.0148-.468.02108-.941.09375-1.406l.08203-.563.09375-.562c.02884-.184.01907-.371-.02344-.563l-.25781-1.125c-.11377-.504-.15614-1.02-.12891-1.535l.03516-.562.02344-.563c.0081-.15-.00842-.323-.08204-.515l-.222652-.563-.210937-.562c-.245752-.643-.300976-1.324-.140625-2.004l.257812-1.125c.095111-.404.207293-.805.328122-1.207l.17578-.563.16407-.562c.08427-.28.14101-.564.16406-.832l.09375-1.125c.00496-.069-.00683-.166-.08203-.317l-.5625-1.125c-.251318-.502-.423901-1.033-.503908-1.582l-.164062-1.125c-.102591-.705.024769-1.387.328125-2.004l.562495-1.125.01172-.011-.1875-.539-.199215-.563c-.149593-.444-.262225-.895-.339844-1.348l-.1875-1.125c-.099501-.58-.082822-1.163.058594-1.734l.28125-1.125c.042613-.171.053084-.342.023437-.504l-.210937-1.125c-.141273-.782.041759-1.52.421875-2.156l.33984-.563.17578-.293-.23437-.316-.398438-.562c-.452337-.637-.7065528-1.426-.539062-2.286l.210937-1.125c.03514-.18.037192-.357 0-.539l-.117187-.562-.105469-.563c-.130364-.636-.093736-1.273.105469-1.886l.175781-.563.1875-.562c.064505-.199.082448-.38.070312-.551l-.035156-.563-.046875-.562c-.044104-.606.056294-1.205.269531-1.77l.421877-1.125c.00416-.011.01051-.018.01172-.023v-.012c-.00078-.004-.00564-.019-.01172-.035l-.421877-1.125c-.098355-.264-.171672-.535-.222656-.809l-.082031-.843v-.563l.011719-.562c.000157-.304-.02773-.609-.070313-.914l-.082031-.563-.070313-.562c-.079917-.574-.051523-1.151.09375-1.711l.152344-.563.140625-.562c.103196-.398.215913-.799.339843-1.196l.35156-1.125c.0126-.041.02273-.067 0-.129l-.22265-.562-.21094-.563c-.159674-.414-.301104-.836-.421875-1.254l-.328125-1.125c-.231143-.799-.100698-1.587.28125-2.273l.304687-.562.316403-.563c.10281-.185.12868-.312.12891-.398v-1.125l-.11719-.575-.21094-.562-.222652-.563c-.221556-.574-.314863-1.185-.257812-1.804l.058594-.563.046875-.562c.040796-.436.105802-.88.199218-1.313l.128907-.562.11719-.563c.06675-.31.11615-.62.14062-.926l.09375-1.125c.02452-.308.02772-.617.01172-.925l-.03516-.563-.02343-.562c-.02508-.485.00213-.973.08203-1.453l.09375-.563.09375-.527-.0586-.106-.35156-.562-.363279-.563c-.373051-.586-.598746-1.266-.5625-2.004l.023437-.562.035157-.563c.023951-.484.095695-.967.222656-1.441l.304687-1.125c.018619-.072.021946-.14-.011718-.234l-.398438-1.125c-.260322-.733-.236336-1.493.058594-2.204l.46875-1.125c.041977-.103.035664-.168.023437-.222l-.128906-.563-.117187-.562c-.14877-.669-.09578-1.336.140625-1.969l.421875-1.125c.03491-.093.0286-.159.01172-.223l-.14063-.562-.15234-.563c-.129807-.489-.204721-.986-.210938-1.488v-.562l-.011719-.563c-.003936-.316-.029526-.632-.070312-.949l-.140625-1.125c-.081151-.63.003423-1.251.222656-1.84l.199219-.563.187499-.492-.292968-.504-.316406-.562c-.438037-.779-.4980155-1.664-.105469-2.496l.539063-1.125c.04538-.096.04032-.14.03516-.164l-.12891-.563-.117188-.562c-.099097-.456-.16634-.922-.1875-1.383l-.046875-1.125c-.020799-.458.002701-.915.058594-1.371l.058594-.563.070312-.562c.036895-.301.05527-.603.046875-.903l-.011719-.562-.023437-.563c-.015866-.569.080015-1.126.269534-1.664l.39843-1.125c.01867-.052.01688-.079 0-.128l-.19921-.563-.1875-.562c-.257278-.739-.221215-1.507.08203-2.215l.23437-.563.2461-.562c.06685-.157.06916-.277.05859-.375l-.11719-1.125c-.01189-.107-.05122-.268-.1875-.481l-.72656-1.125c-.488765-.767-.5979431-1.687-.1875-2.566l.257812-.563.234375-.48-.246094-.469-.28125-.562c-.41246204-.835-.36528-1.74.082032-2.532l.632815-1.125c.08537-.152.0962-.237.09375-.281l-.04688-.562-.03515-.563c-.02376-.364-.05051-.737-.08204-1.101l-.093745-1.125c-.04724-.555.006115-1.104.152345-1.641l.30469-1.125c.0536-.197.0661-.383.04687-.563l-.11719-1.125c-.03947-.357-.08964-.72-.14062-1.078l-.16406-1.125c-.059358-.416-.104714-.837-.12891-1.254l-.023438-.562-.035156-.563c-.022611-.39-.036205-.781-.046875-1.172l-.023438-.562-.011718-.563c-.009821-.359-.027034-.718-.046875-1.078l-.023438-.562-.035156-.563c-.02411-.435-.02873-.877 0-1.312l.046875-.563.035156-.562c.030657-.464.098656-.926.210938-1.383l.281245-1.125c.07726-.314.1289-.628.16407-.937l.07031-.563.05859-.562c.00159-.014.00913-.073-.07031-.211l-.31641-.563-.32812-.562c-.222125-.389-.364143-.847-.351563-1.348.01308-.497.178283-.94.410156-1.313l.703127-1.125c.01661-.026.02969-.046.03515-.058l-.11718-.527-.11719-.563c-.08775-.419-.15153-.844-.19922-1.266l-.07031-.562-.0586-.563c-.03824-.338-.089736-.68-.152339-1.019l-.210938-1.125c-.132374-.717-.012568-1.417.292969-2.051l.269528-.562.19922-.411-.25781-.433-.328125-.563c-.346086-.588-.555673-1.254-.515625-1.968l.070312-1.125c.026447-.468.098451-.934.210938-1.395l.128906-.562.140625-.563c.065059-.267.102859-.528.105469-.785v-.563l.01172-.562c.0039-.383.01273-.766.02344-1.149l.02343-1.125c.01284-.458.06323-.917.15235-1.371l.11718-.562.10547-.563c.04821-.245.06476-.488.04688-.726l-.03516-.563-.04687-.562c-.03703-.494-.01039-.987.07031-1.477l.09375-.562.07031-.481c-.00792-.011-.02249-.03-.03515-.047l-.4336-.562-.44531-.563c-.45774-.584-.7707582-1.311-.71484406-2.144l.07031246-1.125c.0398536-.589.1983846-1.158.4570316-1.688l.28125-.562.26953-.563c.05634-.116.05249-.168.04688-.199l-.10547-.562-.093753-.563c-.108957-.607-.07714-1.215.093753-1.805l.32812-1.125c.03731-.128.04007-.244.01172-.363l-.12891-.562-.14062-.563c-.07065-.294-.167127-.597-.292969-.902l-.46875-1.125c-.3172923-.774-.2810066-1.587.070312-2.332l.269532-.563.257812-.562c.107513-.228.159753-.431.175783-.61l.09375-1.125c.00283-.033.00316-.118-.08203-.269l-.632815-1.125c-.4042934-.721-.5080703-1.549-.210938-2.367l.210938-.563.199218-.562c.04755-.13.052871-.234.035157-.328l-.210938-1.125c-.080913-.42-.147089-.844-.1875-1.266l-.058594-.563-.046875-.562c-.044578-.467-.053361-.939-.011718-1.406l.058593-.563.046875-.562c.053261-.596.237608-1.16.515625-1.688l.585942-1.125c.00805-.015.02065-.028.02343-.035l-.16406-.527-.16406-.563c-.12856-.436-.225675-.881-.29297-1.324l-.09375-.563-.082032-.562c-.064625-.427-.109582-.861-.128906-1.289l-.046875-1.125c-.02103-.47.001953-.939.070313-1.406l.164062-1.125c.037854-.259.046945-.518.023438-.774l-.046875-.562-.058594-.563c-.029363-.319-.075231-.639-.140625-.961l-.117188-.562-.105468-.563c-.114715-.564-.118457-1.133-.011719-1.699l.210937-1.125c.076428-.403.157355-.816.257813-1.219l.28125-1.125c.066379-.267.099969-.527.105469-.785l.02344-1.125c.00224-.108-.01459-.249-.10547-.433l-.281252-.563-.269531-.562c-.3736308-.758-.4103146-1.591-.070312-2.379l.492187-1.125c.097338-.225.142698-.429.152348-.61l.02343-.562.03516-.563c.02026-.389.03889-.782.07031-1.172l.09375-1.125c.01044-.132-.00253-.28-.07031-.457l-.445313-1.125c-.226743-.584-.315883-1.209-.246094-1.839l.070313-.563.058594-.562c.045612-.411.110011-.821.1875-1.231l.21094-1.125c.07211-.381.14585-.768.22265-1.148l.11719-.563.10547-.562c.03569-.178.03629-.35 0-.528l-.11719-.562-.10547-.563c-.04973-.244-.13951-.501-.269528-.773l-.539062-1.125c-.337658-.706-.4080752-1.487-.152344-2.25l.199219-.563.1875-.562c.05941-.176.074963-.335.058593-.481l-.070312-.562-.058594-.563c-.046658-.409-.088524-.82-.105469-1.23l-.046875-1.125c-.022865-.556.055059-1.109.222657-1.641l.1875-.562.175785-.563c.05986-.19.07382-.362.05859-.527l-.05859-.563-.046879-.562c-.04196-.439-.061212-.885-.046875-1.324l.023437-.563.011719-.562c.008517-.268-.010751-.537-.058594-.809l-.09375-.562-.105468-.563c-.101669-.576-.085686-1.164.046875-1.734l.140625-.563.12891-.562c.06198-.268.09179-.537.09375-.797v-.563l.01171-.562c.0019-.292-.02621-.584-.07031-.879l-.16406-1.125c-.090322-.6-.044306-1.202.12891-1.781l.16406-.563.17578-.562c.0416-.139.03796-.264.01172-.387l-.23438-1.125c-.09977-.468-.156776-.944-.164059-1.418l-.011719-.562v-.563c-.00637-.426.00793-.852.046878-1.277l.04687-.563.0586-.562c.02754-.301.02859-.603.01171-.903l-.07031-1.125c-.01685-.296-.05271-.601-.117185-.902l-.234375-1.125c-.077489-.362-.170654-.728-.257813-1.09l-.128906-.562-.140625-.563c-.1180156-.492-.171999-.997-.1640626-1.5l.0234375-1.125c.0062323-.39.0143114-.781.0351563-1.172l.0351558-.562.023438-.563c.018529-.346.03526-.697.035156-1.043v-.562l-.011719-.563c-.000195-.336-.009191-.682-.035156-1.019l-.0468748-.563-.0351563-.562c-.0386872-.506-.0109772-1.012.0820311-1.512l.210938-1.125c.094095-.505.248409-.999.46875-1.476l.26953-.563.25781-.562c.05921-.128.05556-.205.04688-.258l-.1875-1.125c-.08487-.522-.08392-1.047-.01172-1.571l.07031-.562.08203-.563c.00706-.051.00761-.133-.05859-.269l-.26953-.563-.281252-.562c-.365771-.756-.395228-1.585-.058593-2.367l.246093-.563.187502-.422-.281252-.468-.339843-.563c-.4563316-.765-.5480822-1.656-.164063-2.508l.515625-1.125c.062834-.138.068247-.237.058594-.304l-.164063-1.125c-.085703-.609-.025702-1.213.164063-1.793l.374999-1.125c.0194-.06.01069-.1-.01172-.164l-.1875-.563-.199217-.562c-.15325-.439-.274684-.89-.363281-1.336l-.117187-.563-.105469-.562c-.092143-.466-.138155-.936-.140625-1.407l-.011719-.562v-.563c-.002879-.592.123334-1.166.351563-1.711l.46875-1.125c.030882-.073.020815-.097.011718-.129l-.152343-.562-.164063-.563c-.147352-.513-.222463-1.039-.210937-1.57l.023437-1.125c.007509-.33.009589-.666-.011719-.996l-.035156-.562-.046875-.563c-.028724-.443-.020286-.893.011719-1.336l.035156-.562.046875-.563c.030899-.426.076357-.853.152344-1.277l.210937-1.125c.052514-.293.079715-.59.082032-.879v-1.125c.002299-.312-.011708-.624-.046875-.938l-.058594-.562-.070313-.563c-.042095-.374-.075106-.751-.117187-1.125l-.070313-.562-.058593-.563c-.03987-.354-.08665-.711-.140625-1.066l-.09375-.563-.082032-.562c-.0966709-.635-.028574-1.266.1875-1.863l.210938-.563.199219-.562c.063941-.176.084159-.331.070312-.469l-.117187-1.125c-.062074-.624.034124-1.238.257812-1.816l.222658-.563.21094-.562c.05202-.136.06263-.237.04687-.329l-.10547-.562-.09375-.563-.11719-1.382v-1.125c.00104-.45.0373-.901.10547-1.348l.09375-.563.08203-.562c.01942-.129.00598-.263-.04687-.422l-.375-1.125c-.187774-.563-.255988-1.153-.199219-1.746l.058594-.563.046875-.562c.008794-.097.000047-.215-.070313-.375l-.492187-1.125c-.3343089-.759-.34471019-1.572-.011719-2.332l.257812-.563.234375-.539-.222656-.527-.234375-.562c-.3873969-.928-.194494-1.85.328125-2.579l.410158-.562.25781-.352-.17578-.293-.304688-.562c-.36393-.653-.518489-1.405-.351562-2.18l.117187-.562.128906-.563c.0576-.269.082843-.535.082032-.797v-1.125c-.001481-.433.020587-.868.070312-1.3l.058594-.563.070309-.562c.03329-.29.04012-.58.02344-.868l-.07031-1.125c-.015326-.263-.052187-.533-.128908-.808l-.164062-.563-.152344-.562c-.230487-.825-.070101-1.628.339844-2.3088l.33984-.5625.28125-.4688-.17578-.4101-.24609-.5625c-.261493-.609-.367096-1.2637-.269533-1.9336l.164063-1.125c.04961-.3403.09197-.6801.11719-1.0196l.03515-.5625.04688-.5625c.03043-.4098.06987-.8214.1289-1.2304l.16407-1.125c.03562-.2477.0398-.4921.01172-.7383l-.0586-.5625-.07031-.5625c-.04828-.4232-.07532-.8532-.08203-1.2774v-.5625l-.01172-.5625c-.00437-.2463-.03645-.503-.10547-.7617l-.304687-1.125c-.139616-.5252-.198406-1.0647-.164062-1.6055l.070312-1.125c.013658-.2213-.003216-.4471-.058593-.6796l-.128907-.5625-.140625-.5625c-.113825-.4786-.169027-.9656-.175781-1.4532l-.023437-1.125c-.006908-.5179.063228-1.0316.199218-1.5351l.304688-1.125c.093899-.3478.172147-.6963.246094-1.043l.12891-.5625.11718-.5625c.05642-.2648.07556-.528.07032-.7851l-.02344-1.125c-.00367-.1741-.03946-.3692-.12891-.586l-.234373-.5625-.222656-.5625c-.305015-.7402-.304808-1.5214 0-2.2617l.222656-.5625.234373-.5625c.11086-.2686.18608-.5285.22266-.7734l.16406-1.125c.02957-.1996.03047-.4047-.01172-.6094l-.23437-1.125c-.0501-.2418-.13759-.5018-.26953-.7735l-.269535-.5625-.28125-.5625c-.372842-.7709-.38212-1.6165-.023438-2.4023l.246094-.5625.257812-.5625c.010129-.0224.020976-.0377.023438-.0469v-.0351l-.328125-1.125c-.189271-.6511-.192898-1.3191 0-1.9688l.175781-.5625.164063-.5625c.06143-.2069.08314-.4001.07031-.5859l-.04687-.5625-.035159-.5625c-.036283-.5047-.012082-1.0128.082029-1.5117l.10547-.5625.11719-.5625c.0492-.2597.05987-.5196.04687-.7735l-.02343-.5625-.03516-.5625c-.01057-.2061-.0493-.4304-.14063-.6679l-.222652-.5625-.210937-.5625c-.206089-.537-.32093-1.1008-.316406-1.6758v-.5625l.011718-.5625c.005162-.5688.120954-1.1215.328125-1.6524l.210938-.5625.222654-.5625c.0162-.0415.0232-.0634.02344-.0703.00022-.0063-.00177-.0275-.01172-.0586l-.17578-.5625-.1875-.5625c-.134068-.4193-.249576-.8425-.339844-1.2656l-.234375-1.125c-.1771944-.8325.032043-1.6135.457031-2.2617l.374998-.5625.36328-.5625c.11351-.1738.11746-.2591.11719-.2813l-.01172-.5625v-.5625c-.00354-.2892-.02845-.5855-.08203-.8789l-.21094-1.125c-.05919-.3231-.14086-.6462-.23437-.9726l-.152345-.5625-.164063-.5625c-.132565-.4624-.226982-.9333-.269531-1.4063l-.046875-.5625-.046875-.5742c-.052343-.591.021055-1.174.210937-1.7344l.1875-.5508.1875-.5625c.066095-.195.091212-.3877.082032-.5859l-.023438-.5859-.035156-.586c-.035609-.7699.217384-1.4765.691404-2.0625l.38672-.4804.38672-.4688.01172-.0117v-.0586l-.07031-1.2656c-.03869-.7069.11934-1.4009.51562-2.0156l.31641-.4805.3164-.4922c.30637-.4752.68561-.88856 1.13672-1.23047l.48047-.36328.46875-.35156c.16924-.12814.2994-.27183.39844-.4336l.30469-.49219.29296-.49218c.25194-.41293.55007-.80444.87891-1.16016l.38672-.42187.39844-.42188c.49999-.54007 1.13616-.87103 1.83988-.99609l1.2187-.21094c.3353-.05964.6301-.14289.8906-.23438l.5274-.17578.5156-.1875c.1546-.05435.3107-.1424.4688-.28125l.4335-.38672.4454-.38671c.4138-.36343.8747-.65766 1.3828-.86719l.5273-.21094.5274-.22266c.6268-.25835 1.2974-.31818 1.957-.19921l1.1484.21093.4336-.29297.4688-.316402c.1614-.107953.4396-.281881.75-.375z" fill="#1a1a1a"/></g></svg>