<svg clip-rule="evenodd" fill-rule="evenodd" stroke-linejoin="round" stroke-miterlimit="2" viewBox="0 0 400 80" xmlns="http://www.w3.org/2000/svg"><path d="m113.292 78.471c.827-.505.998 1.382.329 1.528-.19.039-.436-.987-.329-1.528zm5.879-1.807c.932-.252.443 1.937.287 1.992-.656.229-1.225-2.067-1.451.772-.399.212-.021-.985-.269-1.07-.462-.151-.921 1.184-1.399 1.265h-.098c-.054-.606-.183-1.247-.166-1.875.506-.761 2.865-1.022 3.096-1.084zm-3.969.81c.229.205.13 1.124.563.611.094.747-.328 1.424-.541 1.416-.006-.029.023-.582-.028-.591-.378-.039-.949.597-.961-.982.374.871.737-.656.967-.454zm-4.786.074c-.101 1.083-.273.946-.538.298.02-.24.027-.487.049-.723.156.179.327.291.489.425zm-.991-.23c-.202 1.286-1.299.565-1.106-.073.368-.008.738.032 1.106.073zm127.878-76.32c.708-2.29 3.272.074 3.85.107 2.665.152 4.754-.594 7.214-.493 1.567.064 3.019.811 4.575.913.336 2.738.679 5.458 1.022 8.184-.221-.226-.335-.578-.589-.586-.254-.002-.862-.393-1.018.884.227 1.288 1.042 1.567 1.291 1.562.478-.011.176-1.254.505-1.548.331-.29.878 1.432 1.282.777.946-1.542-.823-2.525-1.149-2.246.109-2.881.899.483 1.208-1.773-.119-.679-.608-2.348-.795-1.855-.184.502.104 2.205-.293 1.714-.262-1.578-.554-3.238-.814-4.835.393-.403.988.511 1.339.469 2.161-.281 4.279-.185 6.4.044 1.754 1.08 3.505 2.21 5.252 3.379-.019-.08-.037-.169-.053-.254-.029-.144-.057-.285-.095-.395-.002.014-.003.029-.005.044-.042-.136-.107-.221-.174-.308-.091-.119-.184-.244-.227-.508.052-.071.104-.143.156-.215.114-.112.236-.233.352-.351.111.726.222 1.452.333 2.178.549.368 1.099.743 1.648 1.118.021.139.048.283.082.42.028.109.055.218.083.327.043.063.087.127.131.19.228.327.51.59.738.791.062.054.12.1.174.147.171.148.306.265.409.381.014.015.029.028.043.044.005.083.014.165.024.239.08.545.191.523.302.224.012-.037.024-.074.036-.112.058.054.116.107.169.156.196.186.418.417.682.772.154.208.304.441.467.693.001.002.002.004.003.005.086.133.175.272.27.415.128.192.265.389.398.547.126.149.288.313.461.371.369.124 1.816.621 2.518.928.311.136.618-.355.738-1.128.178.125.355.251.533.376.01-.085.025-.164.046-.225.044-.115.121-.189.204-.263.157-.142.335-.299.35-.826-.17-.014-.34-.029-.51-.043-.011-.004-.022-.007-.034-.01-.114-.376.493-1.493.702-.943.167.431.111 1.98.048 2.876.082.061.165.121.248.181.024-.127.04-.293.057-.464.026-.269.055-.563.12-.791.33-1.169 1.183-.24.83 1.255.228.176.259-.144.295-.532.038-.412.082-.897.375-.938.348-.028.487.349.618.713.07.193.138.385.234.503.086.106.238.14.409.181.373.089.843.205.947 1.128.12 1.022-.072 1.325-.241 1.504.445.309.89.616 1.335.923.003-.277.004-.601.005-.977.6-.226.711.511.61 1.402.565.387 1.131.775 1.697 1.157.118-.17.237-.307.333-.401-.041-.375-.169-.394-.289-.41-.101-.013-.198-.025-.23-.254-.24-1.838.94-3.771.726-1.264-.052.611-.112 1.315-.005 1.811.081.363.398.622.515.474-.002.032-.004.065-.006.097.008-.008.023-.075.042-.171.024-.125.048-.25.072-.375.064-.341.142-.753.204-.962.076-.235.167-.44.26-.645 1.047-2.309.238-1.198 1.314.645.084.131.179.114.268.102.079-.01.154-.015.214.073.112.141.211.333.308.523.182.357.358.704.613.674.007-.007-.007-.073-.029-.171-.534-2.417.401.688.429.737.026.046.046.081.048.122.007.395-.208.606-.458.85-.236.23-.504.49-.647.967.101.065.203.13.305.195.102-.221.227-.293.365-.117.037.059.032.211.027.361v.01c.092.057.183.114.275.171.016-.127.015-.255.015-.279.001-.017.002-.035.003-.053.155-.181.804.106.879.561.02.11.032.232.037.357.241.149.482.297.723.444.024-.065.049-.109.075-.112.057-.029.117.101.177.268.119.073.239.143.358.215.001-.031.002-.062.003-.093.007-.22.015-.453.037-.517-.631.031-.509-.51-.374-1.118.063-.281.128-.577.124-.835-.008-.341-.126-.442-.238-.537-.141-.12-.271-.235-.162-.806.351.539.59.294.83.044.758-.789.886 1.234.336 1.098-.116-.028-.235-.057-.322.171-.102.253-.129.819-.153 1.328-.011.244-.023.476-.041.655.007-.013.013-.026.02-.039.023-.042.546-.468.598-.45.307-.045.298.128.279.425-.009.152-.021.339.006.542.011.065.05.112.089.161.051.065.102.135.094.24-.003.119-.024.246-.052.371.078.045.155.091.232.137.043-.139.084-.248.121-.259.018.007.388.426.391.478 0 .01-.002.036-.008.074.769.444 1.539.88 2.31 1.298.007.023.013.046.02.069.011.04.022.081.034.122.031.117.062.234.093.351.112.43.281 1.072.439 1.553.113.343.262.739.44 1.026.175.283.463.586.805.322.232-.179.455-.508.626-1.03.219-.674.325-1.462.361-1.919.011-.132.016-.264.016-.391.054-.287.094-.498.097-.518.201-.426.203.033.203.381 0 .082.001.159.003.215.014.184.069 1.034.093 1.485.856.416 1.713.811 2.572 1.186.867.379 1.744.658 2.627.845.566.12 1.136.205 1.708.254-.049-.354-.073-.71.094-1.128.237-.575.869.297.965.434.018-.045.037-.142.061-.258.054-.272.132-.658.274-.801.316-.326 1.775-4.044 2.114-3.36.284-.032.569-.071.854-.117.106.046.208.082.304.122.031.145.068.277.113.391.471 1.196 1.39 2.089 1.913 3.579-.14.405-.306.759-.456 1.138.107.464.216.932.325 1.396-.021.203-.039.403-.058.606.334.35.668.7 1.002 1.05 0-.023-.001-.05-.001-.074.12-.153.173.02.206.283.164.175.328.349.493.523.049-.104.103-.212.157-.327.038-.567.076-1.133.114-1.699.089.324.177.647.266.971.263-.407.522-.522.7.347.153-.054.305-.107.458-.161.102-.157.215-.224.326-.2.159-.694.641-4.846 1.372-5.45-.022 1.446-.045 2.891-.067 4.336.216-.24.432-.481.649-.722.055-.912.11-1.823.166-2.735.025.721.05 1.442.075 2.163.414-.117.829-.234 1.243-.351v-.034c.054-.055.092-.042.119.005.057-.017.113-.033.17-.049-.01.613-.019 1.227-.028 1.84.006.009.013.025.02.03.119.078.231-.063.342-.293-.043-.269-.087-.537-.13-.806.553-.64 1.106-1.279 1.659-1.919.07.404.141.808.212 1.211.025-.028.051-.046.073-.044.003.013.004.259.009.503.029.164.058.329.087.493.011 0 .021.002.032 0 .124-1.144.247-2.288.371-3.432.311-.041.623-.082.934-.123.245.176.479.364.697.543.384.753.768 1.507 1.152 2.26.046-.489.087-.85.127-1.108.146.146.229.229.229.229.02-.25.039-.501.059-.752.185.23.434.929.928-.292-.021 1.329-.043 2.659-.064 3.989.048.128.102.32.162.566.509-1.416 1.018-2.832 1.527-4.248.226 1.97.453 3.939.679 5.909.563.312 1.125.625 1.688.937.06-.042.121-.076.181-.117-.181-.795-.363-1.589-.544-2.383.174-1.781.348-3.561.523-5.342.338 1.414.675 2.829 1.013 4.243 1.66-2.249 3.269 4.751 2.673-3.569-.223.319-.446.638-.669.957.288-1.237.576-2.474.865-3.711.264.981.529 1.963.793 2.944.33-.425.659-.849.989-1.274.093.988.186 1.976.279 2.964.269-.92.537-1.839.806-2.759.224 1.631.448 3.262.673 4.893 1.321-.337 2.643-.674 3.964-1.011 1.977 3.677 1.06-1.813 2.437-3.345.635 1.095 1.27 2.191 1.906 3.286.233-.924.467-1.849.7-2.773.206.537.412 1.074.618 1.611.979.158 1.957.316 2.936.474-.189-1.607-.378-3.213-.566-4.82.182-.317.365-.635.547-.952.478 1.963.956 3.926 1.433 5.889.379-.596.758-1.192 1.137-1.787.528.363 1.055.726 1.582 1.089.022 1.18.043 2.36.064 3.54.193-1.903.386-3.806.579-5.708.752-.337 1.503-.674 2.255-1.011-.449.885-.898 1.771-1.347 2.656.384.791.768 1.582 1.152 2.373.412-.535.824-1.071 1.236-1.606.123-.752.247-1.504.37-2.256.854.762 1.708 1.523 2.562 2.285 1.021.021 2.041.042 3.061.064.901-2.793 2.471 2.234 2.582-5.377.83.613 1.66 1.224 2.49 1.837.183-.425.366-.85.548-1.275.095.993.189 1.986.284 2.979.353-.879.706-1.758 1.059-2.637.493.06.986.12 1.478.18-.154.692-.309 1.384-.463 2.076 1.395.945 2.79 1.891 4.185 2.837.072-1.879.144-3.757.215-5.635.525.537 1.049 1.074 1.573 1.611.068-1.154.135-2.308.202-3.462.861-.185 1.723-.371 2.585-.557.881 1.485 1.763 2.969 2.644 4.454 1.097-3.019 3.497-6.344 4.05.346 1.396-.83 2.792-1.66 4.188-2.49-.075 1.131-.149 2.263-.224 3.394.123.325.245.651.368.976.101-1.673.203-3.346.305-5.019.486 1.194.971 2.389 1.457 3.584-.177.973-.354 1.946-.531 2.92-.199.032-.398.065-.597.098.277 1.136.553 2.272.829 3.408-.012.029-.024.058-.037.088 1.321.942 2.459 2.425 3.467 3.882.081.125.161.25.241.376 1.161 1.96 1.667 5.017 1.824 7.47.035.549.052 1.103.052 1.655 0 2.504-.359 4.974-1.079 6.812-.061.145-.122.29-.183.435-1.009 2.243-2.097 3.385-3.121 4.053.19.377.371.783.516 1.26-.113.408-.249.769-.371 1.152.091.454.184.908.276 1.362-.024.313-.034.617-.068.943-.617.086-1.432 1.898-1.987 2.036-.506.124-.791-1.4-1.18-1.46-.389-.051-1.631 2.105-1.393-.996-.065-.128-.16-.24-.222-.405-.065 3.258-.565.86-1.099 1.362-.251.24-.998 3.059-.339-1.572-.082-.052-.116-.22-.186-.342-.697 4.065-1.015 2.741-1.811 1.406-.446-.745-1.348-1.64-.942 1.426-.455 1.976-1.036-1.079-1.364-.864-.325.218.118 1.89-.322 2.143-.072.045-.69.071-.874-.166-.182-.239.032-1.516-.264-1.328-1.284.804-2.469 3.592-3.813 4.248-3.977 1.956-7.751 2.178-11.893 2.535-.684.059-4.227.591-4.631-.499-1.385-3.749 1.552-5.488-.435-7.119-.541 10.384-1.716 7.303-3.383 7.432-1.229.094-3.213 1.585-4.268.371-1.124-1.293-.221-2.539-.891-4.756-.452 4.28-.996 5.151-1.924 5.401-.975.262-1.949-1.06-2.966-1.387-.343-.11-.809.816-1.201.444-.488-.464-.365-2.909-.664-3.266-.3-.354-.041 2.476-.367 2.924-.149.204-1.181.296-1.403-.795-.051-.256.142-1.16.101-1.998-.022-.46-.014-3.96-.266-3.662-.223 3.106-.241 6.249-1.025 6.475-1.239.349-2.41-1.103-3.728-1.323-.294-.044-.993 2.244-1.312-.425-.093-.782-.043-3.797-.513-3.643-.404.132-.467 1.501-.819 2.534-.133.391-.172-1.035-.424-.19-.255.843-.619 2.775-.781-.937-.034 1.13-.039 2.13-.063 3.203-.448.195-1.213-3.932-1.079-.503-.46.016-.922.032-1.382.049-.081-1.222-.159-2.449-.24-3.677.274-1.171.701.41.751-1.89-.396-.181-.798-.366-1.19-.547.104 6.137-1.135 9.209-.861 2.788.051-1.218-.761-.195-.937.22-.174.417-.221 2.896-.581 1.323-.205-.89-.33-2.371-.821-.669.298.693.615 1.537.919 2.3-.449-.284-1.03.569-1.429-.742-.098-.328.29-1.242.107-1.768-.183-.524-.93-.223-.773 2.173-.345-4.688-.297-.802-1.024-.678-.093.01-.828-4.454-1.163-2.066-.118.85.103 4.022-.473 2.661-.424-1.007.012-3.709-.458-5.234.219 3.6-.517 5.684-.947 5.771-.764.161-.65-2.112-.895-3.105-.44-1.79-.821 1.2-1.068-1.553.13-.07.248-.293.373-.42-.275-.353-.551-.692-.824-1.045.012 1.495.026 3.001.036 4.483-.463.494-.657-1.315-1.042-1.685-.054-.051 0 1.006-.055 1.021-.445.092-.587-.481-.914 1.645-.021-3.763-.595-1.261-1.053-2.92-.128-.467-.201-2.4-.187 1.729-.869-.926-1.522-.594-2.224-3.736.259 4.11-.738 4.175-1.316 3.052-.155-.31-.29-3.194-.617-2.7.088 1.234.189 2.648.282 3.926-.662.398-.517-3.409-1.078-2.998-.247.184-.091 4.452-.559 2.553-.268-1.092-.422-6.264-.522.059-.375.316-.142-1.741-.404-1.982-.165-.147-.348 2.2-.601 1.914-.482-.562-1.131-5.037-1.16-.401-.34.33-.095-1.616-.404-1.362-.415.34-1.445 3.386-1.618-.278 0 .006-.001.013-.001.019-.338 2.117-1.444 1.357-1.174-1.86.586.875 1.036-2.61.448-2.564-.594.047-.75-.362-.823-1.684-.299.65-.453 1.774-.871 1.967-.297.137-.71-.535-1.07-.488 0 .593-.017 1.117-.102 1.426-.221.792-.942-.98-1.181-.962-.005.001-.009.004-.014.005-.046.59-.035 1.526-.282 1.929-.069.11-.235-.758-.438-1.304-.175.216-.342.416-.507.434-.062.007-.129-.034-.2-.097-.321.727-.863 1.889-1.098 1.909-.139.01-.414-1.149-.467-1.206-.185-.156-.099 1.522-.259 1.66-1.187 1.031-2.615.601-3.765 1.167-1.092.539-1.685.874-2.8 1.387-1.034.473-1.869 3.594-1.094-5.366-.849-.853-.518 1.566-.645 3.706-.076 1.26-.302.22-.348.459-.151.822.206 1.657.085 2.265-.488 2.439-2.679.802-3.154.923-2.187.565-3.866 1.858-5.884 2.417-1.285.358-2.504.01-3.782.328-.386-2.605-.774-5.194-1.164-7.784.19.163.297.485.505.425.208-.066.72.157.796-1.138-.237-1.208-.915-1.263-1.118-1.191-.391.14-.094 1.279-.351 1.655-.259.373-.777-1.176-1.081-.425-.712 1.77.775 2.27 1.032 1.91.026 2.859-.757-.24-.919 2.065.125.636.594 2.145.727 1.611.131-.542-.175-2.14.169-1.762.278 1.481.585 3.03.862 4.531-.306.502-.832-.24-1.117-.103-3.173 1.545-6.282 1.839-9.486 2.383-.294.05-.879.137-1.166-.263-.223-.317-.18-2.297-.388-1.705-.02.107.085 1.335-.195 1.661-.53.624-1.707.916-2.302 1.005-5.831.914-11.544 2.278-17.449.167-.309-.113-1.471-.086-1.684-.762-.638-2.032-.523-4.743-.885-.503-.342.233-.103-1.815-.261-2.373-.064-.19-.464 2.735-.631 1.689-.38-2.412.262-2.618.492-3.735-.569-1.361-1.145.98-1.63 1.035-.137.016-.157-2.264-.186-2.339-.571-.78-.514 3.7-.488 5.581.288.234.571.469.857.684-.559.657-.975-.673-1.542-1.265-.135-.137.048 1.917-.261 1.133-.099-1.438-.193-2.968-.289-4.439-.726 1.273-.982 2.134-.076 4.429-.361-.029-.724-.037-1.086-.078.131-1.511-.058-3.9-.414-2.476-.082.343.134 1.95.029 2.427-.105.473-.887.077-.952-.044-.598-1.157-.694-4.41-1.209-2.714.155-.086.839 1.648.391 2.539-.5.989-2.556-.9-3.157-1.509-1.025-1.045-1.521-1.859-2.403-4.219-.167-.449-.155-2.487-.479-3.277-.434-1.049-1.221-1.683-1.709-3.008.098-.435.219-.832.326-1.245-.106-.427-.214-.856-.322-1.284.013-.317.015-.62.037-.952.611-.249 1.359-2.276 1.906-2.559.499-.254.835 1.19 1.223 1.148.389-.05 1.552-2.525 1.423.63.07.11.17.192.238.342-.051-3.262.529-1.007 1.043-1.646.242-.304.886-3.313.392 1.47.085.03.124.195.199.298.551-4.232.914-2.995 1.753-1.875.47.623 1.398 1.271.887-1.67.383-2.088 1.068.798 1.387.502.318-.3-.182-1.853.247-2.221.074-.064.686-.252.876-.064.188.192.02 1.511.308 1.245 1.249-1.138 2.331-4.221 3.645-5.229.493-.379.984-.729 1.473-1.055-1.058-1.697-1.836-5.691-3.214 2.559-.886.417-1.772.833-2.658 1.25-.052-.458-.104-.915-.156-1.372-.058.038-.112.074-.16.102-.352.209-.768.392-1.217.547-.905.313-2.076.576-3.421.801-2.698.451-6.208.748-9.932.869-.023.002-.046.003-.069.005-.022-.003-.045-.007-.067-.01-.114-.018-.239-.045-.359-.088-.066-.023-.33-.11-.609-.42-.076-.084-.593-.625-.947-2.153-.053-.23-.101-.482-.144-.747-.284-.427-.568-.853-.853-1.279.004-.648.009-1.296.013-1.944-.232.032-.463.054-.693.083-.03.235-.06.469-.09.703-.723.339-1.446.677-2.168 1.016-.2-.472-.4-.944-.6-1.416-.67.048-1.318.079-1.932.088-.032.762-.065 1.523-.097 2.285-.326-.765-.653-1.53-.979-2.295-.636-.02-1.224-.077-1.747-.161.016.298.031.596.046.894-.648.922-1.297 1.845-1.945 2.768-.265-.677-.53-1.354-.795-2.031-.205.569-.409 1.139-.614 1.709-.878.133-1.757.267-2.635.4-.215-1.224-.429-2.448-.644-3.672-.258.179-.516.358-.774.537.205.757.409 1.514.614 2.271-.73.226-1.459.452-2.188.679-.02 1.155-.039 2.311-.058 3.467.213-.187.419-.352.606-.367.157-.008.116 1.35.148 1.382.63.447.686-2.206.708-3.32-.323-.131-.639-.261-.96-.381.657-.403 1.095.371 1.727.708.151.078-.001-1.132.331-.674.074.848.139 1.754.208 2.622.864-.771 1.18-1.29.207-2.627.412.008.825.004 1.238.02-.191.897-.041 2.305.404 1.455.105-.201-.097-1.149.035-1.436.133-.283 1.019-.069 1.087 0 .651.671.672 2.585 1.304 1.573-.182.047-.91-.953-.375-1.49.598-.597 2.892.475 3.563.821 1.143.593 1.688 1.056 2.632 2.431.178.261.107 1.474.456 1.934.467.611 1.351.966 1.872 1.738-.041.088-.09.161-.135.245-.502.109-.982.095-1.4-.118-1.534 2.776-3.289 2.474-3.848 2.744.004-.07.009-.15.02-.234-.077-.063-.188-.109-.261-.195-.013.827-.132 1.042-.311 1.064-.082-.043-.185-.099-.313-.175.005.038.007.08.012.117-.182-.069-.388-.141-.596-.025-.158-.304-.321-.535-.466-.727.01-.039.019-.081.029-.122-.095-.016-.137-.107-.22-.166-.002.007-.005.017-.007.024-.013-.017-.026-.037-.038-.054-.037-.048-.078-.098-.118-.151-.22-.292-.48-.64-.723-.903-.26-.281-.511-.348-.885-.284-.157.028-.349.078-.586.162.356-1.243-.248-3.483-1.276-3.355-.146.998.243.399.244.942-.001.546-.388-.068-.247.933.635.279.34-.86.823-1.094-.114.592.008 1.682-.078 2.178-.136.781-.411.281-.467.791-.037.016-.075.037-.113.054-.285-.046-.57-.085-.854-.117-.286.571-1.36-1.955-1.883-2.974.031-.06.063-.116.094-.176-.078-.021-.155-.047-.233-.068-.038-.063-.067-.116-.092-.142-.132-.133-.208-.486-.262-.752.023-.107.036-.224.027-.356-.387-.073-.788-.137-1.191-.205 0-.149.012-.295.032-.44-.572.049-1.142.129-1.708.249-.883.187-1.76.466-2.627.845-.859.375-1.716.775-2.572 1.191-.024.448-.079 1.283-.093 1.475-.002.056-.004.137-.004.22 0 .348-.001.812-.202.385-.002-.014-.043-.226-.097-.517 0-.129-.005-.268-.016-.401-.037-.458-.142-1.242-.361-1.914-.17-.521-.395-.851-.626-1.03-.342-.264-.63.044-.805.327-.178.287-.327.683-.44 1.026-.158.48-.327 1.119-.439 1.548-.038.145-.072.274-.095.356-.011.039-.022.079-.032.117-.007.025-.013.049-.02.073-.771.419-1.541.85-2.31 1.295.006.038.009.068.008.078-.009.057-.372.465-.391.473-.037-.011-.079-.115-.122-.254-.077.045-.154.087-.23.132.027.125.048.257.051.376.007.104-.044.17-.094.235-.039.049-.078.1-.089.165-.027.202-.015.387-.006.538.019.297.028.475-.279.429-.056.015-.574-.41-.598-.454-.007-.013-.013-.026-.02-.039.029.472.059.944.088 1.416.023.238.055.445.106.571.086.227.207.2.322.171.202-.049.389-.097.361 1.251-.282.279-.49.063-.697-.152-.241-.25-.479-.5-.83.039-.109-.569.021-.681.162-.801.112-.095.23-.201.238-.542.003-.257-.063-.555-.125-.835-.136-.607-.255-1.149.375-1.118-.022-.065-.03-.293-.037-.513-.001-.032-.002-.065-.003-.097-.119.072-.24.147-.36.22-.059.166-.118.297-.175.268-.026-.003-.053-.047-.077-.112-.24.147-.481.295-.721.444-.005.124-.017.243-.037.352-.075.455-.724.742-.879.561-.001-.014-.002-.029-.003-.044 0 0 .002-.148-.015-.288-.092.057-.183.114-.275.171.001.003.001.007.002.01.004.15.008.307-.029.366-.137.175-.261.098-.363-.122-.102.065-.205.13-.307.195.143.478.411.742.647.972.249.244.463.451.456.845-.001.042-.021.085-.047.132-.094.166-.265.474.056 1.728-.812.491-.579-.564-.483-.996.021-.098.035-.164.029-.171-.256-.03-.432.317-.614.674-.097.19-.196.382-.308.523-.06.088-.135.078-.214.068-.089-.012-.184-.024-.268.107-.068.117-.251.713-.426 1.294-.19.629-.375 1.246-.406 1.211-.052-.91-.27-1.394-.482-1.86-.093-.204-.184-.411-.259-.645-.063-.21-.14-.626-.203-.967-.025-.123-.049-.247-.074-.371-.019-.096-.035-.157-.044-.166.003.03.005.059.008.088-.117-.147-.434.116-.515.479-.08.372-.067.86-.033 1.338.024.301.049.602.073.903.028.404.027.719-.07.825-.458.5-.827-1.46-.691-2.514.032-.232.13-.246.232-.259.119-.016.246-.037.287-.41-.096-.094-.216-.231-.335-.401-.565.382-1.13.77-1.695 1.157.101.891-.01 1.623-.61 1.397-.001-.374-.002-.7-.005-.977-.445.307-.892.613-1.336.923.169.179.362.485.242 1.509-.104.922-.574 1.034-.947 1.123-.171.041-.323.079-.409.186-.096.117-.164.305-.234.498-.03.084-.062.168-.096.249-.241.059-.501.134-.774.224-.075-.186-.101-.447-.123-.688-.036-.389-.067-.718-.295-.542.135.572.093 1.061-.029 1.382-.214.074-.432.151-.651.224-.056-.083-.108-.198-.15-.346-.065-.228-.094-.527-.12-.796-.017-.17-.033-.332-.057-.459-.082.058-.165.117-.247.176.031.442.059 1.044.061 1.591-.096.03-.192.057-.287.083-.05-.362-.197-.504-.331-.625-.082-.074-.161-.138-.206-.254-.02-.059-.034-.14-.044-.224-.177.125-.354.251-.531.376-.121-.774-.429-1.264-.74-1.128-.235.103-.556.213-.89.337-.02-.313-.084-.659-.334-1.03-.086.486-.179.902-.278 1.259-.448.16-.846.305-1.016.362-.172.058-.335.222-.461.371-.132.158-.269.355-.396.547-.096.143-.186.282-.272.415h-.003c-.154.239-.298.464-.444.664-.875-.005-1.763-.369-2.673-.376-.394-.004-.916.627-1.369.478-.565-.185-.455-1.646-.803-1.801-.348-.154-.013 1.469-.381 1.792-.168.146-1.349.383-1.616-.22-.061-.143.148-.712.09-1.197-.032-.278-.07-2.32-.353-2.099-.215 1.867-.194 3.715-1.088 3.989-1.412.429-2.77-.211-4.281-.102-.338.026-1.108 1.499-1.508-.015-.116-.443-.099-2.226-.634-2.051-.461.151-.515.969-.904 1.641-.147.255-.21-.579-.488-.034-.28.542-.672 1.74-.906-.415-.024.67-.018 1.259-.031 1.894-.51.193-1.437-2.09-1.239-.097-.527.092-1.054.185-1.581.278-.108-.704-.215-1.412-.323-2.119.298-.739.807.112.834-1.25-.456-.036-.918-.072-1.37-.108.201 3.592-1.174 5.624-.944 1.797.041-.723-.874.027-1.07.303-.194.277-.214 1.738-.647.879-.246-.487-.41-1.335-.949-.244.349.353.723.792 1.08 1.186-.516-.086-1.17.52-1.643-.18-.117-.175.313-.779.098-1.055-.217-.275-1.067.034-.856 1.416-.456-2.696-.349-.424-1.18-.22-.104.027-1.004-2.466-1.357-1.001-.124.522.17 2.349-.508 1.651-.498-.517-.034-2.186-.593-2.999.298 2.08-.516 3.441-1.007 3.57-.872.232-.771-1.125-1.064-1.665-.528-.973-.925.853-1.243-.723.147-.064.279-.22.421-.317-.319-.159-.638-.311-.955-.469.033.878.067 1.766.099 2.637-.523.374-.769-.659-1.215-.806-.061-.017.014.593-.049.61-.507.135-.676-.172-1.022 1.138-.073-2.211-.699-.636-1.245-1.533-.153-.253-.26-1.37-.191 1.055-1.006-.389-1.748-.075-2.592-1.797.35 2.37-.788 2.586-1.465 2.031-.181-.15-.375-1.825-.743-1.475.116.71.249 1.526.374 2.261-.753.353-.636-1.914-1.273-1.572-.279.153-.045 2.635-.604 1.606-.322-.593-.566-3.612-.597.127-.425.254-.187-.999-.49-1.093-.19-.056-.369 1.357-.662 1.235-.558-.244-1.362-2.76-1.334-.025-.383.254-.127-.931-.477-.727-.47.273-1.608 2.25-1.854.122-.001.003-.001.007-.002.01-.358 1.308-1.635 1.063-1.368-.879.682.411 1.151-1.721.477-1.587-1.103.219-.899-.48-1.158-2.984-.038-.36-.351-.536-.287-1.005.064-.471.736-.974.359-1.983-.073-.187-.419.61-.49-.439-.069.248-.103.496-.159.742-.614-2.234-.674-3.01.46-3.34-.03.494-.059.995-.09 1.489.16-.62.299-1.224.476-1.851 1.241.009 2.91-1.996 4.03-1.396.978.524-.366.925-.39 1.016-.246.981.204 1.38.213 2.016.007.637-.545 1.63-.049 1.294.066-.051.72-2.016.743-2.28.108-1.362-.031-1.923.111-2.339-3.138-.773-5.686-1.55-8.153-2.183-.649-.154-1.298-.309-1.947-.463-2.331-.511-4.108-1.378-5.571-2.154-.462.347-.924.694-1.387 1.04-.152-.288-.305-.576-.457-.864-.806-.018-1.612-.036-2.417-.054-.035-.421-.071-.843-.106-1.264-1.348 3.993-1.74-4.827-2.905 2.163-.491.229-.983.459-1.474.688-.109-.972-.219-1.943-.328-2.915-.045.264-.09.527-.136.791-.43-.337-.86-.674-1.291-1.011-.321.733-.641 1.465-.962 2.198-.232-2.942-2.765 1.341-2.273-1.216-.363.063-.726.127-1.089.19.086-.387.173-.775.259-1.162-.056-.273-.112-.547-.169-.82-.268.485-.536.97-.804 1.455-.389-4.383-.839-.948-1.027-.635-.305.488-.87.596-.906.689-.055.156.461 1.31.027 1.997-.23-.708-.461-1.416-.691-2.124-.027.398-.053.797-.08 1.196-.157-.236-.315-.472-.473-.708.003-.454.007-.908.01-1.363-.093-.161-.186-.322-.278-.483-.053.4-.106.801-.159 1.201-.4.187-.8.375-1.201.562-.296-.7-.593-1.4-.889-2.1-.156.078-.311.157-.467.235-.034.799-.067 1.598-.101 2.397-.419-.981-.838-1.963-1.257-2.944-.231.19-.462.381-.693.571.054.41.108.82.162 1.231.083-.251.167-.502.25-.753.017.344.034.687.05 1.031-.359.513-.719 1.025-1.078 1.538-.147-.376-.293-.752-.44-1.128-.113.316-.227.632-.34.947-.487.073-.974.147-1.46.22-.119-.68-.238-1.361-.357-2.041-.143.099-.286.199-.429.298.113.421.227.843.34 1.264-.405.127-.81.254-1.214.381-.015.871-.03 1.742-.045 2.613-.179-.161-.359-.323-.538-.484-.011-.48-.021-.96-.031-1.44-.737-.86-1.474-1.719-2.211-2.578-.029.921-.059 1.842-.088 2.763-1.001-1.437-2.036-.206-2.933-.551-.379-.146-.871-2.619-.798-.132-.732-.27-1.463-.541-2.194-.811-.211.464-.421.928-.632 1.392-.317-.71-.634-1.419-.951-2.129-.474 1.861-2.914 3.066-2.846.327-.544.644-.501.068-1.161 1.011-.156-.534-.313-1.068-.47-1.602-.277-.101-.554-.202-.831-.303-.369.482-.737.964-1.105 1.446-.247-.853-.494-1.706-.742-2.559-.012.669-.024 1.338-.036 2.007-.217.218-.434.436-.652.654-.589 3.336.119-6.256-1.732-2.309.28.053.56.107.84.161.108.825.215 1.65.323 2.475-.39.336-.78.671-1.17 1.006-.275-.268-.551-.537-.826-.805-.23.242-.46.485-.689.727-.611-.53-1.221-1.061-1.832-1.592-.576.206-1.152.411-1.728.616-.104-.523-.207-1.045-.31-1.568-.253.632-.507 1.263-.76 1.895-.101-.104-.202-.209-.304-.313-.029-.457-.059-.914-.088-1.372-.459.262-.919.524-1.378.786-.321-.41-.642-.82-.963-1.23.013.405.026.81.038 1.216-1.477-.049-2.955-.098-4.432-.147-.004-.005-.007-.009-.011-.014-.156-1.282-.93 1.58-.836-2.432-.046.394-.093.788-.139 1.182-.159-.236-.318-.472-.478-.708.011-.464.021-.928.031-1.392-.121-.02-.241-.039-.362-.059-.01.581-.021 1.163-.032 1.743.136.385.271.769.406 1.153-.339-.202-.677-.404-1.016-.606.047-.392.094-.784.14-1.176-.434-1.088-1.739 3.589-.752-5.591.235.382.47.765.705 1.147-.13-.823-.261-1.647-.391-2.471.035-.672.069-1.344.104-2.016.214.441.427.882.641 1.323.109-.451.219-.902.328-1.353-.076-.278-.153-.556-.229-.835.129-.384.258-.768.386-1.152.428-.124.856-.247 1.283-.371.074.288.148.576.222.864.739.137 1.478.274 2.217.41-.089.518-.178 1.036-.267 1.553.195.017.39.033.586.049.063-.47.126-.941.189-1.411.194-.132.389-.264.583-.396-.038.92-.076 1.84-.115 2.759-.188.651-.376 1.302-.564 1.953.155.295.31.59.465.884.029-.677.057-1.354.086-2.031l.669.156c-.107-.495-.214-.989-.321-1.484.054-.557.108-1.114.163-1.67.315-.244.63-.489.946-.733.033.411.067.821.1 1.231.233-.484.464-.967.696-1.45.114.278.228.556.342.835.051-.259.102-.518.153-.777.265.047.531.095.796.142.163.447.326.895.488 1.343.167-.399.333-.798.5-1.197.994.428 1.989.856 2.984 1.284.675-2.397 2.239 1.239 2.147-1.103l2.544.249c.168.374.336.749.505 1.123.848-.234 1.696-.469 2.545-.703 1.057.719 2.114 1.439 3.171 2.158-.107-.825-.214-1.65-.321-2.476.333.053.665.105.998.157.2.586.4 1.172.6 1.758.188-.505.377-1.01.566-1.514.255 4.165.922-.708 1.779.679.452-3.596 1.13 2.496 1.672-1.25-.026.395-.052.791-.079 1.186.18.031.359.062.539.093.37-.466.74-.931 1.111-1.397.011.541.023 1.081.035 1.622.158.097.317.195.476.293-.087.45-.174.901-.261 1.352.139.145.278.29.416.435.498-.559.995-1.117 1.493-1.675.128.421.257.843.386 1.264.068-.4.136-.8.204-1.201.294.332.588.664.882.996-.021-.408-.043-.817-.064-1.225-.132-.025-.264-.049-.397-.073.007-.401.015-.801.022-1.202.441.08.883.16 1.324.24-.035-.274-.071-.547-.107-.821.375.065.75.13 1.125.196-.008-.032-.017-.06-.024-.093-.146-.673-.037-3.218-.809-3.154-.664.052-.779 1.201-1.366 2.021-.222.31-.271-.898-.693-.225-.425.674-1.04 2.256-1.274-.903-.065.948-.082 1.789-.131 2.69-.736.099-1.952-3.491-1.764-.58-.755-.054-1.512-.108-2.267-.162-.121-1.041-.242-2.083-.364-3.13.46-.95 1.148.446 1.252-1.484-.649-.211-1.306-.434-1.949-.645.117 5.196-1.941 7.607-1.433 2.227.093-1.017-1.248-.27-1.539.054-.29.325-.388 2.41-.965 1.03-.328-.781-.52-2.049-1.341-.684.482.628.993 1.383 1.483 2.071-.732-.305-1.692.33-2.333-.835-.159-.291.485-1 .19-1.47-.296-.469-1.521-.33-1.287 1.714-.523-4.005-.479-.72-1.674-.723-.152-.005-1.316-3.875-1.887-1.904-.201.703.132 3.403-.801 2.168-.687-.912.053-3.127-.705-4.483.327 3.071-.898 4.722-1.605 4.732-1.253.023-1.045-1.875-1.436-2.749-.707-1.577-1.36.892-1.74-1.465.213-.04.407-.214.614-.303-.448-.338-.896-.662-1.342-1.001.006 1.263.016 2.533.02 3.784-.764.35-1.065-1.204-1.694-1.572-.088-.051-.008.847-.099.85-.73.013-.957-.486-1.512 1.26 0-3.18-.968-1.151-1.704-2.623-.206-.416-.305-2.046-.321 1.436-1.416-.909-2.489-.726-3.612-3.481.389 3.508-1.247 3.419-2.186 2.387-.251-.277-.446-2.742-.987-2.373.133 1.054.283 2.262.425 3.355-1.09.237-.816-2.95-1.741-2.686-.406.119-.187 3.746-.938 2.075-.43-.959-.638-5.35-.858-.029-.618.212-.216-1.493-.645-1.733-.269-.147-.59 1.809-1.003 1.528-.784-.543-1.811-4.415-1.899-.508-.561.227-.139-1.373-.647-1.206-.682.223-2.402 2.647-2.652-.473v.019c-.573 1.739-2.384.929-1.911-1.748.953.826 1.723-2.047.757-2.095-1.584-.076-1.26-.997-1.51-4.658-.037-.527-.479-.891-.365-1.538.114-.648 1.098-1.129.607-2.701-.094-.295-.628.727-.68-.796-.11.33-.169.666-.26.997-.771-3.403-.82-4.525.814-4.595-.066.694-.133 1.395-.2 2.09.258-.829.483-1.639.766-2.471 1.769.449 4.244-1.818 5.812-.567 1.368 1.091-.552 1.189-.6 1.309-.399 1.313.223 2.038.206 2.949-.019.911-.855 2.132-.131 1.827.095-.048 1.117-2.607 1.166-2.984.347-3.018-.287-3.378 1.222-4.092.539-.252 2.096-.453 2.685-.571.651-.127 1.176 1.451 1.563 1.289.387-.164.023-1.171.481-1.323.904-.3 2.209.737 3.042.722.946-.02 1.219-1.55 2.133-1.557.634-.005 1.486 1.171 2.201.698.168.829-.155 3.946.32 3.75.579-.244-.227-2.152.063-3.076.586-.478.169.918.189.962.287.608.777.204 1.132.522-.235-.642-.464-1.225-.714-1.875.97 1.056.476-1.164 1.251-1.606.203-.11.663 2.247 1.367 1.611.168-.15 1.82-1.665 2.353-1.567.229.044.6 1.123.681 1.181.291.197.26-1.241.531-1.298 2.003-.425 4.303.469 6.215.419 1.817-.047 2.806-.109 4.658-.126 1.718-.015 3.287-2.314 1.425 4.878 1.327 1.023.947-1.114 1.297-2.852.208-1.026.505-.075.597-.254.304-.63-.225-1.46.012-1.924.957-1.86 4.423.313 5.205.386 3.603.334 6.426-.124 9.752.151 2.118.175 4.082.913 6.186 1.118.455 2.315.916 4.615 1.379 6.92-.299-.206-.452-.506-.795-.533-.343-.021-1.165-.399-1.376.655.307 1.096 1.409 1.396 1.745 1.411.648.027.237-1.042.684-1.26.447-.217 1.185 1.267 1.73.752 1.281-1.215-1.11-2.18-1.552-1.973.149-2.394 1.216.478 1.635-1.382-.161-.576-.824-2.012-1.076-1.616-.251.404.14 1.852-.395 1.411-.355-1.339-.75-2.751-1.102-4.106.533-.306 1.339.508 1.813.498 5.276-.122 10.364.779 15.623 1.504.483.066 1.439.214 1.88.654.343.346.14 1.979.517 1.563.045-.059-.052-1.143.431-1.314.906-.326 2.845-.134 3.821.01 8.25 1.193 16.382 2.074 24.548 4.819-.085-.307-.17-.615-.255-.922.232-.694.465-1.387.697-2.081.771-.226 1.543-.452 2.314-.678.133.52.266 1.041.399 1.562 1.333.246 2.667.492 4 .737-.161.935-.321 1.869-.481 2.803l1.056.078c.114-.844.228-1.689.342-2.534.35-.238.7-.475 1.05-.713-.069 1.656-.138 3.311-.206 4.966-.22.757-.44 1.514-.66 2.271.005.016.01.034.016.049.087.199.94-2.115 1.143-1.172.033.156.056.305.074.439l.609.147c-.193-.892-.385-1.784-.578-2.676.097-1.003.195-2.006.293-3.008.569-.436 1.139-.873 1.709-1.309.059.733.119 1.465.178 2.198.418-.868.836-1.736 1.255-2.603.206.501.413 1.003.619 1.504.091-.464.182-.928.273-1.392.479.085.957.17 1.436.254.294.803.588 1.605.882 2.408.3-.717.6-1.433.9-2.149 1.795.773 3.59 1.546 5.385 2.319 1.218-4.317 4.037 2.229 3.87-1.992 1.53.148 3.061.296 4.591.444.304.676.608 1.352.913 2.027 1.528-.422 3.056-.843 4.585-1.265 1.907 1.291 3.813 2.582 5.72 3.872-.191-1.482-.383-2.965-.575-4.448.599.093 1.198.186 1.798.278.361 1.057.722 2.113 1.083 3.169.341-.908.682-1.816 1.022-2.724.46 7.499 1.661-1.28 3.208 1.216.807-6.402 2.01 4.279 2.984-2.041-.018-.079-.037-.166-.056-.254.029-.405.046-.823.078-1.221.157.356.335.599.5.879-.13 1.654-.287 1.573-.506.654-.043.625-.086 1.25-.129 1.875.325.056.649.111.974.166.668-.838 1.336-1.676 2.003-2.515.022.974.043 1.947.064 2.92.188.114.375.228.562.342-.011-.342-.004-.674.034-.927.89-.595 1.005 2.687.294 2.719-.077.002-.157-.262-.22-.639-.094.486-.188.973-.282 1.46.251.263.502.527.752.791.819-.92 1.638-1.84 2.457-2.759-.036-.634-.063-1.28-.04-1.9.328-.665 1.32-.831 2.135-.864.001-.028.002-.055.003-.083.145.026.29.052.435.078.372.004.654.019.729.01.149-.02.261.058.345.181.264.045.527.091.791.136.023-.036.048-.067.073-.092-.06-.453-.12-.905-.18-1.358.677.117 1.354.235 2.031.352.287-.791.353-2.194-.101-2.188-1.172.017-.933-1.109-1.119-5.474-.027-.627-.352-1.029-.268-1.811.084-.783.812-1.424.449-3.272-.07-.348-.465.913-.504-.903-.081.401-.124.804-.191 1.206-.57-4.019-.607-5.356.601-5.552-.048.835-.096 1.679-.146 2.515.191-1.009.356-1.994.565-3.008 1.308.416 3.139-2.473 4.299-1.084 1.013 1.212-.412 1.464-.444 1.611-.294 1.596.164 2.417.153 3.506-.013 1.091-.632 2.615-.098 2.202.07-.058.832-3.217.864-3.657.256-3.632-.212-4.019.903-4.976.399-.339 1.551-.682 1.987-.864.481-.197.87 1.657 1.157 1.436.285-.224.017-1.403.355-1.617.669-.419 1.634.729 2.251.655.699-.091.9-1.945 1.576-2.017.469-.05 1.1 1.303 1.628.689.125.979-.114 4.731.238 4.463.429-.332-.167-2.557.046-3.682.431-.608.131 1.059.14 1.138.212.706.575.186.838.542-.173-.752-.343-1.434-.528-2.193.718 1.197.352-1.42.925-2.002.15-.148.491 2.635 1.011 1.826.127-.195 1.347-2.111 1.741-2.031.169.039.444 1.304.504 1.367.215.213.193-1.498.392-1.587 1.482-.645 3.185.26 4.599.069 1.344-.182 2.076-.321 3.446-.469 1.27-.135 2.431-2.995 1.054 5.737.981 1.133.699-1.402.958-3.506.154-1.239.375-.116.443-.341.224-.775-.167-1.729.009-2.3zm-119.301 67.204c.437-1.902.015-2.563.954-.874-.902 2.002.393 3.098.4 4.824.002.975-.44.421-.573.933-.202.79.098 2.049-.145 2.558-.241.508-1.09-.405-1.364-.351-.523.108-.97.755-1.407.849s-1.125-.696-1.408-.766c-.282-.069-.553.144-.6.254-.266.638-.078 2.019-.46 2.09-.049-1.363-.616-3.476-.071-4.351-.081-.031-.186-.279-.264-.239-.363.2-.128 2.063-.294 2.407-.281.572-.109-.897-.113-.982-.307-1.093-.14.196-.255.791-.062.305-.603 1.008-.722.987-.116-.026.018-.779-.061-.806-.339-.121-.688-.276-1.02-.078-.332.204-.498 1.506-.527-.347-.004-.293.181-.59.109-1.26v-.009c-.025-.216-.317-1.234.05-1.91.104-.19.217-.295.336-.336-.039.254-.076.511-.115.766.092.004.184.009.275.015-.04.657-.082 1.347-.107 1.977.131.68.244-.236.265-.244.32.235.313 1.577.501-.024-.217-.216-.432-.464-.642-.718-.001-.329-.003-.662-.005-.991.042.003.083.007.125.01-.027-.265-.056-.532-.084-.796.3.071.619.458.9.903-.087.383-.184.817-.27 1.226.36-.357.165.478.428.898.04-1.588.189-1.235.406-1.147.216.085-.083-1.055.132-1.221.439-.333 1.226 1.452 1.302-.85.59 1.352-.1 1.627-.13 2.193-.123 2.418 1.029 1.278 1.184-.059.176.754.195 1.831.627 1.494.587-.46-.717-1.623.084-1.928.537-.203.48.945.751 1.186.505.442 1.377-.239 1.039-1.811-.136-.631-.5.242-.656-.411-.086-.364.041-3.675-.377-1.079-.04.259.225 1.436-.148 1.509-.107.02-.482-1.023-.781-.669-.131.155-.668 1.715-1.013 1.201-.374-.541.177-.911.032-1.416-.147-.505-.601-.41-.603-1.499.223-1.254.286.645.365.557.304-.387.019-2.228.471-2.056.085 1.004-.271 3.747.374 2.984 0-.051-.163-.664.044-.909.363-.425 1.066-.743 1.52-.756-.057-1.499-.611-1.331-.911-2.335.606-.327 1.279-.867 1.749.513-.227.231-.455.468-.681.698.27-.102.539-.201.807-.302-.089.645-.668 2.299-.232 2.602.005-1.635.601-1.992.809-2.895zm3.282 8.164c-.301 1.244-.764.994-1.251 1.001.083-1.319.884-.749 1.251-1.001zm-12.754-3.296c-.365-2.11.905-2.039 1.419-1.802-.119.003-.239.013-.357.02.061.449.118.903.18 1.352-.13.073-.259.142-.388.215.162.454.308.971.464 1.426-.293 2.05-.343.78-.836.547-.316-.146-.422.549-.807.654-1.803.494-3.641 1.67-5.503 1.592-.037-1.679-.003-2.102.334-2.373-.003.5-.001 1.009-.003 1.509.222-.208.44-.451.655-.703-.214-.262-.426-.533-.635-.816.102-.078.231-.15.392-.234.119-.065.134-.747.298-.694.35.117.846 2.095 1.214 1.504.214-.343-.124-2.181.414-1.728-.283 1.414-.476 2.638.322 1.968-.494-1.132-.114-.709.044-1.363.099-.418-.586-.168-.159-1.011.092-.171 1.456-1.156 1.424 0-.071 2.502-.147 2.233.716.694-1.148-.827-.153-2.628.363-1.992.263.326-.149 1.55.449 1.235zm-6.722 2.734c.349.055.415-1.091.688-.361.023.089-.182 1.263-.348 1.338-.166.071-1.247-.282-1.284-.459-.36-1.963.822-.541.944-.518zm-1.088-.014c-.423.099-.846.194-1.269.293 0-.002.001-.004.001-.005.011-.253.024-.504.037-.757.41.156.821.313 1.231.469zm22.131-2.305c-.091 1.693.324 1.861.483 1.812.567-.179.923 1.211 1.139-.479-.349-.953-.572.213-.74.107-.367-.242-.397-1.624-.882-1.44zm2.184.244c.154.328.097 1.201.305 1.411.209.213.81.478 1.027.137.216-.343.161-1.627.333-2.134-.563.174-1.102.379-1.665.586zm3.215-.786c-.32-.081-.674 1.706.047 1.314.032-.017.277-1.17.504-.484.147.475.047.928.241 1.47.194.539.609-1.939-.792-2.3zm7.207.698c-.151.028-.319.856-.243.991.593 1.003.943-1.12.243-.991zm-32.404 1.05c-.005.004-.011.006-.017.01v-.029c.006.007.012.012.017.019zm30.937-1.24c.28-.345.56-.691.84-1.035-.18-.271-.358-.545-.536-.816-.1.616-.203 1.239-.304 1.851zm-.502-3.428c-.026 1.083.021 2.042.373 2.671.055-1.065-.146-1.853-.373-2.671zm4.509 2.236c.41.939.612-3.262.046-1.342-.054.187-.076 1.268-.046 1.342zm-27.258.108c-.004 0-.008 0-.012 0 .004-.066.008-.135.012-.2zm155.275-3.33c-.28-1.66-.577 2.524-.519 2.798.282 1.299.718-1.611.519-2.798zm-136.485-1.202c-.967-1.51-1.081 1.755-1.146 2.086-.338 1.718-.486-1.116-.569-1.099-.397.123.128 3.124.184 3.179.879.751.619-1.624.696-2.369.171-1.611.779-.398.835-1.797zm-18.749 3.746c-.072-.017-.143-.024-.212 0 .008-.054.018-.112.026-.166-.136-.13-.273-.256-.409-.386.162-.176.323-.358.484-.537.037.361.074.728.111 1.089zm37.517-1.485c-.623-2.081-2.597.508-1.257 1.162.231.112.104-.563.247-.6 0 .001.001.003.001.005.144-.033 1.472.987 1.009-.567zm-25.818-.005c.186 1.053.474.657.82.445-.041-.379-.083-.76-.124-1.138-.231.228-.465.465-.696.693zm147.984-1.836c-.296.413-.829-.448-.804 1.783.245.244.491.497.736.742.023-.84.045-1.685.068-2.525zm3.115-3.96c-.276.739.028 2.043-.077 3.072-.107 1.026-1.004.586-.39 3.13.192.778 1.249-1.43 1.594.268.166-4.998-.434-1.435-.868-3.501-.13-.622.229-3.014-.259-2.969zm-123.3 6.08c.276-.224.556-.451.833-.679-.274-.022-.549-.038-.823-.064-.003.248-.007.495-.01.743zm35.633-.435c-.051.103-.101.205-.152.308-.159.014-.311.03-.452.034-.06-.304-.12-.609-.18-.913.261.19.523.381.784.571zm-29.899-1.943c-.479-.645-1.103.995-.742 1.909.434 1.089 1.52-.856.742-1.909zm-2.765 1.845c1.041.376 1.754-2.254.415-1.372-.074.052-.169 1.351-.415 1.372zm35.295-.429c-.392-1.29 1.221-3.22 1.688-2.627-.135.844-.269 1.689-.403 2.534-.059.049-.125.142-.193.249-.17.035-.461.1-.822.176-.136-.172-.261-.345-.273-.386.001.018.002.036.003.054zm97.09-.64c-.976-4.66-1.202-.212-.565.825.078.128.583.111.565-.825zm-153.325-1.968c-.032-.489.284-3.233-.276-1.064-.193.751-.146 1.482-.709 1.66.521-.288.463 1.758.521 1.904.476 1.177.947-1.304.846-2.353-.032-.298-.348.338-.382-.147zm-23.156 2.681c-.281-.006-.564-.003-.844-.005.027-.362.051-.733.078-1.099.256.36.518.703.766 1.104zm172.515-8.296c-.054 1.448.744 7.036.856 7.412.728 2.361 1.115-1.013 1.801.601-.201-3.723-.698-1.296-1.111-3.101-.126-.554.327-3.713-.313-4.634 0-.001-.001-.003-.001-.005-.206-.293-.944.728-1.232-.273zm-90.789 5.747c-.212-.496.198-2.942.636-1.001.015.093.006.247-.002.391-.007.133-.014.263-.001.327.041.149.22.334.43.556.429.454.988 1.053.784 1.734-.275.057-.552.109-.83.166-.065-.218-.12-.486-.174-.757-.072-.365-.145-.731-.245-.967-.182-.415-.41-.423-.531-.425-.046 0-.077-.001-.084-.024zm100.192-10.386c-.106-.665-.649-.735-.692-.147-.039.56.04 1.047.11 1.495.066.069.132.141.197.21-.055.008-.11.016-.165.024.072.485.108.929-.064 1.382-.492-.078-.998-.172-1.495-.249.06 1.062.119 2.131.177 3.193.096-.383.194-.777.29-1.167.101.32.202.644.303.957-.28 6.002-1.175-.405-1.939 2.461-.001-1.243-.008-2.537-.004-3.75-1.338-1.297-.426.172-.329 3.228.056 1.752-.394.22-.473.508-.531 2.07.849 4.49 1.279 4.375.43-.113 1.03-2.431 1.509-2.564.285-.073.327 1.215.614 1.143.428-.104 1.191-.044 1.562-.947.134-.33.003-2.699-.035-2.969-.095-.627-.278.624-.388.429-.108-.198-.038-1.198-.18-1.279-.144-.076-.888.501-.938.694-.284 1.177.17 2.377-.224 2.236-.506-8.125.803-3.274.985-3.77.412-1.148.338-1.787.179-2.261-.269-.257-.533-.57-.548-.732-.135-1.677.035-1.874.258-1.636.03-.32.053-.625.015-.869-.001.002-.003.003-.004.005zm15.669 7.964c.816-.178.349 3.397.212 3.452-.576.213-1.028-3.825-1.28.923-.351.249.003-1.681-.212-1.889-.427-.406-.882 2.066-1.326 1.753-.035-1.043-.139-2.162-.112-3.223.455-1.153 2.513-.973 2.718-1.016zm-181.213 4.361c.372-.465.746-.931 1.118-1.392-.541.246-.738.431-1.085-.86-.01.749-.022 1.503-.033 2.252zm22.39-1.309c-.052-.155-1.044.201-1.04 1.021.18.243 1.386.169 1.04-1.021zm153.667-1.568c.73-.633.843 2.618.258 2.686-.167.014-.362-1.798-.258-2.686zm-57.602-.522c-.093-.04-1.325.078-1.207 2.114.664.266 1.372.51 2.051.752-.041-.636-.231-1.318-.327-1.577-.238-.656-.176-1.146-.517-1.289zm59.285-.645c.196.406.093 1.936.481 1.182.002.155.004.309.006.464-.03 1.063-.344 1.858-.507 1.797-.006-.017.032-.977-.012-1.011-.328-.167-.838.757-.818-1.919.309 1.571.653-.914.85-.513zm-175.091.586c-.42-.039-.658 1.521-.574 2.535.277-.228.555-.456.832-.684-.086-.616-.173-1.234-.258-1.851zm108.65.479c.125.224.25.44.375.664-.075.205-.151.405-.226.61.106.223.214.446.319.669.115-1.039.228-2.08.344-3.12-.271.39-.542.787-.812 1.177zm48.344-9.756c-.339-1.379-.215 3.127-.027 3.569.188.437.549-.604.709 1.201-.252.884-.541-.254-.859.303-.376.663.036 2.858.136 2.256.199-1.214-.026-2.956.465-1.465.418 1.274-.024 5.189.328 5.415.447.28.27-2.143.107-3.623.275-.405.55-.753.824-1.133-.823.052-.922-2.86-1.086-6.523-.35-.406-.022 2.114-.385 1.787-.127-.118-.184-1.662-.212-1.787zm-13.681 9.092c-.667.077-.659 2.917-.093 1.533.121-.295.112-.904.093-1.533zm-144.694 1.509c.228.021.457.047.685.068.003-.249.007-.502.011-.747-.228-.021-.456-.042-.684-.064-.003.248-.009.495-.012.743zm-4.537-.064c.305-.227.828.56.835-.664-.272-.154-.546-.308-.818-.459-.006.371-.012.749-.017 1.123zm24.767-.039c.064.061.121.051.172.01-.058-.007-.116-.013-.174-.02.001.004.001.007.002.01zm-26.003-.078c.231-.228.465-.451.696-.679-.226-.146-.454-.298-.679-.444-.006.373-.011.75-.017 1.123zm77.593-2.456c.087-.286.442.037.77.337.217.197.422.388.534.386-.429 4.165-1.376-.502-1.304-.723zm41.064-4.951c-1.593-.564-.875 7.26.4 7.002.088-1.684-.231-.68-.253-1.602-.02-.919.343.133.18-1.562-.568-.496-.265 1.444-.678 1.821.077-.995-.073-2.834-.018-3.672.103-1.561.452-.078.369-1.987zm55.367 1.313c.003.011.008.022.012.034.239.812.283 5.24.328 5.381.516 1.164.777-2.892.461-4.468-.185-.918-.492 1.8-.499-1.001.383.564.523.195.567-.346-.288.132-.579.27-.869.4zm12.431 5.469c.098-2.212.786-1.029 1.111-1.357-.287 2.029-.687 1.475-1.111 1.357zm-176.405.088c.532-.041.412-.913.499-1.431-.123-.022-.246-.041-.368-.063-.044.497-.088.996-.131 1.494zm189.912-2.271c-.132.008-.295 1.373-.23 1.617.497 1.855.843-1.649.23-1.617zm-27.765-1.792c-.399 1.137-1.21-.298-1.144 2.915.709 1.927.431.796.74-.869.21-1.12.564.87.404-2.046zm-50.989 3.389c.204.115.407.231.611.352-.074-.63-.149-1.27-.223-1.9-.128.515-.259 1.034-.388 1.548zm-44.636-3.403c.092-1.703 1.635-.118 1.407.634-.621-.323-.589.233-.548.923.019.328.041.688-.005.996-.256 1.621-.93-1.139-.854-2.553zm-70.213 2.231c.155.259.312.522.467.781.06-.354.12-.711.181-1.064-.143-.031-.286-.061-.427-.093-.074.125-.148.252-.221.376zm169.313-3.389c.57 3.45.666 5.722.703 2.837-.117-.297-.179-.687-.119-1.025.043.011.086.029.13.044.003-.482.008-1.052.012-1.709-.242-.047-.485-.1-.726-.147zm18.026-.146c-.277-.219-.619 2.703.017 2.231.029-.032.264-1.898.447-.683.119.844.025 1.587.183 2.558.158.968.566-3.12-.647-4.106zm-1.353-.073c-.493.144-.968.345-1.462.547.127.596.061 2.063.238 2.475.178.417.697 1.016.893.493.194-.526.172-2.704.331-3.515zm-109.75-5.215c.236-.208.761-.666.651.239-.048.343-.187.275-.31.21-.145-.077-.27-.145-.206.503.49 1.35.915 1.064 1.494.669.018-.013.035-.026.052-.039.006-.022-.014-.121-.043-.264-.074-.369-.206-1.035-.123-1.46.036.071.07.131.097.171.255.383.171.671.557.747.025.005.114-.001.238-.02.041.131.086.242.141.318.082.116.188.163.299.21.179.075.371.152.497.547-.08.707-.453.254-.758-.122-.189-.233-.351-.434-.403-.308-.012.028-.037.295-.067.635-.048.544-.111 1.276-.171 1.504.033.051.107.001.188-.059.161-.119.355-.261.328.352-.002.026-.003.052-.005.078-.001.031-.002.062-.003.093 0 .003-.001.006-.001.009-.041.957-.106 2.525-.467 2.569-.032.011-.055-.112-.081-.254-.03-.166-.066-.356-.125-.386-.086-.03-.183.03-.279.093-.127.083-.256.171-.365.049-.033-.031-.069-.191-.107-.361-.049-.219-.104-.461-.165-.494-.046-.017-.116.146-.201.347-.151.356-.35.824-.546.591-.134-.148-.368-1.965-.11-2.3.156-.211.19.042.219.264.016.118.033.225.064.249.072.045.159-.002.243-.054.198-.124.39-.244.386.928.196.021.176-1.261.122-1.529-.147-.807-1.827-2.053-1.983-1.518-.005.023.004.072.016.146.051.299.171 1.011-.154 2.149-.25.858-.557.785-.699.752-.042-.01-.069-.014-.076.009-.008.035.011.228.038.494.112 1.069.349 3.335-.592 1.426-.112.153-.092.49-.075.776.013.201.024.38-.015.454-.107.228-.556.489-.609.371-.025-.343-.049-.687-.074-1.03.007-.025.056-.058.125-.108.229-.164.689-.499.668-1.186-.548.486-.755.084-1.186-.762-.022-.036-.056-.147-.094-.273-.128-.423-.317-1.045-.411.122-.019.252.064.367.156.488.123.162.26.344.191.913-.301-.024-.464.371-.658.84-.012.029-.024.059-.037.088-.074-.312-.004-.58.058-.811.043-.157.083-.3.068-.429-.011-.102-.438-1.215-.463-1.265-.08-.085-.273-.081-.465-.073-.13.005-.26.013-.354-.01-.101-.018-.228-.166-.331-.283-.079-.09-.145-.166-.176-.157-.061.023-.125.175-.19.328-.081.187-.167.384-.255.366-.045-.013-.098-.147-.156-.313.036-.135.075-.276.116-.424.06-.215.114-.425.166-.625.095-.364.186-.711.295-1.046.018.127.043.251.07.362.085.959.471 1.104 1.048.859.137-.05.15-.288.161-.493.006-.13.013-.252.05-.303.207-.232.472-.318.743-.405.306-.098.622-.199.871-.517-.008-.439-.15-.325-.261-.235-.055.045-.104.078-.125.039-.061-.129-.118-1.437.092-1.704.393-.463.521.244.642.918.06.33.119.653.206.825.572 1.081 1.362.267.955-1.733.485.754.498.545.518.215.008-.143.019-.306.068-.425.404-1.016.496-.904.655-.698.076.099.17.221.32.244.016-.007.053-.04.103-.083zm106.393 4.77c-.113 2.849.246 3.237.384 3.194.498-.148.78 2.296 1.001-.513-.285-1.705-.501.208-.645-.01-.316-.507-.315-2.851-.74-2.671zm-11.347 3.023c-.06.266-.287-.232-.666-.249.08.041.16.089.241.132-.053.551-.155.855-.275.986.371.035.608-.097.69-.635.003-.078.007-.157.01-.234.014-.061.025-.158.02-.313-.001-.003-.002-.006-.003-.009-.006.105-.012.215-.017.322zm-63.137-1.46c.076.737.154 1.479.23 2.217.077-1.04.152-2.086.227-3.125-.151.301-.305.606-.457.908zm-39.02.786c.151.214.308.552.29.913-.207-.152-.385.125-.545.503.002-.013.004-.026.006-.039.002-.015.004-.029.006-.044.003-.013.005-.026.008-.039.069-.41.153-.871.235-1.294zm-1.529-.811c.064-.007.119.044.166.137-.022.127-.045.254-.065.376-.091.537-.144 1.001-.188 1.455-.138-.014-.276-.04-.345-.093-.042-.844.064-1.836.432-1.875zm193.831-.171c.024.712.049 1.427.073 2.139-.003-.586.025-1.379.049-2.163-.041.009-.082.016-.122.024zm-49.81-1.801c-.404-1.224-.979 1.377-.683 3.022.357 1.963 1.339-1.029.683-3.022zm-69.238 3.393c-.342-2.356-1.303-2.898-.601-.429.178.62.411.332.601.429zm49.95-.049c.25-.509.503-1.018.754-1.528-.151-.505-.304-1.008-.454-1.514-.099 1.016-.201 2.034-.3 3.042zm12.527-1.855c-.502-3.691-2.271.165-1.117 1.631.198.245.102-.92.226-.947.001.003.001.006.002.009.126-.015 1.262 2.059.889-.693zm-9.013.913c.338 1.689.596-5.364.066-2.266-.051.306-.09 2.124-.066 2.266zm13.324-.019c.902.938 1.579-3.358.392-2.217-.066.08-.174 2.286-.392 2.217zm-2.591.107c.245-.305.493-.611.739-.923-.238-.11-.478-.22-.716-.337-.008.421-.015.839-.023 1.26zm-136.757-.327c-.161.139-.375.159-.58.044.025-.122.05-.234.072-.337.03-.139.061-.282.093-.42.139.238.277.475.415.713zm102.991-.01c.006.06.016.106.032.117.003.001.007-.009.011-.009-.014-.037-.03-.073-.043-.108zm-.353-1.597c-.146.504.05.821.353 1.597-.032-.325.051-1.209-.006-1.265-.115-.115-.231-.237-.347-.332zm1.697-1.933c-.087.021-.174.055-.25.127-.027.993-.012 2.152-.098 2.456-.032.114-.058.178-.078.195.117.416.286.661.458.659-.066-1.26-.119-2.516-.032-3.437zm17.806-1.211c-.044 1.827-.022 3.455.273 4.614.068-1.789-.092-3.169-.273-4.614zm-18.337 2.085c-.076.645-.042 1.232.052 1.684-.021-.483.055-1.596.052-1.67-.016-.127-.033-.239-.046-.332-.024.09-.044.198-.058.318zm2.365-.645c-.09.086-.166.342-.186.811-.037.882.129 1.244.292 1.323.278-.397.009-1.358-.106-2.134zm-1.196-.395c-.071.082-.171.114-.282.127-.021 1.205.082 1.797.23 1.967.051-.532.074-1.225.052-2.094zm-274.417-13.262c.309.139.873-1.328 1.001-.069-.324.422.193 2.761.511 2.095.302-.534.255-1.115.01-1.826 1.036.037 2.235-.951 3.053.405-.159.245-.187.772-.215 1.333v.029c.328.058.506.988.895.63-.057-.798-.181-1.236-.308-1.64.835.384 2.001-1.27 2.579.708-.645-.044-1.126-.207-.966 2.475.271-.162.534-.369.798-.527.412 1.622-.396 2.739.082 2.984.455-.725.557.701 1.003-.045.022-1.832-.096-3.484-.494-5.771 1.481-.406 2.981-.918 4.431-1.128-.474 1.344-1.027.636-1.275.835-.219.187-.183 1.168-.375 1.46.031-.076-.578-.984-.474.312.207.482.415.963.627 1.416.641.248.331-1.712.853-1.772.266 1.205 1.644 1.744 1.269-.835-.291.075-.746 1.125-.732-.723.495-.471.753.556 1.314-.283.245.965-.307 2.233.2 2.31.209-.154.059-1.117.221-1.367.405 3.367 1.404 3.023 2.295 3.349-.463 1.137-.992 4.002-1.593 2.901.141 1.1-.115 1.284-.17 1.948-.466-.679-1.652 1.011-1.367-.293.1-.438.525-.019.429-.894-.565-1.148-1.524 2.657-.437 2.74-.264.158-.526.364-.79.522-.363-2.357.258-2.531.133-4.35-.227-.546-.748.298-.904 1.225.81-.181.075.308.513 2.09-.82-.543-1.208 1.708-1.951.689.494-.399.819-2.41 1.132-4.415-.387-.524-1.106 1.291-1.071 3.165-.388.053-.783-.765-.742 1.103.21.177.409.388.574.845-1.416 2.236-2.999 1.462-5.235 3.481-.324-.337-.582-1.087-.942-1.201-.474 1.416-1.244.06-1.523-.205-.279-.287-.706.115-.842-.054-.854-1.132-1.298-4.455-1.913-6.665-.005-.005-.01-.01-.014-.015.339-1.845.147-4.944.41-6.972zm276.749 15.024c.331.222 1.09-3.882.21-1.84-.027-.573-.055-1.142-.082-1.714-.005-.016-.011-.035-.016-.054-.037 1.2-.074 2.408-.112 3.608zm.491-.449c.005-.015.01-.032.015-.049-.012-.009-.025-.015-.036-.029.006.026.014.053.021.078zm3.227-3.003c-.211-.273-.456-.865-.641.029.094.965.191 1.94.286 2.911.122-.783.255-1.265.401-1.534-.013-.421-.026-.89-.046-1.406zm-131.947 1.729c.328 1.385 1.41 1.678.674.234-.186-.361-.459-.182-.674-.234zm138.02-2.642c.047 1.525.197 3.376.224 3.433.641 1.287.603-1.504.629-3.12-.104.045-.206.073-.305.068-.003.024-.005.049-.008.073-.116.748-.192.443-.25-.166-.049-.031-.099-.062-.146-.112-.057-.059-.104-.119-.144-.176zm-19.369 2.896c-.131.087-.264.126-.39.122.018.606.149.829.486.39-.039-.194-.07-.366-.096-.512zm-6.827-.303c.065.323.13.649.195.972.082-1.029.163-2.067.246-3.096-.079-.012-.161-.026-.24-.044-.066.722-.135 1.446-.201 2.168zm9.83.557c-.151-.184-.253.08-.368.371.158-.013.322-.086.468-.201-.031-.065-.064-.125-.1-.17zm-83.138.019c.182-.182.366-.36.548-.542-.067-.435-.136-.874-.203-1.308-.115.616-.231 1.234-.345 1.85zm117.163-1.919c-.039-.279-.915.055-.928 1.445.152.461 1.205.664.928-1.445zm8.814-4.248c.06 1.267.056 4.974.265 5.479.333.787.657-.852.468-2.642-.056-.537-.697-1.552-.733-2.837zm-51.172 5.152c.022-.325.203-.301.235-.499-.069-.073-.139-.147-.208-.219-.009.239-.019.48-.027.718zm-124.985-.347c.162.004.316.013.462.014-.063-.029-.133-.043-.219-.029-.063.012-.149.007-.243.015zm1.366-2.539c-.052.396.132 1.076-.2.888-.066-.205-.134-.416-.202-.625-.21.172-.43.369-.647.493.147.597.293 1.201.44 1.797.752 0 1.286-.034 1.674-.117-.169-.474-1.122-.57-1.341-.41.047-1.694.856.118 1.104-1.25-.071-.213-.262-.589-.444-.815-.074 0-.149-.005-.224 0-.052.003-.106.016-.16.039zm-3.971.976c-.416.239-.839.43-1.266.576.087.064.173.168.25.362.029.074.018.23-.004.43.082.006.165.013.245.019.388.027.754.047 1.097.068-.108-.548-.227-1.076-.322-1.455zm-83.068 1.407c.11-.274.22-.547.331-.821-.099-.084-.198-.169-.296-.254-.012.358-.024.716-.035 1.075zm95.42-.245c.765-.062.833-1.741.148-.908-.145.177-.152.537-.148.908zm-16.78-.097v.019c.162.015.323.025.481.039.001-.021.002-.047.003-.068-.161.008-.322.006-.484.01zm189.874-1.836c-.273-1.023-.694.11-.486 1.377.208 1.265.824-.103.486-1.377zm-53.244-5.323c-.106.673-.399 3.369-.381 4.483.03 1.78.391 3.184.655 2.29.01-.543.038-1.001.134-1.069.029-1.112-.033-2.797.386-1.563.022.065.075.401.14.82.236-.272.651-.589.888-.307.045-.651.071-1.339.023-2.193-.08-1.408-.609-.636-.833-.937-.096-.133-.15-1.322-.168-1.363-.223-.401-.298.806-.505.933-.096.055-.232-1.752-.339-1.094zm-81.199 6.734c.32-.238.64-.48.96-.718-.136-.129-.273-.256-.409-.386.091-.123.182-.243.273-.366-.114-.129-.231-.261-.345-.39-.159.618-.319 1.241-.479 1.86zm122.339-1.294c-.096-.256-.193-.506-.29-.762.008.639.016 1.285.024 1.924.192-.657.383-1.316.574-1.973-.072-.351-.147-.707-.218-1.059-.031.619-.06 1.251-.09 1.87zm-17.434-1.626c-.016-.001-.033.004-.05.005.042.853.031 1.79.055 1.929.341 1.847.732-1.001.783-2.96-.115.181-.269.327-.466.43.007-.836.014-1.683.022-2.519-.116 1.044-.213 2.06-.344 3.115zm14.454-7.715c-.573.096-1.141.228-1.703.39.047 2.838-.436 3.783-.385 6.246.031 1.423.582.789.795 1.147.091.157.102 1.359.119 1.407.208.456.327-.727.537-.796.097-.027.169 1.804.298 1.176.129-.639.516-3.251.537-4.365.036-2-.362-3.641-.681-2.041-.155.78-.04 3.72-.5 2.07-.062-.229-.318-3.245-.545-3.061.279-1.813 1.193-1.752 1.578-1.226.007-.416-.013-.72-.05-.947zm-47.217 3.623c-.36-.692-.624 1.027-.373 2.759.076.52.749 1.358.831 2.627-.105-1.245-.232-4.942-.458-5.386zm29.269 4.131c-.093.028-.132.424-.139.991.062-.089.133-.17.2-.239-.023-.429-.042-.75-.061-.752zm-35.115-.942c-.252-1.207-.819.324-.436 1.503.308.943.687-.298.436-1.503zm22.202.991c-.388-1.069-.435-2.132-.867-1.455.225.982.675 3.071.867 1.455zm-96.32-.352c-.105.129-.206.268-.279.435.147.19.301.252.456.239-.055-.049-.111-.098-.166-.146-.004-.176-.007-.352-.011-.528zm102.763-2.441c-.001 1.469-.057 4.143.278 1.113.036-.323.056-.648.076-.952-.078-.047-.267.526-.354-.161zm9.902.781c-.076.26-.181.447-.348.498.153-.115.244.192.301.659.022.029.046.06.068.088-.006-.415-.014-.83-.021-1.245zm-27.217.103c.083.33.17.661.253.991.009-.624.018-1.257.026-1.88.104.229.209.455.314.684v-.01c-.03-.634-.061-1.271-.091-1.905-.168.705-.336 1.415-.502 2.12zm-89.598-1.392c.211.031.423.058.635.093.351.059 1.677.015 1.902.41.672 1.187.469 2.794.997.278.398-.148.067 1.071.233 1.397.034.057.188-.361.353-.708-.004-.196-.008-.391-.013-.586-1.329-1.55-2.659-3.099-3.988-4.649-.04 1.255-.079 2.51-.119 3.765zm113.473-1.934c-.191.809-.295 2.445-.258 3.663.114-.145.227-.295.341-.44-.058-.315-.111-.625-.122-.977-.032-1.033.378-2.606.039-2.246zm-215.881.62c-.228-.058-.491.028-.766.123.034.278.067.556.101.835.122-.111.244-.222.366-.333-.003.516-.006 1.032-.009 1.548.168.188.337.375.505.562.158-.778.315-1.556.473-2.334-.061-.083-.121-.166-.182-.249-.162-.056-.325-.11-.488-.152zm213.823 2.613c.115.027.23.057.345.083-.005-.28-.01-.562-.014-.84-.038-.111-.074-.261-.111-.449-.065-.015-.131-.029-.196-.044-.008.415-.016.834-.024 1.25zm27.972-5.987c.207 1.219.214 3.243.235 5.567.334.495.096-2.102.446-1.68.123.149.126 1.708.149 1.836.289 1.459.322-3.043.151-3.54-.171-.487-.567.452-.663-1.387.282-.815.529.391.865-.078.101-.142.154-.399.177-.688-.135-.002-.271-.003-.406-.005-.04.439-.086.589-.266-.005-.229-.005-.458-.013-.688-.02zm-234.774 3.731c-.17.281-.35.503-.544.674.048.413.095.827.142 1.24.1.06.2.12.299.181-.006-.382-.002-.781.022-1.192.018-.321.047-.624.081-.903zm220.063 1.894c-.189-1.037-.562-3.234-.81-1.674.348 1.165.357 2.233.81 1.674zm-13.85-2.646c.017.171.029.345.029.527-.005 1.081-.506 2.62-.067 2.183.022-.033.112-.458.221-1.006.021-.66.013-1.362-.026-1.953-.052.084-.105.165-.157.249zm-191.327-2.178c-.145.983-.306 1.778-.484 2.417.176.555.352 1.11.528 1.665-.016.202-.032.404-.048.606.008.002.017.002.025.005.121-.51.229-.834.33-1.026-.439-1.382.354-2.312.768-3.101-.264-.229-.527-.458-.791-.688-.109.04-.219.08-.328.122zm-27.621 2.188c-.049.527-.098 1.054-.147 1.582.264-.218.528-.437.792-.655.094.422.188.843.282 1.265.108-.516.216-1.032.324-1.548.233.578.466 1.156.699 1.734.074-.788.147-1.576.221-2.364-.034.056-.072.109-.119.137-.166.1-.981.085-1.607-.215-.148.021-.297.042-.445.064zm57.974 2.182c.058.033.116.065.174.098-.014-.059-.028-.117-.041-.176-.044.027-.089.052-.133.078zm-31.4-.498c.056.192.111.384.167.577.015.004.031.005.045.009-.034-.263-.069-.527-.103-.791-.036.072-.072.141-.109.205zm209.52-4.228c-.327.034-.655.068-.983.102-.152 1.566.244 1.56.579 1.543-.16-.409-.321-.825-.476-1.284.246.02.494.036.74.049-.007.42-.013.846-.019 1.269.07.024.124.069.148.181.141.667.076 3.896.463 2.471.146-.544-.027-2.048-.208-2.237.653-1.575.504-2.451.13-2.812-.125.239-.249.478-.374.718zm27.826 2.422c.258 2.437 1.196 3.234.583.59-.156-.664-.397-.442-.583-.59zm-18.942 2.094c.078.033.16.069.238.108.092-.702.184-1.408.276-2.11-.054-.338-.105-.682-.159-1.02-.117 1.003-.236 2.019-.355 3.022zm-2.757-5.024c.041.602.287 1.005.375 1.416.148.703-.201 1.728-.121 2.412h.005c.083.686.618.894.682.322.134-1.25-.351-2.285.032-3.12.488.208.989.437 1.482.645-.012-.565-.024-1.13-.035-1.695-.811-.018-1.618-.009-2.42.02zm-239.54.786c-.445-.31-.155 1.665-.507 2.271.274.452.547.905.821 1.357-.072-.479-.144-.957-.217-1.436.079-.433.158-.866.237-1.298-.073-.419-.156-.769-.334-.894zm217.983 2.969c.043.135.088.307.133.527.046.023.093.04.139.064-.007-.426-.013-.854-.02-1.28-.078-.039-.157-.079-.235-.117-.005.269-.011.539-.017.806zm-51.235-2.388c-.278 1.209-.505 2.133.527 2.691.002-.066.004-.136.005-.201-.38-.274-.597-.971-.532-2.49zm-105.162 1.489c-.091.023-.146.08-.179.166.109-.027.219-.055.328-.083.346.645.532.78.649.64-.304-.39-.583-.775-.798-.723zm161.19-.161c.008.085.02.177.026.283.015-.122.023-.249.034-.371-.014-.031-.033-.006-.06.088zm-228.477.205c-.003-.034-.006-.068-.009-.102-.027-.004-.055-.011-.083-.015.031.039.062.078.092.117zm218.222-.117c.005-.031.009-.066.014-.098h-.01c-.001.032-.003.066-.004.098zm-13.892-.122c.003.014.005.03.008.044.022.115.194.069.381-.127-.129.032-.259.058-.389.083zm-211.036-.659c.033-.073.066-.147.099-.22-.074.002-.146-.008-.217-.039.039.086.079.173.118.259zm203.714-1.177c.044.302.113.598.218.859.215.537.438.166.572-.532-.273-.149-.542-.263-.79-.327zm-200.685 1.021c.017-.07.035-.14.053-.21-.086-.031-.174-.059-.261-.088.069.099.138.198.208.298zm257.227-1.773c.038.403.116.756.255 1.006v.01c.196.344.966-.479 1.216.595.026-.351.008-.968-.033-1.704-.478.044-.957.077-1.438.093zm-250.988-2.549c-.163 1.07-.272 2.148-.43 3.052.268.016.536.033.804.049-.004.237-.008.475-.012.713.035-.219.059-.456.039-.689-.032-.401.013-3.337-.401-3.125zm122.23 3.706c.053-.156.105-.312.158-.468-.08-.03-.159-.073-.235-.127.025.198.051.397.077.595zm34.569-.009c.021-.012.043-.023.064-.035-.003-.035-.006-.071-.009-.107-.017.05-.038.093-.055.142zm89.56-.918c.78.998.772.761.647-.264-.213-.007-.425-.017-.638-.025-.003.096-.005.194-.009.289zm7.359-.474c.265.861.79 1.035.968 1.021.314-.029.218-.805.302-1.275-.421.102-.845.186-1.27.254zm7.746-3.897c-.399.392-.801.761-1.207 1.084.075.116.149.315.21.684.107.654-.335 2.943.154 3.022.301-.662.043-2.04.183-3.037.114-.794.695-.522.66-1.753zm-152.754 4.756c.197-.49.395-.979.593-1.469-.177-.15-.354-.3-.531-.45-.021.64-.042 1.28-.062 1.919zm-79.364-.283c.025.088.049.176.074.264-.004-.091-.021-.178-.058-.269-.005.002-.011.003-.016.005zm233.387-.068c.668.1.76-2.729.147-1.499-.131.261-.144.868-.147 1.499zm-7.336-.869c.244.352.532.986.757.532.149-.305.212-.591.219-.84-.324.114-.65.218-.976.308zm12.95-2.92c-.057.517-.08 1.061-.031 1.45.142 1.109.375-.191.511-1.333-.16-.04-.32-.084-.48-.117zm-279.764-4.043c-.651-1.092-1.62 1.019-1.149 2.451.568 1.707 2.207-.674 1.149-2.451zm-57.411-.191c.756-.906 4.126-.453 4.463-.459 1.344-.032.543 2.927.318 2.949-.947.095-1.65-3.382-2.106.586-.58.162.019-1.42-.334-1.626-.696-.403-1.462 1.613-2.188 1.284h-.003c-.048-.884-.204-1.843-.15-2.734zm27.832.981c-.217-.014-.495 1.113-.392 1.329.799 1.638 1.397-1.266.392-1.329zm-31.836-.942c1.204-.428 1.36 2.334.399 2.305-.275-.009-.577-1.57-.399-2.305zm2.771-.742c.318.371.132 1.65.775 1.069.004.065.009.13.013.196.011.995-.566 1.716-.852 1.635-.009-.023.062-.82-.011-.854-.536-.19-1.381.52-1.324-1.734.492 1.371 1.08-.68 1.399-.312zm54.615 2.544c1.465.9 2.606-2.598.654-1.812-.108.046-.303 1.864-.654 1.812zm-7.073-1.382c-.79-3.189-3.726-.2-1.848 1.206.325.24.177-.758.382-.762 0 .002.001.004.001.005.205.003 2.052 1.93 1.465-.449zm2.812 1.094v.01c.406-.222.814-.452 1.219-.679-.389-.128-.781-.253-1.17-.386-.016.353-.033.702-.049 1.055zm-31.532-4.117c-.453-.229-1.044 2.198.006 1.89.046-.015.448-1.565.739-.513.188.731.024 1.349.276 2.193h-.003c.251.834.961-2.56-1.018-3.57zm-11.928 3.414c.18-1.855 1.297-.756 1.833-.987-.489 1.671-1.138 1.148-1.833.987zm7.305-3.428c.204.521.081 1.757.369 2.129v.01c.288.377 1.133.958 1.459.547.324-.413.306-2.269.575-2.93-.81.049-1.591.146-2.403.244zm12.783 2.769c.416-.394.833-.789 1.249-1.182-.244-.449-.489-.894-.73-1.343-.172.842-.346 1.688-.519 2.525zm5.771-.284c.54 1.482 1.025-4.44.127-1.899-.086.252-.167 1.788-.127 1.899zm-21.653-3.589c-.21 2.385.374 2.761.601 2.745.818-.054 1.258 2.053 1.646-.284-.453-1.48-.825.105-1.059-.102-.513-.474-.489-2.449-1.188-2.359zm50.512-1.894c.087 1.079.047 4.203.386 4.658.54.713 1.085-.624.791-2.163-.091-.462-1.128-1.408-1.177-2.495zm-35.182.708c-.088 1.535-.067 2.91.406 3.931.129-1.499-.122-2.686-.406-3.931zm46.123 2.353c-.439-.904-1.14-.011-.81 1.089.329 1.099 1.352.036.81-1.089zm-68.123-10.42c.713-2.558.145-3.654 1.404-.913-1.383 2.539.415 4.561.341 7.027-.043 1.391-.648.445-.86 1.132-.325 1.056.04 2.944-.328 3.585-.368.639-1.534-.961-1.927-.982-.752-.031-1.419.738-2.046.718-.628-.021-1.573-1.387-1.973-1.587-.401-.199-.801.007-.87.146-.41.817-.206 2.848-.754 2.813-.006-1.961-.714-5.168.107-6.221-.115-.071-.254-.465-.366-.435-.529.157-.281 2.895-.535 3.326-.43.723-.107-1.347-.114-1.441-.386-1.664-.208.232-.4 1.04-.1.413-.91 1.232-1.077 1.158-.165-.078.063-1.104-.047-1.172-.479-.293-.969-.64-1.453-.474-.483.173-.779 1.973-.732-.684.009-.418.282-.774.21-1.753v-.014c-.024-.317-.393-1.876.164-2.71.157-.236.326-.35.497-.366-.068.351-.135.702-.203 1.054.131.038.262.082.392.122-.087.923-.181 1.888-.246 2.779.157 1.029.362-.267.391-.249.445.446.37 2.358.713.141-.299-.383-.592-.813-.881-1.25.014-.47.029-.944.041-1.416.059.019.118.04.178.059-.027-.389-.054-.784-.081-1.172.424.208.859.878 1.239 1.611-.143.516-.3 1.102-.441 1.656.529-.382.209.743.566 1.435.132-2.254.328-1.7.633-1.499.305.199-.07-1.529.246-1.689.641-.324 1.678 2.503 1.895-.757.779 2.136-.217 2.285-.287 3.081-.29 3.404 1.407 2.193 1.692.342.214 1.137.192 2.677.824 2.348.858-.45-.949-2.572.209-2.724.775-.101.64 1.512 1.015 1.953.699.81 1.974.148 1.565-2.217-.164-.943-.724.176-.915-.815-.106-.552.234-5.221-.485-1.666-.07.356.253 2.118-.283 2.09-.154-.009-.639-1.623-1.081-1.225-.194.171-1.034 2.218-1.503 1.362-.508-.905.295-1.239.111-2.012-.186-.771-.833-.792-.786-2.343.378-1.72.377 1.026.494.918.452-.446.131-3.171.767-2.769.074 1.461-.561 5.251.395 4.39.004-.065-.205-1.003.103-1.28.537-.479 1.554-.687 2.202-.547-.011-2.158-.807-2.112-1.187-3.652.88-.253 1.864-.781 2.469 1.353-.335.249-.67.507-1.002.756.389-.05.779-.096 1.167-.146-.158.889-1.062 3.038-.453 3.623.084-2.328.947-2.623 1.286-3.838zm223.623 11.748c-.009-.154-.017-.309-.026-.458-.414-.01-.824-.137-1.234-.318.42.259.84.518 1.26.776zm-235.559-1.879c.214.311.456.529.68.776-.195 1.514-.435 1.259-.782.239.04-.335.059-.686.102-1.015zm54.624-.215c-.059-.243-1.5-.089-1.534 1.084.244.411 1.97.736 1.534-1.084zm-56.92-.181c.526.119 1.049.314 1.572.503-.35 1.764-1.883.338-1.572-.503zm139.282-.054c-.162.152-.321.316-.438.537.127.205.261.332.398.411.014-.316.027-.632.04-.948zm-76.782-.674c-.155-.229-.31-.453-.467-.683.007.54.014 1.09.021 1.631.321-.527.642-1.06.96-1.587-.114-.307-.232-.616-.346-.923-.056.518-.112 1.045-.168 1.562zm246.411-1.049c-.204.281-.495.502-.806.678.219.401.439.801.658 1.202.12-.573.241-1.146.361-1.719-.071-.054-.142-.108-.213-.161zm-92.792-4.683c.205 3.095-.415 5.038-.928 5.596.071.316.142.631.213.947.033-.006.067-.013.1-.019.178-.847.355-1.693.533-2.54.303.752.606 1.504.909 2.256.148-.031.296-.066.441-.097.104-1.102.209-2.204.313-3.306.223.368.446.736.668 1.104-.317-1.187-.834-2.974-1.133-1.285-.15.852.097 4.07-.594 2.657-.508-1.044.039-3.743-.522-5.313zm-185.432.532c-1.306-2.493-1.623 2.109-1.732 2.564-.563 2.334-.64-1.756-.76-1.768-.572.035.037 4.511.113 4.6 1.22 1.386.958-2.105 1.105-3.135.32-2.235 1.129-.285 1.274-2.261zm183.093 2.295c-.088.951-.177 1.901-.265 2.852.248-.205.497-.41.746-.615-.181-.65-.209-1.608-.339-2.256-.047.006-.095.013-.142.019zm-157.561-11.328c-.763-1.166-1.457 2.122-1.048 3.555.241.836.92-1.317.745 1.025-1.133-1.179-1.035.858-1.019 1.216.103 2.565-.746 3.272-.682 5.415.037 1.204.948.751 1.293 1.084.148.145.156 1.166.183 1.201.339.42.543-.558.889-.586.159-.008.258 1.543.476 1.031.218-.521.877-2.668.921-3.604.078-1.682-.56-3.122-1.097-1.817-.262.637-.1 3.129-.839 1.67-.098-.192-.492-2.788-.867-2.666.475-1.489 1.973-1.296 2.599-.796.077-1.773-.979-1.214-1.376-2.119-.337-.765-.113-4.488-.178-4.609zm175.815 13.984c.014-.135.028-.27.041-.405-.045-1.079-.112-2.467-.442-2.607.134 1.004.267 2.008.401 3.012zm-12.984-1.064c-.063.12-.134.218-.215.288.116.192.231.384.347.576-.044-.288-.088-.576-.132-.864zm-121.25-1.157c.4 2.094 1.934 2.9.953.581-.249-.585-.649-.429-.953-.581zm201.072 1.518c.039.015.077.03.116.044.015-.071.031-.143.046-.215-.054.058-.109.113-.162.171zm-74.719-1.86c.07-1.228-.925-.242-1.14.166-.093.178-.161.744-.241 1.201.018.156.037.313.055.469.178-.059.338-.114.478-.166.265-.103.53-.205.795-.308.007-.396.023-.851.053-1.362zm-223.659-2.329c-.421-3.141 1.39-2.596 2.111-2.075-.169-.038-.34-.071-.508-.103.066.664.122 1.333.189 1.997-.188.058-.374.113-.562.171.21.705.397 1.489.597 2.192-.515 2.825-.527.996-1.219.489-.444-.322-.629.641-1.184.654-2.594.068-5.271 1.092-7.923.322.027-2.407.095-2.994.589-3.262-.028.712-.05 1.432-.076 2.144.327-.218.65-.488.969-.771-.293-.449-.583-.904-.868-1.382.149-.076.336-.133.57-.196.173-.049.227-1.021.458-.888.494.29 1.107 3.285 1.66 2.573.321-.413-.074-3.145.672-2.31-.47 1.917-.803 3.585.366 2.911-.65-1.785-.129-1.051.127-1.924.16-.561-.827-.443-.177-1.494.131-.211 2.132-1.14 2.029.507-.219 3.538-.313 3.118.99 1.226-1.599-1.585-.095-3.792.611-2.7.358.558-.287 2.156.579 1.919zm189.853 1.26c-.344-.291-.714.703-1.08 1.298.106.345.212.69.319 1.036.122-.718.244-1.436.366-2.154.158.176.315.352.473.528.015-.338.015-.629-.078-.708zm-155.649-1.812c-.022-.711.556-4.507-.344-1.611-.31 1.002-.277 2.064-1.088 2.119.756-.226.575 2.672.651 2.9.623 1.847 1.412-1.524 1.317-3.056-.029-.444-.512.358-.536-.352zm190.345 3.936c.015-.005.032-.006.048-.01-.013-.02-.027-.039-.041-.059-.002.022-.005.047-.007.069zm-33.591-1.944c-.316-.664-.575-1.153-.778.811.29.327.581.654.871.981-.031-.597-.062-1.194-.093-1.792zm-119.705-8.335c-.711-.399-.586 1.693-.418 2.988-.475.237-.943.43-1.415.645 1.344.261 1.311 2.719 1.334 5.835.544.469.176-1.754.746-1.348.201.145.189 1.462.227 1.573.462 1.273.556-2.532.28-2.969-.278-.433-.934.3-1.075-1.265.47-.647.866.412 1.421.064.657-.416.133-2.402-.07-1.929-.406.94-.156 2.468-.856 1.045-.595-1.218.386-4.322-.174-4.639zm-82.337 8.823c-.421-2.932 1.203-.48 1.372-.41.495.202.642-1.405.997-.268.031.126-.32 1.745-.56 1.787-.243.041-1.764-.844-1.809-1.109zm198.293-2.998c.235.423.099 1.961.575 1.221.003.078.005.156.008.234.008 1.19-.419 2.099-.631 2.022-.007-.017.046-.988-.007-1.025-.397-.191-1.022.715-.98-1.988.365 1.608.799-.884 1.035-.464zm20.506 1.509c-.045-.228-.074-.105-.087 1.25.071.093.141.186.212.279-.042-.51-.083-1.019-.125-1.529zm-187.68.23c.216 1.567.643 1.098 1.146.918-.04-.553-.08-1.103-.12-1.656-.341.244-.685.494-1.026.738zm46.189.996h.003c.127.039.257.083.384.127.157-.579.318-1.165.475-1.743-.085-.294-.169-.591-.254-.884-.201.829-.405 1.671-.608 2.5zm-77.488-.547c-.607-.008-1.215-.022-1.823-.029.001-.002.001-.004.002-.005.028-.358.058-.712.088-1.07.578.367 1.156.737 1.733 1.104zm78.806-10.249c-.708-.065-1.84 1.648-2.631 1.582-.469-.044-.451-1.133-.924-1.177-.707-.071-1.945-.399-2.61.22-.24.23-.185 2.249-.14 2.485.114.555.497-.424.662-.22.164.206-.02 1.013.206 1.133.228.118 1.488-.086 1.578-.229.543-.879-.12-2.046.514-1.783.283 6.97-1.53 2.432-1.858 2.784-1.234 1.332-.229 1.991.01 2.607.238.616-.346 1.428-.219 2.017.002-.002.004-.003.006-.005.128.593 1.007.85 1.117.376.232-1.036-.557-1.979.081-2.627.798.247 1.616.514 2.423.762-.027-.909-.052-1.821-.077-2.73-.183.285-.369.574-.552.864-.144-.304-.288-.609-.432-.908.858-4.908 1.889.769 3.325-1.343-.082 1.039-.154 2.124-.241 3.135 2.093 1.575.707.013.752-2.573.026-1.487.659-.038.804-.254 1.005-1.533-1.086-4.056-1.794-4.116zm-15.468 7.485c2.41-2.74-1.687-3.152-1.964-2.002-.518 2.186 1.321 1.193 1.549 1.768.225.581.088 3.296.735 2.148.246-.437-.024-1.73-.32-1.914zm-5.833 2.09c-.301-.903-.894-2.817-1.314-1.533.559 1.034.565 1.938 1.314 1.533zm-54.126-.068c-.008.004-.017.005-.025.009.001-.012.003-.026.003-.039v-.009c.007.011.015.027.022.039zm233.496-.132c.181.028.362.055.543.083.002-.043.006-.091.007-.137-.213-.092-.429-.184-.644-.278.031.11.063.221.094.332zm-135.855-5.806c-.604 4.113.613 1.358 1.182 3.247h-.003c.17.568-.571 2.435.231 2.574.499-.516.086-1.72.326-2.54.242-.817 1.676-.115.847-2.461-.258-.725-2.134.728-2.583-.82zm4.876 5.806c1.094.182 1.271-2.197.255-1.25-.217.201-.244.717-.255 1.25zm190.044-5.41c.748.273 6.701-6.544 5.166 2.495-.013.078-.021.129-.015.151.65 2.219 2.215-9.48 3.058.171.03.34.053.607.066.635.051.128.215-.074.404-.308.304-.376.677-.834.758-.132-.126.397-.318.481-.497.557-.111.047-.217.094-.299.21-.111.153-.183.452-.255.752-.106.441-.213.881-.443.854-.571-.056-.322-1.291-.21-1.85.028-.141.047-.24.043-.264-.018-.011-.036-.023-.054-.034-.579-.396-1.003-.687-1.494.664-.064.647.061.585.206.508.123-.065.262-.141.31.205.11.906-.415.442-.651.234-.05-.043-.087-.072-.103-.078-.151.023-.243.14-.32.24-.159.206-.251.323-.655-.694-.05-.119-.06-.287-.068-.43-.02-.329-.034-.538-.518.215.407-2-.383-2.814-.955-1.733-.088.172-.146.499-.206.83-.121.673-.249 1.376-.642.913-.211-.268-.153-1.583-.092-1.704.021-.04.07-.001.125.044.112.09.252.203.26-.239-.249-.319-.564-.42-.87-.518-.271-.087-.536-.173-.743-.405-.038-.051-.044-.171-.05-.303-.061-1.194-1.12-.659-1.21.371-.028.111-.051.234-.069.361-.109-.334-.2-.681-.295-1.045-.052-.201-.106-.41-.166-.625-.041-.149-.08-.289-.116-.424.262-.748.338.276.6.376zm-260.242 5.176c.554-.532 1.107-1.061 1.66-1.587-.783.159-1.072.354-1.506-1.607-.05 1.063-.103 2.13-.154 3.194zm49.543-7.799c.079 3.177 1.05 1.336 1.602 2.994.167.51-.779 2.976.203 3.979 0 .002.001.004.001.005.316.321 1.587-.26 1.988.684.186-1.186-.74-6.142-.9-6.504-1.028-2.238-1.884.439-2.894-1.158zm-70.791 7.559c-.005-.002-.012-.003-.018-.005.009-.092.017-.186.026-.278-.002.093-.005.19-.008.283zm227.405-3.808c-.482-1.26-1.198 1.337-.848 3.017.42 2.001 1.631-.964.848-3.017zm-125.749.976c-.373-1.192-1.28 1.084-1.035 2.149.345 1.479 1.109-1.891 1.035-2.149zm-76.466-.928c-.598-.206-1.01 1.948-.937 3.423.405-.227.811-.461 1.216-.688-.093-.91-.186-1.825-.279-2.735zm162.11-12.021c.528-3.111.105-4.383 1.036-1.192-1.022 3.133.309 5.429.255 8.384-.032 1.668-.479.576-.636 1.411-.241 1.285.03 3.524-.243 4.317-.272.789-1.134-1.045-1.425-1.045-.556.013-1.051.977-1.515.996-.464.017-1.162-1.545-1.459-1.758-.295-.21-.592.063-.644.234-.302 1.006-.151 3.422-.557 3.419-.004-2.346-.528-6.141.08-7.457-.085-.076-.189-.536-.272-.493-.391.224-.207 3.492-.395 4.024-.316.885-.081-1.588-.084-1.719-.286-1.967-.154.289-.296 1.269-.074.501-.672 1.53-.797 1.456-.121-.082.046-1.319-.035-1.397-.353-.317-.717-.7-1.075-.469-.358.241-.576 2.419-.542-.756.005-.504.209-.949.156-2.12v-.019c-.019-.379-.291-2.217.12-3.252.116-.292.24-.437.366-.469-.049.424-.098.849-.148 1.274.097.036.193.074.289.113-.065 1.11-.131 2.274-.179 3.345.116 1.225.268-.354.289-.323v-.01c.328.505.273 2.806.526.132-.221-.438-.438-.932-.652-1.435.011-.564.02-1.139.029-1.704.044.018.089.035.133.053-.02-.463-.041-.929-.061-1.391.314.218.636.993.917 1.845-.105.626-.221 1.336-.325 2.007.391-.49.155.882.418 1.685.098-2.705.243-2.061.469-1.841.225.217-.05-1.814.181-2.031.475-.43 1.243 2.874 1.403-1.04.577 2.505-.163 2.751-.212 3.711-.215 4.092 1.04 2.517 1.251.283.158 1.346.142 3.19.61 2.754.633-.599-.701-3.005.156-3.267.572-.171.471 1.765.749 2.266.517.92 1.459.045 1.158-2.754-.121-1.124-.536.252-.677-.923-.078-.662.172-6.255-.359-1.958-.052.429.187 2.515-.209 2.52-.114-.006-.474-1.898-.801-1.387-.144.221-.764 2.717-1.111 1.724-.375-1.049.219-1.501.082-2.413-.137-.91-.616-.888-.581-2.749.28-2.081.278 1.198.365 1.065.334-.563.097-3.802.567-3.365.056 1.742-.415 6.324.292 5.23.009-.046-.153-1.18.078-1.538.397-.611 1.15-.935 1.629-.811-.008-2.581-.599-2.471-.88-4.287.651-.364 1.38-1.066 1.828 1.445-.248.322-.497.655-.743.977.288-.087.577-.167.863-.254-.116 1.074-.784 3.706-.335 4.365.062-2.79.703-3.201.953-4.677zm4.934 10.605c-.156 2.871.277 3.283.445 3.247.605-.118.931 2.371 1.218-.449-.336-1.743-.611.18-.785-.053-.379-.534-.361-2.9-.878-2.745zm-192.137 4.063c-.103-.05-.204-.078-.304-.068.014-.075.028-.15.043-.225-.188-.233-.375-.461-.563-.693.239-.194.477-.397.714-.596.036.528.073 1.056.11 1.582zm219.096-1.611c-.526-3.385-2.337-.662-1.682 1.049.168-.003.335-.006.502-.009.016-.209.035-.398.095-.406 0 .004.001.007.001.01.153-.009 1.518 2.163 1.084-.644zm5.221 1.167c1.089 1.01 1.943-3.285.495-2.207-.081.067-.228 2.304-.495 2.207zm-3.142-.044c.3-.293.602-.595.902-.894-.287-.126-.577-.248-.865-.381-.012.426-.024.849-.037 1.275zm-17.289-.03c.105-.17.211-.342.316-.512-.002-.023-.004-.046-.006-.069h.047c.188-.306.377-.612.566-.918-.18-.52-.36-1.037-.539-1.557-.127 1.019-.257 2.043-.384 3.056zm-110.667-.044c.51-.238 1.323.684 1.432-1.186-.383-.295-.767-.599-1.15-.894-.094.693-.189 1.388-.282 2.08zm104.63-2.685c-.335-.245-.771 2.694.005 2.256.036-.032.332-1.9.546-.664.051.315.065.62.074.923.077-.298.154-.596.231-.894-.141-.67-.404-1.291-.856-1.621zm-166.184-3.682c-.574 1.383-1.106 1.485-1.83.986-.215 1.734-.431 3.462-.644 5.196 1.119.193.316-2.678 1.291-2.276.128-.817-.426-.42-.326-.883.479-2.252 1.119.749 1.78-.494-.088-.838-.181-1.685-.271-2.529zm145.01 4.57c.389.107.776.304 1.163.494-.259 2.133-1.393.534-1.163-.494zm24.681 1.485c-.406-6.506-1.348-4.702-1.325-.811.257.028.513.056.769.083.186.243.371.485.556.728zm-178.296-.366c.325.111.651.226.975.337.016-.353.035-.707.051-1.055-.325-.111-.65-.231-.974-.342-.016.354-.036.706-.052 1.06zm185.094-.01c.399 1.734.76-5.384.096-2.285-.064.301-.125 2.142-.096 2.285zm-11.948-2.153c-.599.114-1.175.286-1.776.459.073.297.088.802.11 1.289.362-.079.725-.157 1.088-.235.122.176.245.352.367.528.057-.764.104-1.605.211-2.041zm7.271-3.13c-.065 1.842-.049 3.484.3 4.673.095-1.802-.09-3.203-.3-4.673zm-186.883 3.603c.445-.22 1.154 1.092 1.222-.659-.381-.316-.764-.627-1.145-.937-.026.529-.053 1.062-.077 1.596zm20.587-3.193c-.526-.308-2.038 2.841-.466 1.46.007.544.015 1.086.022 1.631.147-1.028.295-2.064.444-3.091zm-13.163 1.435c.21.425.42.856.628 1.28.213-1.006.43-2.008.644-3.013-.424.576-.848 1.157-1.272 1.733zm-9.179 1.153c.34-.244.683-.479 1.024-.723-.316-.288-.632-.586-.946-.874-.027.531-.052 1.065-.078 1.597zm42.933-2.154c-1.029-1.871-.647-.822-1.263.454-.417.858-.86-.939-.795 1.548.727-.8 1.951.7 2.058-2.002zm-14.932 1.46c.705-2.153-1.837-4.218-1.977.44.484-.171 1.644.571 1.977-.44zm186.664-5.566c.064 1.284.035 5.027.287 5.547.399.814.801-.822.584-2.642-.066-.547-.835-1.607-.871-2.905zm-52.463.381c-.312-3.731 1.028-3.2 1.561-2.627-.125-.033-.252-.057-.377-.083.049.789.091 1.579.141 2.368-.14.082-.278.166-.417.249.155.828.294 1.75.442 2.578-.38 3.414-.39 1.229-.901.669-.329-.354-.466.805-.876.859-1.919.26-3.899 1.672-5.861.933.02-2.885.071-3.591.438-3.945-.021.854-.039 1.719-.058 2.573.241-.283.479-.626.715-.986-.216-.516-.43-1.05-.64-1.602.11-.101.25-.172.422-.264.127-.074.167-1.239.337-1.094.366.313.821 3.851 1.23 2.96.236-.522-.056-3.757.495-2.813-.348 2.325-.593 4.353.271 3.467-.481-2.094-.094-1.254.095-2.319.118-.682-.611-.472-.131-1.773.103-.264 1.575-1.512 1.5.459-.163 4.254-.233 3.76.732 1.406-1.182-1.786-.07-4.53.452-3.276.265.643-.211 2.605.43 2.261zm41.74 3.359c-.046-.284-1.109-.003-1.133 1.402.18.474 1.456.745 1.133-1.402zm-179.485.884c.216-1.313-.758-1.461-.869-1.099-.439 1.438.648 2.409.869 1.099zm30.209-1.89c-.121-.134-.941-.3-.975.484 1.28 4.249 1.944.616.975-.484zm129.87-4.502c-.966-2.891-1.201 2.636-1.281 3.189-.417 2.832-.473-2.053-.562-2.056-.423.082.028 5.388.084 5.488.902 1.575.708-2.579.816-3.823.237-2.698.836-.421.943-2.798zm38.222 4.678c-.325-1.052-.843.069-.6 1.362.245 1.29 1.002-.054.6-1.362zm-68.756.542c-.312-3.481.889-.659 1.015-.586.366.206.474-1.727.737-.391.023.147-.236 2.101-.414 2.173-.179.066-1.303-.881-1.338-1.196zm110.005 1.065c-.549-.058-.454-3.801.101-.518.02.122.041.249.064.376-.048.092-.101.149-.165.142zm-55.936-2.247c-.114-.264-.23-.521-.346-.786.005.646.012 1.302.017 1.949.237-.652.473-1.307.708-1.959-.085-.359-.17-.724-.255-1.084-.041.623-.082 1.257-.124 1.88zm-54.202.22c-.45.033-.9.06-1.35.093.001-.002.002-.003.003-.005.021-.43.042-.859.064-1.289.427.399.856.802 1.283 1.201zm49.555-16.817c-.565-1.341-1.08 2.646-.777 4.331.178.979.682-1.642.552 1.172-.837-1.333-.763 1.09-.752 1.519.077 3.065-.552 3.968-.505 6.528.027 1.44.701.836.957 1.211.107.164.114 1.351.134 1.421h.003c.25.477.399-.704.655-.762.118-.019.192 1.828.352 1.202.161-.64.649-3.247.682-4.37.058-2.019-.414-3.701-.812-2.105-.193.779-.074 3.752-.621 2.061-.072-.225-.363-3.302-.64-3.135.351-1.814 1.459-1.684 1.922-1.128.057-2.129-.726-1.381-1.021-2.437-.249-.889-.083-5.351-.129-5.508zm-15.92 11.7c-.017-.848.411-5.432-.255-1.905-.229 1.22-.205 2.486-.804 2.608.558-.318.425 3.15.481 3.423.46 2.166 1.045-1.918.975-3.745-.021-.529-.379.463-.397-.381zm-31.135 3.994c-.006.005-.012.01-.017.015v-.054c.005.013.011.026.017.039zm20.652-1.563c.16 1.86.476 1.271.849 1.021-.03-.659-.06-1.314-.09-1.973-.252.315-.507.638-.759.952zm-12.465.079c-.004-.002-.009-.003-.013-.005.006-.111.015-.223.021-.332-.002.111-.006.225-.008.337zm69.628-2.994c.296 2.478 1.431 3.334.705.625-.185-.679-.48-.464-.705-.625zm-19.274-9.653c-.526-.429-.433 2.065-.309 3.603-.351.316-.698.575-1.047.865.995.219.969 3.17.986 6.899.403.526.131-2.114.554-1.665.147.161.14 1.727.167 1.861.342 1.496.411-3.065.206-3.57-.205-.497-.689.421-.793-1.44.347-.805.639.428 1.05-.025.485-.541.1-2.875-.051-2.305-.3 1.153-.116 2.974-.634 1.319-.442-1.415.286-5.201-.129-5.542zm-34.634 11.479c.409-.674.819-1.344 1.228-2.011-.579.244-.794.495-1.115-1.822-.037 1.277-.076 2.557-.113 3.833zm-15.648-.17c-.075-.053-.15-.077-.224-.059.01-.089.021-.179.032-.269-.139-.265-.277-.53-.417-.795.177-.249.354-.507.53-.762.027.628.052 1.258.079 1.885zm46.564-.728c.094.038.191.083.285.127.116-.703.235-1.411.351-2.114-.063-.345-.126-.69-.189-1.036-.149 1.005-.297 2.019-.447 3.023zm-14.784-.083c-.223-1.059-.66-3.306-.971-1.743.413 1.198.417 2.278.971 1.743zm-13.216-4.072c-.442-.206-.746 2.389-.693 4.15.3-.299.601-.604.901-.903-.07-1.082-.139-2.166-.208-3.247zm17.532 1.177c1.783-3.446-1.252-3.658-1.454-2.261-.383 2.651.979 1.332 1.146 2.007.166.681.066 3.936.545 2.519.18-.54-.018-2.062-.237-2.265zm11.441-10.03c-.523-.029-1.362 2.107-1.947 2.08-.347-.02-.333-1.328-.683-1.348-.523-.036-1.439-.346-1.931.44-.177.292-.136 2.713-.103 2.988.084.658.367-.54.49-.307.121.234-.015 1.214.152 1.342.169.126 1.099-.208 1.167-.385.402-1.089-.088-2.44.38-2.168.21 8.319-1.132 3.012-1.374 3.457-.913 1.678-.169 2.399.009 3.12.176.721-.257 1.735-.164 2.432.002-.004.003-.007.005-.01.095.702.746.951.827.376.173-1.256-.412-2.33.06-3.15.59.241 1.195.502 1.791.743-.02-1.085-.039-2.173-.057-3.257-.135.353-.273.714-.408 1.074-.107-.355-.213-.712-.319-1.06.634-5.932 1.398.787 2.459-1.836-.06 1.249-.113 2.553-.178 3.77 1.549 1.741.523-.041.557-3.14.02-1.777.487-.082.595-.351.744-1.903-.804-4.787-1.328-4.81zm-30.476 10.674c.24.11.481.227.72.337.012-.425.025-.856.037-1.275-.24-.11-.479-.226-.719-.336-.012.425-.026.849-.038 1.274zm6.363-7.403c-.424 1.693-.817 1.855-1.352 1.309-.159 2.086-.319 4.165-.476 6.25.828.155.233-3.213.955-2.798.095-.986-.315-.475-.242-1.035.354-2.732.829.819 1.318-.713-.065-.998-.136-2.008-.203-3.013zm28.873-2.104c.058 3.8.778 1.528 1.187 3.477.121.605-.576 3.62.149 4.751.235.36 1.174-.42 1.471.678.137-1.436-.55-7.313-.667-7.72-.76-2.605-1.393.656-2.14-1.186zm11.673 1.592c-.446 4.956.454 1.575.875 3.794.125.669-.424 2.943.167 3.057.369-.651.065-2.055.242-3.052.179-.996 1.242-.256.627-3.008-.19-.851-1.578 1.025-1.911-.791zm3.608 6.601c.809.142.94-2.711.188-1.508-.16.256-.18.87-.188 1.508zm-55.301-.273c.33-.29.854 1.231.904-.864-.282-.352-.564-.7-.846-1.045-.019.634-.04 1.269-.058 1.909zm-1.3-.601c.252-.315.507-.622.759-.937-.234-.323-.469-.654-.701-.977-.019.637-.038 1.278-.058 1.914zm6.792-2.006c.155.492.31.996.464 1.489.158-1.218.318-2.434.476-3.653-.313.719-.627 1.445-.94 2.164zm9.735-2.623c-.389-.326-1.504 3.538-.342 1.778.006.651.01 1.302.016 1.953.108-1.24.216-2.491.326-3.731zm41.457 2.808c.377-.32.978.723 1.059-1.523-.284-.326-.567-.661-.85-.987-.069.835-.14 1.675-.209 2.51zm-37.27-.923c.523-2.626-1.358-4.932-1.462.65.358-.238 1.215.577 1.462-.65zm-2.62-.888c.16-1.584-.558-1.699-.642-1.26-.325 1.751.479 2.843.642 1.26zm13.667-1.89c-.761-2.169-.478-.945-.933.625-.309 1.059-.638-1.061-.589 1.919.537-1.01 1.443.698 1.522-2.544zm8.681-2.447c-.087-.153-.698-.298-.722.65.947 4.993 1.439.601.722-.65z" fill="#ffe600" fill-rule="nonzero" transform="translate(0 -.000002)"/></svg>