<svg fill="none" height="51" viewBox="0 0 2 51" width="2" xmlns="http://www.w3.org/2000/svg"><path d="m.786133.1.497217.052686.00278-.02627v-.026416zm-.034438.325-.497216-.052686zm-.016566.5125.497741-.04744zm.035741.375.49774-.04744zm.021359.375-.499914.0093zm.012356.75.499975-.00504zm.00378.375-.499974.00504zm.069228.375.470577-.169zm-.089845 1.125.443812.23028zm-.020877.75.495449-.0673zm-.019048 1.5-.471425-.16661zm-.003611.375.474228-.15847zm.12531.375.474228-.15847zm.007149.375-.479434-.14193zm-.111013.375-.479434-.14193zm-.200277.75-.4842202-.12462zm.091967 1.3125-.499926-.0086zm.092143.5625-.442517.2328zm.19725.375.442519-.2328zm-.026561.375.41583.2776zm-.250372.375-.415835-.2776zm-.168542.75-.49852178-.0384zm.094477.375.432337-.2512zm.217858.375-.432336.2512zm.051658.375.478191.1461zm-.057272.1875-.47819-.1461zm-.04069.5625.465213-.1832zm.147706.375-.465213.1832zm.047799.75-.499465-.0231zm-.06706.375-.477398-.1486zm-.058374.1875-.477399-.1486zm-.058374.1875-.477399-.1486zm-.211927.75-.4823506-.1317zm.056334.375-.433747.2487zm.215037.375.433742-.2487zm.040325.375.470687.1687zm-.067192.1875-.470689-.1687zm-.12685 1.3125-.450805.2163zm.179906.375.450803-.2163zm-.059423.5625-.464504-.185zm-.102843.5625-.485279.1204zm.093066.375.485283-.1204zm-.126331.75-.47794-.1469zm.043789.375-.439796.2379zm.20282.375.439795-.2379zm.033726.375.470299.1698zm-.13537.375-.470296-.1698zm-.06616.375-.499983.0041zm.003049.375.49998-.0041zm.073681.375.466639-.1796zm-.086437 1.5.464966-.1839zm.148284.375-.464969.1839zm-.376899 1.5-.4993335-.0258zm.047811.375.47802-.1466zm.227088.75.480072-.1397zm.109158.375-.480074.1397zm-.045726.375-.440877-.2359zm-.002189 1.125.441589-.2345zm.090533.375-.49942-.0241zm-.018087.375.499423.0241zm-.095501.375.454054.2094zm-.172916.375-.454054-.2094zm-.017405 1.125.472595-.1633zm.129544.375.472591-.1633zm-.119595 1.125-.482427.1314zm.102134.375.482432-.1314zm-.054605.75-.491403-.0923zm.126758 1.125.490129-.0989zm.075635.375.490134-.0989zm-.274838 1.125-.45538.2065zm.170024.375.455378-.2065zm.114801.375-.493807.0785zm.029788.1875.493809-.0785zm.029789.1875.49381-.0785zm-.305066 1.5.490936-.0948zm.097949.375-.474905.1564zm.123511.375.474906-.1564zm-.039944.375.43951.2384zm-.203399.375.439509.2384zm.183405 1.5.443734-.2304zm.091641.375.499763.0153zm-.011469.375-.499766-.0153zm-.049237.375-.487062-.113zm.074168 1.125.469861-.171zm-.082823.5625-.46379-.1868zm-.162099.5625.499133.0294zm-.022099.375-.499134-.0294zm.08754.375.442552-.2327zm.301562.6875-.499462.0232zm.0116.25-.499467.0232zm-.132548.125-.292912.4052.131122.0948h.16179zm-.138341-.1.292909-.4052-.792909-.5732v.9784zm.000002-49.89999998-.5-.00000002v.1h.5.499997v-.09999996zm0 .09999998-.497217-.0526855-.034437.3249995.497216.052686.497215.052686.03444-.325zm-.034438.325-.497216-.052686c-.024318.229504-.033671.438705-.017095.612626l.497745-.04744.497741-.04744c-.00725-.076079-.00556-.208544.01604-.412374zm-.016566.5125-.497745.04744.017871.1875.497744-.04744.497741-.04744-.01787-.1875zm.01787.1875-.497744.04744.01787.1875.497745-.04744.49774-.04744-.01787-.1875zm.017871.1875-.497745.04744c.010711.11237.017103.22465.01919.33686l.499914-.0093.499911-.0093c-.00256-.13779-.01041-.27551-.02353-.41314zm.021359.375-.499914.0093.003489.1875.499913-.0093.499913-.0093-.00349-.1875zm.003488.1875-.499913.0093.003488.1875.499914-.0093.499914-.0093-.00349-.1875zm.003489.1875-.499914.0093c.0023.12358.004072.24716.005318.37074l.499975-.00504.499975-.00504c-.00128-.12642-.00309-.25284-.00544-.37926zm.005379.375-.499975.00504.00189.1875.499975-.00504.499975-.00504-.00189-.1875zm.00189.1875-.499975.00504.001891.1875.499974-.00504.499975-.00504-.00189-.1875zm.00189.1875-.499974.00504c.001858.18432.036025.36464.098628.53896l.470574-.169.470577-.169c-.02718-.07568-.03917-.14536-.03983-.21104zm.069228.375-.470574.169.067337.1875.470574-.169.47057-.169-.06733-.1875zm.067337.1875-.470574.169.067337.1875.470577-.169.47057-.169-.06734-.1875zm.06734.1875-.470577.169c.00021.00058-.000611-.00158-.001242-.0061-.000643-.00461-.00084-.00989-.000416-.0152.00042-.00526.001301-.00871.00164-.00984.000302-.00101-.000252.00124-.003172.00686l.443816.23028.443811.23028c.12463-.2402.15175-.50965.05671-.77428zm-.029951.375-.443816-.23028-.097286.1875.443816.23028.443817.23028.09728-.1875zm-.097286.1875-.443816-.23028-.097285.1875.443816.23028.443812.23028.09729-.1875zm-.097285.1875-.443816-.23028c-.106569.2054-.155899.4337-.12345.67258l.49545-.0673.495448-.0673c-.00151-.01112-.00296-.03282.02018-.07742zm-.071816.375-.49545.0673.02547.1875.49545-.0673.495448-.0673-.02547-.1875zm.02547.1875-.49545.0673.02547.1875.495449-.0673.495449-.0673-.02547-.1875zm.025469.1875-.495449.0673c.018519.13634.041777.27249.069743.40844l.489746-.10074.489749-.10074c-.02346-.11405-.0429-.2279-.05834-.34156zm.06404.375-.489746.10074.03857.1875.489745-.10074.48975-.10074-.03857-.1875zm.038569.1875-.489745.10074.038569.1875.489746-.10074.48975-.10074-.03857-.1875zm.03857.1875-.489746.10074c.006648.03232.005717.06495-.009375.10765l.471425.16661.471426.16661c.07326-.2073.09079-.42467.04602-.64235zm-.027696.375-.471425-.16661-.066265.1875.471424.16661.471422.16661.06627-.1875zm-.066266.1875-.471424-.16661-.066266.1875.471425.16661.471427.16661.06626-.1875zm-.066265.1875-.471425-.16661c-.081054.22935-.083709.46875-.00641.70008l.474224-.15847.474228-.15847c-.00624-.01867-.00649-.02927.00081-.04992zm-.003611.375-.474224.15847.062655.1875.474224-.15847.474223-.15847-.06265-.1875zm.062655.1875-.474224.15847.062655.1875.474224-.15847.474228-.15847-.06266-.1875zm.062655.1875-.474224.15847c.009662.02891.009504.04905.001939.0746l.479434.14193.479429.14193c.06645-.22445.06152-.45431-.01235-.6754zm.007149.375-.479434-.14193-.055506.1875.479433.14193.479436.14193.0555-.1875zm-.055507.1875-.479433-.14193-.055507.1875.479434.14193.479432.14193.05551-.1875zm-.055506.1875-.479434-.14193c-.038686.13068-.074872.26145-.10855.39231l.48422.12462.484216.12462c.03067-.11914.06366-.23837.09898-.35769zm-.103764.375-.48422-.12462-.048256.1875.48422.12462.484222.12462.04825-.1875zm-.048256.1875-.48422-.12462-.0482572.1875.4842202.12462.484219.12462.04826-.1875zm-.048257.1875-.4842202-.12462c-.0504795.19613-.0570076.3965-.0180608.59561l.4907-.09599.4907-.09598c-.00995-.0509-.00876-.10053.0051-.1544zm-.011581.375-.4907.09599.0366765.1875.4907005-.09599.490703-.09599-.03668-.18749zm.036677.1875-.4907005.09599.0366765.18749.4907-.09598.490697-.09599-.03667-.1875zm.036676.1875-.4907.09598c.017838.0912.025753.18114.02421.27038l.499926.00864.499921.00864c.00278-.16076-.01159-.32082-.04266-.47963zm.033436.375-.499926-.00864-.003241.18754.499926.0086.499922.0086.00324-.18746zm-.003241.1875-.499926-.0086-.003241.1875.499926.0086.499923.0086.00324-.1875zm-.003241.1875-.499926-.0086c-.003792.2194.053077.4268.152793.6164l.442517-.2328.442519-.2328c-.03179-.0604-.03851-.103-.03798-.1336zm.095384.375-.442517.2328.098625.1875.442517-.2328.442514-.2328-.09862-.1875zm.098625.1875-.442517.2328.098625.1875.442517-.2328.442519-.2328-.09863-.1875zm.098625.1875-.442517.2328c-.004806-.0092-.01652-.0389-.013561-.0806.002824-.0399.016817-.0595.013682-.0548l.415835.2776.41583.2776c.08033-.1203.14048-.2649.15215-.4298.01182-.1667-.02835-.3214-.0989-.4556zm-.026561.375-.415835-.2776-.125186.1875.415835.2776.415836.2776.12518-.1875zm-.125186.1875-.415835-.2776-.125186.1875.415835.2776.415832.2776.12519-.1875zm-.125186.1875-.415835-.2776c-.121619.1821-.2049027.3881-.2223244.6142l.4985214.0384.49852.0384c.00185-.024.01166-.0679.05695-.1358zm-.139638.375-.4985214-.0384-.0144522.1875.4985216.0384.498522.0384.01445-.1875zm-.014452.1875-.4985216-.0384-.01445218.1875.49852178.0384.498521.0384.014453-.1875zm-.014452.1875-.49852178-.0384c-.01856472.2408.04518438.4658.16066178.6646l.432337-.2512.432337-.2512c-.029763-.0512-.028998-.0762-.028293-.0854zm.094477.375-.432337.2512.10893.1875.432336-.2512.432338-.2512-.10893-.1875zm.108929.1875-.432336.2512.108929.1875.432336-.2512.432339-.2512-.10893-.1875zm.108929.1875-.432336.2512c.004285.0073.005722.0112.005873.0116.000105.0003-.000806-.0022-.00148-.0071-.000687-.005-.000875-.0106-.000403-.0162.000468-.0056.001423-.0093.001814-.0106l.47819.1461.478191.1461c.08336-.273.03675-.5412-.09751-.7723zm.051658.375-.47819-.1461-.057272.1875.47819.1461.478193.1461.05727-.1875zm-.057272.1875-.47819-.1461-.057272.1875.47819.1461.478195.1461.05727-.1875zm-.057272.1875-.47819-.1461c-.072177.2363-.059841.4774.029559.7043l.465213-.1832.465213-.1832c-.00907-.0231-.00779-.032-.0036-.0457zm.016582.375-.465213.1832.073853.1875.465213-.1832.46521-.1832-.07385-.1875zm.073853.1875-.465213.1832.073853.1875.465213-.1832.465217-.1832-.07386-.1875zm.073853.1875-.465213.1832c.025326.0643.033209.1192.030917.1687l.499465.0231.499468.0231c.00928-.2005-.02628-.3956-.09942-.5813zm.065169.375-.499465-.0231-.008685.1875.499465.0231.499463.0231.00869-.1875zm-.008685.1875-.499465-.0231-.008685.1875.499465.0231.499468.0231.00868-.1875zm-.008685.1875-.499465-.0231c-.003727.0804-.018168.1633-.044993.2495l.477398.1486.477398.1486c.05101-.1638.08127-.3309.08913-.5005zm-.06706.375-.477398-.1486-.058375.1875.477399.1486.477402.1486.05837-.1875zm-.058374.1875-.477399-.1486-.058374.1875.477399.1486.477396.1486.05838-.1875zm-.058374.1875-.477399-.1486c-.040649.1305-.078821.2612-.114511.3919l.482351.1317.482355.1317c.03255-.1193.06742-.2386.1046-.3581zm-.109559.375-.482351-.1317-.051184.1875.482351.1317.482349.1317.05119-.1875zm-.051184.1875-.482351-.1317-.0511836.1875.4823506.1317.482353.1317.05118-.1875zm-.051184.1875-.4823506-.1317c-.0732.2682-.0247381.5293.1049376.7554l.433747-.2487.433749-.2487c-.00472-.0083-.00674-.0133-.00742-.0152-.00064-.0017-.00018-.0009.00028.0021.00047.0032.0007.0071.00044.0112-.00025.0041-.00086.0066-.00103.0073zm.056334.375-.433747.2487.107518.1875.433748-.2487.43375-.2487-.10752-.1875zm.107519.1875-.433748.2487.107519.1875.433747-.2487.433742-.2487-.10751-.1875zm.107518.1875-.433747.2487c.006436.0112.002133.0079.000453-.0077-.000784-.0073-.000703-.0149.000183-.022.000873-.0069.002265-.0113.002747-.0127l.470689.1687.470687.1687c.09876-.2756.06022-.5527-.07727-.7924zm.040325.375-.470689-.1687-.067192.1875.470689.1687.470689.1687.06719-.1875zm-.067192.1875-.470689-.1687-.067193.1875.470689.1687.470692.1687.06719-.1875zm-.067193.1875-.470689-.1687c-.057268.1598-.095871.3231-.114116.4891l.497008.0546.497009.0546c.00923-.084.02915-.1707.06148-.2609zm-.087797.375-.497008-.0546-.020604.1875.497008.0546.497003.0546.02061-.1875zm-.020604.1875-.497008-.0546-.020605.1875.497008.0546.497008.0546.0206-.1875zm-.020605.1875-.497008-.0546c-.0249676.2272.019463.4456.115552.6459l.450805-.2163.450809-.2163c-.02385-.0497-.02565-.0813-.02315-.1041zm.069349.375-.450805.2163.089953.1875.450805-.2163.450806-.2163-.08995-.1875zm.089953.1875-.450805.2163.089953.1875.450805-.2163.450803-.2163-.08995-.1875zm.089953.1875-.450805.2163c.002096.0043.002138.0054.001608.0034-.000563-.0022-.00137-.0063-.001596-.0119-.000227-.0055.000213-.0106.000919-.0146.000689-.0038.001345-.005.000635-.0032l.464504.185.464508.185c.10325-.2592.08936-.5296-.02897-.7763zm.015265.375-.464504-.185-.074688.1875.464504.185.464506.185.07469-.1875zm-.074688.1875-.464504-.185-.074688.1875.464504.185.464504.185.07469-.1875zm-.074688.1875-.464504-.185c-.086646.2175-.106313.4492-.04893.6804l.485279-.1204.485279-.1204c-.00466-.0188-.00556-.0371.00738-.0696zm-.028155.375-.485279.1204.046533.1875.485279-.1204.485276-.1204-.04653-.1875zm.046533.1875-.485279.1204.046534.1875.485278-.1204.485283-.1204-.04654-.1875zm.046533.1875-.485278.1204c.008802.0355.008425.0681-.00375.1077l.47794.1469.477941.1469c.06465-.2104.07167-.4278.01843-.6423zm-.011088.375-.47794-.1469-.057622.1875.477941.1469.477942.1469.05762-.1875zm-.057621.1875-.477941-.1469-.057621.1875.47794.1469.477944.1469.05762-.1875zm-.057622.1875-.47794-.1469c-.081427.265-.043348.5281.081933.7598l.439796-.2379.439795-.2379c-.00388-.0071-.00529-.0111-.00558-.012-.00026-.0008.00034.0008.00076.0044.00043.0037.00048.0078.00011.0117-.00037.0038-.00099.0059-.00093.0057zm.043789.375-.439796.2379.10141.1875.439796-.2379.439795-.2379-.10141-.1875zm.10141.1875-.439796.2379.10141.1875.439796-.2379.439795-.2379-.10141-.1875zm.10141.1875-.439796.2379c.003058.0056.003538.0077.003087.0062-.000495-.0015-.00159-.0056-.002145-.0118-.00056-.0062-.000384-.0125.000383-.0182.000754-.0056.001827-.0087.001901-.0089l.470296.1698.470299.1698c.09716-.2692.06586-.5421-.06423-.7827zm.033726.375-.470296-.1698-.067685.1875.470296.1698.470294.1698.06769-.1875zm-.067685.1875-.470296-.1698-.067685.1875.470296.1698.470299.1698.06768-.1875zm-.067685.1875-.470296-.1698c-.06396.1772-.097375.361-.095847.5489l.499983-.0041.499979-.0041c-.0005-.0621.01019-.1283.03648-.2011zm-.06616.375-.499983.0041.001524.1875.499984-.0041.499984-.0041-.00153-.1875zm.001525.1875-.499984.0041.001525.1875.499983-.0041.49998-.0041-.00152-.1875zm.001524.1875-.499983.0041c.001538.1892.03891.3735.107025.5505l.466639-.1796.466639-.1796c-.02809-.073-.03984-.1387-.04034-.1995zm.073681.375-.466639.1796.072155.1875.466639-.1796.466644-.1796-.07216-.1875zm.072155.1875-.466639.1796.072156.1875.466639-.1796.466638-.1796-.07215-.1875zm.072156.1875-.466639.1796c.000399.001-.000439-.0009-.001176-.0054-.000754-.0047-.001114-.0102-.000767-.0161.000344-.0059.001269-.01.001829-.012.000523-.0019.000347-.0005-.002078.0043l.446725.2246.446724.2246c.12294-.2446.14323-.5162.04202-.7792zm-.022106.375-.446725-.2246-.094261.1875.446725.2246.446725.2246.09426-.1875zm-.094261.1875-.446725-.2246-.094262.1875.446725.2246.446727.2246.09426-.1875zm-.094262.1875-.446725-.2246c-.12388.2464-.142578.5199-.038363.7835l.464969-.1839.464966-.1839c-.0004-.001.00052.0011.00134.0059.00084.0049.00128.0109.00093.0173-.00033.0063-.00133.011-.00201.0135-.00065.0023-.00065.0013.00162-.0032zm-.020119.375-.464969.1839.074142.1875.464969-.1839.464964-.1839-.07414-.1875zm.074142.1875-.464969.1839.074142.1875.464969-.1839.464972-.1839-.07415-.1875zm.074142.1875-.464969.1839c-.00041-.0011-.002045-.0056-.003219-.0131-.001194-.0077-.001566-.0163-.00084-.025.001556-.0186.006916-.0249.001913-.016l.435766.2452.435761.2452c.13853-.2462.16951-.5285.06056-.8041zm-.031349.375-.435766-.2452-.105491.1875.435766.2452.435762.2452.10549-.1875zm-.105491.1875-.435766-.2452-.105491.1875.435766.2452.435763.2452.10549-.1875zm-.105491.1875-.435766-.2452c-.10262.1824-.1677621.3818-.1787508.5944l.4993338.0258.499336.0258c.00193-.0374.01358-.088.05161-.1556zm-.115183.375-.4993338-.0258-.0096923.1875.4993331.0258.499329.0258.0097-.1875zm-.009693.1875-.4993331-.0258-.0096924.1875.4993335.0258.499331.0258.00969-.1875zm-.009692.1875-.4993335-.0258c-.00960683.1858.0144464.3691.0691191.5474l.4780254-.1466.47802-.1466c-.02199-.0717-.02981-.1384-.0265-.2026zm.047811.375-.4780254.1466.0575034.1875.478025-.1466.478027-.1466-.05751-.1875zm.057503.1875-.478025.1466.057503.1875.478025-.1466.478024-.1466-.0575-.1875zm.057503.1875-.478025.1466c.037639.1227.074316.2454.110032.3681l.480075-.1397.480072-.1397c-.03705-.1273-.0751-.2546-.11413-.3819zm.112082.375-.480075.1397.05458.1875.480074-.1397.480073-.1397-.05458-.1875zm.054579.1875-.480074.1397.054579.1875.480074-.1397.480074-.1397-.05458-.1875zm.054579.1875-.480074.1397c.000174.0006-.000281-.0008-.000537-.0038-.000261-.0031-.000181-.0062.000146-.0089.000319-.0026.000696-.0033.000179-.0018-.00055.0017-.002233.0063-.006317.0139l.440877.2359.44088.2359c.12251-.2291.16126-.4884.08492-.7506zm-.045726.375-.440877-.2359-.100306.1875.440877.2359.440876.2359.10031-.1875zm-.100306.1875-.440877-.2359-.100306.1875.440877.2359.440882.2359.1003-.1875zm-.100306.1875-.440877-.2359c-.145294.2716-.1461104.573-.001442.8454l.44159-.2345.441591-.2345c-.00031-.0006.00208.0038.00448.0129.00247.0093.00435.0214.00432.0351-.00006.0299-.0088.0474-.00878.0474zm-.000729.375-.44159.2345.099576.1875.44159-.2345.441595-.2345-.09958-.1875zm.099576.1875-.44159.2345.099576.1875.44159-.2345.441589-.2345-.09957-.1875zm.099576.1875-.44159.2345c.029844.0562.033854.0925.032703.1164l.49942.0241.499416.0241c.01091-.2261-.04543-.4398-.14836-.6336zm.090533.375-.49942-.0241-.009043.1875.49942.0241.499419.0241.00904-.1875zm-.009043.1875-.49942-.0241-.009043.1875.499419.0241.499423.0241.00904-.1875zm-.009044.1875-.499419-.0241c-.002642.0548-.016677.1172-.050136.1897l.454054.2094.454054.2094c.08182-.1775.13145-.3651.14087-.5603zm-.095501.375-.454054-.2094-.086458.1875.454054.2094.454052.2094.08646-.1875zm-.086458.1875-.454054-.2094-.086458.1875.454054.2094.45405.2094.08646-.1875zm-.086458.1875-.454054-.2094c-.085176.1848-.1324986.3819-.1313261.5873l.4999921-.0029.499988-.0029c-.00025-.0446.00935-.0974.03945-.1627zm-.085388.375-.4999921.0029.0010705.1875.4999916-.0029.499988-.0029-.00107-.1875zm.00107.1875-.4999916.0029.0010704.1875.4999922-.0029.499987-.0029-.00107-.1875zm.001071.1875-.4999922.0029c.001043.1827.0332668.3618.0932382.5354l.472596-.1633.472595-.1633c-.02639-.0764-.03806-.1473-.03845-.2146zm.065842.375-.472596.1633.064772.1875.472596-.1633.472593-.1633-.06477-.1875zm.064772.1875-.472596.1633.064772.1875.472596-.1633.472591-.1633-.06477-.1875zm.064772.1875-.472596.1633c.008587.0248.008319.0401.001462.0619l.477047.1498.477048.1497c.07162-.2281.06741-.4628-.01037-.688zm.005913.375-.477047-.1498-.058859.1875.477048.1498.477046.1497.05886-.1875zm-.058858.1875-.477048-.1498-.058859.1875.477048.1498.477045.1497.05886-.1875zm-.058859.1875-.477048-.1498c-.067547.2152-.072653.4378-.01317.6562l.482427-.1314.482426-.1314c-.00861-.0316-.00852-.059.00241-.0939zm-.007791.375-.482427.1314.051067.1875.482427-.1314.482429-.1314-.05107-.1875zm.051067.1875-.482427.1314.051067.1875.482427-.1314.482432-.1314-.05107-.1875zm.051067.1875-.482427.1314c.014563.0535.016127.102.006866.1513l.491404.0923.491409.0923c.0377-.2007.0287-.4022-.02482-.5987zm.015843.375-.491404-.0923-.035224.1875.491404.0923.491403.0923.03523-.1875zm-.035224.1875-.491404-.0923-.035223.1875.491403.0923.491407.0923.03522-.1875zm-.035224.1875-.491403-.0923c-.034231.1822-.036342.3661-.006065.549l.493285-.0817.49329-.0817c-.01112-.0671-.01044-.1332.0023-.201zm-.004183.375-.493285.0817.03104.1875.493286-.0817.493289-.0817-.03104-.1875zm.031041.1875-.493286.0817.031041.1875.493286-.0817.493288-.0817-.03104-.1875zm.031041.1875-.493286.0817c.021652.1307.045658.2615.072015.3922l.49013-.0989.490129-.0989c-.02407-.1193-.04597-.2385-.0657-.3578zm.068859.375-.49013.0989.037818.1875.49013-.0989.490131-.0989-.03782-.1875zm.037818.1875-.49013.0989.037817.1875.49013-.0989.490134-.0989-.03782-.1875zm.037817.1875-.49013.0989c.000732.0036.00065.0051.000252.0076-.000512.0031-.002794.0141-.013466.0343l.441745.2342.441743.2342c.1141-.2152.16058-.4572.10999-.7081zm-.061599.375-.441745-.2342-.099417.1875.441745.2342.44175.2342.09941-.1875zm-.099417.1875-.441745-.2342-.099417.1875.441745.2342.441747.2342.09942-.1875zm-.099417.1875-.441745-.2342c-.1362251.2569-.1509517.5446-.02804.8157l.45538-.2065.455382-.2065c-.00007-.0001.00166.0037.00321.0112.00158.0076.00252.0169.00213.027-.00084.0219-.00713.0324-.00457.0275zm-.014405.375-.45538.2065.085012.1875.45538-.2065.45538-.2065-.08501-.1875zm.085012.1875-.45538.2065.085012.1875.45538-.2065.455378-.2065-.08501-.1875zm.085012.1875-.45538.2065c.039741.0876.064101.1697.076374.247l.493807-.0785.493807-.0785c-.02745-.1727-.07962-.3406-.15323-.503zm.114801.375-.493807.0785.029789.1875.493806-.0785.493809-.0785-.02979-.1875zm.029788.1875-.493806.0785.029788.1875.493807-.0785.49381-.0785-.02979-.1875zm.029789.1875-.493807.0785c.000111.0006.000291.0007-.000276.0033-.000761.0036-.004082.0162-.017386.0387l.430399.2545.4304.2545c.12394-.2097.18525-.4513.14448-.708zm-.08107.375-.430399-.2545-.110859.1875.4304.2545.430398.2545.11086-.1875zm-.110858.1875-.4304-.2545-.110858.1875.4304.2545.430396.2545.11086-.1875zm-.110858.1875-.4304-.2545c-.126723.2144-.1857298.4625-.1352032.7243l.4909372-.0948.490942-.0948c-.00003-.0001.00016.0009.00015.0026 0 .0016-.00019.0026-.00015.0023.00002-.0001.00192-.01.01412-.0306zm-.074666.375-.4909372.0948.0361932.1875.490937-.0948.490939-.0948-.03619-.1875zm.036193.1875-.490937.0948.036193.1875.490937-.0948.490936-.0948-.03619-.1875zm.036193.1875-.490937.0948c.02829.1465.066385.2921.113981.4366l.474905-.1564.474907-.1564c-.03475-.1055-.06195-.2099-.08192-.3134zm.097949.375-.474905.1564.061756.1875.474904-.1564.474902-.1564-.06175-.1875zm.061755.1875-.474904.1564.061755.1875.474905-.1564.474906-.1564-.06176-.1875zm.061756.1875-.474905.1564c.000015.0001-.000203-.0006-.000492-.0019-.000291-.0013-.000617-.0031-.000866-.0054-.000526-.0047-.000542-.0098-.000033-.0146.000502-.0047.001327-.0074.001393-.0076.000026 0-.000995.0032-.004552.0097l.439511.2384.43951.2384c.12759-.2352.16333-.5027.07534-.7698zm-.039944.375-.439511-.2384-.1017.1875.439512.2384.439509.2384.1017-.1875zm-.101699.1875-.439512-.2384-.101699.1875.439511.2384.439509.2384.1017-.1875zm-.1017.1875-.439511-.2384c-.1013289.1868-.1618869.3914-.1639214.6087l.4999784.0047.499973.0047c.00031-.0327.00872-.0781.04299-.1413zm-.103454.375-.4999784-.0047-.0017553.1875.4999777.0047.499979.0047.00175-.1875zm-.001756.1875-.4999777-.0047-.0017553.1875.499978.0047.499974.0047.00176-.1875zm-.001755.1875-.499978-.0047c-.0020287.2167.0540935.4219.151869.6101l.443729-.2304.443734-.2304c-.03206-.0618-.03969-.1066-.03938-.1399zm.09562.375-.443729.2304.097375.1875.443729-.2304.443729-.2304-.09737-.1875zm.097375.1875-.443729.2304.097375.1875.443729-.2304.443734-.2304-.09738-.1875zm.097375.1875-.443729.2304c.030618.059.0365.1.035604.1293l.499766.0153.499763.0153c.00675-.2207-.04846-.4297-.14767-.6207zm.091641.375-.499766-.0153-.005735.1875.499767.0153.499767.0153.00573-.1875zm-.005734.1875-.499767-.0153-.005734.1875.499766.0153.499762.0153.00574-.1875zm-.005735.1875-.499766-.0153c-.00279.0913-.014779.1835-.036533.2773l.487062.113.487059.113c.03625-.1562.05709-.314.06194-.4727zm-.049237.375-.487062-.113-.043504.1875.487062.113.487063.113.0435-.1875zm-.043504.1875-.487062-.113-.043503.1875.487062.113.487066.113.0435-.1875zm-.043503.1875-.487062-.113c-.051718.2229-.035391.4465.041924.659l.469861-.171.469863-.171c-.01365-.0375-.01381-.0639-.00752-.091zm.024723.375-.469861.171.068226.1875.469861-.171.469857-.171-.06822-.1875zm.068226.1875-.469861.171.068226.1875.469861-.171.469861-.171-.06823-.1875zm.068226.1875-.469861.171c.001687.0046.002151.0071.002243.0076.000082.0005-.000016.0001.000001-.0008.000018-.0009.000123-.001-.000119.0002-.000255.0012-.001066.0045-.003352.0102l.46379.1868.463789.1868c.09577-.2378.10164-.4902.01337-.7328zm-.007298.375-.46379-.1868-.075525.1875.46379.1868.463784.1868.07553-.1875zm-.075525.1875-.46379-.1868-.075524.1875.463789.1868.463789.1868.07552-.1875zm-.075525.1875-.463789-.1868c-.069032.1714-.111135.3494-.121919.5324l.499134.0294.499133.0294c.00395-.067.01956-.139.05123-.2176zm-.086574.375-.499134-.0294-.01105.1875.499135.0294.499132.0294.01105-.1875zm-.011049.1875-.499135-.0294-.011049.1875.499134.0294.499132.0294.01105-.1875zm-.01105.1875-.499134-.0294c-.013382.2271.041569.4421.144122.6371l.442552-.2327.442552-.2327c-.0289-.055-.03231-.09-.03096-.1129zm.08754.375-.442552.2327.098589.1875.442552-.2327.442553-.2327-.09859-.1875zm.098589.1875-.442552.2327.098588.1875.442552-.2327.442555-.2327-.09859-.1875zm.098588.1875-.442552.2327c.023666.045.03686.0771.043702.0976.007121.0213.004527.0216.003773.0054l.499462-.0232.49946-.0232c-.00883-.1904-.08197-.3711-.16129-.522zm.104385.3125-.499462.0232.005798.125.499464-.0232.49946-.0232-.0058-.125zm.0058.125-.499464.0232.005797.125.499467-.0232.49946-.0232-.0058-.125zm.0058.125-.499467.0232c-.000028-.0007-.000742-.0143.002376-.0369.002947-.0213.011317-.0657.038183-.1186.028595-.0564.079376-.1243.162058-.1755.083055-.0515.167638-.0672.233473-.0672v.5.5c.088887 0 .193407-.0209.293277-.0828.09949-.0617.16395-.1451.20311-.2224.0695-.137.06968-.2733.06645-.343zm-.063377.125v-.5h-.069171v.5.5h.069171zm-.069171 0 .292908-.4052-.13834-.1-.292909.4052-.292912.4052.138341.1zm-.138341-.1h-.5v.1h.5.499999v-.1z" fill="#000"/></svg>