<svg width="2" height="51" viewBox="0 0 2 51" fill="none" xmlns="http://www.w3.org/2000/svg">
<path d="M0.786133 0.1L1.28335 0.152686L1.28613 0.126416L1.28613 0.1L0.786133 0.1ZM0.751695 0.425L0.254479 0.372314L0.751695 0.425ZM0.735129 0.9375L1.23287 0.89006L0.735129 0.9375ZM0.77087 1.3125L1.26861 1.26506L0.77087 1.3125ZM0.792229 1.6875L0.292315 1.6968L0.792229 1.6875ZM0.804585 2.4375L1.30456 2.43246L0.804585 2.4375ZM0.808365 2.8125L0.308391 2.81754L0.808365 2.8125ZM0.877593 3.1875L1.34817 3.0185L0.877593 3.1875ZM0.787748 4.3125L1.23156 4.54278L0.787748 4.3125ZM0.766871 5.0625L1.26232 4.9952L0.766871 5.0625ZM0.747823 6.5625L0.276398 6.39589L0.747823 6.5625ZM0.744212 6.9375L1.21844 6.77903L0.744212 6.9375ZM0.869522 7.3125L1.34375 7.15403L0.869522 7.3125ZM0.876671 7.6875L0.397237 7.54557L0.876671 7.6875ZM0.765658 8.0625L0.286224 7.92057L0.765658 8.0625ZM0.565381 8.8125L0.0811608 8.68788V8.68788L0.565381 8.8125ZM0.657348 10.125L0.157422 10.1164L0.657348 10.125ZM0.749491 10.6875L0.306974 10.9203L0.749491 10.6875ZM0.946741 11.0625L1.38926 10.8297L0.946741 11.0625ZM0.92018 11.4375L1.33601 11.7151L0.92018 11.4375ZM0.669808 11.8125L0.253973 11.5349L0.669808 11.8125ZM0.501266 12.5625L0.00274422 12.5241L0.501266 12.5625ZM0.595743 12.9375L1.02808 12.6863L0.595743 12.9375ZM0.813601 13.3125L0.381265 13.5637L0.813601 13.3125ZM0.865259 13.6875L1.34345 13.8336L0.865259 13.6875ZM0.807987 13.875L0.329797 13.7289L0.807987 13.875ZM0.767297 14.4375L1.23251 14.2543L0.767297 14.4375ZM0.915003 14.8125L0.44979 14.9957L0.915003 14.8125ZM0.962802 15.5625L0.463337 15.5394L0.962802 15.5625ZM0.895742 15.9375L0.418344 15.7889L0.895742 15.9375ZM0.837368 16.125L0.359969 15.9764L0.837368 16.125ZM0.778994 16.3125L0.301595 16.1639L0.778994 16.3125ZM0.567067 17.0625L0.0847164 16.9308L0.567067 17.0625ZM0.623401 17.4375L0.189654 17.6862L0.623401 17.4375ZM0.838438 17.8125L1.27218 17.5638L0.838438 17.8125ZM0.878763 18.1875L1.34945 18.3562L0.878763 18.1875ZM0.811571 18.375L0.340882 18.2063L0.811571 18.375ZM0.684721 19.6875L0.233916 19.9038L0.684721 19.6875ZM0.864627 20.0625L1.31543 19.8462V19.8462L0.864627 20.0625ZM0.805204 20.625L0.3407 20.44L0.805204 20.625ZM0.702361 21.1875L0.217082 21.3079L0.702361 21.1875ZM0.795427 21.5625L1.28071 21.4421L0.795427 21.5625ZM0.669096 22.3125L0.191156 22.1656L0.669096 22.3125ZM0.712885 22.6875L0.273089 22.9254L0.712885 22.6875ZM0.915705 23.0625L1.3555 22.8246L0.915705 23.0625ZM0.949431 23.4375L1.41973 23.6073L0.949431 23.4375ZM0.814061 23.8125L0.343765 23.6427L0.814061 23.8125ZM0.747901 24.1875L0.247918 24.1916L0.747901 24.1875ZM0.75095 24.5625L1.25093 24.5584L0.75095 24.5625ZM0.824631 24.9375L1.29127 24.7579L0.824631 24.9375ZM0.738194 26.4375L1.20316 26.2536L0.738194 26.4375ZM0.886478 26.8125L0.421509 26.9964L0.886478 26.8125ZM0.509579 28.3125L0.0102455 28.2867L0.509579 28.3125ZM0.55739 28.6875L1.03541 28.5409L0.55739 28.6875ZM0.784478 29.4375L1.26455 29.2978L0.784478 29.4375ZM0.893636 29.8125L0.413562 29.9522L0.893636 29.8125ZM0.84791 30.1875L0.407033 29.9516L0.84791 30.1875ZM0.845721 31.3125L1.28731 31.078L0.845721 31.3125ZM0.936254 31.6875L0.436834 31.6634L0.936254 31.6875ZM0.918167 32.0625L1.41759 32.0866L0.918167 32.0625ZM0.822666 32.4375L1.27672 32.6469L0.822666 32.4375ZM0.64975 32.8125L0.195696 32.6031L0.64975 32.8125ZM0.632345 33.9375L1.10494 33.7742L0.632345 33.9375ZM0.761889 34.3125L1.23448 34.1492L0.761889 34.3125ZM0.642294 35.4375L0.159867 35.5689L0.642294 35.4375ZM0.744428 35.8125L1.22686 35.6811L0.744428 35.8125ZM0.689823 36.5625L0.19842 36.4702L0.689823 36.5625ZM0.816581 37.6875L1.30671 37.5886L0.816581 37.6875ZM0.892216 38.0625L1.38235 37.9636L0.892216 38.0625ZM0.617378 39.1875L0.161998 39.394L0.617378 39.1875ZM0.787402 39.5625L1.24278 39.356L0.787402 39.5625ZM0.902203 39.9375L0.408396 40.016L0.902203 39.9375ZM0.931991 40.125L1.4258 40.0465L0.931991 40.125ZM0.96178 40.3125L1.45559 40.234L0.96178 40.3125ZM0.656714 41.8125L1.14765 41.7177L0.656714 41.8125ZM0.754663 42.1875L0.279758 42.3439L0.754663 42.1875ZM0.878174 42.5625L1.35308 42.4061L0.878174 42.5625ZM0.83823 42.9375L1.27774 43.1759L0.83823 42.9375ZM0.634831 43.3125L1.07434 43.5509L0.634831 43.3125ZM0.818236 44.8125L1.26197 44.5821L0.818236 44.8125ZM0.909877 45.1875L1.40964 45.2028L0.909877 45.1875ZM0.898408 45.5625L0.398642 45.5472L0.898408 45.5625ZM0.849171 45.9375L0.362109 45.8245L0.849171 45.9375ZM0.923339 47.0625L1.3932 46.8915L0.923339 47.0625ZM0.840516 47.625L0.376726 47.4382L0.840516 47.625ZM0.678417 48.1875L1.17755 48.2169L0.678417 48.1875ZM0.656318 48.5625L0.157184 48.5331L0.656318 48.5625ZM0.743858 48.9375L1.18641 48.7048L0.743858 48.9375ZM1.04542 49.625L0.545958 49.6482L1.04542 49.625ZM1.05702 49.875L0.557553 49.8982L1.05702 49.875ZM0.924472 50L0.63156 50.4052L0.762682 50.5L0.924472 50.5L0.924472 50ZM0.786131 49.9L1.07904 49.4948L0.286131 48.9216L0.286131 49.9L0.786131 49.9ZM0.786133 2.18557e-08L0.286133 0L0.286133 0.1L0.786133 0.1L1.28613 0.1L1.28613 4.37114e-08L0.786133 2.18557e-08ZM0.786133 0.1L0.288916 0.0473145L0.254479 0.372314L0.751695 0.425L1.24891 0.477686L1.28335 0.152686L0.786133 0.1ZM0.751695 0.425L0.254479 0.372314C0.230161 0.601818 0.220808 0.811019 0.237384 0.98494L0.735129 0.9375L1.23287 0.89006C1.22562 0.813981 1.22731 0.681516 1.24891 0.477686L0.751695 0.425ZM0.735129 0.9375L0.237384 0.98494L0.255255 1.17244L0.752999 1.125L1.25074 1.07756L1.23287 0.89006L0.735129 0.9375ZM0.752999 1.125L0.255255 1.17244L0.273125 1.35994L0.77087 1.3125L1.26861 1.26506L1.25074 1.07756L0.752999 1.125ZM0.77087 1.3125L0.273125 1.35994C0.283836 1.47231 0.290228 1.58459 0.292315 1.6968L0.792229 1.6875L1.29214 1.6782C1.28958 1.54041 1.28173 1.40269 1.26861 1.26506L0.77087 1.3125ZM0.792229 1.6875L0.292315 1.6968L0.295804 1.8843L0.795717 1.875L1.29563 1.8657L1.29214 1.6782L0.792229 1.6875ZM0.795717 1.875L0.295804 1.8843L0.299292 2.0718L0.799206 2.0625L1.29912 2.0532L1.29563 1.8657L0.795717 1.875ZM0.799206 2.0625L0.299292 2.0718C0.301592 2.19538 0.303364 2.31896 0.30461 2.44254L0.804585 2.4375L1.30456 2.43246C1.30328 2.30604 1.30147 2.17962 1.29912 2.0532L0.799206 2.0625ZM0.804585 2.4375L0.30461 2.44254L0.3065 2.63004L0.806475 2.625L1.30645 2.61996L1.30456 2.43246L0.804585 2.4375ZM0.806475 2.625L0.3065 2.63004L0.308391 2.81754L0.808365 2.8125L1.30834 2.80746L1.30645 2.61996L0.806475 2.625ZM0.808365 2.8125L0.308391 2.81754C0.310249 3.00186 0.344416 3.18218 0.407019 3.3565L0.877593 3.1875L1.34817 3.0185C1.32099 2.94282 1.309 2.87314 1.30834 2.80746L0.808365 2.8125ZM0.877593 3.1875L0.407019 3.3565L0.474356 3.544L0.94493 3.375L1.4155 3.206L1.34817 3.0185L0.877593 3.1875ZM0.94493 3.375L0.474356 3.544L0.541693 3.7315L1.01227 3.5625L1.48284 3.3935L1.4155 3.206L0.94493 3.375ZM1.01227 3.5625L0.541693 3.7315C0.541903 3.73208 0.541082 3.72992 0.540451 3.7254C0.539808 3.72079 0.539611 3.71551 0.540035 3.7102C0.540455 3.70494 0.541336 3.70149 0.541675 3.70036C0.541977 3.69935 0.541423 3.7016 0.538503 3.70722L0.982319 3.9375L1.42613 4.16778C1.55076 3.92758 1.57788 3.65813 1.48284 3.3935L1.01227 3.5625ZM0.982319 3.9375L0.538503 3.70722L0.441217 3.89472L0.885033 4.125L1.32885 4.35528L1.42613 4.16778L0.982319 3.9375ZM0.885033 4.125L0.441217 3.89472L0.343932 4.08222L0.787748 4.3125L1.23156 4.54278L1.32885 4.35528L0.885033 4.125ZM0.787748 4.3125L0.343932 4.08222C0.237363 4.28762 0.188033 4.51592 0.220482 4.7548L0.715932 4.6875L1.21138 4.6202C1.20987 4.60908 1.20842 4.58738 1.23156 4.54278L0.787748 4.3125ZM0.715932 4.6875L0.220482 4.7548L0.245952 4.9423L0.741402 4.875L1.23685 4.8077L1.21138 4.6202L0.715932 4.6875ZM0.741402 4.875L0.245952 4.9423L0.271422 5.1298L0.766871 5.0625L1.26232 4.9952L1.23685 4.8077L0.741402 4.875ZM0.766871 5.0625L0.271422 5.1298C0.289941 5.26614 0.313199 5.40229 0.341165 5.53824L0.830911 5.4375L1.32066 5.33676C1.2972 5.22271 1.27776 5.10886 1.26232 4.9952L0.766871 5.0625ZM0.830911 5.4375L0.341165 5.53824L0.379735 5.72574L0.86948 5.625L1.35923 5.52426L1.32066 5.33676L0.830911 5.4375ZM0.86948 5.625L0.379735 5.72574L0.418304 5.91324L0.90805 5.8125L1.3978 5.71176L1.35923 5.52426L0.86948 5.625ZM0.90805 5.8125L0.418304 5.91324C0.424952 5.94556 0.424021 5.97819 0.408929 6.02089L0.880354 6.1875L1.35178 6.35411C1.42504 6.14681 1.44257 5.92944 1.3978 5.71176L0.90805 5.8125ZM0.880354 6.1875L0.408929 6.02089L0.342664 6.20839L0.814088 6.375L1.28551 6.54161L1.35178 6.35411L0.880354 6.1875ZM0.814088 6.375L0.342664 6.20839L0.276398 6.39589L0.747823 6.5625L1.21925 6.72911L1.28551 6.54161L0.814088 6.375ZM0.747823 6.5625L0.276398 6.39589C0.195344 6.62524 0.192689 6.86464 0.269988 7.09597L0.744212 6.9375L1.21844 6.77903C1.2122 6.76036 1.21195 6.74976 1.21925 6.72911L0.747823 6.5625ZM0.744212 6.9375L0.269988 7.09597L0.332643 7.28347L0.806867 7.125L1.28109 6.96653L1.21844 6.77903L0.744212 6.9375ZM0.806867 7.125L0.332643 7.28347L0.395298 7.47097L0.869522 7.3125L1.34375 7.15403L1.28109 6.96653L0.806867 7.125ZM0.869522 7.3125L0.395298 7.47097C0.40496 7.49988 0.404802 7.52002 0.397237 7.54557L0.876671 7.6875L1.3561 7.82943C1.42255 7.60498 1.41762 7.37512 1.34375 7.15403L0.869522 7.3125ZM0.876671 7.6875L0.397237 7.54557L0.341731 7.73307L0.821164 7.875L1.3006 8.01693L1.3561 7.82943L0.876671 7.6875ZM0.821164 7.875L0.341731 7.73307L0.286224 7.92057L0.765658 8.0625L1.24509 8.20443L1.3006 8.01693L0.821164 7.875ZM0.765658 8.0625L0.286224 7.92057C0.247538 8.05125 0.211352 8.18202 0.177674 8.31288L0.661894 8.4375L1.14611 8.56212C1.17678 8.44298 1.20977 8.32375 1.24509 8.20443L0.765658 8.0625ZM0.661894 8.4375L0.177674 8.31288L0.129418 8.50038L0.613638 8.625L1.09786 8.74962L1.14611 8.56212L0.661894 8.4375ZM0.613638 8.625L0.129418 8.50038L0.0811608 8.68788L0.565381 8.8125L1.0496 8.93712L1.09786 8.74962L0.613638 8.625ZM0.565381 8.8125L0.0811608 8.68788C0.0306813 8.88401 0.0241532 9.08438 0.0631 9.28349L0.5538 9.1875L1.0445 9.09152C1.03455 9.04062 1.03574 8.99099 1.0496 8.93712L0.565381 8.8125ZM0.5538 9.1875L0.0631 9.28349L0.0997765 9.47099L0.590477 9.375L1.08118 9.27901L1.0445 9.09152L0.5538 9.1875ZM0.590477 9.375L0.0997765 9.47099L0.136453 9.65848L0.627153 9.5625L1.11785 9.46651L1.08118 9.27901L0.590477 9.375ZM0.627153 9.5625L0.136453 9.65848C0.154291 9.74968 0.162206 9.83962 0.160663 9.92886L0.660589 9.9375L1.16051 9.94614C1.16329 9.78538 1.14892 9.62532 1.11785 9.46651L0.627153 9.5625ZM0.660589 9.9375L0.160663 9.92886L0.157422 10.1164L0.657348 10.125L1.15727 10.1336L1.16051 9.94614L0.660589 9.9375ZM0.657348 10.125L0.157422 10.1164L0.154181 10.3039L0.654107 10.3125L1.15403 10.3211L1.15727 10.1336L0.657348 10.125ZM0.654107 10.3125L0.154181 10.3039C0.150389 10.5233 0.207258 10.7307 0.306974 10.9203L0.749491 10.6875L1.19201 10.4547C1.16022 10.3943 1.1535 10.3517 1.15403 10.3211L0.654107 10.3125ZM0.749491 10.6875L0.306974 10.9203L0.405599 11.1078L0.848116 10.875L1.29063 10.6422L1.19201 10.4547L0.749491 10.6875ZM0.848116 10.875L0.405599 11.1078L0.504224 11.2953L0.946741 11.0625L1.38926 10.8297L1.29063 10.6422L0.848116 10.875ZM0.946741 11.0625L0.504224 11.2953C0.499418 11.2861 0.487704 11.2564 0.490663 11.2147C0.493487 11.1748 0.50748 11.1552 0.504345 11.1599L0.92018 11.4375L1.33601 11.7151C1.41634 11.5948 1.47649 11.4502 1.48816 11.2853C1.49998 11.1186 1.45981 10.9639 1.38926 10.8297L0.946741 11.0625ZM0.92018 11.4375L0.504345 11.1599L0.379159 11.3474L0.794994 11.625L1.21083 11.9026L1.33601 11.7151L0.92018 11.4375ZM0.794994 11.625L0.379159 11.3474L0.253973 11.5349L0.669808 11.8125L1.08564 12.0901L1.21083 11.9026L0.794994 11.625ZM0.669808 11.8125L0.253973 11.5349C0.132354 11.717 0.0490703 11.923 0.0316486 12.1491L0.53017 12.1875L1.02869 12.2259C1.03054 12.2019 1.04035 12.158 1.08564 12.0901L0.669808 11.8125ZM0.53017 12.1875L0.0316486 12.1491L0.0171964 12.3366L0.515718 12.375L1.01424 12.4134L1.02869 12.2259L0.53017 12.1875ZM0.515718 12.375L0.0171964 12.3366L0.00274422 12.5241L0.501266 12.5625L0.999787 12.6009L1.01424 12.4134L0.515718 12.375ZM0.501266 12.5625L0.00274422 12.5241C-0.0158205 12.7649 0.0479286 12.9899 0.163406 13.1887L0.595743 12.9375L1.02808 12.6863C0.998317 12.6351 0.999082 12.6101 0.999787 12.6009L0.501266 12.5625ZM0.595743 12.9375L0.163406 13.1887L0.272336 13.3762L0.704672 13.125L1.13701 12.8738L1.02808 12.6863L0.595743 12.9375ZM0.704672 13.125L0.272336 13.3762L0.381265 13.5637L0.813601 13.3125L1.24594 13.0613L1.13701 12.8738L0.704672 13.125ZM0.813601 13.3125L0.381265 13.5637C0.38555 13.571 0.386987 13.5749 0.387138 13.5753C0.387243 13.5756 0.386332 13.5731 0.385658 13.5682C0.384971 13.5632 0.384783 13.5576 0.385255 13.552C0.385723 13.5464 0.386678 13.5427 0.387069 13.5414L0.865259 13.6875L1.34345 13.8336C1.42681 13.5606 1.3802 13.2924 1.24594 13.0613L0.813601 13.3125ZM0.865259 13.6875L0.387069 13.5414L0.329797 13.7289L0.807987 13.875L1.28618 14.0211L1.34345 13.8336L0.865259 13.6875ZM0.807987 13.875L0.329797 13.7289L0.272525 13.9164L0.750715 14.0625L1.22891 14.2086L1.28618 14.0211L0.807987 13.875ZM0.750715 14.0625L0.272525 13.9164C0.200348 14.1527 0.212684 14.3938 0.302084 14.6207L0.767297 14.4375L1.23251 14.2543C1.22344 14.2312 1.22472 14.2223 1.22891 14.2086L0.750715 14.0625ZM0.767297 14.4375L0.302084 14.6207L0.375937 14.8082L0.84115 14.625L1.30636 14.4418L1.23251 14.2543L0.767297 14.4375ZM0.84115 14.625L0.375937 14.8082L0.44979 14.9957L0.915003 14.8125L1.38022 14.6293L1.30636 14.4418L0.84115 14.625ZM0.915003 14.8125L0.44979 14.9957C0.475116 15.06 0.482999 15.1149 0.480707 15.1644L0.980172 15.1875L1.47964 15.2106C1.48892 15.0101 1.45336 14.815 1.38022 14.6293L0.915003 14.8125ZM0.980172 15.1875L0.480707 15.1644L0.472022 15.3519L0.971487 15.375L1.47095 15.3981L1.47964 15.2106L0.980172 15.1875ZM0.971487 15.375L0.472022 15.3519L0.463337 15.5394L0.962802 15.5625L1.46227 15.5856L1.47095 15.3981L0.971487 15.375ZM0.962802 15.5625L0.463337 15.5394C0.45961 15.6198 0.445169 15.7027 0.418344 15.7889L0.895742 15.9375L1.37314 16.0861C1.42415 15.9223 1.45441 15.7552 1.46227 15.5856L0.962802 15.5625ZM0.895742 15.9375L0.418344 15.7889L0.359969 15.9764L0.837368 16.125L1.31477 16.2736L1.37314 16.0861L0.895742 15.9375ZM0.837368 16.125L0.359969 15.9764L0.301595 16.1639L0.778994 16.3125L1.25639 16.4611L1.31477 16.2736L0.837368 16.125ZM0.778994 16.3125L0.301595 16.1639C0.260946 16.2944 0.222774 16.4251 0.187084 16.5558L0.669435 16.6875L1.15179 16.8192C1.18434 16.6999 1.21921 16.5806 1.25639 16.4611L0.778994 16.3125ZM0.669435 16.6875L0.187084 16.5558L0.1359 16.7433L0.618251 16.875L1.1006 17.0067L1.15179 16.8192L0.669435 16.6875ZM0.618251 16.875L0.1359 16.7433L0.0847164 16.9308L0.567067 17.0625L1.04942 17.1942L1.1006 17.0067L0.618251 16.875ZM0.567067 17.0625L0.0847164 16.9308C0.0115164 17.199 0.0599783 17.4601 0.189654 17.6862L0.623401 17.4375L1.05715 17.1888C1.05243 17.1805 1.05041 17.1755 1.04973 17.1736C1.04909 17.1719 1.04955 17.1727 1.05001 17.1757C1.05048 17.1789 1.05071 17.1828 1.05045 17.1869C1.0502 17.191 1.04959 17.1935 1.04942 17.1942L0.567067 17.0625ZM0.623401 17.4375L0.189654 17.6862L0.297172 17.8737L0.73092 17.625L1.16467 17.3763L1.05715 17.1888L0.623401 17.4375ZM0.73092 17.625L0.297172 17.8737L0.404691 18.0612L0.838438 17.8125L1.27218 17.5638L1.16467 17.3763L0.73092 17.625ZM0.838438 17.8125L0.404691 18.0612C0.411127 18.0724 0.406824 18.0691 0.405144 18.0535C0.40436 18.0462 0.404441 18.0386 0.405327 18.0315C0.4062 18.0246 0.407592 18.0202 0.408074 18.0188L0.878763 18.1875L1.34945 18.3562C1.44821 18.0806 1.40967 17.8035 1.27218 17.5638L0.838438 17.8125ZM0.878763 18.1875L0.408074 18.0188L0.340882 18.2063L0.811571 18.375L1.28226 18.5437L1.34945 18.3562L0.878763 18.1875ZM0.811571 18.375L0.340882 18.2063L0.273689 18.3938L0.744378 18.5625L1.21507 18.7312L1.28226 18.5437L0.811571 18.375ZM0.744378 18.5625L0.273689 18.3938C0.216421 18.5536 0.177818 18.7169 0.159573 18.8829L0.656581 18.9375L1.15359 18.9921C1.16282 18.9081 1.18274 18.8214 1.21507 18.7312L0.744378 18.5625ZM0.656581 18.9375L0.159573 18.8829L0.138969 19.0704L0.635977 19.125L1.13298 19.1796L1.15359 18.9921L0.656581 18.9375ZM0.635977 19.125L0.138969 19.0704L0.118364 19.2579L0.615372 19.3125L1.11238 19.3671L1.13298 19.1796L0.635977 19.125ZM0.615372 19.3125L0.118364 19.2579C0.0933964 19.4851 0.137827 19.7035 0.233916 19.9038L0.684721 19.6875L1.13553 19.4712C1.11168 19.4215 1.10988 19.3899 1.11238 19.3671L0.615372 19.3125ZM0.684721 19.6875L0.233916 19.9038L0.323869 20.0913L0.774674 19.875L1.22548 19.6587L1.13553 19.4712L0.684721 19.6875ZM0.774674 19.875L0.323869 20.0913L0.413822 20.2788L0.864627 20.0625L1.31543 19.8462L1.22548 19.6587L0.774674 19.875ZM0.864627 20.0625L0.413822 20.2788C0.415918 20.2831 0.41596 20.2842 0.41543 20.2822C0.414867 20.28 0.41406 20.2759 0.413834 20.2703C0.413607 20.2648 0.414047 20.2597 0.414753 20.2557C0.415442 20.2519 0.416098 20.2507 0.415388 20.2525L0.879892 20.4375L1.3444 20.6225C1.44765 20.3633 1.43376 20.0929 1.31543 19.8462L0.864627 20.0625ZM0.879892 20.4375L0.415388 20.2525L0.3407 20.44L0.805204 20.625L1.26971 20.81L1.3444 20.6225L0.879892 20.4375ZM0.805204 20.625L0.3407 20.44L0.266012 20.6275L0.730516 20.8125L1.19502 20.9975L1.26971 20.81L0.805204 20.625ZM0.730516 20.8125L0.266012 20.6275C0.179366 20.845 0.159699 21.0767 0.217082 21.3079L0.702361 21.1875L1.18764 21.0671C1.18298 21.0483 1.18208 21.03 1.19502 20.9975L0.730516 20.8125ZM0.702361 21.1875L0.217082 21.3079L0.263615 21.4954L0.748894 21.375L1.23417 21.2546L1.18764 21.0671L0.702361 21.1875ZM0.748894 21.375L0.263615 21.4954L0.310149 21.6829L0.795427 21.5625L1.28071 21.4421L1.23417 21.2546L0.748894 21.375ZM0.795427 21.5625L0.310149 21.6829C0.318951 21.7184 0.318574 21.751 0.306399 21.7906L0.784339 21.9375L1.26228 22.0844C1.32693 21.874 1.33395 21.6566 1.28071 21.4421L0.795427 21.5625ZM0.784339 21.9375L0.306399 21.7906L0.248777 21.9781L0.726718 22.125L1.20466 22.2719L1.26228 22.0844L0.784339 21.9375ZM0.726718 22.125L0.248777 21.9781L0.191156 22.1656L0.669096 22.3125L1.14704 22.4594L1.20466 22.2719L0.726718 22.125ZM0.669096 22.3125L0.191156 22.1656C0.109729 22.4306 0.147808 22.6937 0.273089 22.9254L0.712885 22.6875L1.15268 22.4496C1.1488 22.4425 1.14739 22.4385 1.1471 22.4376C1.14684 22.4368 1.14744 22.4384 1.14786 22.442C1.14829 22.4457 1.14834 22.4498 1.14797 22.4537C1.1476 22.4575 1.14698 22.4596 1.14704 22.4594L0.669096 22.3125ZM0.712885 22.6875L0.273089 22.9254L0.374499 23.1129L0.814295 22.875L1.25409 22.6371L1.15268 22.4496L0.712885 22.6875ZM0.814295 22.875L0.374499 23.1129L0.475909 23.3004L0.915705 23.0625L1.3555 22.8246L1.25409 22.6371L0.814295 22.875ZM0.915705 23.0625L0.475909 23.3004C0.478967 23.306 0.479447 23.3081 0.478996 23.3066C0.478501 23.3051 0.477406 23.301 0.476851 23.2948C0.476291 23.2886 0.476467 23.2823 0.477234 23.2766C0.477988 23.271 0.479061 23.2679 0.479135 23.2677L0.949431 23.4375L1.41973 23.6073C1.51689 23.3381 1.48559 23.0652 1.3555 22.8246L0.915705 23.0625ZM0.949431 23.4375L0.479135 23.2677L0.41145 23.4552L0.881746 23.625L1.35204 23.7948L1.41973 23.6073L0.949431 23.4375ZM0.881746 23.625L0.41145 23.4552L0.343765 23.6427L0.814061 23.8125L1.28436 23.9823L1.35204 23.7948L0.881746 23.625ZM0.814061 23.8125L0.343765 23.6427C0.279805 23.8199 0.24639 24.0037 0.247918 24.1916L0.747901 24.1875L1.24788 24.1834C1.24738 24.1213 1.25807 24.0551 1.28436 23.9823L0.814061 23.8125ZM0.747901 24.1875L0.247918 24.1916L0.249442 24.3791L0.749426 24.375L1.24941 24.3709L1.24788 24.1834L0.747901 24.1875ZM0.749426 24.375L0.249442 24.3791L0.250967 24.5666L0.75095 24.5625L1.25093 24.5584L1.24941 24.3709L0.749426 24.375ZM0.75095 24.5625L0.250967 24.5666C0.252505 24.7558 0.289877 24.9401 0.357992 25.1171L0.824631 24.9375L1.29127 24.7579C1.26318 24.6849 1.25143 24.6192 1.25093 24.5584L0.75095 24.5625ZM0.824631 24.9375L0.357992 25.1171L0.430147 25.3046L0.896786 25.125L1.36343 24.9454L1.29127 24.7579L0.824631 24.9375ZM0.896786 25.125L0.430147 25.3046L0.502303 25.4921L0.968942 25.3125L1.43558 25.1329L1.36343 24.9454L0.896786 25.125ZM0.968942 25.3125L0.502303 25.4921C0.502702 25.4931 0.501864 25.4912 0.501127 25.4867C0.500373 25.482 0.500013 25.4765 0.50036 25.4706C0.500704 25.4647 0.501629 25.4606 0.502189 25.4586C0.502712 25.4567 0.502536 25.4581 0.500111 25.4629L0.946836 25.6875L1.39356 25.9121C1.5165 25.6675 1.53679 25.3959 1.43558 25.1329L0.968942 25.3125ZM0.946836 25.6875L0.500111 25.4629L0.40585 25.6504L0.852575 25.875L1.2993 26.0996L1.39356 25.9121L0.946836 25.6875ZM0.852575 25.875L0.40585 25.6504L0.311588 25.8379L0.758313 26.0625L1.20504 26.2871L1.2993 26.0996L0.852575 25.875ZM0.758313 26.0625L0.311588 25.8379C0.187708 26.0843 0.16901 26.3578 0.273225 26.6214L0.738194 26.4375L1.20316 26.2536C1.20276 26.2526 1.20368 26.2547 1.2045 26.2595C1.20534 26.2644 1.20578 26.2704 1.20543 26.2768C1.2051 26.2831 1.2041 26.2878 1.20342 26.2903C1.20277 26.2926 1.20277 26.2916 1.20504 26.2871L0.758313 26.0625ZM0.738194 26.4375L0.273225 26.6214L0.347367 26.8089L0.812336 26.625L1.2773 26.4411L1.20316 26.2536L0.738194 26.4375ZM0.812336 26.625L0.347367 26.8089L0.421509 26.9964L0.886478 26.8125L1.35145 26.6286L1.2773 26.4411L0.812336 26.625ZM0.886478 26.8125L0.421509 26.9964C0.421099 26.9953 0.419464 26.9908 0.41829 26.9833C0.417096 26.9756 0.416724 26.967 0.41745 26.9583C0.419006 26.9397 0.424366 26.9334 0.419363 26.9423L0.855129 27.1875L1.29089 27.4327C1.42942 27.1865 1.4604 26.9042 1.35145 26.6286L0.886478 26.8125ZM0.855129 27.1875L0.419363 26.9423L0.313872 27.1298L0.749638 27.375L1.1854 27.6202L1.29089 27.4327L0.855129 27.1875ZM0.749638 27.375L0.313872 27.1298L0.208381 27.3173L0.644147 27.5625L1.07991 27.8077L1.1854 27.6202L0.749638 27.375ZM0.644147 27.5625L0.208381 27.3173C0.105761 27.4997 0.0406189 27.6991 0.0296302 27.9117L0.528964 27.9375L1.0283 27.9633C1.03023 27.9259 1.04188 27.8753 1.07991 27.8077L0.644147 27.5625ZM0.528964 27.9375L0.0296302 27.9117L0.0199379 28.0992L0.519271 28.125L1.0186 28.1508L1.0283 27.9633L0.528964 27.9375ZM0.519271 28.125L0.0199379 28.0992L0.0102455 28.2867L0.509579 28.3125L1.00891 28.3383L1.0186 28.1508L0.519271 28.125ZM0.509579 28.3125L0.0102455 28.2867C0.000638671 28.4725 0.0246919 28.6558 0.0793646 28.8341L0.55739 28.6875L1.03541 28.5409C1.01342 28.4692 1.0056 28.4025 1.00891 28.3383L0.509579 28.3125ZM0.55739 28.6875L0.0793646 28.8341L0.136868 29.0216L0.614893 28.875L1.09292 28.7284L1.03541 28.5409L0.55739 28.6875ZM0.614893 28.875L0.136868 29.0216L0.194371 29.2091L0.672396 29.0625L1.15042 28.9159L1.09292 28.7284L0.614893 28.875ZM0.672396 29.0625L0.194371 29.2091C0.23201 29.3318 0.268687 29.4545 0.304403 29.5772L0.784478 29.4375L1.26455 29.2978C1.2275 29.1705 1.18945 29.0432 1.15042 28.9159L0.672396 29.0625ZM0.784478 29.4375L0.304403 29.5772L0.358983 29.7647L0.839057 29.625L1.31913 29.4853L1.26455 29.2978L0.784478 29.4375ZM0.839057 29.625L0.358983 29.7647L0.413562 29.9522L0.893636 29.8125L1.37371 29.6728L1.31913 29.4853L0.839057 29.625ZM0.893636 29.8125L0.413562 29.9522C0.413736 29.9528 0.413281 29.9514 0.413025 29.9484C0.412764 29.9453 0.412844 29.9422 0.413171 29.9395C0.41349 29.9369 0.413867 29.9362 0.41335 29.9377C0.4128 29.9394 0.411117 29.944 0.407033 29.9516L0.84791 30.1875L1.28879 30.4234C1.4113 30.1943 1.45005 29.935 1.37371 29.6728L0.893636 29.8125ZM0.84791 30.1875L0.407033 29.9516L0.306727 30.1391L0.747604 30.375L1.18848 30.6109L1.28879 30.4234L0.84791 30.1875ZM0.747604 30.375L0.306727 30.1391L0.206421 30.3266L0.647298 30.5625L1.08818 30.7984L1.18848 30.6109L0.747604 30.375ZM0.647298 30.5625L0.206421 30.3266C0.061127 30.5982 0.0603106 30.8996 0.204979 31.172L0.646569 30.9375L1.08816 30.703C1.08785 30.7024 1.09024 30.7068 1.09264 30.7159C1.09511 30.7252 1.09699 30.7373 1.09696 30.751C1.0969 30.7809 1.08816 30.7984 1.08818 30.7984L0.647298 30.5625ZM0.646569 30.9375L0.204979 31.172L0.304555 31.3595L0.746145 31.125L1.18774 30.8905L1.08816 30.703L0.646569 30.9375ZM0.746145 31.125L0.304555 31.3595L0.404131 31.547L0.845721 31.3125L1.28731 31.078L1.18774 30.8905L0.746145 31.125ZM0.845721 31.3125L0.404131 31.547C0.433975 31.6032 0.437985 31.6395 0.436834 31.6634L0.936254 31.6875L1.43567 31.7116C1.44658 31.4855 1.39024 31.2718 1.28731 31.078L0.845721 31.3125ZM0.936254 31.6875L0.436834 31.6634L0.427791 31.8509L0.927211 31.875L1.42663 31.8991L1.43567 31.7116L0.936254 31.6875ZM0.927211 31.875L0.427791 31.8509L0.418748 32.0384L0.918167 32.0625L1.41759 32.0866L1.42663 31.8991L0.927211 31.875ZM0.918167 32.0625L0.418748 32.0384C0.416106 32.0932 0.402071 32.1556 0.368612 32.2281L0.822666 32.4375L1.27672 32.6469C1.35854 32.4694 1.40817 32.2818 1.41759 32.0866L0.918167 32.0625ZM0.822666 32.4375L0.368612 32.2281L0.282154 32.4156L0.736208 32.625L1.19026 32.8344L1.27672 32.6469L0.822666 32.4375ZM0.736208 32.625L0.282154 32.4156L0.195696 32.6031L0.64975 32.8125L1.1038 33.0219L1.19026 32.8344L0.736208 32.625ZM0.64975 32.8125L0.195696 32.6031C0.11052 32.7879 0.0631974 32.985 0.0643699 33.1904L0.564362 33.1875L1.06435 33.1846C1.0641 33.14 1.0737 33.0872 1.1038 33.0219L0.64975 32.8125ZM0.564362 33.1875L0.0643699 33.1904L0.0654404 33.3779L0.565432 33.375L1.06542 33.3721L1.06435 33.1846L0.564362 33.1875ZM0.565432 33.375L0.0654404 33.3779L0.0665108 33.5654L0.566503 33.5625L1.06649 33.5596L1.06542 33.3721L0.565432 33.375ZM0.566503 33.5625L0.0665108 33.5654C0.0675538 33.7481 0.0997776 33.9272 0.159749 34.1008L0.632345 33.9375L1.10494 33.7742C1.07855 33.6978 1.06688 33.6269 1.06649 33.5596L0.566503 33.5625ZM0.632345 33.9375L0.159749 34.1008L0.224521 34.2883L0.697117 34.125L1.16971 33.9617L1.10494 33.7742L0.632345 33.9375ZM0.697117 34.125L0.224521 34.2883L0.289293 34.4758L0.761889 34.3125L1.23448 34.1492L1.16971 33.9617L0.697117 34.125ZM0.761889 34.3125L0.289293 34.4758C0.29788 34.5006 0.297612 34.5159 0.290755 34.5377L0.767802 34.6875L1.24485 34.8372C1.31647 34.6091 1.31226 34.3744 1.23448 34.1492L0.761889 34.3125ZM0.767802 34.6875L0.290755 34.5377L0.231896 34.7252L0.708944 34.875L1.18599 35.0247L1.24485 34.8372L0.767802 34.6875ZM0.708944 34.875L0.231896 34.7252L0.173037 34.9127L0.650085 35.0625L1.12713 35.2122L1.18599 35.0247L0.708944 34.875ZM0.650085 35.0625L0.173037 34.9127C0.10549 35.1279 0.100384 35.3505 0.159867 35.5689L0.642294 35.4375L1.12472 35.3061C1.11611 35.2745 1.1162 35.2471 1.12713 35.2122L0.650085 35.0625ZM0.642294 35.4375L0.159867 35.5689L0.210934 35.7564L0.693361 35.625L1.17579 35.4936L1.12472 35.3061L0.642294 35.4375ZM0.693361 35.625L0.210934 35.7564L0.262001 35.9439L0.744428 35.8125L1.22686 35.6811L1.17579 35.4936L0.693361 35.625ZM0.744428 35.8125L0.262001 35.9439C0.276564 35.9974 0.278128 36.0459 0.268867 36.0952L0.760271 36.1875L1.25168 36.2798C1.28938 36.0791 1.28038 35.8776 1.22686 35.6811L0.744428 35.8125ZM0.760271 36.1875L0.268867 36.0952L0.233643 36.2827L0.725047 36.375L1.21645 36.4673L1.25168 36.2798L0.760271 36.1875ZM0.725047 36.375L0.233643 36.2827L0.19842 36.4702L0.689823 36.5625L1.18123 36.6548L1.21645 36.4673L0.725047 36.375ZM0.689823 36.5625L0.19842 36.4702C0.164189 36.6524 0.162078 36.8363 0.192355 37.0192L0.68564 36.9375L1.17893 36.8558C1.16781 36.7887 1.16849 36.7226 1.18123 36.6548L0.689823 36.5625ZM0.68564 36.9375L0.192355 37.0192L0.223395 37.2067L0.716681 37.125L1.20997 37.0433L1.17893 36.8558L0.68564 36.9375ZM0.716681 37.125L0.223395 37.2067L0.254436 37.3942L0.747722 37.3125L1.24101 37.2308L1.20997 37.0433L0.716681 37.125ZM0.747722 37.3125L0.254436 37.3942C0.276088 37.5249 0.300094 37.6557 0.326451 37.7864L0.816581 37.6875L1.30671 37.5886C1.28264 37.4693 1.26074 37.3501 1.24101 37.2308L0.747722 37.3125ZM0.816581 37.6875L0.326451 37.7864L0.364269 37.9739L0.854399 37.875L1.34453 37.7761L1.30671 37.5886L0.816581 37.6875ZM0.854399 37.875L0.364269 37.9739L0.402086 38.1614L0.892216 38.0625L1.38235 37.9636L1.34453 37.7761L0.854399 37.875ZM0.892216 38.0625L0.402086 38.1614C0.402818 38.165 0.402736 38.1665 0.402338 38.169C0.401826 38.1721 0.399544 38.1831 0.388872 38.2033L0.830617 38.4375L1.27236 38.6717C1.38646 38.4565 1.43294 38.2145 1.38235 37.9636L0.892216 38.0625ZM0.830617 38.4375L0.388872 38.2033L0.289455 38.3908L0.7312 38.625L1.17295 38.8592L1.27236 38.6717L0.830617 38.4375ZM0.7312 38.625L0.289455 38.3908L0.190038 38.5783L0.631783 38.8125L1.07353 39.0467L1.17295 38.8592L0.7312 38.625ZM0.631783 38.8125L0.190038 38.5783C0.0538129 38.8352 0.0390863 39.1229 0.161998 39.394L0.617378 39.1875L1.07276 38.981C1.07269 38.9809 1.07442 38.9847 1.07597 38.9922C1.07755 38.9998 1.07849 39.0091 1.0781 39.0192C1.07726 39.0411 1.07097 39.0516 1.07353 39.0467L0.631783 38.8125ZM0.617378 39.1875L0.161998 39.394L0.24701 39.5815L0.70239 39.375L1.15777 39.1685L1.07276 38.981L0.617378 39.1875ZM0.70239 39.375L0.24701 39.5815L0.332022 39.769L0.787402 39.5625L1.24278 39.356L1.15777 39.1685L0.70239 39.375ZM0.787402 39.5625L0.332022 39.769C0.371763 39.8566 0.396123 39.9387 0.408396 40.016L0.902203 39.9375L1.39601 39.859C1.36856 39.6863 1.31639 39.5184 1.24278 39.356L0.787402 39.5625ZM0.902203 39.9375L0.408396 40.016L0.438185 40.2035L0.931991 40.125L1.4258 40.0465L1.39601 39.859L0.902203 39.9375ZM0.931991 40.125L0.438185 40.2035L0.467973 40.391L0.96178 40.3125L1.45559 40.234L1.4258 40.0465L0.931991 40.125ZM0.96178 40.3125L0.467973 40.391C0.468084 40.3916 0.468264 40.3917 0.467697 40.3943C0.466936 40.3979 0.463615 40.4105 0.450311 40.433L0.88071 40.6875L1.31111 40.942C1.43505 40.7323 1.49636 40.4907 1.45559 40.234L0.96178 40.3125ZM0.88071 40.6875L0.450311 40.433L0.339452 40.6205L0.769852 40.875L1.20025 41.1295L1.31111 40.942L0.88071 40.6875ZM0.769852 40.875L0.339452 40.6205L0.228594 40.808L0.658994 41.0625L1.08939 41.317L1.20025 41.1295L0.769852 40.875ZM0.658994 41.0625L0.228594 40.808C0.101871 41.0224 0.0428642 41.2705 0.0933908 41.5323L0.584328 41.4375L1.07527 41.3427C1.07524 41.3426 1.07543 41.3436 1.07542 41.3453C1.07542 41.3469 1.07523 41.3479 1.07527 41.3476C1.07529 41.3475 1.07719 41.3376 1.08939 41.317L0.658994 41.0625ZM0.584328 41.4375L0.0933908 41.5323L0.129584 41.7198L0.620521 41.625L1.11146 41.5302L1.07527 41.3427L0.584328 41.4375ZM0.620521 41.625L0.129584 41.7198L0.165777 41.9073L0.656714 41.8125L1.14765 41.7177L1.11146 41.5302L0.620521 41.625ZM0.656714 41.8125L0.165777 41.9073C0.194067 42.0538 0.232162 42.1994 0.279758 42.3439L0.754663 42.1875L1.22957 42.0311C1.19482 41.9256 1.16762 41.8212 1.14765 41.7177L0.656714 41.8125ZM0.754663 42.1875L0.279758 42.3439L0.341514 42.5314L0.816418 42.375L1.29132 42.2186L1.22957 42.0311L0.754663 42.1875ZM0.816418 42.375L0.341514 42.5314L0.403269 42.7189L0.878174 42.5625L1.35308 42.4061L1.29132 42.2186L0.816418 42.375ZM0.878174 42.5625L0.403269 42.7189C0.403284 42.719 0.403066 42.7183 0.402777 42.717C0.402486 42.7157 0.40216 42.7139 0.401911 42.7116C0.401385 42.7069 0.401369 42.7018 0.401878 42.697C0.40238 42.6923 0.403205 42.6896 0.403271 42.6894C0.403297 42.6894 0.402276 42.6926 0.398719 42.6991L0.83823 42.9375L1.27774 43.1759C1.40533 42.9407 1.44107 42.6732 1.35308 42.4061L0.878174 42.5625ZM0.83823 42.9375L0.398719 42.6991L0.297019 42.8866L0.736531 43.125L1.17604 43.3634L1.27774 43.1759L0.83823 42.9375ZM0.736531 43.125L0.297019 42.8866L0.19532 43.0741L0.634831 43.3125L1.07434 43.5509L1.17604 43.3634L0.736531 43.125ZM0.634831 43.3125L0.19532 43.0741C0.0939911 43.2609 0.0334331 43.4655 0.0313986 43.6828L0.531377 43.6875L1.03135 43.6922C1.03166 43.6595 1.04007 43.6141 1.07434 43.5509L0.634831 43.3125ZM0.531377 43.6875L0.0313986 43.6828L0.0296433 43.8703L0.529621 43.875L1.0296 43.8797L1.03135 43.6922L0.531377 43.6875ZM0.529621 43.875L0.0296433 43.8703L0.027888 44.0578L0.527866 44.0625L1.02784 44.0672L1.0296 43.8797L0.529621 43.875ZM0.527866 44.0625L0.027888 44.0578C0.0258593 44.2745 0.0819815 44.4797 0.179757 44.6679L0.623486 44.4375L1.06722 44.2071C1.03516 44.1453 1.02753 44.1005 1.02784 44.0672L0.527866 44.0625ZM0.623486 44.4375L0.179757 44.6679L0.277132 44.8554L0.720861 44.625L1.16459 44.3946L1.06722 44.2071L0.623486 44.4375ZM0.720861 44.625L0.277132 44.8554L0.374507 45.0429L0.818236 44.8125L1.26197 44.5821L1.16459 44.3946L0.720861 44.625ZM0.818236 44.8125L0.374507 45.0429C0.405125 45.1019 0.411007 45.1429 0.410111 45.1722L0.909877 45.1875L1.40964 45.2028C1.41639 44.9821 1.36118 44.7731 1.26197 44.5821L0.818236 44.8125ZM0.909877 45.1875L0.410111 45.1722L0.404376 45.3597L0.904143 45.375L1.40391 45.3903L1.40964 45.2028L0.909877 45.1875ZM0.904143 45.375L0.404376 45.3597L0.398642 45.5472L0.898408 45.5625L1.39817 45.5778L1.40391 45.3903L0.904143 45.375ZM0.898408 45.5625L0.398642 45.5472C0.395852 45.6385 0.383863 45.7307 0.362109 45.8245L0.849171 45.9375L1.33623 46.0505C1.37248 45.8943 1.39332 45.7365 1.39817 45.5778L0.898408 45.5625ZM0.849171 45.9375L0.362109 45.8245L0.318605 46.012L0.805667 46.125L1.29273 46.238L1.33623 46.0505L0.849171 45.9375ZM0.805667 46.125L0.318605 46.012L0.275102 46.1995L0.762164 46.3125L1.24923 46.4255L1.29273 46.238L0.805667 46.125ZM0.762164 46.3125L0.275102 46.1995C0.223384 46.4224 0.239711 46.646 0.317026 46.8585L0.786887 46.6875L1.25675 46.5165C1.2431 46.479 1.24294 46.4526 1.24923 46.4255L0.762164 46.3125ZM0.786887 46.6875L0.317026 46.8585L0.385252 47.046L0.855113 46.875L1.32497 46.704L1.25675 46.5165L0.786887 46.6875ZM0.855113 46.875L0.385252 47.046L0.453478 47.2335L0.923339 47.0625L1.3932 46.8915L1.32497 46.704L0.855113 46.875ZM0.923339 47.0625L0.453478 47.2335C0.455165 47.2381 0.455629 47.2406 0.455721 47.2411C0.455803 47.2416 0.455705 47.2412 0.455722 47.2403C0.45574 47.2394 0.455845 47.2393 0.455603 47.2405C0.455348 47.2417 0.454537 47.245 0.452251 47.2507L0.916041 47.4375L1.37983 47.6243C1.4756 47.3865 1.48147 47.1341 1.3932 46.8915L0.923339 47.0625ZM0.916041 47.4375L0.452251 47.2507L0.376726 47.4382L0.840516 47.625L1.3043 47.8118L1.37983 47.6243L0.916041 47.4375ZM0.840516 47.625L0.376726 47.4382L0.301202 47.6257L0.764991 47.8125L1.22878 47.9993L1.3043 47.8118L0.840516 47.625ZM0.764991 47.8125L0.301202 47.6257C0.23217 47.7971 0.190067 47.9751 0.179283 48.1581L0.678417 48.1875L1.17755 48.2169C1.1815 48.1499 1.19711 48.0779 1.22878 47.9993L0.764991 47.8125ZM0.678417 48.1875L0.179283 48.1581L0.168233 48.3456L0.667368 48.375L1.1665 48.4044L1.17755 48.2169L0.678417 48.1875ZM0.667368 48.375L0.168233 48.3456L0.157184 48.5331L0.656318 48.5625L1.15545 48.5919L1.1665 48.4044L0.667368 48.375ZM0.656318 48.5625L0.157184 48.5331C0.143802 48.7602 0.198753 48.9752 0.301306 49.1702L0.743858 48.9375L1.18641 48.7048C1.15751 48.6498 1.1541 48.6148 1.15545 48.5919L0.656318 48.5625ZM0.743858 48.9375L0.301306 49.1702L0.399895 49.3577L0.842447 49.125L1.285 48.8923L1.18641 48.7048L0.743858 48.9375ZM0.842447 49.125L0.399895 49.3577L0.498483 49.5452L0.941035 49.3125L1.38359 49.0798L1.285 48.8923L0.842447 49.125ZM0.941035 49.3125L0.498483 49.5452C0.522149 49.5902 0.535343 49.6223 0.542185 49.6428C0.549306 49.6641 0.546712 49.6644 0.545958 49.6482L1.04542 49.625L1.54488 49.6018C1.53605 49.4114 1.46291 49.2307 1.38359 49.0798L0.941035 49.3125ZM1.04542 49.625L0.545958 49.6482L0.551756 49.7732L1.05122 49.75L1.55068 49.7268L1.54488 49.6018L1.04542 49.625ZM1.05122 49.75L0.551756 49.7732L0.557553 49.8982L1.05702 49.875L1.55648 49.8518L1.55068 49.7268L1.05122 49.75ZM1.05702 49.875L0.557553 49.8982C0.557525 49.8975 0.556811 49.8839 0.559929 49.8613C0.562876 49.84 0.571246 49.7956 0.598112 49.7427C0.626707 49.6863 0.677488 49.6184 0.76017 49.5672C0.843225 49.5157 0.927808 49.5 0.993643 49.5L0.993643 50L0.993643 50.5C1.08253 50.5 1.18705 50.4791 1.28692 50.4172C1.38641 50.3555 1.45087 50.2721 1.49003 50.1948C1.55953 50.0578 1.55971 49.9215 1.55648 49.8518L1.05702 49.875ZM0.993643 50L0.993643 49.5L0.924472 49.5L0.924472 50L0.924472 50.5L0.993643 50.5L0.993643 50ZM0.924472 50L1.21738 49.5948L1.07904 49.4948L0.786131 49.9L0.493219 50.3052L0.63156 50.4052L0.924472 50ZM0.786131 49.9L0.286131 49.9L0.286131 50L0.786131 50L1.28613 50L1.28613 49.9L0.786131 49.9Z" fill="black"/>
</svg>
