<svg fill="none" height="14" viewBox="0 0 14 14" width="14" xmlns="http://www.w3.org/2000/svg" xmlns:xlink="http://www.w3.org/1999/xlink"><clipPath id="a"><path d="m0 0h14v14h-14z"/></clipPath><g clip-path="url(#a)"><path d="m13.3438 4.57187c-1.3563-1.225-2.7125-2.47187-4.0688-3.69687-1.99062 3.01875-5.35937 5.70937-8.553125 7.65625-.0875.41562-.175.80937-.284375 1.20313 1.4 1.26872 2.8 2.55932 4.2 3.82812 3.30313-1.8156 6.8031-4.39688 8.925-7.32812-.0656-.54688-.1531-1.09376-.2187-1.66251z" fill="#699635"/><path d="m4.9 11.9437c-1.37813-1.2687-2.75625-2.53745-4.134375-3.78433 3.434375-1.94687 6.321875-4.59375 8.443745-7.72187 1.37813 1.26875 2.75623 2.51562 4.13443 3.78437-2.1219 3.12813-5.00943 5.775-8.4438 7.72183z" fill="#83bf4f"/><path d="m4.54922 11.1124c-.91875-.8312-1.8375-1.68437-2.75625-2.51562.06562-.04375.10937-.06563.175-.10938.175-.10937.21875-.30625.06562-.45937l-.13125-.13125c2.77813-1.70625 5.18438-3.89375 7.06563-6.43125l.13125.13125c.15312.13125.37187.10937.50312-.04375.04375-.04375.06563-.10938.10938-.15313.91878.83125 1.83748 1.68438 2.75628 2.51563-.0438.04375-.0657.10937-.1094.15312-.1313.175-.1094.41563.0437.56875l.1313.13125c-1.8813 2.51563-4.28751 4.70313-7.06563 6.40935l-.13125-.1312c-.15313-.1313-.41563-.1531-.6125-.0438-.06563.0438-.10938.0657-.175.1094zm-2.16563-2.49375c.74375.67813 1.4875 1.35625 2.25313 2.05625.28437-.0875.6125-.0656.875.0656 2.5375-1.61872 4.74688-3.63122 6.51878-5.97185-.1532-.24062-.175-.54687-.0657-.80937-.7437-.67813-1.4875-1.35625-2.25308-2.05625-.19688.175-.48125.19687-.72188.06562-1.77187 2.3625-3.98125 4.375-6.51875 5.99375.13125.21875.10938.48125-.0875.65625z" fill="#699635"/><path d="m4.37383 8.15928c.24062-.0875.50312-.06563.67812.0875-.10937.0875-.24062.175-.35.2625-.04375-.04375-.15312-.04375-.19687 0-.06563.04375-.0875.10937-.02188.15312.04375.04375.15313.04375.21875 0 .2625-.175.63438-.19687.83125 0 .15313.15313.175.37188.02188.54688.04375.04375.0875.06562.13125.10937-.10938.06563-.21875.15313-.32813.21875-.04375-.04375-.0875-.0875-.13125-.10937-.24062.06562-.50312.04375-.65625-.10938.13125-.0875.24063-.15312.37188-.24062.04375.04375.15312.04375.21875 0 .06562-.04375.06562-.10938.02187-.15313s-.13125-.04375-.19687 0c-.15313.10938-.35.15313-.525.13125-.13125-.02187-.24063-.06562-.32813-.13125-.15312-.15312-.15312-.35-.02187-.525-.04375-.02187-.06563-.06562-.10938-.10937.10938-.06563.21875-.15313.32813-.21875-.02188.02187.02187.04375.04375.0875zm5.075-4.68125c.19687-.13125.4375-.13125.59067.02187l-.26255.32813c-.04375-.04375-.13125-.04375-.175.02187-.04375.06563-.04375.15313 0 .19688s.13125.04375.175-.02188c.19688-.24062.52505-.28437.72185-.10937.1532.15312.1969.39375.1094.6125.0438.04375.0875.06562.1313.10937-.0875.10938-.1532.19688-.2407.30625-.0437-.04375-.0875-.0875-.1312-.10937-.1969.10937-.41565.10937-.56877-.04375.0875-.10938.19687-.21875.28437-.32813.0438.04375.1313.04375.175-.02187.0438-.06563.0438-.15313 0-.19688-.0437-.04375-.1312-.04375-.175.02188-.10937.13125-.28437.21875-.4375.21875-.10937 0-.21875-.04375-.30625-.10938-.15312-.15312-.19687-.37187-.10937-.59062-.04375-.02188-.06563-.06563-.10938-.10938.0875-.0875.175-.19687.24063-.30625 0 .04375.04375.06563.0875.10938zm-.65625 4.2875c-.7.63437-1.88125.6125-2.55938 0-.67812-.63438-.63437-1.61875.06563-2.25313.7-.63437 1.79375-.7 2.47187-.06562.7.6125.72188 1.68437.02188 2.31875z" fill="#699635"/><path d="m4.76953 5.35942 4.13438 3.78438c.48125-.39375.91875-.80938 1.35629-1.24688l-4.11254-3.78437c-.4375.41562-.89688.83125-1.37813 1.24687z" fill="#ffdd7d"/><path d="m8.92578 10.8063c.45938-.35.91875-.7219 1.35622-1.0938v-1.8375c-.43747.4375-.89684.85313-1.35622 1.24688z" fill="#dbb471"/><path d="m2.64648 5.40305c.24063-.0875.4375-.21875.63438-.37188.19687-.15312.37187-.30625.56875-.48125.19687-.15312.39375-.32812.6125-.4375.21875-.13125.50312-.19687.74375-.15312-.24063.04375-.45938.15312-.65625.30625-.19688.13125-.37188.30625-.56875.45937-.19688.15313-.39375.32813-.6125.45938s-.48125.21875-.72188.21875z" fill="#8d9998"/><path d="m8.70635 7.24057s1.07187.30625 3.56565-.35c2.4937-.65625 1.3125 6.51873-3.23752 6.51873-.50313 0-.52501-.6344.875-1.7719 0 0-1.96875.4594-1.11563-1.0062 0 0-1.4.2406-.76562-.87501 0 0 .28437-.83125.02187-1.77187.02188 0 .175-.48125.65625-.74375z" fill="#e8e8e8"/><path d="m13.4539 7.59058c.0437 1.925-1.4875 5.11872-4.52817 5.11872h-.04375c-.28438.4594-.15313.7219.15312.7219 3.4563-.0219 4.9656-4.13437 4.4188-5.84062z" fill="#d1d1d1"/><path d="m11.8782 8.64062c-.6563 2.36248-3.28126 2.55938-3.28126 2.55938-.10938.5031.10937.7219.39375.7219.9625.0218 2.75621-1.575 2.88751-3.28128zm-1.8375 0c-1.55314 2.18748-2.10001 1.37808-2.10001 1.37808-.39375.875.63437.8751.80937.6782.50313-.5469 1.31254-1.6844 1.29064-2.05628z" fill="#d1d1d1"/><path d="m8.86016 12.775c.2625-.35.59062-.6344.91875-.9187.32809-.2844.65629-.5688.98439-.875.3062-.3063.6125-.6563.8312-1.05005.2188-.39375.3282-.85312.2844-1.29063-.0437.43751-.1969.85313-.4375 1.20313-.2406.35005-.525.67815-.8312.98435-.3063.3063-.63442.5907-.94067.9188-.32812.2844-.6125.6344-.80937 1.0281zm-.2625-1.575c.0875-.2406.21875-.4375.37187-.6344.15313-.1969.30625-.3718.48125-.56872.15313-.19688.32813-.39375.4375-.6125.13122-.21875.19692-.50313.15312-.74376-.04374.24063-.15312.45938-.30624.65626-.13125.19687-.30625.37187-.45938.56874-.15312.19688-.32812.39378-.45937.61248-.13125.2188-.21875.4813-.21875.7219z" fill="#8d9998"/><path d="m6.60625 5.29377s-.30625-1.07188.35-3.56563-6.51875-1.312499-6.51875 3.2375c0 .50313.63438.525 1.77188-.875 0 0-.45938 1.96875 1.00625 1.11562 0 0-.24063 1.40001.875.76563 0 0 .83125-.28437 1.77187-.02187 0-.02188.48125-.175.74375-.65625z" fill="#e8e8e8"/><path d="m6.25625.546843c-1.925-.04375-5.11875 1.487497-5.11875 4.528127v.04375c-.459375.2625-.7.15312-.7-.15313 0-3.45625 4.1125-4.96562234 5.81875-4.418747z" fill="#d1d1d1"/><path d="m5.2053 2.12183c-2.3625.65625-2.55937 3.28125-2.55937 3.28125-.50313.10937-.72188-.10938-.72188-.39375-.02187-.9625 1.575-2.75625 3.28125-2.8875zm0 1.8375c-2.1875 1.55312-1.37812 2.1-1.37812 2.1-.875.39375-.875-.63438-.67813-.80938.54688-.50312 1.68438-1.3125 2.05625-1.29062z" fill="#d1d1d1"/><g fill="#8d9998"><path d="m1.07227 5.14056c.35-.2625.63437-.59062.91875-.91875.28437-.32812.56875-.65625.875-.98437.30625-.30625.65625-.6125 1.05-.83125s.85312-.32813 1.29062-.28438c-.4375.04375-.85312.19688-1.20312.4375-.35.24063-.67813.525-.98438.83125s-.59062.63438-.91875.94063c-.30625.32812-.63437.6125-1.02812.80937z"/><path d="m2.64648 5.40305c.24063-.0875.4375-.21875.63438-.37188.19687-.15312.37187-.30625.56875-.48125.19687-.15312.39375-.32812.6125-.4375.21875-.13125.50312-.19687.74375-.15312-.24063.04375-.45938.15312-.65625.30625-.19688.13125-.37188.30625-.56875.45937-.19688.15313-.39375.32813-.6125.45938s-.48125.21875-.72188.21875z"/></g></g></svg>