<svg width="16" height="16" viewBox="0 0 16 16" fill="none" xmlns="http://www.w3.org/2000/svg">
<g clip-path="url(#clip0_207_474)">
<path d="M10.6666 1.3335L9.13324 2.86683C8.76678 3.24069 8.56152 3.74332 8.56152 4.26683C8.56152 4.79033 8.76678 5.29297 9.13324 5.66683L10.3332 6.86683C10.7071 7.23328 11.2097 7.43854 11.7332 7.43854C12.2567 7.43854 12.7594 7.23328 13.1332 6.86683L14.6666 5.3335" stroke="black" stroke-opacity="0.6" stroke-width="1.33333" stroke-linecap="round" stroke-linejoin="round"/>
<path d="M9.99978 10.0002L2.19978 2.2002C1.9337 2.4609 1.72232 2.77207 1.57801 3.1155C1.43371 3.45892 1.35938 3.82769 1.35938 4.2002C1.35938 4.57271 1.43371 4.94147 1.57801 5.28489C1.72232 5.62832 1.9337 5.93949 2.19978 6.2002L7.06645 11.0669C7.53312 11.5335 8.39978 11.5335 8.93312 11.0669L9.99978 10.0002ZM9.99978 10.0002L14.6665 14.6669" stroke="black" stroke-opacity="0.6" stroke-width="1.33333" stroke-linecap="round" stroke-linejoin="round"/>
<path d="M1.40039 14.5335L5.66706 10.3335" stroke="black" stroke-opacity="0.6" stroke-width="1.33333" stroke-linecap="round" stroke-linejoin="round"/>
<path d="M12.6667 3.3335L8 8.00016" stroke="black" stroke-opacity="0.6" stroke-width="1.33333" stroke-linecap="round" stroke-linejoin="round"/>
</g>
<defs>
<clipPath id="clip0_207_474">
<rect width="16" height="16" fill="white"/>
</clipPath>
</defs>
</svg>
