<svg fill="none" height="16" viewBox="0 0 16 16" width="16" xmlns="http://www.w3.org/2000/svg" xmlns:xlink="http://www.w3.org/1999/xlink"><clipPath id="a"><path d="m0 0h16v16h-16z"/></clipPath><g style="clip-path:url(#a);stroke:#000;stroke-opacity:.6;stroke-width:1.33333;stroke-linecap:round;stroke-linejoin:round"><path d="m10.6666 1.3335-1.53336 1.53333c-.36646.37386-.57172.87649-.57172 1.4 0 .5235.20526 1.02614.57172 1.4l1.19996 1.2c.3739.36645.8765.57171 1.4.57171s1.0262-.20526 1.4-.57171l1.5334-1.53333"/><path d="m9.99978 10.0002-7.8-7.8c-.26608.2607-.47746.57187-.62177.9153-.1443.34342-.21863.71219-.21863 1.0847s.07433.74127.21863 1.08469c.14431.34343.35569.6546.62177.91531l4.86667 4.8667c.46667.4666 1.33333.4666 1.86667 0zm0 0 4.66672 4.6667"/><path d="m1.40039 14.5335 4.26667-4.2"/><path d="m12.6667 3.3335-4.6667 4.66666"/></g></svg>