<svg fill="none" height="16" viewBox="0 0 16 16" width="16" xmlns="http://www.w3.org/2000/svg"><g stroke="#000" stroke-linecap="round" stroke-linejoin="round" stroke-width="1.33333"><path d="m10.6663 14v-1.3333c0-.7073-.2809-1.3856-.78101-1.8857-.50009-.5-1.17837-.781-1.88562-.781h-4c-.70724 0-1.38552.281-1.88561.781-.5001.5001-.78105 1.1784-.78105 1.8857v1.3333"/><path d="m10.667 2.08545c.5718.14825 1.0783.48218 1.4398.94937.3615.4672.5577 1.04122.5577 1.63196s-.1962 1.16476-.5577 1.63196-.868.80113-1.4398.94938"/><path d="m14.667 13.9998v-1.3334c-.0004-.5908-.1971-1.1648-.5591-1.6318-.362-.4669-.8688-.8005-1.4409-.9482"/><path d="m5.99967 7.33333c1.47276 0 2.66667-1.1939 2.66667-2.66666s-1.19391-2.66667-2.66667-2.66667c-1.47275 0-2.66666 1.19391-2.66666 2.66667s1.19391 2.66666 2.66666 2.66666z"/></g></svg>