<svg fill="none" height="16" viewBox="0 0 16 16" width="16" xmlns="http://www.w3.org/2000/svg" xmlns:xlink="http://www.w3.org/1999/xlink"><clipPath id="a"><path d="m0 0h16v16h-16z"/></clipPath><g style="clip-path:url(#a);stroke:#000;stroke-opacity:.6;stroke-width:1.33333;stroke-linecap:round;stroke-linejoin:round"><path d="m10 14v-3.3333c0-.1768-.07024-.3464-.19526-.4714-.12503-.1251-.2946-.1953-.47141-.1953h-2.66666c-.17681 0-.34638.0702-.47141.1953-.12502.125-.19526.2946-.19526.4714v3.3333"/><path d="m11.8491 6.8735c-.1389-.13305-.3239-.20731-.5163-.20731s-.3774.07426-.5163.20731c-.31.29567-.722.46063-1.15036.46063-.4284 0-.84034-.16496-1.15033-.46063-.13895-.13285-.32377-.20699-.516-.20699-.19224 0-.37706.07414-.51601.20699-.31002.29587-.72211.46095-1.15066.46095-.42856 0-.84064-.16508-1.15067-.46095-.13897-.13305-.32394-.20731-.51633-.20731s-.37736.07426-.51633.20731c-.29944.28574-.69449.44984-1.10825.46036-.41377.01052-.81664-.13329-1.13022-.40344-.31357-.27016-.5154-.64733-.56621-1.0581-.05081-.41076.05304-.82574.29134-1.16416l1.926-2.78933c.12221-.18033.28673-.32796.47919-.43.19245-.10204.40698-.15537.62481-.15533h6.66663c.2172-.00009.4312.05289.6232.15432.1921.10143.3564.24825.4788.42768l1.93 2.79466c.2384.33869.3421.75398.291 1.16496s-.2534.78821-.5675 1.05817-.7174.41332-1.1314.40215c-.414-.01118-.809-.17609-1.1081-.46261"/><path d="m2.6665 7.2998v5.3667c0 .3536.14048.6927.39053.9428.25005.25.58919.3905.94281.3905h7.99996c.3537 0 .6928-.1405.9428-.3905.2501-.2501.3906-.5892.3906-.9428v-5.3667"/></g></svg>