<svg fill="none" height="40" viewBox="0 0 40 40" width="40" xmlns="http://www.w3.org/2000/svg" xmlns:xlink="http://www.w3.org/1999/xlink"><clipPath id="a"><path d="m10 10h20v20h-20z"/></clipPath><path d="m0 20c0-11.04569 8.95431-20 20-20 11.0457 0 20 8.95431 20 20 0 11.0457-8.9543 20-20 20-11.04569 0-20-8.9543-20-20z" fill="#fff" fill-opacity=".1"/><g clip-path="url(#a)" stroke="#fff" stroke-linecap="round" stroke-linejoin="round" stroke-width="1.66667"><path d="m24.167 11.667h-8.3333c-2.3012 0-4.1667 1.8655-4.1667 4.1667v8.3333c0 2.3012 1.8655 4.1667 4.1667 4.1667h8.3333c2.3012 0 4.1667-1.8655 4.1667-4.1667v-8.3333c0-2.3012-1.8655-4.1667-4.1667-4.1667z"/><path d="m23.3337 19.4753c.1029.6935-.0156 1.4018-.3385 2.0241-.3229.6224-.8338 1.127-1.4601 1.4422-.6263.3153-1.336.425-2.0282.3136s-1.3317-.4382-1.8275-.934c-.4957-.4957-.8225-1.1352-.9339-1.8274-.1114-.6923-.0017-1.402.3135-2.0282.3152-.6263.8199-1.1372 1.4422-1.4601.6224-.323 1.3307-.4414 2.0242-.3386.7074.1049 1.3624.4346 1.8681.9403s.8353 1.1606.9402 1.8681z"/><path d="m24.583 15.417h.0083"/></g></svg>