<svg fill="none" height="100" viewBox="0 0 450 100" width="450" xmlns="http://www.w3.org/2000/svg"><path d="m127.453 98.0882c.931-.631 1.123 1.7283.371 1.9104-.215.0494-.49-1.2333-.371-1.9104zm6.614-2.2584c1.049-.3144.499 2.4217.323 2.4903-.738.2858-1.378-2.5834-1.632.9644-.45.265-.023-1.2303-.303-1.3367-.52-.1895-1.036 1.4795-1.574 1.5808-.036 0-.073 0-.11 0-.06-.7577-.206-1.5583-.187-2.3438.57-.9508 3.223-1.2774 3.483-1.355zm-4.465 1.0132c.258.2555.147 1.404.634.763.106.9334-.369 1.7803-.609 1.77-.007-.0359.026-.7274-.031-.7385-.425-.0494-1.068.7463-1.082-1.2268.421 1.0878.829-.8201 1.088-.5677zm-5.385.0916c-.113 1.3547-.307 1.1834-.604.3723.022-.2994.03-.6081.055-.9033.175.2241.368.3643.549.531zm-1.114-.2869c-.227 1.607-1.462.7055-1.244-.0916.414-.0097.83.0399 1.244.0916zm143.863-95.40057c.797-2.86249 3.681.09295 4.331.13428 2.999.18949 5.348-.742998 8.116-.616472 1.762.079499 3.396 1.014162 5.146 1.141392.379 3.42285.765 6.82265 1.15 10.22977-.248-.2824-.377-.7225-.662-.7324-.286-.0026-.97-.4907-1.145 1.1047.256 1.6105 1.172 1.9591 1.452 1.9532.538-.0144.198-1.5685.568-1.9349.372-.3633.988 1.7889 1.442.9705 1.064-1.927-.925-3.1559-1.292-2.8077.123-3.60105 1.011.6043 1.359-2.21561-.134-.84862-.685-2.93574-.894-2.31939-.208.62747.116 2.75704-.33 2.14238-.295-1.9721-.623-4.04638-.916-6.04265.443-.50449 1.112.63881 1.507.58596 2.43-.35163 4.813-.23083 7.199.05494 1.974 1.34984 3.943 2.7624 5.909 4.22374-.022-.10054-.041-.21182-.06-.31739-.032-.1804-.064-.35694-.107-.4944-.001.01831-.003.03662-.005.05493-.048-.16984-.121-.27589-.196-.38452-.102-.14915-.207-.30503-.255-.63479.058-.08952.116-.17904.175-.26856.129-.14004.266-.29159.396-.43947.125.90742.25 1.81483.375 2.72225.618.46117 1.236.9289 1.853 1.39774.024.1746.054.35381.093.52492.031.13631.062.27263.093.40894.049.07936.098.1587.147.23805.257.40893.575.73733.831.98883.069.0675.135.1246.196.1831.192.1852.344.3319.46.4761.016.019.032.0359.048.0549.006.1043.016.2065.028.2991.089.6819.214.6541.34.2807.013-.0467.026-.0935.039-.1403.066.0669.131.1329.191.1953.22.2322.47.5205.767.9644.173.2596.342.5515.525.8667.001.002.002.004.004.0061.096.1663.196.34.303.5188.144.2399.299.4857.448.6836.141.1866.325.3913.519.4639.415.1549 2.043.7763 2.832 1.1597.35.1694.695-.4435.831-1.41.2.1567.4.3134.599.47.012-.1064.028-.2056.052-.2807.05-.1444.136-.2364.23-.3296.177-.1769.377-.374.393-1.0316-.191-.0183-.382-.0366-.573-.0549-.013-.0041-.026-.0081-.038-.0122-.129-.4701.555-1.8659.789-1.178.188.5377.125 2.4744.054 3.595.093.0753.186.1506.279.2259.027-.1594.045-.3661.064-.5799.03-.3364.062-.7041.136-.9888.371-1.4616 1.33-.3.933 1.5687.256.2195.291-.1802.332-.6653.042-.515.092-1.1207.422-1.1719.391-.0361.548.4363.695.8911.078.2415.155.4816.263.6287.097.1328.268.175.46.2258.42.1113.949.2563 1.066 1.41.134 1.2783-.081 1.6559-.271 1.8799.5.3872 1.001.7699 1.502 1.1536.003-.3463.004-.7514.005-1.2207.675-.2823.8.6383.686 1.7517.636.4848 1.273.9696 1.909 1.4466.133-.2124.267-.3834.375-.5005-.046-.4691-.19-.4928-.325-.5127-.114-.0169-.222-.0312-.259-.3174-.27-2.2973 1.058-4.7142.817-1.5808-.059.764-.126 1.6436-.005 2.2644.091.4541.447.7776.578.5921-.002.0407-.004.0814-.006.122.009-.011.025-.0938.048-.2136.027-.1566.053-.3133.08-.47.072-.4257.16-.9402.23-1.2024.086-.2928.188-.5499.292-.8057 1.178-2.8858.268-1.4976 1.478.8057.095.1644.202.1432.302.1282.089-.0132.173-.0193.241.0915.126.176.238.4157.346.6531.205.4461.403.8808.69.8423.008-.008-.008-.0909-.032-.2136-.602-3.0209.451.8599.482.9217.029.0571.052.1007.053.1526.009.494-.233.7568-.515 1.062-.265.2878-.567.6123-.727 1.2085.114.0815.229.1631.343.2442.115-.2759.256-.3659.41-.1465.042.0746.036.2639.031.4517v.0122c.103.0712.206.1424.309.2136.018-.158.017-.3188.017-.3479.001-.0224.003-.0448.004-.0671.174-.2261.904.1327.988.7019.023.1373.037.2892.042.4455.271.1868.542.3713.813.5555.027-.0816.055-.1368.084-.1404.065-.0359.133.1267.2.3357.134.0908.268.1784.403.2686.001-.0387.002-.0774.003-.116.008-.2759.016-.5667.042-.647-.71.039-.573-.6373-.421-1.3977.07-.3511.143-.7213.139-1.0438-.008-.4257-.142-.5524-.268-.6714-.158-.1494-.305-.2932-.182-1.0071.396.6742.664.3678.934.0549.853-.9861.996 1.5431.378 1.3734-.13-.0356-.265-.0713-.362.2136-.114.3165-.145 1.0237-.172 1.6602-.013.304-.026.5946-.046.8179.007-.0163.014-.0326.022-.0488.025-.0524.615-.5851.673-.5616.346-.0573.335.1593.314.5311-.011.1892-.024.4237.007.6775.012.0813.056.1397.099.2014.058.081.115.1676.107.2991-.004.1489-.028.3082-.059.4638.087.0568.175.1144.261.1709.048-.1735.094-.3096.136-.3235.02.0094.437.5335.439.5982.001.0116-.002.0442-.008.0916.865.5561 1.731 1.1 2.599 1.6235.007.0285.015.057.022.0855.012.0497.025.102.038.1526.035.1465.07.293.105.4395.126.5366.316 1.3395.494 1.9409.127.4289.294.9233.494 1.2818.198.3538.522.733.907.4028.26-.2235.512-.6346.704-1.2878.246-.8423.365-1.8264.406-2.3988.012-.164.018-.3292.018-.4883.06-.3589.105-.6223.109-.647.227-.5334.228.0411.229.4761 0 .1022 0 .1983.003.2686.015.2301.077 1.2928.105 1.8555.962.5206 1.927 1.0142 2.892 1.4832.977.4741 1.962.8219 2.956 1.0559.637.1499 1.278.2566 1.921.3174-.054-.4419-.082-.8877.107-1.4099.266-.719.977.3709 1.085.5432.02-.0566.042-.1782.068-.3235.062-.339.149-.8226.309-1.001.355-.4072 1.996-5.0551 2.378-4.1993.319-.0404.64-.0893.961-.1465.119.0575.234.1018.342.1526.035.1814.076.346.127.4883.53 1.4951 1.564 2.612 2.152 4.474-.157.5058-.344.9492-.513 1.4221.121.5805.243 1.1651.366 1.7457-.023.2539-.044.5031-.066.7568.376.4375.752.8749 1.128 1.3123 0-.0288-.001-.0621-.001-.0915.135-.1916.195.0245.231.354.185.2177.37.4354.555.6531.055-.1296.116-.2648.177-.409.042-.708.085-1.416.128-2.124.1.4048.199.8097.299 1.2146.296-.5095.587-.653.788.4333.172-.0671.343-.1342.515-.2014.115-.1961.242-.2794.367-.2502.178-.8677.721-6.0577 1.543-6.8117-.025 1.8067-.05 3.6133-.075 5.42.243-.3011.486-.6022.729-.9033.063-1.1394.125-2.2787.188-3.4181.028.9013.056 1.8026.084 2.704.466-.1465.932-.293 1.399-.4395 0-.0132 0-.0297 0-.0427.06-.0678.103-.0516.134.0061.063-.0204.127-.0407.19-.0611-.01.7671-.02 1.5341-.031 2.3011.007.0112.014.0305.023.0366.133.0978.259-.0783.384-.3662-.049-.3357-.097-.6714-.146-1.0071.622-.7996 1.244-1.5991 1.866-2.3987.08.5045.159 1.0091.239 1.5137.029-.0359.057-.0578.082-.055.004.0154.005.3235.01.6287.033.2055.066.411.098.6165.012-.0006.024.0026.036 0 .139-1.4303.278-2.8606.418-4.2909.35-.0509.7-.1017 1.05-.1526.276.2194.539.4548.785.6775.432.942.864 1.884 1.296 2.826.051-.6122.098-1.0633.142-1.3855.165.1821.258.2869.258.2869.022-.3134.044-.6267.067-.94.207.2872.488 1.1607 1.043-.3662-.024 1.6622-.048 3.3245-.072 4.9867.054.1598.116.4008.182.708.573-1.7701 1.146-3.5401 1.718-5.3102.255 2.4618.51 4.9237.764 7.3855.633.3906 1.266.7812 1.899 1.1719.068-.0529.136-.0954.204-.1465-.204-.9929-.408-1.9857-.613-2.9786.197-2.2258.393-4.4516.589-6.6774.38 1.768.76 3.536 1.14 5.3041 1.868-2.8119 3.678 5.939 3.007-4.4618-.251.3987-.502.7975-.753 1.1963.324-1.5463.649-3.0925.973-4.6388.298 1.2268.595 2.4537.893 3.6805.371-.531.741-1.062 1.112-1.5931.105 1.235.21 2.47.314 3.705.302-1.1495.605-2.2991.907-3.4486.252 2.0386.504 4.0773.757 6.1159 1.486-.4212 2.973-.8423 4.459-1.2635 2.225 4.5965 1.194-2.2658 2.742-4.181.715 1.3693 1.429 2.7385 2.144 4.1078.263-1.1556.525-2.3113.788-3.4669.232.6714.463 1.3428.695 2.0142 1.101.1974 2.202.3947 3.303.5921-.212-2.0081-.425-4.0163-.637-6.0244.205-.3967.411-.7934.616-1.1902.538 2.4537 1.075 4.9074 1.612 7.3611.426-.7447.853-1.4893 1.279-2.234.593.4537 1.187.9074 1.78 1.3611.024 1.4751.048 2.9501.072 4.4252.217-2.3784.434-4.7568.651-7.1352.846-.4212 1.691-.8423 2.537-1.2635-.505 1.1068-1.01 2.2136-1.516 3.3204.432.9888.864 1.9776 1.296 2.9664.464-.6693.927-1.3387 1.391-2.0081.139-.9399.278-1.8799.417-2.8199.961.9522 1.921 1.9044 2.882 2.8565 1.148.0265 2.296.0529 3.444.0794 1.013-3.4912 2.779 2.7933 2.904-6.7202.934.765 1.868 1.53 2.802 2.295.205-.531.411-1.062.616-1.593.106 1.241.213 2.4821.319 3.7232.397-1.0987.794-2.1973 1.192-3.296.554.0753 1.109.1506 1.663.2258-.174.8647-.348 1.7294-.522 2.5941 1.57 1.1821 3.139 2.3642 4.709 3.5463.08-2.3479.161-4.6958.242-7.0437.59.6714 1.18 1.3428 1.77 2.0142.075-1.4425.151-2.885.226-4.3275.969-.2319 1.939-.4639 2.908-.6958.992 1.8555 1.983 3.711 2.975 5.5665 1.234-3.7736 3.934-7.9295 4.556.4334 1.571-1.0376 3.141-2.0752 4.712-3.1129-.084 1.4141-.168 2.8281-.252 4.2421.138.4069.275.8138.413 1.2207.115-2.0915.229-4.183.344-6.2746.546 1.4934 1.093 2.9868 1.639 4.4801-.199 1.2167-.398 2.4334-.597 3.65-.224.0407-.448.0814-.672.1221.311 1.4201.622 2.8403.933 4.2604-.014.0366-.028.0732-.042.1099 1.487 1.1779 2.766 3.0315 3.901 4.8524.09.1566.18.3133.271.47 1.305 2.4501 1.875 6.2721 2.051 9.3386.039.686.059 1.3779.059 2.0679 0 3.1297-.404 6.2177-1.214 8.5159-.069.1811-.138.3621-.206.5432-1.135 2.8032-2.359 4.2314-3.511 5.0661.214.4717.418.9792.581 1.5747-.128.5105-.281.962-.418 1.4405.103.5675.208 1.1355.311 1.7029-.027.391-.039.7711-.077 1.178-.694.1074-1.611 2.3727-2.235 2.5453-.57.1545-.89-1.7498-1.327-1.825-.438-.0635-1.836 2.631-1.567-1.2452-.074-.1596-.181-.3001-.251-.5066-.072 4.0724-.635 1.0759-1.236 1.7029-.282.3004-1.123 3.8242-.381-1.9653-.092-.0647-.131-.2753-.209-.4273-.785 5.0809-1.143 3.4265-2.038 1.7579-.501-.931-1.516-2.0502-1.059 1.7822-.512 2.4699-1.167-1.3494-1.535-1.0803-.366.2724.132 2.3626-.362 2.6795-.082.0552-.777.0881-.984-.2075-.204-.2989.037-1.8957-.297-1.6602-1.444 1.005-2.778 4.4896-4.289 5.3102-4.474 2.445-8.72 2.7223-13.38 3.1678-.77.0743-4.755.7388-5.21-.6226-1.558-4.6866 1.747-6.8607-.489-8.8992-.608 12.9798-1.931 9.1288-3.806 9.2898-1.382.1178-3.615 1.9813-4.801.4639-1.265-1.616-.249-3.1738-1.002-5.945-.509 5.3494-1.121 6.4384-2.165 6.7507-1.097.3275-2.193-1.3249-3.337-1.7334-.386-.1377-.911 1.0202-1.351.5554-.549-.5804-.41-3.6367-.747-4.0834-.338-.4414-.046 3.0957-.414 3.6561-.167.2542-1.328.3697-1.577-.9949-.058-.3199.159-1.4494.113-2.4964-.025-.5759-.016-4.9501-.299-4.5777-.251 3.882-.271 7.811-1.153 8.0935-1.394.4367-2.711-1.3793-4.194-1.6541-.332-.0543-1.117 2.806-1.476-.5311-.105-.9772-.049-4.7458-.577-4.5533-.455.1646-.526 1.8757-.922 3.1678-.15.488-.193-1.2944-.477-.238-.286 1.0534-.696 3.469-.879-1.1719-.037 1.4127-.043 2.6629-.07 4.004-.504.2436-1.365-4.9147-1.214-.6287-.518.0202-1.037.0408-1.555.061-.091-1.5268-.179-3.0612-.27-4.596.309-1.4632.789.5122.845-2.3622-.446-.2267-.897-.4568-1.339-.6836.118 7.6712-1.277 11.5113-.968 3.4852.057-1.5232-.856-.2444-1.054.2747-.196.5206-.249 3.6197-.654 1.6541-.23-1.1131-.372-2.9646-.924-.8362.335.8655.692 1.9214 1.034 2.8748-.504-.355-1.159.7109-1.607-.9277-.111-.4096.325-1.5531.12-2.2096-.206-.655-1.046-.2794-.87 2.7162-.388-5.8601-.333-1.0023-1.152-.8485-.104.0132-.931-5.5672-1.308-2.5818-.133 1.0631.116 5.0274-.532 3.3265-.477-1.259.014-4.6367-.515-6.5432.246 4.4999-.582 7.105-1.066 7.2146-.859.2012-.731-2.6405-1.006-3.8819-.496-2.2378-.925 1.4995-1.202-1.941.146-.0871.278-.3662.419-.5249-.309-.4416-.619-.8646-.927-1.3062.013 1.8688.029 3.7504.041 5.6032-.52.6178-.739-1.6439-1.172-2.1058-.061-.0643 0 1.2571-.062 1.2757-.5.1156-.661-.6011-1.028 2.0569-.024-4.7046-.67-1.5762-1.185-3.65-.144-.5845-.226-3.0001-.211 2.1607-.977-1.1576-1.711-.7427-2.501-4.6693.291 5.1377-.831 5.2178-1.481 3.8148-.174-.3874-.326-3.9927-.694-3.3753.099 1.5419.212 3.3096.318 4.9073-.746.4977-.582-4.2605-1.214-3.7476-.277.231-.102 5.5658-.628 3.1922-.302-1.3652-.476-7.831-.587.0732-.422.3951-.16-2.1764-.455-2.4781-.185-.1827-.392 2.7504-.677 2.3927-.541-.7024-1.272-6.2958-1.304-.5005-.383.4119-.107-2.0197-.455-1.703-.466.4245-1.625 4.2331-1.82-.3479 0 .0082-.001.0163-.001.0244-.38 2.6466-1.624 1.6965-1.321-2.3255.659 1.0938 1.166-3.2617.503-3.2044-.667.0588-.842-.4533-.925-2.1058-.337.8129-.51 2.2187-.98 2.4598-.334.1707-.798-.6687-1.203-.6103 0 .7417-.02 1.3962-.115 1.7822-.248.9899-1.06-1.2244-1.329-1.2024-.005.0007-.01.0053-.015.0061-.052.7378-.04 1.9079-.318 2.411-.078.1385-.264-.9468-.493-1.6297-.196.2707-.384.5199-.57.5432-.07.0084-.145-.0432-.224-.1221-.362.9095-.972 2.3615-1.236 2.3866-.157.0128-.466-1.4365-.526-1.5076-.208-.1953-.111 1.9024-.292 2.0752-1.335 1.2892-2.941.7511-4.234 1.4588-1.229.6735-1.896 1.0929-3.15 1.7334-1.164.591-2.104 4.4926-1.231-6.7079-.956-1.0661-.583 1.9585-.726 4.6327-.086 1.5751-.34.2749-.392.5737-.17 1.0274.233 2.0715.096 2.8321-.549 3.0489-3.014 1.0021-3.548 1.1536-2.461.7059-4.35 2.3221-6.619 3.0214-1.446.4466-2.818.0126-4.256.4089-.434-3.2552-.871-6.4915-1.309-9.7293.214.2037.334.6061.568.5311.234-.0826.81.196.896-1.4222-.267-1.5104-1.029-1.5784-1.258-1.4893-.44.1749-.105 1.5991-.395 2.0692-.291.4668-.874-1.4705-1.216-.5311-.801 2.2119.872 2.8374 1.161 2.3866.029 3.5743-.851-.2995-1.034 2.5818.141.7956.668 2.6808.818 2.0142.147-.6784-.197-2.6747.19-2.2034.313 1.8516.658 3.7884.97 5.6642-.345.6278-.936-.3002-1.257-.1281-3.57 1.931-7.067 2.298-10.672 2.9786-.331.0628-.988.1713-1.311-.3296-.251-.3961-.203-2.8713-.436-2.1302-.024.1325.095 1.6682-.22 2.0752-.597.7808-1.921 1.1456-2.59 1.2574-6.559 1.1424-12.987 2.8471-19.63.2075-.348-.141-1.655-.1064-1.895-.9522-.717-2.5398-.588-5.9284-.996-.6286-.384.2911-.115-2.2688-.293-2.9664-.072-.2366-.521 3.419-.709 2.1118-.428-3.0149.294-3.2727.553-4.6693-.64-1.7009-1.288 1.2247-1.834 1.294-.154.0202-.177-2.8295-.209-2.9237-.643-.9745-.579 4.6245-.549 6.9765.324.2922.642.5858.964.8546-.629.8209-1.097-.8407-1.735-1.5809-.152-.1715.054 2.3964-.294 1.4161-.111-1.7971-.217-3.7099-.324-5.5483-.817 1.5905-1.105 2.6665-.086 5.5361-.406-.0361-.814-.0461-1.222-.0977.147-1.8888-.065-4.8756-.465-3.0946-.092.4283.15 2.4371.032 3.0336-.118.5909-.998.0955-1.071-.055-.673-1.447-.781-5.5124-1.359-3.3936.173-.1065.943 2.0612.439 3.1739-.563 1.2363-2.876-1.1243-3.552-1.886-1.153-1.3067-1.711-2.3235-2.703-5.2736-.188-.5613-.174-3.109-.539-4.0956-.488-1.3124-1.374-2.1044-1.923-3.7599.111-.5449.246-1.0405.367-1.5564-.119-.5345-.241-1.0711-.362-1.6053.015-.3965.016-.7747.041-1.1902.688-.311 1.529-2.845 2.144-3.1983.562-.3181.94 1.4873 1.377 1.4343.437-.062 1.745-3.1561 1.6.7874.079.1377.191.2407.268.4273-.057-4.0769.595-1.2584 1.174-2.057.272-.3803.996-4.1412.441 1.8372.095.0373.139.244.223.3724.62-5.2895 1.028-3.7429 1.973-2.3438.528.7793 1.572 1.5888.997-2.0875.431-2.6096 1.202.9986 1.56.6287.358-.376-.204-2.3171.278-2.7772.084-.0798.773-.3143.986-.0794.212.2402.022 1.8889.347 1.5565 1.405-1.4232 2.622-5.2772 4.101-6.5371.554-.474 1.106-.9107 1.656-1.3184-1.19-2.1217-2.065-7.1133-3.615 3.1984-.997.5208-1.994 1.0417-2.99 1.5625-.059-.5717-.117-1.1434-.176-1.7151-.065.0478-.126.0929-.18.1282-.396.261-.864.4891-1.37.6836-1.018.3911-2.335.72-3.848 1.001-3.035.5636-6.984.9357-11.174 1.0864-.025.0021-.051.0041-.077.0061-.025-.004-.05-.0081-.075-.0122-.128-.0221-.269-.057-.404-.1098-.075-.0294-.371-.1373-.685-.525-.086-.1057-.667-.782-1.066-2.6917-.06-.2876-.114-.6025-.161-.9338-.32-.5331-.64-1.0661-.96-1.5992.005-.8098.009-1.6195.014-2.4293-.26.0393-.52.0677-.779.1038-.034.293-.068.5859-.102.8789-.813.4232-1.626.8464-2.439 1.2696-.225-.59-.45-1.1801-.675-1.7701-.753.0597-1.482.0989-2.173.1099-.036.9522-.073 1.9043-.11 2.8565-.366-.9562-.733-1.9125-1.1-2.8687-.716-.0256-1.377-.0964-1.966-.2014.018.3723.035.7446.052 1.1169-.73 1.1536-1.459 2.3072-2.189 3.4608-.298-.8464-.596-1.6927-.894-2.5391-.23.7121-.46 1.4242-.69 2.1363-.988.1668-1.977.3336-2.965.5005-.241-1.53-.483-3.06-.724-4.59-.29.2238-.58.4476-.87.6714.23.9461.46 1.8922.69 2.8382-.821.2828-1.641.5656-2.462.8484-.022 1.4446-.044 2.8891-.065 4.3337.24-.2331.472-.4392.681-.4578.177-.0109.131 1.6873.167 1.7273.71.5587.772-2.7583.796-4.1505-.363-.1641-.718-.3258-1.079-.4761.738-.5042 1.232.464 1.943.8851.169.0976-.002-1.4152.372-.8423.083 1.0604.156 2.1928.234 3.2776.972-.9641 1.327-1.6126.233-3.2837.463.0102.928.005 1.392.0244-.214 1.1219-.046 2.8811.455 1.8189.118-.2516-.109-1.4365.04-1.7945.149-.3545 1.146-.0865 1.222 0 .733.838.756 3.2305 1.468 1.9654-.205.0594-1.025-1.1913-.423-1.8617.673-.7469 3.255.5928 4.009 1.0255 1.285.7423 1.899 1.3197 2.961 3.0396.201.3257.12 1.8421.513 2.4171.525.7639 1.52 1.2071 2.106 2.1729-.047.1092-.101.2014-.152.3051-.565.1364-1.105.1188-1.575-.1464-1.726 3.4701-3.7 3.0916-4.329 3.4302.005-.0888.011-.1876.022-.2929-.086-.0792-.21-.1363-.293-.2442-.015 1.0339-.149 1.3028-.35 1.3306-.092-.0542-.208-.1236-.352-.2197.006.0477.008.1001.014.1465-.205-.0855-.438-.176-.672-.0306-.177-.3801-.36-.6686-.523-.9094.01-.0487.021-.1016.032-.1526-.107-.0193-.154-.1338-.247-.2075-.002.0093-.006.0212-.008.0305-.015-.0214-.029-.0468-.043-.0671-.042-.0607-.088-.1233-.132-.1893-.248-.3647-.541-.7998-.814-1.1291-.292-.351-.575-.4345-.996-.354-.177.0339-.392.0976-.659.2014.4-1.5535-.279-4.3537-1.435-4.1933-.164 1.2479.273.4986.275 1.1781-.002.6823-.437-.0853-.278 1.1658.714.3488.382-1.0758.925-1.3673-.129.7403.009 2.1021-.088 2.7223-.153.9762-.462.3515-.525.9888-.042.0199-.084.0463-.127.0671-.321-.0572-.642-.1061-.961-.1465-.321.7142-1.529-2.4432-2.119-3.7171.035-.0745.072-.1452.107-.2198-.088-.0266-.175-.0586-.263-.0854-.042-.0788-.075-.145-.103-.177-.149-.167-.234-.6073-.295-.94.026-.1334.04-.2804.031-.4455-.436-.0908-.887-.1715-1.341-.2564 0-.1863.014-.3684.036-.5493-.643.0608-1.284.1614-1.921.3113-.993.2339-1.98.5819-2.956 1.0559-.965.4689-1.93.9687-2.892 1.4893-.028.5588-.089 1.603-.105 1.8433-.003.0701-.005.1712-.005.2747 0 .4351 0 1.0155-.227.4822-.003-.0182-.048-.2837-.11-.647.001-.161-.005-.3345-.017-.5005-.042-.573-.161-1.553-.407-2.3927-.191-.6519-.443-1.0647-.703-1.2879-.386-.33-.709.0551-.907.409-.2.3583-.367.8534-.494 1.2818-.178.6003-.368 1.3988-.495 1.9348-.042.1816-.08.3429-.106.4456-.012.0486-.024.0986-.036.1465-.007.0305-.015.061-.022.0915-.867.5234-1.735 1.0616-2.599 1.6175.006.0478.009.0864.008.0977-.01.0723-.418.5814-.439.592-.042-.0143-.09-.144-.137-.3174-.087.0562-.173.1084-.26.1648.031.1555.055.3212.059.47.007.1296-.05.2128-.107.293-.043.0618-.087.1259-.099.2075-.031.2514-.018.4832-.007.6714.021.3711.031.5941-.314.5372-.063.0183-.646-.5137-.673-.5677-.008-.0163-.015-.0325-.023-.0488.034.59.067 1.18.1 1.7701.025.2971.061.5553.118.7141.098.283.233.2491.363.2136.227-.0623.438-.1219.407 1.5626-.318.3488-.553.0794-.785-.1893-.271-.3129-.538-.6253-.934.0489-.122-.7119.024-.8519.182-1.001.126-.1191.26-.2514.268-.6775.004-.3218-.071-.6938-.141-1.0438-.152-.7587-.286-1.4365.422-1.3977-.024-.0814-.033-.3668-.041-.6409-.001-.0407-.002-.0814-.003-.1221-.135.0903-.271.1838-.405.2747-.067.2077-.133.3715-.198.3357-.029-.0036-.059-.0588-.086-.1404-.27.1839-.541.3691-.811.5554-.005.1545-.02.3037-.042.4395-.084.5695-.814.9283-.988.7019-.002-.0183-.003-.0366-.004-.0549 0 0 .003-.1855-.017-.3601-.103.0712-.206.1424-.309.2136.001.0041.001.0082.002.0122.005.1882.009.3836-.033.4578-.154.2186-.293.1223-.409-.1526-.114.0811-.23.1626-.345.2442.161.5967.463.9267.728 1.2146.281.3043.521.5642.514 1.0559-.002.0527-.024.1067-.054.1648-.106.2082-.298.5934.064 2.1607-.914.613-.652-.7049-.544-1.2451.024-.1225.04-.2054.032-.2137-.287-.0383-.485.3965-.69.8424-.108.2371-.22.4774-.347.653-.067.1103-.152.0987-.24.0855-.1-.015-.207-.0303-.302.1343-.077.1462-.282.8912-.479 1.6175-.214.7859-.422 1.557-.457 1.5137-.058-1.1379-.304-1.7422-.542-2.3255-.104-.2554-.207-.5134-.292-.8057-.07-.2625-.157-.7824-.228-1.2085-.028-.1547-.055-.3093-.083-.4639-.022-.12-.04-.1966-.049-.2076.003.0367.005.0733.008.1099-.131-.1837-.488.1442-.578.5982-.09.4654-.076 1.0747-.038 1.6724.027.3764.055.7528.082 1.1292.032.5049.031.8981-.079 1.0315-.515.6241-.93-1.8256-.777-3.1434.036-.2889.146-.3066.261-.3235.134-.0199.277-.0461.322-.5127-.107-.1171-.242-.2882-.375-.5005-.637.4768-1.272.962-1.908 1.4466.113 1.1129-.011 2.0278-.686 1.7456-.001-.4677-.002-.8753-.005-1.2207-.501.3838-1.004.7663-1.504 1.1536.19.224.408.6063.273 1.886-.118 1.1523-.646 1.2926-1.066 1.4039-.193.0508-.363.0987-.46.2319-.108.147-.185.3815-.263.6226-.034.1054-.07.21-.108.3113-.271.0738-.564.1671-.87.2807-.085-.2329-.114-.5597-.139-.8606-.041-.4866-.075-.8974-.332-.6775.152.7154.104 1.3261-.032 1.7273-.241.0931-.487.1884-.733.2808-.063-.1047-.121-.2475-.169-.4334-.073-.2849-.105-.6581-.135-.9949-.019-.2122-.037-.4151-.064-.5737-.092.0732-.185.1465-.278.2197.035.5527.067 1.306.069 1.9898-.108.0366-.216.071-.323.1038-.056-.4532-.222-.6307-.372-.7813-.093-.0928-.182-.1736-.232-.3174-.023-.0744-.038-.1756-.05-.2807-.199.1566-.398.3133-.597.4699-.136-.9667-.483-1.5791-.833-1.4099-.265.1285-.625.2659-1.001.4212-.022-.3911-.095-.8239-.376-1.2879-.097.6075-.201 1.1274-.312 1.5747-.505.2-.952.3804-1.143.4517-.194.0726-.378.2774-.519.4639-.149.1976-.302.4441-.446.6836-.107.1788-.209.3524-.306.5188-.001 0-.002 0-.003 0-.174.2992-.335.5804-.499.8301-.984-.0061-1.983-.4614-3.008-.47-.443-.0043-1.03.7839-1.54.5982-.635-.2314-.512-2.0581-.903-2.2523-.391-.1922-.015 1.8366-.429 2.2401-.189.1832-1.518.4796-1.818-.2747-.068-.1785.167-.8898.102-1.4954-.036-.348-.079-2.9003-.397-2.6246-.242 2.3339-.219 4.6441-1.224 4.9867-1.589.5366-3.117-.2639-4.817-.1281-.38.0326-1.246 1.8743-1.696-.0184-.131-.5543-.112-2.783-.714-2.5635-.518.1886-.579 1.2114-1.016 2.0508-.166.3185-.236-.723-.549-.0427-.315.6779-.756 2.1749-1.02-.5188-.026.838-.02 1.5747-.034 2.3682-.574.2406-1.618-2.6122-1.394-.122-.593.1157-1.186.2321-1.779.3479-.122-.8795-.242-1.7649-.364-2.649.336-.9238.909.1398.939-1.5626-.513-.0441-1.033-.0894-1.541-.1343.225 4.4902-1.321 7.0295-1.063 2.2462.046-.9043-.983.0335-1.203.3784-.218.346-.241 2.1727-.728 1.0987-.277-.6086-.461-1.6688-1.068-.3052.394.4422.814.9907 1.216 1.4832-.581-.1079-1.317.6492-1.849-.2258-.131-.2188.352-.9733.11-1.3184-.244-.3438-1.2.0431-.963 1.77-.513-3.3698-.393-.5301-1.327-.2746-.118.0335-1.13-3.0827-1.526-1.2513-.14.6527.19 2.9358-.572 2.0631-.561-.6454-.039-2.7324-.668-3.7477.335 2.5992-.58 4.3009-1.133 4.4618-.98.2906-.867-1.4057-1.196-2.0814-.594-1.2163-1.041 1.0665-1.399-.9033.166-.0804.314-.275.474-.3968-.36-.1978-.717-.3878-1.075-.5859.037 1.0978.076 2.2073.112 3.296-.589.4678-.865-.8235-1.367-1.0071-.069-.0209.016.7414-.055.7629-.571.1684-.761-.2157-1.15 1.4222-.082-2.7642-.787-.7959-1.401-1.9166-.171-.3164-.292-1.7129-.214 1.3184-1.132-.4854-1.967-.0935-2.917-2.2461.394 2.9632-.886 3.2332-1.648 2.5391-.203-.1875-.422-2.2819-.836-1.8433.132.8874.281 1.9072.421 2.826-.847.4404-.715-2.3931-1.432-1.9654-.314.1919-.05 3.2942-.68 2.0081-.361-.7413-.636-4.5151-.671.1587-.478.3174-.21-1.2491-.551-1.3672-.214-.069-.415 1.697-.745 1.5442-.628-.3046-1.532-3.4499-1.5-.0305-.432.3164-.144-1.1644-.537-.9094-.529.3415-1.81 2.8122-2.086.1526-.001.004-.001.0081-.002.0122-.403 1.6348-1.839 1.3289-1.54-1.0987.768.5138 1.295-2.1511.538-1.9837-1.241.2739-1.012-.5999-1.303-3.7293-.043-.4501-.395-.67-.323-1.2574.072-.5876.827-1.2173.403-2.4781-.082-.2333-.47.7629-.551-.5493-.077.3104-.116.62-.178.9277-.691-2.7922-.759-3.7622.517-4.1749-.034.6173-.067 1.2441-.102 1.8616.181-.7755.337-1.5299.536-2.3133 1.396.01 3.274-2.4963 4.533-1.7456 1.101.6555-.411 1.1565-.437 1.2695-.278 1.2266.228 1.7253.238 2.5209.009.7958-.612 2.0372-.055 1.6174.075-.0638.811-2.5197.836-2.8504.122-1.7027-.034-2.4036.126-2.9236-3.531-.9664-6.398-1.9374-9.172-2.7284-.73-.1933-1.46-.3866-2.191-.5798-2.622-.6378-4.621-1.722-6.267-2.6918-.52.4334-1.04.8668-1.56 1.3001-.172-.3601-.344-.7202-.515-1.0803-.907-.0224-1.813-.0448-2.719-.0672-.04-.5269-.079-1.0539-.119-1.5808-1.517 4.9919-1.957-6.033-3.268 2.7039-.553.2869-1.106.5738-1.659.8606-.123-1.2146-.246-2.4292-.369-3.6439-.051.3296-.101.6592-.152.9888-.484-.4211-.969-.8423-1.453-1.2634-.361.9155-.722 1.8311-1.083 2.7466-.26-3.6768-3.11 1.6763-2.556-1.5198-.408.0794-.817.1587-1.225.238.097-.4842.194-.9684.291-1.4526-.063-.3418-.127-.6836-.19-1.0254-.302.6063-.603 1.2126-.905 1.8189-.437-5.4782-.944-1.1854-1.155-.7935-.344.6095-.979.7447-1.02.8606-.061.1953.519 1.6377.031 2.4964-.259-.885-.518-1.7701-.778-2.6551-.029.4985-.059.9969-.089 1.4954-.177-.295-.355-.59-.532-.885.003-.5677.007-1.1353.01-1.703-.104-.2014-.208-.4028-.312-.6042-.06.5005-.119 1.001-.179 1.5015-.45.234-.9.4679-1.351.7019-.333-.8749-.667-1.7497-1.0004-2.6246-.175.0977-.3501.1953-.5252.293-.0378.999-.0756 1.9979-.1133 2.9969-.4715-1.2268-.943-2.4537-1.4145-3.6805-.2598.238-.5196.4761-.7794.7141.0607.5127.1213 1.0254.182 1.5381.0938-.3133.1877-.6266.2815-.9399.0189.4293.0378.8586.0567 1.2879-.4046.6408-.8092 1.2817-1.2137 1.9226-.1648-.47-.3296-.94-.4944-1.4099-.1276.3947-.2552.7894-.3828 1.1841-.5476.0915-1.0952.1831-1.6428.2746-.1338-.8504-.2677-1.7009-.4017-2.5513-.1607.1241-.3215.2482-.4823.3723.1276.527.2552 1.0539.3828 1.5809-.4555.1587-.911.3174-1.3664.4761-.0166 1.0885-.0332 2.1769-.0498 3.2654-.202-.2014-.404-.4028-.606-.6042-.0114-.6002-.0229-1.2004-.0343-1.8006-.8292-1.0743-1.6583-2.1485-2.4874-3.2228-.0332 1.1516-.0664 2.3032-.0995 3.4547-1.1258-1.7968-2.2902-.2583-3.2994-.6897-.426-.1816-.9801-3.2739-.8978-.1648-.8228-.3377-1.6456-.6755-2.4685-1.0132-.2368.5798-.4737 1.1597-.7106 1.7395-.3565-.887-.713-1.7741-1.0695-2.6612-.5335 2.3263-3.279 3.832-3.2015.409-.6127.805-.5643.0847-1.3063 1.2635-.1762-.6674-.3525-1.3347-.5287-2.0021-.3119-.1261-.6237-.2522-.9356-.3784-.4142.6022-.8285 1.2045-1.2428 1.8067-.2781-1.0661-.5562-2.1322-.8343-3.1983-.0137.8362-.0274 1.6724-.0412 2.5086-.2443.2726-.4886.5453-.733.8179-.6633 4.1699.1336-7.82-1.9483-2.8871.3147.0672.6294.1343.9441.2015.1213 1.0315.2426 2.063.3639 3.0945-.4388.4191-.8777.8383-1.3166 1.2574-.3096-.3357-.6191-.6714-.9287-1.0071-.2586.3031-.5173.6063-.7759.9094-.6866-.6632-1.3733-1.3265-2.0599-1.9898-.6483.2564-1.2967.5127-1.945.7691-.1161-.6531-.2323-1.3062-.3484-1.9593-.285.7894-.5699 1.5788-.8549 2.3682-.1139-.1302-.2277-.2604-.3416-.3906-.0332-.5717-.0664-1.1434-.0996-1.7151-.5167.3275-1.0334.6551-1.5501.9827-.361-.5127-.7221-1.0255-1.0832-1.5382.0144.5066.0287 1.0132.043 1.5199-1.6623-.0611-3.3245-.1221-4.9868-.1832-.004-.0061-.008-.0122-.012-.0183-.1756-1.6017-1.0458 1.9751-.9407-3.0396-.0521.4924-.1042.9847-.1562 1.4771-.1791-.295-.3582-.59-.5373-.885.0114-.5799.0229-1.1597.0343-1.7396-.1356-.0244-.2712-.0488-.4068-.0732-.012.7263-.0241 1.4526-.0361 2.179.1522.4801.3044.9603.4566 1.4404-.381-.2522-.7621-.5045-1.1432-.7568.0526-.4903.1053-.9807.1579-1.471-.4891-1.3597-1.9572 4.4863-.8463-6.9887.2644.4781.5287.9562.7931 1.4343-.1465-1.0294-.293-2.0589-.4395-3.0884.039-.8403.0779-1.6806.1168-2.5208.2403.5513.4806 1.1027.7209 1.6541.1231-.5636.2461-1.1272.3691-1.6908-.0858-.3479-.1716-.6958-.2575-1.0437.1448-.4801.2896-.9603.4343-1.4405.4813-.1546.9625-.3092 1.4437-.4638.083.3601.1659.7202.2489 1.0803.8314.1709 1.6628.3418 2.4942.5127-.1001.647-.2002 1.294-.3004 1.941.2198.0203.4395.0407.6592.061.071-.588.1419-1.1759.2129-1.7639.2186-.1648.4371-.3296.6557-.4944-.0429 1.1495-.0858 2.299-.1287 3.4485-.2117.8139-.4235 1.6277-.6352 2.4415.1745.3683.3491.7365.5236 1.1048.032-.8464.0641-1.6928.0961-2.5391l.7536.1953c-.1207-.6185-.2415-1.237-.3622-1.8555.0612-.6959.1225-1.3917.1837-2.0875.3548-.3052.7095-.6104 1.0643-.9156.0378.5128.0755 1.0255.1133 1.5382.2609-.6043.5218-1.2086.7828-1.8128.1281.3479.2563.6958.3845 1.0437.0572-.3235.1144-.647.1716-.9705l.8961.177c.1831.5595.3662 1.119.5493 1.6785.1871-.4984.3743-.9969.5614-1.4954 1.1192.5351 2.2384 1.0702 3.3577 1.6053.7598-2.9964 2.5186 1.5482 2.4152-1.3794.9539.1037 1.9078.2075 2.8616.3113.1894.4679.3788.9359.5682 1.4038.9545-.293 1.9089-.5859 2.8633-.8789 1.1891.8993 2.3781 1.7985 3.5671 2.6978-.1201-1.0315-.2403-2.063-.3604-3.0946.3742.0651.7484.1303 1.1226.1954.2249.7324.4498 1.4648.6747 2.1973.2123-.6307.4245-1.2614.6368-1.8922.2865 5.2064 1.0368-.8849 2.0016.8485.5088-4.4949 1.2708 3.12 1.8814-1.5626-.0298.4944-.0595.9888-.0893 1.4832.202.0387.404.0773.606.116.4166-.5819.8331-1.1638 1.2497-1.7457.0131.6755.0263 1.351.0395 2.0264.1785.1221.357.2442.5355.3663-.0978.5635-.1956 1.1271-.2935 1.6907.1562.1811.3124.3621.4686.5432.5597-.6978 1.1193-1.3957 1.6789-2.0936.1448.527.2895 1.054.4343 1.5809.0767-.5005.1533-1.001.23-1.5015.3308.415.6615.8301.9922 1.2452-.024-.5107-.048-1.0214-.0721-1.5321-.1487-.0305-.2975-.061-.4463-.0915.008-.5005.016-1.001.024-1.5015.4967.0997.9934.1993 1.4901.299-.0401-.3418-.0801-.6836-.1202-1.0254.4217.0814.8434.1628 1.2651.2442-.0083-.039-.0193-.075-.0274-.116-.1638-.8415-.0406-4.0222-.9098-3.943-.7465.0658-.8767 1.5014-1.5364 2.5269-.2499.3875-.3053-1.1231-.7793-.2807-.4781.8421-1.1708 2.8189-1.4334-1.1292-.0731 1.1854-.0931 2.2366-.1476 3.3631-.8277.1231-2.1966-4.3638-1.9844-.7263-.8499-.0672-1.701-.1342-2.5509-.2014-.1364-1.3017-.2723-2.6041-.4086-3.9125.5173-1.1884 1.2911.557 1.4076-1.8555-.7297-.2641-1.4689-.5423-2.1921-.8057.1318 6.4943-2.1841 9.5084-1.6119 2.7833.1036-1.2712-1.4048-.338-1.732.0671-.3264.4062-.436 3.0132-1.0849 1.2879-.369-.9765-.5859-2.5618-1.5089-.8545.5417.7844 1.1165 1.7283 1.6685 2.5879-.8241-.3809-1.9036.4132-2.6247-1.0437-.179-.3632.545-1.2496.2129-1.8372-.3322-.5861-1.7107-.413-1.4471 2.1424-.5882-5.0063-.5394-.9002-1.8832-.9033-.1709-.0068-1.4812-4.8438-2.1234-2.3805-.2262.8783.149 4.2544-.9012 2.7101-.7727-1.14.0601-3.9087-.7931-5.6032.3677 3.8381-1.0105 5.9018-1.8059 5.9144-1.4093.0293-1.1752-2.3439-1.6153-3.4363-.7952-1.9707-1.5299 1.1156-1.9569-1.8311.24-.0497.4582-.2673.69-.3785-.5038-.423-1.0073-.8284-1.5089-1.2512.0068 1.578.0176 3.166.0223 4.7303-.8593.4372-1.1984-1.506-1.9054-1.9654-.0992-.0642-.0094 1.0588-.1116 1.0621-.8215.0163-1.0774-.6073-1.7011 1.5747-.0005-3.974-1.0895-1.438-1.9175-3.2776-.2312-.5206-.343-2.5585-.3605 1.7944-1.5932-1.1359-2.8-.9082-4.0632-4.3519.4373 4.3852-1.4035 4.2747-2.4599 2.9847-.2826-.3471-.5018-3.4277-1.1107-2.9664.1496 1.3169.3189 2.8279.479 4.1933-1.2262.2969-.9185-3.6868-1.9587-3.3571-.4569.1491-.2112 4.6822-1.0557 2.5941-.484-1.1989-.7174-6.6879-.9647-.0366-.6951.2644-.2434-1.867-.7262-2.1668-.3021-.184-.6632 2.2615-1.1278 1.9104-.8829-.6792-2.0376-5.5185-2.1371-.6348-.6305.2841-.1561-1.7164-.7279-1.5076-.7672.279-2.702 3.3085-2.9835-.592v.0244c-.6443 2.1737-2.6813 1.1617-2.1492-2.1851 1.072 1.0328 1.9379-2.5588.8515-2.6185-1.7824-.0957-1.4177-1.2462-1.6995-5.8229-.0415-.6588-.5383-1.1133-.4102-1.9227.1277-.8097 1.2349-1.4104.6832-3.3753-.106-.3694-.7065.908-.7656-.9949-.124.4115-.1898.8314-.2919 1.2451-.8674-4.2531-.9224-5.6557.915-5.7435-.074.8683-.1487 1.7442-.2249 2.6123.2912-1.0358.5439-2.0486.8618-3.0884 1.9907.5619 4.7744-2.2728 6.5385-.7081 1.5395 1.3635-.6212 1.4854-.6746 1.6358-.4489 1.6413.2511 2.5478.2317 3.6867-.0212 1.1385-.9615 2.6639-.1476 2.2827.1075-.0589 1.2571-3.2589 1.3115-3.7293.3906-3.7733-.3225-4.2231 1.375-5.1149.6061-.3156 2.3577-.5664 3.0213-.7141.7318-.159 1.3225 1.8139 1.7578 1.6113.4351-.2051.0261-1.4635.5407-1.6541 1.0172-.3745 2.4852.9217 3.4229.9034 1.0642-.0259 1.3713-1.9382 2.3998-1.9471.7131-.0058 1.6718 1.4646 2.4754.8728.1895 1.0359-.174 4.9326.3605 4.6877.6513-.3049-.2552-2.6906.0704-3.8453.6599-.5974.1905 1.1475.2128 1.2024.3225.76.8742.255 1.2738.6531-.2642-.8032-.5216-1.5321-.8034-2.3438 1.0911 1.3201.536-1.4556 1.4076-2.0082.2286-.1373.7461 2.8086 1.5381 2.0143.1886-.1881 2.047-2.0815 2.647-1.9593.2569.0551.6747 1.4042.7656 1.4771.3271.2457.2932-1.5515.5974-1.6236 2.2537-.5306 4.8409.5868 6.9917.5249 2.0442-.0597 3.1573-.1368 5.2409-.1587 1.9325-.0179 3.6973-2.8922 1.6033 6.0976 1.4925 1.2791 1.0651-1.3917 1.4591-3.5646.2335-1.2818.5676-.0941.6712-.3174.3417-.7879-.2536-1.8246.0137-2.4048 1.0768-2.3252 4.9755.3905 5.8554.4822 4.0538.417 7.2294-.1553 10.9709.1892 2.3829.2184 4.5919 1.1406 6.9589 1.3977.512 2.8933 1.031 5.7683 1.552 8.649-.336-.2575-.509-.6323-.894-.6653-.387-.0266-1.312-.4997-1.549.8179.345 1.3699 1.586 1.745 1.964 1.7639.728.0344.266-1.3022.769-1.5747.503-.271 1.333 1.5844 1.947.9399 1.44-1.519-1.249-2.7247-1.746-2.4659.167-2.9924 1.368.5977 1.838-1.7273-.18-.7205-.926-2.5159-1.21-2.0203-.282.5052.158 2.3152-.444 1.7639-.399-1.6741-.843-3.439-1.24-5.1331.6-.3825 1.506.6349 2.04.6225 5.935-.1521 11.659.974 17.576 1.88.544.0829 1.619.2674 2.115.8179.385.4324.157 2.4736.582 1.9531.05-.0739-.059-1.4279.484-1.6419 1.019-.408 3.2-.1682 4.298.0123 9.282 1.4909 18.431 2.5922 27.617 6.0243-.095-.3845-.191-.7691-.287-1.1536.262-.8667.523-1.7335.785-2.6002.867-.2828 1.735-.5656 2.602-.8484.15.6511.3 1.3021.45 1.9532 1.5.3072 3 .6144 4.499.9216-.18 1.1679-.36 2.3357-.54 3.5036.396.0325.791.0651 1.187.0976.129-1.0559.257-2.1119.385-3.1678.394-.297.787-.5941 1.181-.8911-.077 2.0691-.154 4.1383-.232 6.2074-.247.9461-.494 1.8922-.741 2.8382.005.0196.01.0433.017.0611.098.2487 1.058-2.6432 1.286-1.4649.037.1951.063.3819.084.5493.228.061.456.1221.685.1831-.217-1.1149-.434-2.2299-.651-3.3448.11-1.2533.22-2.5066.33-3.7599.641-.5452 1.281-1.0905 1.922-1.6358.067.9156.134 1.8312.201 2.7467.47-1.0844.941-2.1688 1.411-3.2533.232.6267.465 1.2533.697 1.88.102-.5799.205-1.1597.307-1.7396.539.1058 1.077.2116 1.616.3174.33 1.0031.661 2.0061.992 3.0091.338-.8952.675-1.7904 1.013-2.6856 2.019.9664 4.038 1.9328 6.058 2.8993 1.37-5.397 4.541 2.7855 4.353-2.4903 1.722.1851 3.443.3702 5.165.5554.342.8443.685 1.6887 1.027 2.533 1.719-.5269 3.439-1.0539 5.158-1.5808 2.145 1.6134 4.291 3.2268 6.436 4.8402-.216-1.8535-.432-3.707-.647-5.5605.674.116 1.348.232 2.022.3479.406 1.3205.812 2.6409 1.219 3.9613.383-1.1353.766-2.2705 1.15-3.4058.516 9.3739 1.868-1.6 3.608 1.5198.908-8.0026 2.262 5.3493 3.358-2.5513-.021-.0977-.042-.2067-.064-.3174.033-.5054.052-1.0288.088-1.526.177.4458.377.7487.563 1.0987-.147 2.0672-.324 1.9668-.57.8179-.048.7813-.096 1.5625-.144 2.3438.365.0692.73.1384 1.095.2075.751-1.0478 1.502-2.0956 2.254-3.1434.024 1.2167.048 2.4334.072 3.65.21.1425.421.2849.632.4273-.013-.4279-.005-.8426.037-1.1597 1.002-.7431 1.131 3.3598.332 3.3998-.087.0024-.177-.3278-.248-.7996-.105.6083-.211 1.2166-.317 1.825.282.3296.564.6592.846.9888.921-1.1496 1.843-2.2991 2.764-3.4486-.04-.7925-.071-1.5995-.045-2.3743.369-.8314 1.485-1.0397 2.402-1.0804.001-.0346.002-.0692.003-.1038.163.0326.326.0652.489.0977.419.0042.736.0239.821.0122.167-.0244.293.0726.388.2258.296.057.593.114.889.1709.026-.0456.054-.0841.083-.1159-.068-.5656-.135-1.1312-.203-1.6968.762.1464 1.523.2929 2.285.4394.324-.9884.397-2.7417-.113-2.7344-1.319.0212-1.05-1.3861-1.259-6.8423-.031-.7846-.396-1.2866-.302-2.2644.094-.979.913-1.7797.505-4.0895-.078-.4347-.523 1.1413-.567-1.1292-.091.5009-.139 1.0057-.214 1.5076-.642-5.0236-.683-6.6945.676-6.9399-.055 1.0442-.108 2.0994-.165 3.1434.215-1.2604.401-2.4925.635-3.7598 1.473.5199 3.533-3.09073 4.838-1.35504 1.14 1.51524-.464 1.83034-.5 2.01424-.331 1.9943.185 3.0215.172 4.3824-.015 1.3635-.711 3.2688-.11 2.7528.079-.0734.936-4.0214.972-4.5717.288-4.54038-.239-5.02354 1.016-6.21963.449-.42382 1.744-.85299 2.235-1.08036.542-.24672.979 2.07096 1.301 1.79449.322-.27921.02-1.75325.4-2.02032.753-.52471 1.839.91127 2.532.81789.787-.11312 1.013-2.43053 1.773-2.52082.528-.06313 1.237 1.62864 1.832.86062.14 1.22402-.128 5.91413.268 5.57873.482-.4139-.189-3.19503.051-4.60214.485-.7596.148 1.32445.158 1.42216.239.88322.647.23358.943.6775-.195-.93946-.386-1.792-.594-2.74055.807 1.49564.396-1.77457 1.04-2.50251.169-.18465.552 3.29398 1.138 2.28278.142-.2437 1.516-2.63955 1.959-2.53914.19.04851.499 1.62979.566 1.70904.242.26599.217-1.87223.441-1.9837 1.668-.80693 3.583.32409 5.174.08545 1.512-.22742 2.335-.40073 3.876-.58595 1.43-.1691 2.735-3.74343 1.187 7.17183 1.104 1.41543.786-1.75249 1.078-4.38245.173-1.54975.421-.1459.497-.42726.253-.96868-.187-2.16036.011-2.87483zm-134.214 84.00497c.491-2.3765.018-3.2038 1.073-1.0925-1.014 2.5029.443 3.8724.45 6.0304.002 1.2193-.495.5264-.644 1.1658-.228.988.11 2.5617-.163 3.1983-.271.6349-1.227-.5064-1.534-.4394-.589.1347-1.092.9447-1.583 1.062-.492.1166-1.266-.8709-1.585-.9583-.317-.0864-.622.181-.674.3174-.3.7976-.089 2.5245-.519 2.6124-.054-1.7025-.692-4.3444-.079-5.4384-.091-.0386-.209-.349-.296-.2991-.41.2507-.145 2.5792-.332 3.0092-.316.7151-.122-1.121-.127-1.2269-.345-1.3663-.157.2445-.287.9888-.069.3812-.678 1.2591-.811 1.233-.132-.0323.019-.9731-.069-1.0072-.382-.1515-.774-.3456-1.149-.0976-.373.2547-.559 1.8825-.592-.4334-.004-.366.204-.7383.122-1.5747 0-.0041 0-.0082 0-.0122-.027-.2703-.356-1.5419.057-2.3866.117-.2379.244-.3696.377-.4211-.043.3181-.085.639-.128.9583.103.0042.206.0112.309.0183-.045.8212-.093 1.6835-.121 2.472.148.8494.275-.2953.299-.3052.359.2929.352 1.9704.563-.0305-.244-.2695-.485-.5795-.722-.8973-.002-.411-.004-.8271-.006-1.239.047.0032.094.0088.141.0122-.031-.3313-.063-.6646-.094-.9949.337.0892.696.5729 1.013 1.1292-.099.4784-.208 1.0211-.304 1.532.404-.4463.184.5977.48 1.1231.046-1.9855.213-1.544.457-1.4344.243.1069-.093-1.3178.149-1.5259.494-.4165 1.379 1.8158 1.465-1.0621.664 1.6898-.113 2.0333-.146 2.7406-.139 3.0225 1.157 1.5979 1.332-.0733.197.9426.219 2.2886.705 1.8678.66-.5758-.807-2.0292.095-2.411.603-.2533.539 1.1817.844 1.4832.568.5526 1.549-.2984 1.169-2.2645-.152-.7887-.562.3025-.738-.5127-.097-.4553.047-4.5936-.424-1.3489-.045.3231.253 1.7947-.166 1.8861-.121.0249-.543-1.2787-.879-.8363-.148.1935-.751 2.1442-1.14 1.5016-.42-.6772.199-1.1392.036-1.7701-.166-.6313-.675-.5132-.678-1.8738.251-1.5676.321.8064.41.6958.342-.4835.022-2.7842.531-2.5697.095 1.2553-.305 4.6833.42 3.7294.001-.0633-.183-.8301.05-1.1353.408-.5319 1.199-.9293 1.71-.9461-.065-1.8734-.688-1.663-1.025-2.9175.682-.4097 1.438-1.0843 1.967.6408-.255.289-.512.5842-.766.8729.304-.1274.607-.2513.909-.3785-.101.8063-.752 2.8747-.261 3.2533.005-2.044.676-2.49.909-3.6195zm3.693 10.2054c-.339 1.555-.86 1.2427-1.408 1.2512.093-1.6489.994-.9365 1.408-1.2512zm-14.349-4.12c-.41-2.6375 1.019-2.5491 1.596-2.2523-.133.0041-.268.0158-.402.0244.07.5623.134 1.1286.203 1.6908-.145.0908-.291.1777-.436.2685.183.5672.347 1.2139.522 1.7823-.329 2.5619-.386.9754-.941.6836-.355-.1827-.474.6866-.908.8179-2.027.6168-4.095 2.0878-6.19 1.9898-.041-2.0992-.004-2.627.376-2.9664-.004.6256-.001 1.2609-.004 1.8861.25-.2597.495-.564.737-.879-.241-.3264-.479-.6653-.714-1.0193.115-.0977.26-.188.441-.293.133-.0803.151-.9332.335-.8667.394.1454.951 2.6181 1.366 1.88.24-.4289-.14-2.7266.465-2.1608-.318 1.7675-.535 3.2975.363 2.4598-.556-1.4144-.128-.8853.049-1.7029.112-.5227-.659-.2103-.178-1.2635.103-.2146 1.637-1.4458 1.601 0-.08 3.1263-.165 2.791.805.8668-1.29-1.0338-.171-3.2845.409-2.4903.296.4079-.168 1.9377.505 1.5442zm-7.562 3.4181c.392.068.467-1.365.774-.4517.026.1107-.205 1.5784-.391 1.6724-.188.0885-1.403-.353-1.446-.5738-.404-2.4532.926-.6762 1.063-.6469zm-1.224-.0184c-.476.1241-.952.2422-1.428.3663 0-.0021.001-.0041.002-.0061.012-.3159.027-.6299.041-.9461.461.1944.924.3915 1.385.5859zm24.898-2.8809c-.103 2.1162.364 2.3267.542 2.2645.639-.2226 1.039 1.5144 1.283-.5982-.394-1.1918-.644.2665-.833.1343-.413-.3038-.447-2.0306-.992-1.8006zm2.456.3052c.173.4097.11 1.5015.344 1.764.235.2662.911.5976 1.155.1709.243-.4288.181-2.0339.374-2.6674-.632.2171-1.239.4729-1.873.7325zm3.617-.9827c-.36-.1015-.759 2.1321.053 1.6419.036-.0202.312-1.4621.567-.6043.165.593.053 1.1592.271 1.8372.218.6734.685-2.4234-.891-2.8748zm8.108.8728c-.17.0344-.358 1.0702-.273 1.2391.667 1.2525 1.061-1.401.273-1.2391zm-36.454 1.3123c-.006.0051-.013.0071-.019.0122 0-.0109 0-.0257 0-.0366.006.009.013.0156.019.0244zm34.804-1.5503c.315-.4309.63-.8631.944-1.294-.201-.3379-.402-.6812-.602-1.0193-.113.7693-.229 1.5486-.342 2.3133zm-.565-4.2848c-.029 1.3537.023 2.5527.419 3.3387.062-1.3315-.164-2.3163-.419-3.3387zm5.073 2.7955c.461 1.1729.688-4.0786.051-1.6785-.06.2346-.085 1.5858-.051 1.6785zm-30.666.1343c-.004-.0004-.009.0002-.013 0 .004-.0824.009-.1688.013-.2503.001.0816 0 .1684 0 .2503zm174.685-4.1627c-.315-2.0744-.649 3.1547-.584 3.4974.317 1.6237.807-2.0128.584-3.4974zm-153.546-1.5016c-1.087-1.8882-1.216 2.1926-1.289 2.6063-.38 2.1477-.547-1.394-.641-1.3733-.446.1533.145 3.9055.208 3.9735.988.9391.696-2.029.783-2.9603.192-2.0138.876-.4987.939-2.2462zm-21.092 4.6816c-.081-.0215-.161-.0296-.239 0 .009-.0677.02-.1397.029-.2076-.153-.1621-.306-.32-.46-.4821.182-.22.364-.4471.544-.6715.043.4521.083.9105.126 1.3612zm42.206-1.8555c-.701-2.6021-2.922.635-1.414 1.4526.26.1389.117-.704.278-.7507 0 .002.001.004.001.0061.162-.0406 1.656 1.2337 1.135-.708zm-29.045-.0062c.209 1.3158.533.8205.922.5555-.046-.4731-.093-.9491-.139-1.4222-.26.2851-.523.5816-.783.8667zm166.482-2.2949c-.333.5158-.932-.5605-.904 2.2278.275.3058.551.6219.827.9278.026-1.0499.051-2.1057.077-3.1556zm3.504-4.9501c-.311.9235.032 2.5533-.086 3.8392-.12 1.2832-1.13.7329-.44 3.9125.216.9726 1.406-1.7878 1.794.3357.187-6.2483-.488-1.7943-.976-4.3764-.146-.7777.257-3.7679-.292-3.711zm-138.713 7.5991c.312-.2799.626-.5639.937-.8485-.307-.0273-.617-.0472-.925-.0793-.003.3097-.008.618-.012.9278zm40.088-.5433c-.057.1282-.114.2564-.171.3846-.18.0175-.35.0374-.509.0427-.067-.3805-.135-.7609-.202-1.1414.294.238.588.4761.882.7141zm-33.637-2.4292c-.538-.8055-1.24 1.2437-.834 2.3865.489 1.3619 1.709-1.0692.834-2.3865zm-3.11 2.3072c1.171.4695 1.974-2.8179.467-1.7152-.084.0641-.19 1.6887-.467 1.7152zm39.707-.5372c-.441-1.6127 1.373-4.0249 1.898-3.2837-.151 1.0559-.302 2.1118-.453 3.1678-.066.0618-.14.1781-.216.3113-.192.0439-.519.1245-.925.2197-.153-.2148-.294-.431-.308-.4822.001.0224.003.0448.004.0671zm109.226-.7995c-1.098-5.8245-1.352-.2649-.635 1.0315.087.1593.655.1382.635-1.0315zm-172.49-2.4598c-.037-.6121.318-4.0416-.311-1.3306-.217.9385-.164 1.8532-.798 2.0752.586-.3602.521 2.1982.587 2.3805.535 1.4706 1.065-1.6305.951-2.942-.035-.3723-.392.4231-.429-.1831zm-26.052 3.3509c-.315-.007-.633-.0038-.949-.0061.03-.4525.057-.9162.088-1.3733.288.4488.583.8777.861 1.3794zm194.081-10.3702c-.061 1.8105.836 8.7954.963 9.2654.818 2.9516 1.253-1.2668 2.025.7508-.226-4.6538-.785-1.6197-1.25-3.8759-.141-.6921.368-4.6411-.351-5.7924-.001-.002-.002-.004-.002-.0061-.232-.3669-1.062.9095-1.385-.3418zm-102.139 7.1841c-.238-.62.223-3.6775.716-1.2513.017.1166.007.3088-.002.4883-.008.1667-.016.3287-.001.409.046.1862.248.4181.484.6958.482.5673 1.111 1.3154.882 2.1668-.31.0715-.621.1367-.934.2075-.073-.2717-.135-.6079-.196-.9461-.081-.4562-.163-.9133-.276-1.2085-.205-.519-.461-.5292-.597-.531-.052-.0007-.086-.0018-.095-.0305zm112.716-12.9826c-.119-.8312-.729-.9181-.777-.1831-.044.6991.044 1.3076.123 1.8678.074.0867.148.1761.222.2624-.062.0102-.124.0206-.186.0305.08.6065.121 1.161-.072 1.7274-.554-.0978-1.122-.2151-1.682-.3113.067 1.3282.133 2.6632.199 3.9918.109-.4797.218-.9712.326-1.4588.114.3998.228.8045.342 1.1963-.316 7.5022-1.323-.5061-2.182 3.0763-.001-1.5546-.01-3.1715-.005-4.6876-1.505-1.6223-.479.2142-.369 4.0345.062 2.1904-.444.2751-.532.6348-.599 2.5873.954 5.6122 1.438 5.4689.483-.1412 1.158-3.0382 1.698-3.2045.32-.0916.367 1.518.69 1.4283.482-.1303 1.34-.0555 1.758-1.1841.151-.4118.003-3.3729-.04-3.711-.107-.7833-.313.7807-.436.5371-.122-.2475-.043-1.4975-.202-1.5992-.162-.0956-1 .6254-1.056.8667-.32 1.4721.191 2.9722-.252 2.7955-.57-10.1565.904-4.0926 1.109-4.712.463-1.4356.379-2.2346.2-2.826-.302-.3218-.6-.7136-.616-.9156-.152-2.096.04-2.343.29-2.0447.034-.4.06-.7819.017-1.0865-.001.0021-.003.0041-.005.0061zm17.628 9.9551c.919-.2224.394 4.2459.239 4.3153-.648.2653-1.157-4.7817-1.44 1.1536-.395.3116.003-2.1016-.239-2.3621-.48-.5069-.992 2.5827-1.492 2.1912-.039-1.303-.156-2.7018-.125-4.0284.511-1.4408 2.826-1.2158 3.057-1.2696zm-203.865 5.4506c.419-.5812.839-1.163 1.259-1.7395-.61.3074-.831.5382-1.221-1.0743-.012.9355-.026 1.8784-.038 2.8138zm25.19-1.6358c-.059-.1935-1.176.2516-1.171 1.2757.203.3039 1.559.2124 1.171-1.2757zm172.875-1.9592c.821-.7916.948 3.272.29 3.357-.188.0174-.407-2.2476-.29-3.357zm-64.802-.6531c-.105-.0505-1.491.0975-1.358 2.6429.746.3316 1.544.6372 2.307.9399-.046-.7949-.259-1.6479-.367-1.9715-.268-.8206-.199-1.4324-.582-1.6113zm66.695-.8057c.221.5071.105 2.4194.541 1.4771.002.1933.005.3865.007.5798-.034 1.3284-.387 2.3227-.57 2.2462-.007-.0207.036-1.2211-.014-1.2635-.369-.2096-.943.9458-.92-2.3987.347 1.963.735-1.1427.956-.6409zm-196.978.7324c-.472-.0497-.739 1.9005-.645 3.1678.311-.2845.624-.57.936-.8545-.097-.7703-.194-1.5429-.291-2.3133zm122.232.5982c.14.2804.282.5497.422.8301-.084.2563-.17.5066-.254.7629.119.2787.24.5576.359.8362.128-1.2993.256-2.6005.386-3.9002-.304.4869-.609.9842-.913 1.471zm54.387-12.1952c-.382-1.7233-.242 3.909-.031 4.4618.212.5462.618-.7557.798 1.5015-.283 1.1045-.609-.3177-.966.3785-.423.8284.04 3.5725.153 2.8199.224-1.5177-.029-3.6949.523-1.8312.47 1.5924-.027 6.4855.369 6.769.503.3491.304-2.6792.121-4.5289.309-.506.618-.9423.927-1.4161-.927.0649-1.038-3.5753-1.223-8.1545-.393-.5073-.024 2.6428-.432 2.234-.144-.147-.207-2.0773-.239-2.234zm-15.391 11.3651c-.751.0965-.742 3.6457-.105 1.9165.136-.369.127-1.1297.105-1.9165zm-162.781 1.886c.256.0268.514.0587.771.0855.003-.3107.008-.6279.012-.9339-.257-.0267-.513-.0526-.769-.0793-.004.3095-.011.6181-.014.9277zm-5.104-.0793c.343-.2839.931.6996.939-.8301-.306-.1929-.613-.3856-.92-.5738-.006.4638-.013.9357-.019 1.4039zm27.863-.0489c.072.0764.136.0634.194.0123-.065-.0081-.131-.0164-.196-.0245.001.0041.001.0082.002.0122zm-29.253-.0976c.26-.2849.523-.5635.783-.8484-.255-.1827-.511-.3725-.764-.5555-.007.4663-.012.9376-.019 1.4039zm87.291-3.0702c.099-.3572.497.0459.867.4212.244.2469.475.4848.601.4822-.483 5.2065-1.549-.6272-1.468-.9034zm46.198-6.1891c-1.793-.7047-.985 9.0755.45 8.7527.098-2.1048-.26-.8494-.285-2.002-.023-1.1493.386.1665.202-1.9532-.639-.6196-.297 1.8055-.762 2.2767.086-1.2438-.082-3.5424-.021-4.59.116-1.9518.509-.0976.416-2.4842zm62.287 1.6419c.004.0142.01.0276.014.0427.269 1.0146.319 6.5493.369 6.7263.58 1.4547.874-3.6149.518-5.5849-.208-1.1482-.553 2.2489-.561-1.2513.431.7045.589.2431.639-.4333-.325.1656-.652.3382-.979.5005zm13.985 6.8361c.11-2.765.884-1.2858 1.25-1.6968-.323 2.5364-.772 1.8445-1.25 1.6968zm-198.455.1099c.598-.0512.463-1.1414.561-1.7884-.139-.0273-.277-.0518-.414-.0793-.049.6215-.099 1.2453-.147 1.8677zm213.651-2.8382c-.149.0102-.332 1.7152-.259 2.0203.559 2.3192.948-2.0613.259-2.0203zm-31.236-2.2401c-.449 1.4205-1.362-.3732-1.287 3.6439.798 2.4086.485.9951.832-1.0864.237-1.4007.635 1.0873.455-2.5575zm-57.362 4.236c.229.1431.458.2883.687.4394-.083-.7867-.168-1.5875-.251-2.3743-.144.6431-.292 1.2918-.436 1.9349zm-50.216-4.2543c.103-2.1284 1.839-.1476 1.583.7935-.699-.4039-.663.2903-.617 1.1536.022.4092.047.8593-.005 1.2451-.288 2.0252-1.047-1.4249-.961-3.1922zm-78.99 2.7894c.175.3235.352.6528.525.9766.068-.4429.136-.8888.205-1.3306-.162-.0393-.322-.0765-.481-.116-.083.1555-.166.3149-.249.47zm190.477-4.236c.642 4.3114.749 7.1519.791 3.5463-.131-.3721-.201-.8595-.134-1.2818.049.0144.098.0367.146.0549.004-.6028.01-1.3142.014-2.1363-.272-.0583-.545-.1247-.817-.1831zm20.28-.1831c-.312-.2736-.697 3.3794.019 2.7894.033-.04.296-2.3731.503-.8545.134 1.055.027 1.9834.206 3.1983.178 1.2092.637-3.9004-.728-5.1332zm-1.523-.0915c-.554.1797-1.088.432-1.644.6836.143.7457.069 2.5797.268 3.0945.2.521.784 1.2691 1.004.6165.218-.6584.194-3.38.372-4.3946zm-123.469-6.5188c.266-.2598.857-.8319.733.2991-.054.4293-.21.3438-.348.2625-.164-.0963-.305-.1807-.232.6286.551 1.6871 1.029 1.3304 1.681.8363.019-.0163.039-.0326.058-.0489.006-.027-.016-.1503-.048-.3296-.083-.4615-.232-1.2938-.139-1.825.041.0885.079.1633.11.2137.286.4789.192.8385.626.9338.028.006.129-.0012.268-.0244.046.163.096.3022.158.3967.093.1446.212.2042.337.2625.201.0942.417.1904.559.6836-.091.8839-.51.3184-.853-.1526-.212-.2911-.394-.5421-.453-.3845-.014.035-.042.369-.076.7935-.053.6806-.125 1.5951-.192 1.8799.038.0641.12.0013.211-.0732.182-.1488.4-.3268.369.4394-.001.0326-.003.0651-.005.0977-.001.0386-.002.0773-.003.116-.001.004-.001.0081-.002.0122-.045 1.1953-.119 3.1552-.525 3.2105-.036.0144-.062-.1395-.091-.3174-.034-.2073-.075-.4449-.141-.4822-.097-.0374-.205.037-.314.116-.143.1034-.288.2138-.41.061-.037-.0385-.078-.2379-.121-.4517-.055-.2735-.116-.5757-.185-.6164-.052-.0222-.131.1819-.227.4333-.169.4453-.393 1.0296-.614.7386-.151-.1845-.414-2.4557-.124-2.8749.176-.2643.214.0527.247.3296.018.1483.037.282.073.3113.08.0562.178-.0014.272-.0671.223-.1546.439-.3053.435 1.1597.22.0272.198-1.5755.137-1.9105-.166-1.0088-2.056-2.5665-2.231-1.8982-.006.0289.004.0905.018.1831.057.3732.192 1.2629-.173 2.6856-.281 1.0722-.626.9821-.786.94-.048-.0125-.078-.0169-.086.0122-.009.0428.012.2845.043.6165.125 1.3367.392 4.1686-.666 1.7823-.127.1919-.104.6136-.084.9704.014.2515.026.4758-.017.5677-.121.2846-.626.6107-.685.4639-.028-.4293-.056-.8586-.084-1.2879.007-.0308.063-.0722.14-.1343.258-.2057.776-.6244.752-1.4832-.617.6083-.849.1048-1.334-.9522-.025-.0457-.063-.1841-.106-.3418-.144-.5287-.357-1.3063-.462.1526-.022.3155.072.4585.175.6104.138.2025.293.4304.215 1.1414-.339-.0303-.521.4637-.74 1.0498-.014.0366-.027.0733-.041.1099-.084-.3895-.005-.7254.065-1.0132.048-.1963.093-.3757.076-.5372-.012-.1266-.493-1.5179-.521-1.5808-.09-.1058-.307-.1009-.523-.0916-.146.0063-.293.017-.398-.0122-.114-.022-.257-.2067-.373-.354-.089-.1128-.163-.2071-.197-.1953-.07.0281-.141.2183-.215.4089-.091.2345-.187.4802-.287.4578-.05-.0165-.109-.183-.175-.3906.04-.169.084-.3449.131-.531.067-.2681.128-.5303.187-.7813.107-.4545.209-.8888.331-1.3062.021.1586.048.313.079.4517.095 1.1985.53 1.3798 1.179 1.0742.154-.0622.169-.3596.181-.6165.007-.1628.015-.3145.056-.3784.234-.29.532-.3979.836-.5066.345-.1229.7-.2485.981-.647-.01-.5478-.169-.4053-.294-.293-.062.056-.117.0978-.141.0489-.069-.1619-.133-1.7958.103-2.1302.442-.5782.586.3055.723 1.1475.067.4131.133.8156.232 1.0315.643 1.3504 1.532.3339 1.074-2.1668.545.9434.56.6813.582.2686.01-.1783.021-.3825.077-.5311.455-1.2699.559-1.1296.737-.8728.086.124.191.2769.36.3052.018-.0078.06-.0497.115-.1038zm119.693 5.9633c-.127 3.5604.277 4.0463.432 3.9918.56-.1846.878 2.8703 1.127-.6408-.322-2.1315-.564.2594-.727-.0123-.355-.6339-.353-3.5643-.832-3.3387zm-12.765 3.7782c-.068.3327-.324-.29-.75-.3113.09.0519.181.112.271.1648-.059.6888-.174 1.0686-.309 1.233.417.0437.684-.1213.776-.7935.004-.0975.008-.1962.012-.293.015-.0763.028-.1969.022-.3906-.001-.0041-.002-.0082-.003-.0122-.007.1313-.013.2688-.019.4028zm-71.03-1.825c.086.9217.174 1.8494.259 2.7711.086-1.2999.172-2.6069.256-3.9064-.171.3768-.344.7585-.515 1.1353zm-43.897.9827c.17.2676.346.6903.326 1.1414-.233-.19-.433.1556-.613.6287.003-.0163.005-.0326.007-.0489.002-.0183.005-.0366.007-.0549.003-.0163.006-.0325.009-.0488.078-.5123.172-1.0887.264-1.6175zm-1.72-1.0132c.072-.0098.133.0549.187.1709-.025.1591-.05.3173-.074.47-.102.6708-.162 1.2513-.211 1.8189-.155-.0178-.31-.0506-.388-.116-.047-1.0554.072-2.2951.486-2.3438zm218.059-.2136c.028.8898.055 1.7835.083 2.6734-.004-.7332.028-1.7237.055-2.704-.046.0112-.092.0205-.138.0306zm-56.035-2.2523c-.455-1.5296-1.102 1.7211-.769 3.7782.401 2.4538 1.507-1.2869.769-3.7782zm-77.893 4.2421c-.385-2.945-1.467-3.6226-.676-.5372.2.775.462.416.676.5372zm56.193-.0611c.282-.6371.567-1.2734.848-1.9104-.169-.6321-.341-1.2601-.509-1.8922-.112 1.2691-.227 2.5415-.339 3.8026zm14.094-2.3194c-.565-4.6141-2.556.2066-1.257 2.0387.223.3062.115-1.1496.254-1.1842.001.0041.001.0082.002.0122.142-.0196 1.42 2.5735 1.001-.8667zm-10.14 1.1414c.38 2.1117.67-6.7048.074-2.8321-.057.3817-.102 2.6545-.074 2.8321zm14.989-.0244c1.015 1.1725 1.777-4.1965.441-2.7711-.074.1009-.195 2.8582-.441 2.7711zm-2.915.1343c.277-.3815.555-.7641.831-1.1536-.267-.1377-.537-.2755-.805-.4212-.008.526-.017 1.0488-.026 1.5748zm-153.851-.409c-.181.1739-.422.1988-.652.055.028-.152.056-.2924.08-.4212.034-.1733.069-.3523.105-.5249.156.297.311.5941.467.8911zm115.864-.0122c.007.0753.019.1321.037.1465.003.0016.007-.0111.012-.0122-.016-.046-.033-.0907-.049-.1343zm-.396-1.9959c-.165.6296.056 1.0251.396 1.9959-.035-.4062.058-1.511-.006-1.5808-.129-.1445-.26-.2963-.39-.4151zm1.909-2.417c-.099.027-.196.0693-.282.1587-.03 1.2417-.013 2.6901-.11 3.0701-.036.1422-.065.2223-.087.2442.131.5194.322.8258.515.824-.075-1.576-.134-3.1459-.036-4.297zm20.031-1.5137c-.049 2.2845-.024 4.319.307 5.7679.078-2.2363-.103-3.9608-.307-5.7679zm-20.629 2.6062c-.085.8062-.046 1.5397.059 2.1058-.023-.6041.062-1.9957.058-2.0875-.018-.1597-.036-.2988-.051-.415-.027.1122-.05.2465-.066.3967zm2.661-.8057c-.101.1069-.186.4275-.209 1.0132-.042 1.103.144 1.555.328 1.6541.312-.496.01-1.698-.119-2.6673zm-1.346-.4944c-.079.1027-.192.1432-.317.1587-.023 1.5065.092 2.2467.259 2.4598.058-.6659.083-1.5319.058-2.6185zm-308.7185-16.5776c.3476.1741.9819-1.6595 1.126-.0854-.3644.5272.2173 3.4504.5751 2.6185.3389-.6675.2866-1.3936.0103-2.2828 1.1665.0463 2.5147-1.1884 3.435.5066-.1785.3067-.2108.9654-.2421 1.6663v.0366c.3692.0717.5696 1.2343 1.0077.7874-.0644-.9981-.2042-1.5459-.3468-2.0508.9391.4809 2.2515-1.5874 2.9011.885-.7258-.0547-1.2669-.2589-1.0866 3.0946.3046-.2025.6004-.4616.8978-.6592.4639 2.0277-.4456 3.4237.0927 3.7293.5114-.9053.6256.8768 1.1278-.0549.025-2.2904-.1075-4.3552-.5562-7.2146 1.6661-.5069 3.3545-1.1479 4.985-1.4099-.5327 1.6795-1.1548.7954-1.4333 1.0437-.2471.2341-.2063 1.4599-.4223 1.825.0346-.0953-.6499-1.2298-.5339.3906.2328.6017.4676 1.2032.7055 1.7701.721.3089.3722-2.1411.9596-2.2156.2996 1.5062 1.8494 2.1798 1.4282-1.0438-.3278.0937-.8391 1.4065-.8239-.9033.5571-.5892.8476.6941 1.478-.354.2763 1.2064-.3445 2.7914.2248 2.887.2356-.1915.0674-1.3965.2489-1.709.4558 4.2089 1.58 3.7795 2.5818 4.1871-.5208 1.4215-1.1155 5.0026-1.7921 3.6256.1591 1.3755-.1287 1.6054-.1906 2.4354-.5251-.8489-1.8586 1.2638-1.538-.3662.1127-.5476.5907-.0239.4823-1.117-.636-1.4358-1.714 3.3207-.4909 3.4241-.2974.1977-.5919.4555-.8892.6531-.4089-2.947.2897-3.1644.1493-5.4383-.2547-.6815-.8412.3735-1.0162 1.532.9105-.2261.0835.3846.5768 2.6124-.9225-.6792-1.3593 2.1349-2.1956.8606.5565-.4977.9225-3.0116 1.2737-5.5177-.435-.6554-1.2435 1.6135-1.205 3.9551-.4356.0669-.8806-.9551-.8343 1.3795.236.2218.4602.4853.6455 1.0559-1.5926 2.7948-3.3736 1.8281-5.8897 4.3519-.3642-.4214-.6544-1.3592-1.0592-1.5015-.5332 1.7697-1.4.0753-1.7132-.2563-.3141-.3586-.7942.144-.9475-.0672-.9603-1.4159-1.4602-5.5691-2.1527-8.3315-.0051-.0061-.0103-.0122-.0154-.0183.3811-2.3074.1654-6.1808.4618-8.7161zm311.3415 18.7811c.373.2774 1.228-4.8536.237-2.3011-.031-.7163-.062-1.4275-.092-2.1424-.006-.0198-.012-.0435-.018-.0672-.042 1.5006-.083 3.0103-.127 4.5107zm.553-.5616c.006-.0196.012-.0405.017-.061-.013-.0122-.028-.0193-.041-.0366.007.0321.017.0657.024.0976zm3.631-3.7537c-.238-.3413-.513-1.0816-.721.0366.105 1.2055.214 2.4247.321 3.6378.138-.9782.287-1.5808.451-1.9166-.014-.5265-.029-1.1136-.051-1.7578zm-148.441 2.1607c.369 1.7309 1.586 2.0978.759.2929-.21-.452-.517-.2273-.759-.2929zm155.273-3.3021c.053 1.9058.221 4.2198.252 4.2909.721 1.6086.678-1.8796.707-3.9003-.116.0562-.231.0921-.343.0855-.003.0305-.006.061-.008.0915-.131.9342-.217.5531-.282-.2075-.055-.0389-.112-.0782-.165-.1404-.063-.0735-.116-.1492-.161-.2197zm-21.791 3.6195c-.147.109-.297.1583-.438.1526.02.7581.168 1.0358.546.4882-.043-.2431-.078-.4574-.108-.6408zm-7.68-.3785c.074.4033.146.8114.22 1.2147.092-1.2856.183-2.5839.276-3.8698-.088-.0146-.181-.0324-.269-.0549-.075.9024-.152 1.8076-.227 2.71zm11.058.6958c-.168-.2296-.283.1008-.413.4639.178-.0165.362-.1073.527-.2502-.035-.0814-.072-.1567-.114-.2137zm-93.529.0245c.204-.2278.412-.4498.616-.6775-.075-.5436-.153-1.0923-.228-1.6358-.13.7705-.26 1.543-.388 2.3133zm131.808-2.3988c-.044-.3492-1.029.0684-1.044 1.8067.171.5756 1.356.8292 1.044-1.8067zm9.915-5.3102c.068 1.5837.063 6.2172.299 6.8483.375.984.74-1.064.527-3.302-.063-.6718-.784-1.9399-.826-3.5463zm-57.568 6.4394c.025-.406.229-.3751.264-.6226-.077-.0913-.155-.1838-.233-.2746-.01.2988-.021.6006-.031.8972zm-140.608-.4334c.182.0056.356.0161.52.0183-.071-.0363-.15-.0547-.247-.0366-.07.0143-.167.0087-.273.0183zm1.537-3.1739c-.059.4955.149 1.3449-.225 1.1109-.074-.2569-.15-.5199-.227-.7813-.236.2141-.484.4609-.728.6165.165.7457.33 1.5005.495 2.2461.846 0 1.447-.0433 1.883-.1464-.19-.5923-1.262-.7133-1.509-.5127.054-2.1181.964.1471 1.243-1.5626-.081-.2662-.295-.7364-.5-1.0193-.084.0003-.168-.0058-.252 0-.058.0039-.119.0209-.18.0488zm-4.467 1.2208c-.469.2983-.944.5371-1.425.7202.098.0791.195.2093.282.4517.032.0923.02.2875-.005.5371.093.0075.185.0173.276.0244.437.0343.848.0582 1.234.0855-.122-.685-.256-1.3455-.362-1.8189zm-93.4522 1.7578c.1241-.3418.2483-.6836.3725-1.0254-.111-.1058-.222-.2116-.3331-.3174-.0131.4476-.0263.8952-.0394 1.3428zm107.3482-.3052c.86-.0775.937-2.1767.167-1.1352-.164.2215-.172.6709-.167 1.1352zm-18.877-.122v.0244c.181.0181.362.0314.54.0488.002-.0268.002-.0591.004-.0854-.181.0101-.363.008-.544.0122zm213.608-2.295c-.308-1.2789-.781.1379-.548 1.7212.234 1.5814.928-.1287.548-1.7212zm-59.9-6.653c-.119.8411-.449 4.2105-.429 5.6031.034 2.2256.44 3.9797.737 2.8627.012-.6793.043-1.2519.151-1.3367.033-1.3892-.038-3.4965.434-1.9532.024.0815.084.5008.158 1.0254.265-.3404.732-.7363.999-.3845.051-.8141.08-1.6735.026-2.7406-.091-1.7606-.685-.7954-.938-1.1719-.107-.1663-.168-1.6519-.188-1.7029-.252-.5022-.336 1.0073-.569 1.1658-.107.0686-.261-2.1896-.381-1.3672zm-91.349 8.4169c.36-.2968.72-.6004 1.08-.8972-.154-.1619-.307-.3203-.46-.4822.102-.1539.205-.3039.307-.4578-.129-.1615-.26-.3267-.388-.4883-.179.773-.359 1.5524-.539 2.3255zm137.631-1.6174c-.108-.3198-.217-.6325-.326-.9522.009.7982.018 1.6067.027 2.4048.216-.8208.432-1.645.646-2.4658-.081-.4397-.165-.8849-.246-1.3245-.034.7742-.067 1.5634-.101 2.3377zm-19.612-2.0326c-.019-.0011-.038.0053-.057.0061.047 1.066.035 2.238.062 2.411.383 2.3096.823-1.2504.88-3.6988-.129.2259-.302.4077-.523.5371.007-1.0453.016-2.1038.024-3.1495-.131 1.3056-.24 2.576-.386 3.8941zm16.259-9.6438c-.643.1203-1.282.285-1.915.4883.053 3.5468-.491 4.7286-.433 7.8066.034 1.7787.655.987.894 1.4344.102.196.116 1.6979.134 1.7579.235.5701.368-.9082.605-.9949.109-.033.189 2.2548.334 1.4709.146-.7992.581-4.0646.605-5.4567.04-2.5001-.407-4.5513-.766-2.5513-.175.9755-.046 4.6504-.563 2.588-.07-.2865-.358-4.0565-.613-3.827.314-2.2663 1.342-2.1893 1.775-1.5321.008-.5199-.014-.9005-.057-1.1841zm-53.118 4.529c-.405-.8655-.702 1.2836-.419 3.4485.085.6506.842 1.698.934 3.2838-.118-1.556-.261-6.1774-.515-6.7323zm32.928 5.1637c-.106.0345-.149.5302-.157 1.239.07-.1119.15-.2128.225-.2991-.026-.5366-.047-.9378-.068-.9399zm-39.505-1.178c-.283-1.5079-.921.4055-.491 1.8799.347 1.1784.773-.3736.491-1.8799zm24.977 1.239c-.436-1.3365-.489-2.6649-.975-1.8189.253 1.2284.759 3.8396.975 1.8189zm-108.359-.4395c-.118.1608-.232.3347-.315.5433.166.2371.339.3159.514.299-.063-.061-.125-.122-.187-.1831-.004-.2197-.008-.4394-.012-.6592zm115.608-3.0518c-.002 1.8359-.064 5.1786.313 1.3916.04-.4038.062-.8096.085-1.1902-.088-.0584-.301.6571-.398-.2014zm11.139.9766c-.085.3255-.203.5585-.391.6226.172-.1437.275.2393.338.824.026.0359.052.0741.077.1098-.007-.5185-.016-1.038-.024-1.5564zm-30.619.1282c.094.4129.191.8261.285 1.239.01-.7795.019-1.5704.029-2.3499.118.2866.235.5682.354.8545 0-.0041 0-.0081 0-.0122-.034-.7924-.069-1.588-.103-2.3804-.189.8809-.378 1.7685-.565 2.649zm-100.798-1.7396c.238.0387.476.0723.714.116.395.0738 1.887.0187 2.141.5127.756 1.4837.527 3.493 1.121.3479.448-.1847.075 1.3384.263 1.7457.038.0715.211-.451.396-.8851-.004-.2441-.009-.4883-.014-.7324-1.495-1.9369-2.991-3.8738-4.487-5.8107-.044 1.5686-.089 3.1373-.134 4.7059zm127.658-2.417c-.216 1.0107-.333 3.0556-.29 4.5777.127-.1799.255-.3675.383-.5493-.065-.3939-.125-.7817-.138-1.2207-.036-1.2912.426-3.2578.045-2.8077zm-242.866.7751c-.257-.0727-.553.0339-.862.1526.038.3479.075.6958.113 1.0437.138-.1383.275-.2767.412-.415-.003.645-.007 1.2899-.01 1.9349.189.2339.379.4679.568.7019.177-.9725.355-1.9451.532-2.9176-.068-.1037-.136-.2075-.204-.3113-.182-.0696-.366-.1371-.549-.1892zm240.55 3.2655c.129.0341.259.0719.388.1038-.005-.3495-.01-.7026-.015-1.0499-.043-.1384-.084-.326-.126-.5615-.073-.0187-.146-.0357-.219-.0549-.009.5192-.019 1.0432-.028 1.5625zm31.469-7.4831c.233 1.5227.24 4.0533.264 6.9582.376.6191.108-2.6273.502-2.0997.138.1863.141 2.1346.168 2.295.325 1.8238.362-3.8035.17-4.4252-.193-.6086-.639.5648-.747-1.7334.317-1.0188.596.4882.973-.0977.114-.1772.174-.4989.2-.8606-.152-.0017-.305-.0032-.457-.0061-.044.5485-.097.7371-.299-.0061-.258-.0062-.516-.0159-.774-.0244zm-264.121 4.6632c-.192.3519-.394.6283-.611.8423.053.5168.106 1.0336.159 1.5503.112.0753.225.1506.337.2259-.008-.4776-.003-.9754.024-1.4893.021-.401.053-.7803.091-1.1292zm247.571 2.3682c-.213-1.297-.632-4.0429-.911-2.0935.391 1.4572.401 2.792.911 2.0935zm-15.581-3.3082c.018.214.033.4312.032.6592-.005 1.3508-.569 3.2753-.075 2.7284.025-.0407.125-.573.249-1.2574.023-.8255.015-1.7026-.03-2.4415-.058.1045-.118.2062-.176.3113zm-215.243-2.7222c-.163 1.2285-.345 2.2222-.544 3.0213.198.6938.396 1.3876.594 2.0814-.019.2522-.037.5045-.055.7568.01.003.019.0031.029.0061.136-.6376.258-1.0419.371-1.2818-.494-1.7275.398-2.8902.863-3.8758-.296-.2869-.593-.5737-.889-.8606-.122.0505-.246.1004-.369.1526zm-31.074 2.7344c-.055.6592-.11 1.3184-.165 1.9776.297-.2726.594-.5452.891-.8179.106.527.212 1.0539.318 1.5809.121-.645.242-1.2899.364-1.9349.262.7223.524 1.4446.786 2.1668.083-.9847.166-1.9694.249-2.9542-.038.0701-.082.1358-.134.1709-.186.1255-1.104.1065-1.808-.2685-.167.0264-.334.0529-.501.0793zm65.221 2.7284c.065.0407.13.0814.196.1221-.016-.0733-.031-.1465-.047-.2198-.049.033-.1.0652-.149.0977zm-35.325-.6226c.063.2401.125.4802.188.7202.016.0052.034.0071.051.0122-.039-.3296-.078-.6591-.117-.9888-.039.0901-.081.1759-.122.2564zm235.71-5.2858c-.368.0427-.737.0855-1.105.1282-.171 1.9579.273 1.9495.65 1.9288-.18-.5114-.36-1.0315-.535-1.6053.277.0245.555.0444.832.061-.007.5251-.014 1.0572-.02 1.587.077.0295.139.0856.166.2258.158.8337.086 4.8699.52 3.0885.165-.6793-.029-2.5597-.233-2.7955.734-1.9691.567-3.0639.146-3.5157-.141.2991-.281.5981-.421.8972zm31.304 3.0274c.29 3.047 1.346 4.0436.656.7386-.175-.8308-.446-.5537-.656-.7386zm-21.31 2.6185c.088.0405.18.0858.268.1343.103-.8775.207-1.7592.311-2.6368-.061-.423-.118-.8526-.179-1.2757-.132 1.2539-.266 2.5244-.4 3.7782zm-3.102-6.2807c.047.7532.324 1.2568.423 1.7701.167.8796-.226 2.16-.136 3.0152h.005c.094.8573.696 1.1173.767.4029.152-1.5633-.395-2.8573.037-3.9003.549.2598 1.112.5459 1.666.8057-.013-.7054-.026-1.4126-.039-2.118-.912-.0228-1.82-.0118-2.723.0244zm-269.482.9827c-.501-.3877-.174 2.0809-.57 2.8382.308.5656.616 1.1313.924 1.6969-.082-.5982-.163-1.1964-.244-1.7945.089-.5412.177-1.0824.266-1.6236-.081-.5226-.176-.9604-.376-1.117zm245.232 3.7111c.047.1687.098.3839.149.6592.052.0289.104.0501.156.0793-.007-.5325-.014-1.0666-.022-1.5992-.088-.0493-.176-.0986-.264-.1464-.006.3362-.013.6731-.019 1.0071zm-57.641-2.9847c-.312 1.5118-.567 2.6662.594 3.3631.001-.082.004-.1695.005-.2503-.427-.3433-.671-1.214-.599-3.1128zm-118.307 1.8616c-.101.0282-.164.1002-.201.2075l.369-.1038c.389.8053.599.975.73.7996-.342-.4876-.655-.9694-.898-.9033zm181.34-.2014c.008.1059.022.2214.029.354.016-.1535.026-.3118.038-.4639-.015-.0388-.037-.0085-.067.1099zm-257.037.2563c-.004-.0427-.007-.0854-.011-.1282-.03-.0043-.061-.0134-.092-.0183.034.0489.068.0977.103.1465zm245.499-.1465c.006-.0394.01-.0828.016-.122-.004 0-.007 0-.011 0-.001.0398-.003.0822-.005.122zm-15.628-.1526c.003.0174.006.0372.009.055.024.1441.219.0865.429-.1587-.145.0397-.292.0729-.438.1037zm-237.4158-.824c.0372-.0915.0744-.1831.1116-.2746-.0826.0027-.1647-.0107-.2437-.0489.044.1079.0881.2157.1321.3235zm229.1778-1.4709c.05.377.128.7473.246 1.0742.242.6704.493.2074.643-.6653-.307-.186-.609-.3284-.889-.4089zm-225.7703 1.2756c.02-.0875.0401-.1749.0601-.2624-.0972-.0389-.1957-.0728-.2935-.1099.0778.1241.1556.2482.2334.3723zm289.3813-2.2156c.043.5031.13.9448.287 1.2573v.0123c.219.4303 1.086-.5985 1.368.7446.029-.4394.009-1.2106-.038-2.1302-.537.055-1.077.0952-1.617.116zm-282.362-3.1861c-.184 1.337-.306 2.6851-.484 3.8148.301.0203.603.0407.905.061-.005.297-.01.5941-.014.8911.039-.2729.066-.5695.044-.8606-.036-.5017.015-4.1714-.451-3.9063zm137.509 4.6327c.059-.1954.118-.3907.177-.586-.09-.0367-.179-.0908-.264-.1587.029.2482.058.4964.087.7447zm38.89-.0122c.024-.0145.048-.0284.072-.0428-.003-.0447-.007-.0895-.01-.1343-.02.0631-.043.1168-.062.1771zm100.755-1.1475c.878 1.2475.868.9524.728-.3296-.24-.0092-.479-.0216-.718-.0306-.004.1193-.006.2421-.01.3602zm8.279-.5921c.298 1.0759.889 1.2942 1.088 1.2757.354-.0357.246-1.0063.34-1.5931-.474.1276-.95.2325-1.428.3174zm8.714-4.8707c-.449.4899-.901.951-1.358 1.355.084.1451.168.3931.237.8545.12.8177-.377 3.6782.173 3.7782.338-.8285.047-2.5509.206-3.7965.128-.9932.782-.6526.742-2.1912zm-171.849 5.945c.223-.6125.445-1.2249.668-1.8373-.199-.1871-.398-.3743-.597-.5615-.024.7996-.047 1.5992-.071 2.3988zm-89.284-.3541c.028.1099.056.2198.084.3296-.005-.1134-.025-.2227-.065-.3357-.006.0023-.013.0038-.019.0061zm262.561-.0854c.751.1253.854-3.4116.165-1.8738-.147.3271-.162 1.085-.165 1.8738zm-8.254-1.0865c.275.441.599 1.233.852.6653.168-.3806.239-.738.247-1.0498-.365.1426-.731.2732-1.099.3845zm14.569-3.65c-.064.6473-.089 1.3265-.034 1.8128.159 1.387.422-.2388.575-1.6663-.18-.0491-.36-.1043-.541-.1465zm-314.7337-5.0538c-.7333-1.3646-1.8227 1.2742-1.2927 3.064.6384 2.1345 2.4823-.8423 1.2927-3.064zm-64.5876-.2381c.8508-1.1322 4.6417-.566 5.0211-.5737 1.5111-.0403.6106 3.6587.3571 3.6866-1.065.1178-1.8561-4.2279-2.3689.7325-.6526.202.0207-1.7754-.376-2.0326-.7823-.5036-1.6449 2.0164-2.4616 1.6053-.0011 0-.0023 0-.0034 0-.0544-1.1055-.2293-2.3041-.1683-3.4181zm31.311 1.2269c-.244-.0184-.5575 1.3904-.4411 1.6602.8985 2.0473 1.5715-1.5819.4411-1.6602zm-35.8154-1.178c1.3544-.5356 1.5294 2.9177.4481 2.8809-.3085-.0117-.6486-1.9626-.4481-2.8809zm3.1174-.9278c.3577.4638.1481 2.0626.8721 1.3367.0045.0814.0091.1628.0137.2442.0127 1.2442-.6362 2.1457-.9579 2.0447-.0104-.0295.0692-1.0253-.012-1.0682-.6036-.2374-1.5538.6506-1.49-2.1668.5537 1.7134 1.215-.8511 1.5741-.3906zm61.441 3.18c1.6492 1.1246 2.9323-3.2472.7364-2.2644-.1212.0566-.3406 2.3292-.7364 2.2644zm-7.9565-1.7273c-.8886-3.9862-4.192-.2498-2.0788 1.5076.365.3003.1985-.9479.4291-.9522.0006.0021.0012.0041.0017.0061.231.0036 2.3079 2.4116 1.648-.5615zm3.1637 1.3672v.0122c.4561-.277.9154-.5646 1.3716-.8484-.438-.1598-.8788-.3156-1.3167-.4822-.0181.4409-.0367.8775-.0549 1.3184zm-35.4738-5.1454c-.5099-.2875-1.1745 2.7466.0069 2.3621.052-.0191.5039-1.9569.8308-.6409.2115.9125.0272 1.6856.3107 2.7406-.0011 0-.0023 0-.0034 0 .2823 1.0426 1.0818-3.2004-1.145-4.4618zm-13.4187 4.2665c.2019-2.3189 1.4587-.9444 2.0616-1.233-.5496 2.0885-1.2801 1.4351-2.0616 1.233zm8.2174-4.2848c.2302.6519.092 2.1958.4154 2.6612v.0122c.3242.4719 1.2753 1.1975 1.6411.6836.3655-.5161.3449-2.8355.6471-3.6622-.9113.0615-1.7894.1833-2.7036.3052zm14.3818 3.4608c.4675-.492.9366-.9852 1.4041-1.4771-.2735-.5614-.5491-1.1174-.8205-1.6785-.1938 1.0528-.39 2.1095-.5836 3.1556zm6.4922-.354c.6078 1.8525 1.1528-5.5508.1425-2.3744-.0965.3147-.1875 2.235-.1425 2.3744zm-24.3605-4.4862c-.2363 2.9815.4208 3.4511.6764 3.4302.9201-.067 1.4154 2.5671 1.8522-.354-.5096-1.8504-.9277.1313-1.1913-.1282-.5774-.5928-.5504-3.061-1.3373-2.948zm56.8268-2.3683c.0979 1.3489.0527 5.254.4343 5.8229.6073.8917 1.2203-.7803.8892-2.7039-.1018-.578-1.2685-1.7601-1.3235-3.119zm-39.58.8851c-.0989 1.9192-.0753 3.6374.4567 4.9134.1449-1.8734-.1367-3.3562-.4567-4.9134zm51.8879 2.9419c-.494-1.1309-1.282-.0136-.911 1.3612.371 1.3731 1.521.0443.911-1.3612zm-76.638-13.0252c.8019-3.1983.1627-4.5678 1.5793-1.1414-1.5561 3.1741.4668 5.7006.3845 8.7832-.049 1.7394-.7299.5566-.9681 1.416-.366 1.3196.0453 3.679-.3691 4.4801-.4135.7992-1.7259-1.2002-2.1681-1.2268-.8453-.0391-1.5962.9219-2.302.8972-.7058-.0261-1.7688-1.7334-2.2195-1.9836-.4501-.2483-.9008.0088-.9785.1831-.4611 1.0205-.2313 3.5589-.848 3.5157-.0066-2.4509-.8035-6.4593.1202-7.7761-.1297-.0891-.2854-.5818-.412-.5432-.5952.1954-.3152 3.6179-.6009 4.1566-.4848.9044-.1214-1.6837-.1287-1.8006-.4339-2.0801-.2342.2896-.4497 1.3001-.1131.5161-1.0243 1.5395-1.212 1.4465-.1855-.0973.0706-1.38-.0532-1.4648-.538-.366-1.0898-.7994-1.6342-.5921-.5439.2159-.8765 2.4657-.824-.8545.0101-.523.3177-.9675.2369-2.1912 0-.0061 0-.0122 0-.0183-.0271-.3958-.4418-2.3451.1837-3.3876.1774-.295.3668-.4374.5596-.4578-.0759.4389-.1524.878-.2283 1.3184.1475.0467.2944.102.4412.1526-.0986 1.153-.2035 2.36-.2764 3.473.1758 1.2863.4071-.333.4394-.3113.5.5579.4159 2.9472.8017.177-.3364-.4798-.6659-1.0166-.9905-1.5625.0158-.5873.0318-1.1811.0464-1.7701.0662.0229.1325.0502.1991.0733-.0303-.4864-.0607-.9799-.091-1.4649.4768.26.9666 1.0975 1.3939 2.0142-.1602.6443-.3375 1.3776-.4961 2.0691.5954-.4773.236.9298.6369 1.7945.1491-2.8183.3688-2.1253.7124-1.8738.3428.249-.0786-1.9115.2763-2.1119.722-.4045 1.8885 3.1293 2.1321-.946.8763 2.6706-.2444 2.8571-.3228 3.8514-.3265 4.2552 1.5827 2.7409 1.9038.4272.2409 1.4215.2153 3.3461.9269 2.9359.9647-.5628-1.0677-3.2155.2352-3.4058.8718-.1263.7197 1.8904 1.1416 2.4414.7862 1.0123 2.221.1854 1.7612-2.771-.1853-1.1787-.815.22-1.03-1.0194-.1186-.6899.263-6.5251-.5459-2.0813-.0782.4441.2849 2.6472-.3175 2.6124-.1731-.0113-.7187-2.0295-1.2171-1.5321-.218.2147-1.163 2.7732-1.6909 1.703-.5712-1.1316.3328-1.5494.1253-2.5148-.2094-.9643-.9374-.9907-.884-2.9297.4257-2.1489.4238 1.2836.5562 1.1475.5075-.5564.1464-3.9639.8617-3.4608.0834 1.8264-.6309 6.5638.4446 5.4872.0054-.0807-.2304-1.2538.1167-1.5992.604-.5991 1.7482-.8593 2.4771-.6836-.0127-2.6981-.9082-2.6408-1.3355-4.5655.9895-.3168 2.0965-.9762 2.7775 1.6907-.3765.3121-.7536.6337-1.1278.946.4381-.0628.8772-.1199 1.3132-.1831-.178 1.111-1.1941 3.7972-.5099 4.529.0951-2.9107 1.0656-3.2789 1.4471-4.7975zm251.576 14.6854c-.01-.1927-.02-.3868-.029-.5737-.466-.0115-.927-.1704-1.389-.3967.473.3234.946.6469 1.418.9704zm-265.0033-2.3499c.2399.3889.512.6612.7639.9705-.2188 1.8931-.489 1.574-.8789.2991.0444-.4192.0662-.8576.115-1.2696zm61.4513-.2685c-.0662-.3034-1.6875-.111-1.7252 1.355.2737.5135 2.2158.9205 1.7252-1.355zm-64.0348-.2259c.5912.1487 1.1801.3927 1.7681.6287-.3936 2.2052-2.1177.4222-1.7681-.6287zm156.6928-.0671c-.183.1899-.361.3948-.493.6714.143.2553.294.4137.448.5127.015-.3947.03-.7894.045-1.1841zm-86.3804-.8423c-.174-.2871-.3491-.5672-.5253-.8545.008.6755.0161 1.363.0241 2.0386.3605-.6582.7214-1.3253 1.0797-1.9837-.1287-.3839-.2609-.7698-.3897-1.1536-.0626.6471-.1261 1.306-.1888 1.9532zm277.2124-1.3123c-.23.352-.557.6284-.907.8484.247.5005.494 1.001.74 1.5015.136-.7162.272-1.4323.407-2.1485-.08-.0671-.16-.1343-.24-.2014zm-104.391-5.8534c.231 3.869-.467 6.2971-1.043 6.9948.079.3947.159.7894.238 1.1841.038-.0081.076-.0163.113-.0244.2-1.058.4-2.116.6-3.1739.341.9399.682 1.8799 1.023 2.8199.166-.039.332-.0829.496-.1221.117-1.3774.234-2.7548.352-4.1322.25.4598.501.9196.752 1.3794-.358-1.4829-.94-3.7173-1.276-1.6052-.168 1.0648.109 5.0876-.668 3.3204-.571-1.3049.044-4.6786-.587-6.6408zm-208.611.6652c-1.4692-3.1166-1.8262 2.6361-1.9484 3.2045-.6331 2.9175-.7198-2.1942-.8549-2.2095-.6438.0443.0416 5.6382.1271 5.7496 1.3726 1.7329 1.0778-2.6308 1.2428-3.9185.3601-2.7937 1.2698-.3568 1.4334-2.8261zm205.98 2.8688c-.1 1.1882-.199 2.3764-.299 3.5645.28-.2563.56-.5127.839-.769-.202-.8123-.234-2.0089-.381-2.8199-.053.0081-.106.0162-.159.0244zm-177.256-14.1606c-.8585-1.4569-1.6402 2.6531-1.1793 4.4435.2706 1.0454 1.0345-1.646.8377 1.2818-1.2738-1.4737-1.1639 1.0725-1.1467 1.5198.1161 3.207-.8391 4.0908-.7673 6.769.0422 1.5054 1.0669.9384 1.4557 1.355.1663.1813.1754 1.4574.206 1.5015.3805.5242.6101-.6981.9991-.7324.1796-.0101.2912 1.9283.5355 1.2879.2451-.651.9875-3.334 1.0369-4.5046.087-2.1028-.6299-3.9017-1.2343-2.2705-.2945.7956-.1126 3.9111-.9441 2.0874-.1106-.2409-.5535-3.485-.975-3.3326.5338-1.8618 2.2192-1.6206 2.9234-.9949.0863-2.2164-1.1008-1.5184-1.5484-2.649-.3789-.9569-.1269-5.6108-.1992-5.7619zm197.792 17.481c.015-.1689.03-.3377.046-.5066-.051-1.3487-.126-3.0835-.498-3.2594.15 1.2553.301 2.5107.452 3.766zm-14.607-1.3306c-.071.1504-.152.2723-.242.3601.13.2401.26.4802.389.7202-.049-.3601-.098-.7202-.147-1.0803zm-136.407-1.4466c.451 2.6173 2.176 3.6254 1.073.7264-.281-.7309-.731-.5362-1.073-.7264zm226.206 1.8983c.044.0183.087.0366.131.0549.017-.0895.034-.1791.051-.2686-.06.072-.122.1413-.182.2137zm-84.059-2.3255c.079-1.5354-1.04-.3022-1.282.2075-.104.2221-.182.9303-.271 1.5015.02.1953.041.3906.061.5859.201-.0732.381-.1424.538-.2075.298-.1282.596-.2563.894-.3845.009-.4947.027-1.0639.06-1.7029zm-251.6156-2.9115c-.4745-3.9263 1.5632-3.2442 2.3741-2.5941-.1898-.0464-.3818-.0884-.5717-.1281.0751.8303.1379 1.666.2129 2.4964-.2112.0724-.4205.1411-.6317.2136.2363.8806.4459 1.8611.6712 2.7405-.5789 3.5302-.593 1.245-1.3716.6104-.4996-.4019-.7078.8011-1.3321.8179-2.9176.0848-5.92898 1.3647-8.91265.4028.03016-3.0091.10671-3.7422.66261-4.0772-.03142.8899-.05633 1.7896-.08583 2.6795.36733-.2727.73069-.6098 1.09005-.9644-.32937-.5603-.65623-1.1297-.97675-1.7273.1681-.0948.37872-.1653.64201-.2442.19375-.0613.25523-1.2773.51499-1.1108.55548.3622 1.24492 4.1062 1.86767 3.2166.36115-.5165-.08367-3.9315.75531-2.887-.52848 2.3953-.90278 4.4804.41199 3.6378-.73097-2.2313-.14551-1.313.1425-2.4049.1806-.7011-.93014-.554-.19915-1.8677.14845-.2632 2.39925-1.4244 2.28305.6348-.2467 4.4224-.3526 3.8972 1.1141 1.532-1.7987-1.9811-.1067-4.7397.6867-3.3754.4032.6981-.3228 2.6958.6523 2.3988zm213.5846 1.5747c-.387-.3637-.803.8792-1.216 1.6236.12.4314.239.8627.359 1.294.137-.8972.275-1.7945.412-2.6917.177.2197.355.4394.532.6592.017-.4216.017-.7858-.087-.8851zm-175.1051-2.2644c-.0252-.889.6248-5.634-.3879-2.0142-.3488 1.2528-.3112 2.5805-1.2239 2.649.8511-.2819.6473 3.34.7329 3.6256.7003 2.3086 1.5881-1.9053 1.4815-3.821-.0322-.5538-.5758.4482-.6026-.4394zm214.1371 4.9195c.018-.0051.037-.0071.055-.0122-.015-.0244-.031-.0488-.046-.0732-.003.0275-.006.0582-.009.0854zm-37.79-2.4292c-.355-.8306-.647-1.4419-.875 1.0132.327.4089.654.8179.98 1.2268-.035-.7466-.07-1.4933-.105-2.24zm-134.6677-10.419c-.8-.4991-.6588 2.1162-.4704 3.7354-.5337.2958-1.0601.5367-1.5913.8057 1.5116.326 1.475 3.3995 1.5004 7.2939.6118.5863.1979-2.1931.8394-1.6846.2258.1805.2132 1.8269.2558 1.9654.519 1.5921.6253-3.1647.3141-3.711-.312-.5416-1.0502.3751-1.2085-1.5809.5287-.8089.9737.5143 1.5982.0794.7395-.5195.1496-3.0016-.079-2.411-.4563 1.1748-.1755 3.0853-.963 1.3062-.6696-1.5223.4346-5.4025-.1957-5.7985zm-92.62839 11.0294c-.47383-3.665 1.35259-.6009 1.54324-.5128.5564.2518.72191-1.7565 1.12094-.3357.0354.1576-.35927 2.1811-.62999 2.234-.27341.0508-1.98396-1.0546-2.03419-1.3855zm223.07909-3.7477c.264.5278.111 2.451.647 1.5259.003.0977.006.1953.008.293.01 1.4869-.47 2.6224-.708 2.5269-.009-.0209.051-1.2354-.009-1.2818-.447-.238-1.149.894-1.102-2.4842.41 2.0093.898-1.1054 1.164-.5798zm23.069 1.886c-.051-.2849-.083-.1316-.098 1.5626.08.1159.16.2319.239.3479-.047-.6368-.094-1.2737-.141-1.9105zm-211.1395.2869c.2425 1.9591.7229 1.3728 1.2892 1.1475-.0455-.6907-.0902-1.3785-.1356-2.0692-.3833.3049-.7704.6168-1.1536.9217zm51.9618 1.2452h.0035c.1435.0484.2891.1035.4326.1586.1767-.7236.3571-1.4553.5338-2.179-.0956-.3668-.1893-.7379-.2849-1.1047-.227 1.0364-.4558 2.0889-.685 3.1251zm-87.17295-.6837c-.68378-.0096-1.367569-.027-2.05135-.0366.0005722-.002.00114441-.0041.00171661-.0061.03153489-.4472.06582489-.8898.09956339-1.3367.649837.4582 1.30023.9212 1.95007 1.3794zm88.65615-12.8116c-.7965-.0802-2.0699 2.061-2.9595 1.9776-.5281-.0543-.5077-1.4161-1.0402-1.471-.7945-.0886-2.1872-.4988-2.9354.2747-.2703.2878-.2079 2.8118-.158 3.1068.1286.6937.5594-.5297.7451-.2747.1845.2567-.0225 1.2663.2317 1.416.2561.1477 1.6738-.1081 1.775-.2868.6113-1.0983-.1352-2.5578.5785-2.2279.3179 8.7115-1.7213 3.0391-2.0909 3.4791-1.3875 1.6655-.2572 2.4893.0121 3.2594.2675.7698-.3892 1.7842-.2472 2.5208.0022-.002.0045-.0041.0068-.0061.1446.7415 1.1334 1.0626 1.2566.47.2611-1.2948-.6258-2.4739.091-3.2838.8982.3084 1.8189.6429 2.726.9522-.0295-1.1361-.0586-2.2761-.0859-3.412-.2057.3563-.4156.7174-.6214 1.0804-.162-.3806-.3236-.7615-.4858-1.1353.9658-6.1355 2.1253.961 3.7405-1.6785-.0921 1.2987-.1728 2.6541-.2712 3.9185 2.3547 1.9686.7958.0164.8463-3.2166.0296-1.8587.7408-.0479.9046-.3174 1.1303-1.9159-1.2222-5.0701-2.0187-5.1454zm-17.4013 9.357c2.7107-3.4254-1.898-3.94-2.2093-2.5026-.5827 2.7326 1.4862 1.4909 1.7424 2.2096.253.726.0992 4.1206.8274 2.6856.2761-.5464-.0279-2.1625-.3605-2.3926zm-6.5626 2.6123c-.3385-1.1287-1.0048-3.5218-1.478-1.9165.6293 1.2928.636 2.4223 1.478 1.9165zm-60.89167-.0854c-.00902.0049-.0187.0069-.02747.0122.00055-.0154.00273-.0334.00344-.0488 0-.0041 0-.0082 0-.0123.00787.0148.01615.0342.02403.0489zm262.68307-.1648c.203.0346.407.0692.611.1037.002-.0532.007-.1139.008-.1709-.24-.1157-.483-.2303-.724-.3479.035.1384.07.2767.105.4151zm-152.837-7.2573c-.679 5.1411.69 1.6978 1.33 4.0589-.001 0-.002 0-.003 0 .191.7098-.643 3.0429.259 3.2167.561-.6442.097-2.1489.367-3.1739.273-1.0225 1.886-.1438.953-3.0763-.29-.9074-2.401.9092-2.906-1.0254zm5.486 7.2573c1.23.2271 1.43-2.7464.287-1.5626-.245.2518-.275.8959-.287 1.5626zm213.799-6.7629c.842.3414 7.539-8.1795 5.813 3.119-.015.0973-.024.1618-.018.1892.732 2.7735 2.492-11.8498 3.44.2136.034.4245.061.7587.074.7935.059.1604.243-.0927.455-.3845.343-.4703.762-1.0434.853-.1648-.142.496-.358.6014-.559.6958-.125.0584-.244.1176-.337.2624-.124.1914-.205.5654-.286.94-.12.5516-.24 1.1018-.498 1.0682-.643-.0713-.363-1.6147-.237-2.3133.032-.176.053-.2997.048-.3296-.02-.0143-.04-.0285-.06-.0428-.652-.4943-1.129-.8586-1.681.8301-.073.8085.069.7311.232.6348.139-.0815.294-.1762.348.2564.124 1.1322-.467.5525-.733.293-.055-.0547-.097-.0904-.115-.0977-.169.0282-.274.1748-.36.2991-.179.2575-.282.4037-.736-.8667-.057-.1491-.068-.3585-.078-.5372-.022-.4117-.038-.6734-.582.2686.457-2.5004-.431-3.5173-1.074-2.1668-.099.2157-.165.6234-.232 1.0376-.136.8419-.28 1.7203-.723 1.1414-.237-.3355-.172-1.9791-.103-2.1302.024-.0501.078-.0015.141.0549.125.1127.283.2536.292-.299-.28-.3981-.634-.5241-.979-.647-.304-.1089-.602-.2158-.836-.5066-.042-.0639-.049-.2138-.056-.3785-.068-1.493-1.26-.8236-1.361.4639-.031.1392-.057.2926-.078.4517-.122-.418-.224-.8511-.331-1.3062-.059-.2516-.12-.5124-.187-.7813-.047-.1867-.09-.3616-.131-.531.295-.9349.38.3449.675.47zm-292.7715 6.4699c.6224-.6647 1.2453-1.3257 1.8677-1.9837-.8814.1995-1.2066.4432-1.6943-2.0081-.057 1.3291-.1165 2.6627-.1734 3.9918zm55.7349-9.7476c.0898 3.9708 1.1815 1.6694 1.8025 3.7416.1884.6374-.8762 3.7205.2283 4.9745.0006.002.0011.004.0017.0061.3561.4006 1.7851-.3257 2.2371.8545.208-1.4825-.834-7.6767-1.013-8.1301-1.157-2.7971-2.1199.5491-3.2566-1.4466zm-79.6387 9.4485c-.0066-.0022-.0141-.004-.0206-.0061.0098-.1155.0194-.2335.0291-.3479-.0027.1169-.0056.2369-.0085.354zm255.8303-4.7608c-.543-1.5742-1.347 1.6717-.955 3.772.473 2.5011 1.836-1.2054.955-3.772zm-141.468 1.2207c-.419-1.4904-1.44 1.3547-1.164 2.6856.388 1.8488 1.247-2.3639 1.164-2.6856zm-86.0245-1.1597c-.6724-.2578-1.1356 2.4339-1.054 4.2787.456-.2837.9121-.577 1.3681-.8607-.1049-1.137-.2092-2.281-.3141-3.418zm182.3745-15.0273c.593-3.8878.118-5.4788 1.166-1.4893-1.15 3.9155.347 6.7861.286 10.48-.036 2.085-.539.7196-.716 1.764-.271 1.6063.034 4.4048-.272 5.3957-.306.9864-1.276-1.3062-1.604-1.3062-.625.017-1.182 1.2212-1.704 1.2451-.522.0216-1.308-1.9313-1.641-2.1973-.333-.2625-.667.0785-.725.293-.34 1.2571-.171 4.2769-.626 4.2726-.005-2.9325-.595-7.6752.089-9.3204-.096-.0952-.212-.6703-.306-.6164-.44.2796-.233 4.3642-.444 5.0294-.356 1.1061-.092-1.9849-.095-2.1485-.321-2.4593-.173.3611-.333 1.587-.083.6255-.756 1.9121-.896 1.8189-.137-.1016.051-1.6482-.039-1.7457-.398-.3967-.808-.8754-1.211-.5859-.402.3011-.647 3.0239-.609-.9461.006-.6292.235-1.1858.175-2.649 0-.0082 0-.0163 0-.0244-.02-.4739-.327-2.7711.136-4.0651.131-.3651.27-.5458.412-.5859-.056.5298-.111 1.0613-.167 1.593.109.0443.217.0914.325.1404-.073 1.3881-.147 2.8425-.201 4.181.131 1.5325.301-.4424.324-.4028 0-.0041 0-.0082 0-.0122.37.631.307 3.5064.593.1648-.249-.5485-.493-1.1659-.733-1.7945.011-.705.021-1.4232.032-2.1302.049.0224.1.0446.149.0671-.022-.5796-.046-1.1616-.068-1.7395.353.2735.715 1.2423 1.032 2.3072-.119.7821-.249 1.67-.366 2.5086.439-.6131.174 1.1024.47 2.1058.11-3.3815.273-2.5765.527-2.3011.253.2706-.056-2.267.204-2.5391.535-.537 1.398 3.5931 1.578-1.3001.649 3.1322-.182 3.4395-.239 4.6388-.241 5.1147 1.171 3.147 1.408.354.179 1.6823.16 3.9873.687 3.4425.712-.748-.789-3.7567.175-4.0834.644-.2143.53 2.2061.843 2.8321.581 1.1504 1.641.056 1.303-3.4425-.137-1.4054-.603.3145-.763-1.1536-.087-.8268.194-7.8191-.403-2.4475-.058.5362.21 3.1436-.235 3.1495-.129-.0063-.533-2.3715-.901-1.7335-.162.2761-.86 3.3964-1.25 2.1546-.422-1.31.247-1.8756.093-3.0152-.156-1.1375-.694-1.1104-.654-3.4364.314-2.6016.312 1.4972.41 1.3306.376-.7032.109-4.7525.638-4.2054.062 2.1771-.467 7.904.328 6.537.01-.0573-.172-1.4751.088-1.9226.447-.7632 1.294-1.1685 1.833-1.0132-.009-3.2266-.674-3.0892-.99-5.3591.732-.4544 1.552-1.3321 2.056 1.8067-.278.4024-.559.8183-.836 1.2207.324-.1087.649-.2085.972-.3173-.132 1.3418-.883 4.6319-.378 5.4566.071-3.4876.791-4.002 1.073-5.8473zm5.55 13.2572c-.175 3.588.312 4.1033.501 4.059.68-.1481 1.047 2.9633 1.37-.5616-.377-2.1796-.687.225-.882-.0671-.427-.6671-.407-3.6248-.989-3.4303zm-216.1542 5.0783c-.1149-.0626-.2291-.0971-.3416-.0855.0161-.093.032-.1874.0481-.2807-.2117-.2912-.4217-.5756-.6335-.8668.2691-.2421.5365-.4955.8034-.7446.0412.6597.0825 1.3197.1236 1.9776zm246.4832-2.0142c-.592-4.2306-2.629-.8269-1.892 1.3123.189-.0041.377-.0082.565-.0122.018-.2606.04-.4976.106-.5067.001.0041.002.0082.002.0123.172-.0113 1.708 2.7029 1.219-.8057zm5.874 1.4588c1.226 1.2634 2.185-4.1054.556-2.7589-.091.0842-.256 2.8801-.556 2.7589zm-3.534-.055c.337-.3662.677-.7426 1.014-1.117-.323-.1576-.649-.3103-.973-.476-.014.5316-.028 1.0613-.041 1.593zm-19.451-.0366c.118-.2128.237-.4281.355-.6409-.002-.0285-.005-.057-.007-.0854h.053c.213-.3828.425-.7648.637-1.1475-.202-.6506-.405-1.2967-.606-1.9471-.143 1.2747-.289 2.5542-.432 3.8209zm-124.501-.0549c.574-.2982 1.489.8545 1.612-1.4832-.431-.3684-.863-.7486-1.294-1.117-.105.8655-.213 1.7346-.318 2.6002zm117.71-3.3571c-.377-.3058-.868 3.3682.005 2.8199.04-.0399.373-2.3741.615-.8301.057.3948.072.7759.082 1.1536.087-.3723.174-.7446.261-1.1169-.159-.8372-.455-1.6132-.963-2.0265zm-186.9581-4.6021c-.6454 1.7281-1.2435 1.8564-2.0582 1.2329-.2416 2.1667-.485 4.3274-.7244 6.4943 1.2585.2408.3552-3.3471 1.4523-2.8443.1435-1.0212-.4788-.5255-.3674-1.1048.5399-2.8146 1.26.9366 2.0033-.6164-.0992-1.0482-.2042-2.1066-.3056-3.1617zm163.1361 5.713c.438.1327.873.379 1.308.6165-.291 2.6663-1.566.6673-1.308-.6165zm27.767 1.8555c-.457-8.133-1.517-5.8777-1.49-1.0132.288.0346.576.0692.865.1038.208.3031.416.6063.625.9094zm-200.583-.4578c.3649.1389.7319.2824 1.0969.4212.0182-.4411.0385-.8839.0566-1.3184-.3647-.1387-.7304-.2885-1.0952-.4273-.0182.4426-.0401.882-.0583 1.3245zm208.23-.0122c.45 2.168.855-6.7298.108-2.8565-.071.3768-.14 2.6776-.108 2.8565zm-13.441-2.6917c-.674.1431-1.322.3582-1.998.5738.082.3714.099 1.003.124 1.6113.408-.0976.815-.1953 1.223-.2929.138.2197.276.4394.414.6592.064-.9547.117-2.0055.237-2.5514zm8.18-3.9124c-.073 2.3031-.055 4.3549.338 5.8412.107-2.2519-.102-4.0026-.338-5.8412zm-210.244 4.5045c.5007-.2746 1.2992 1.3645 1.375-.824-.4287-.3952-.8587-.7835-1.2875-1.1719-.0294.6613-.0602 1.3277-.0875 1.9959zm23.1605-3.9918c-.591-.3849-2.2924 3.5521-.5236 1.825.0079.6808.0161 1.3578.0241 2.0386.1651-1.2845.3321-2.5794.4995-3.8636zm-14.8075 1.7945c.236.5302.4717 1.0691.7055 1.5991.2404-1.2569.484-2.5091.7244-3.766-.4763.72-.9536 1.4469-1.4299 2.1669zm-10.3271 1.4404c.3828-.3046.7689-.5988 1.1518-.9033-.3554-.3602-.7111-.7326-1.0643-1.0926-.0296.6642-.058 1.3317-.0875 1.9959zm48.3003-2.6917c-1.1577-2.3397-.7283-1.0286-1.4214.5676-.469 1.0724-.9676-1.1742-.8943 1.9349.8174-.9998 2.195.875 2.3157-2.5025zm-16.7988 1.825c.7931-2.6918-2.0666-5.2722-2.2247.5493.5443-.214 1.8505.7144 2.2247-.5493zm209.9966-6.9582c.073 1.6058.04 6.284.323 6.9338.449 1.0178.902-1.0272.657-3.3021-.074-.6836-.94-2.0087-.98-3.6317zm-59.021.4761c-.351-4.663 1.157-3.9999 1.757-3.2838-.141-.0411-.284-.0707-.424-.1038.055.9864.102 1.974.157 2.9603-.156.1032-.312.2082-.468.3113.175 1.0353.331 2.1882.498 3.2228-.428 4.267-.439 1.5367-1.015.8362-.369-.4422-.523 1.0065-.985 1.0742-2.159.3242-4.386 2.0888-6.594 1.1658.022-3.6059.08-4.4891.493-4.9318-.023 1.0678-.044 2.1491-.065 3.2167.271-.354.539-.7819.805-1.233-.244-.6446-.484-1.3123-.721-2.002.124-.1257.281-.2154.475-.3296.143-.0934.188-1.5486.38-1.3672.411.3908.923 4.8133 1.383 3.6988.266-.6514-.063-4.6963.556-3.5157-.39 2.9065-.666 5.4413.306 4.3336-.542-2.6177-.106-1.5672.106-2.8992.133-.8516-.687-.5892-.147-2.2157.116-.3306 1.772-1.8894 1.687.5738-.182 5.3177-.261 4.7005.824 1.7578-1.33-2.2322-.079-5.6631.508-4.0955.299.804-.237 3.2561.484 2.826zm46.958 4.1993c-.052-.3556-1.248-.0035-1.275 1.7518.203.5931 1.638.9314 1.275-1.7518zm-201.9213 1.1048c.2438-1.6407-.8518-1.8262-.9767-1.3733-.4939 1.7971.7289 3.0114.9767 1.3733zm33.9855-2.3621c-.136-.1683-1.0585-.3753-1.0969.6042 1.4402 5.3121 2.1877.7708 1.0969-.6042zm146.1038-5.6276c-1.086-3.6143-1.351 3.2947-1.441 3.9857-.469 3.5408-.532-2.566-.632-2.5697-.477.1025.031 6.7352.094 6.8606 1.015 1.9677.797-3.2245.919-4.7792.266-3.3733.94-.5264 1.06-3.4974zm43 5.8473c-.365-1.3147-.949.0867-.675 1.7029.275 1.612 1.127-.0683.675-1.7029zm-77.351.6775c-.351-4.3507 1.001-.8243 1.142-.7324.411.2579.534-2.1589.829-.4883.026.1835-.265 2.6263-.465 2.7161-.202.0819-1.466-1.1022-1.506-1.4954zm123.756 1.3306c-.618-.0725-.511-4.7507.113-.647.024.1523.047.3114.072.47-.053.1154-.113.1868-.185.177zm-62.928-2.8077c-.128-.3305-.259-.6521-.389-.9827.006.8078.013 1.6276.019 2.4354.266-.8141.532-1.6334.796-2.4476-.095-.4491-.191-.9059-.286-1.355-.047.7787-.093 1.5712-.14 2.3499zm-60.977.2747c-.506.0407-1.013.0752-1.519.1159.001-.002.002-.004.003-.0061.024-.5376.047-1.0738.072-1.6113.481.4987.963 1.0028 1.444 1.5015zm55.749-21.02111c-.635-1.67628-1.215 3.30727-.874 5.41397.2 1.22384.767-2.05311.621 1.46484-.942-1.66654-.859 1.3628-.846 1.8983.087 3.831-.622 4.9604-.568 8.1606.031 1.8001.788 1.045 1.076 1.5137.121.2051.129 1.689.151 1.7762h.004c.281.5964.449-.8805.736-.9522.133-.024.216 2.2846.397 1.5015.181-.7995.73-4.0584.767-5.4628.065-2.5233-.466-4.6262-.913-2.6307-.218.9737-.084 4.6906-.699 2.5758-.082-.2811-.409-4.1276-.721-3.9186.395-2.2671 1.642-2.105 2.163-1.4099.064-2.6611-.817-1.7256-1.148-3.0458-.281-1.1114-.094-6.68837-.146-6.88491zm-17.91 14.62441c-.019-1.0593.463-6.7901-.286-2.3804-.258 1.5246-.231 3.1065-.905 3.2593.628-.3969.478 3.9373.541 4.2787.518 2.7082 1.176-2.3977 1.097-4.6815-.024-.6607-.426.5794-.447-.4761zm-35.027 4.9928c-.006.0062-.013.0121-.019.0183 0-.0223 0-.0447 0-.0671.006.0167.013.0322.019.0488zm23.234-1.9532c.18 2.3249.536 1.5885.955 1.2757-.034-.8238-.068-1.642-.102-2.4659-.283.3937-.57.7965-.853 1.1902zm-14.023.0977c-.005-.0024-.01-.0038-.015-.0061.007-.1381.017-.2784.024-.415-.002.139-.007.2817-.009.4211zm78.331-3.7415c.334 3.0966 1.61 4.1667.793.7812-.208-.8488-.54-.5805-.793-.7812zm-21.683-12.06703c-.591-.53602-.488 2.58163-.348 4.50453-.395.3944-.785.718-1.178 1.0803 1.119.2739 1.09 3.9635 1.109 8.6245.453.6575.148-2.6422.623-2.0813.167.201.158 2.158.189 2.3255.385 1.8705.462-3.8308.232-4.4618-.231-.6214-.776.5264-.893-1.8006.391-1.006.72.536 1.181-.0305.547-.6769.113-3.5937-.056-2.8809-.338 1.4403-.132 3.7171-.714 1.6479-.497-1.7683.321-6.50059-.145-6.92763zm-38.963 14.34973c.46-.8427.921-1.68 1.382-2.5147-.652.306-.894.619-1.255-2.2767-.042 1.5956-.085 3.1958-.127 4.7914zm-17.604-.2136c-.085-.0657-.169-.096-.253-.0732.012-.1116.025-.2238.037-.3357-.157-.3324-.312-.6627-.469-.9949.199-.3103.398-.6339.596-.9522.03.7851.058 1.5731.089 2.356zm52.384-.9094c.106.0469.215.1037.321.1586.131-.8793.264-1.7635.395-2.6428-.071-.4312-.142-.8629-.213-1.294-.168 1.2558-.334 2.5225-.503 3.7782zm-16.632-.1038c-.251-1.3244-.742-4.1322-1.092-2.179.465 1.4976.469 2.8479 1.092 2.179zm-14.868-5.0905c-.497-.2575-.839 2.9871-.779 5.1881.337-.3741.675-.755 1.013-1.1291-.078-1.3522-.156-2.7068-.234-4.059zm19.724 1.471c2.005-4.3066-1.409-4.5723-1.636-2.826-.431 3.3142 1.101 1.6649 1.289 2.5086.187.8525.075 4.9207.613 3.1495.203-.6751-.02-2.578-.266-2.8321zm12.871-12.53697c-.589-.0365-1.532 2.63332-2.19 2.60018-.391-.02542-.375-1.65969-.769-1.68462-.588-.04545-1.618-.43281-2.172.54933-.2.36476-.153 3.39119-.117 3.73545.095.82227.414-.67518.552-.38452.136.29303-.017 1.51837.171 1.67851.19.1569 1.237-.26047 1.313-.48219.452-1.3603-.1-3.04944.428-2.71004.235 10.39947-1.274 3.76518-1.547 4.32137-1.026 2.0982-.189 2.9996.01 3.9003.198.901-.289 2.1694-.183 3.0396.002-.004.003-.0081.005-.0122.106.8775.839 1.1895.93.47.194-1.5701-.463-2.9126.067-3.9369.664.3003 1.345.6271 2.016.9278-.022-1.3561-.044-2.7151-.064-4.0712-.152.442-.308.8928-.46 1.3428-.12-.443-.239-.8895-.359-1.3245.714-7.41556 1.573.9829 2.767-2.29494-.068 1.56136-.128 3.19144-.2 4.71204 1.742 2.1763.588-.0509.626-3.92467.022-2.22134.549-.1031.67-.43946.836-2.37857-.905-5.98289-1.494-6.01214zm-34.286 13.34267c.27.138.541.2831.811.4211.013-.5314.027-1.0696.041-1.593-.27-.138-.539-.2832-.809-.4212-.013.5312-.029 1.0619-.043 1.5931zm7.159-9.2532c-.478 2.11539-.919 2.31875-1.521 1.63579-.179 2.60701-.359 5.20571-.536 7.81271.932.1929.262-4.0171 1.075-3.4974.106-1.2329-.355-.5942-.273-1.294.399-3.4148.933 1.0238 1.483-.8911-.074-1.24763-.153-2.51022-.228-3.766zm32.481-2.63068c.066 4.75037.876 1.90994 1.336 4.34582.136.75669-.648 4.52536.168 5.93886.264.4501 1.321-.5251 1.655.8484.154-1.7949-.619-9.14233-.75-9.64989-.856-3.25625-1.568.81958-2.409-1.48319zm13.132 1.9898c-.501 6.19498.512 1.9694.986 4.74258.14.8365-.478 3.679.187 3.8209.415-.8132.074-2.5678.273-3.8148.201-1.24503 1.396-.3202.705-3.75989-.214-1.06302-1.776 1.28115-2.151-.98879zm4.06 8.25218c.91.1773 1.057-3.3899.211-1.886-.18.3205-.202 1.0884-.211 1.886zm-62.213-.3418c.37-.3626.96 1.5391 1.016-1.0804-.317-.4395-.634-.8747-.951-1.3061-.022.7922-.045 1.5863-.065 2.3865zm-1.463-.7508c.283-.3937.57-.7781.853-1.1719-.262-.4037-.526-.8171-.788-1.2207-.021.796-.043 1.5966-.065 2.3926zm7.641-2.5086c.174.6158.349 1.246.522 1.8616.177-1.5226.357-3.04288.535-4.56551-.352.89789-.705 1.80606-1.057 2.70391zm10.952-3.27765c-.438-.40753-1.692 4.42195-.385 2.22174.006.81431.011 1.62721.017 2.44151.123-1.55.244-3.11336.368-4.66325zm46.638 3.50965c.425-.3997 1.101.9031 1.192-1.90439-.319-.40751-.638-.82541-.956-1.23294-.078 1.04395-.158 2.09333-.236 3.13733zm-41.928-1.15363c.589-3.28221-1.527-6.16533-1.644.81183.402-.2971 1.366.7219 1.644-.81183zm-2.947-1.11087c.18-1.97909-.628-2.12306-.723-1.57476-.366 2.18861.539 3.55426.723 1.57476zm15.375-2.36212c-.856-2.71112-.538-1.18126-1.05.78126-.347 1.32346-.718-1.32549-.663 2.39875.605-1.26192 1.624.87221 1.713-3.18001zm9.766-3.05795c-.098-.19172-.785-.37251-.812.81179 1.066 6.24078 1.618.75093.812-.81179z" fill="#f93257"/></svg>