<svg fill="none" height="102" viewBox="0 0 464 102" width="464" xmlns="http://www.w3.org/2000/svg"><path d="m126.598 85.5469c1.014-.5481 1.016 1.8196.223 1.9359-.226.0305-.404-1.2715-.223-1.9359zm7.023-1.6772c1.11-.2224.313 2.4565.125 2.5095-.786.2209-1.208-2.6938-1.767.8196-.486.2252.079-1.228-.201-1.3582-.522-.234-1.194 1.3845-1.758 1.4389-.038-.0032-.076-.0064-.114-.0096.001-.7603-.083-1.5707.003-2.3518.667-.8981 3.437-.9936 3.712-1.0484zm-4.698.6227c.244.2768.033 1.4118.59.8152.032.9393-.529 1.7421-.777 1.711-.004-.0364.088-.7226.03-.7386-.435-.086-1.166.6511-1.015-1.3163.343 1.1205.925-.7453 1.172-.4713zm-5.573-.3755c-.23 1.3402-.416 1.1527-.655.3187.048-.2965.081-.6034.132-.8954.162.2384.35.3949.523.5767zm-1.127-.3824c-.37 1.5817-1.57.5763-1.278-.1991.429.0262.855.1117 1.278.1991zm156.631-82.59871c1.063-2.78339 3.796.41165 4.464.50917 3.084.44873 5.589-.27688 8.439.08908 1.814.23196 3.424 1.30492 5.222 1.58342.105 3.44369.22 6.86504.334 10.29364-.234-.3029-.33-.7526-.624-.7873-.295-.0273-.961-.573-1.275 1.0017.129 1.627 1.047 2.0538 1.337 2.0722.557.0323.336-1.5459.749-1.8789.415-.3298.872 1.8682 1.409 1.0921 1.26-1.828-.693-3.2251-1.101-2.9099.428-3.57781.994.6899 1.59-2.0901-.067-.8572-.462-2.98478-.73-2.38875-.268.60725-.11 2.75745-.52 2.10633-.14-1.99078-.306-4.08625-.442-6.10095.5-.46434 1.096.73298 1.508.71452 2.541-.13975 4.994.18716 7.435.6787 1.927 1.51616 3.844 3.09448 5.753 4.72105-.014-.10207-.025-.21465-.036-.32149-.018-.18258-.036-.36124-.069-.50189-.003.01809-.006.03619-.01.05429-.035-.1734-.102-.28542-.17-.40014-.093-.15751-.189-.32198-.211-.65473.068-.08416.136-.1683.204-.25245.145-.12838.299-.26753.446-.40356.053.91505.106 1.8301.159 2.74517.6.5131 1.2 1.0328 1.799 1.5535.01.176.026.3572.052.5311.021.1385.041.277.062.4156.044.0833.088.1666.132.25.231.4297.532.7845.776 1.0573.066.0733.129.1359.187.1994.183.2013.327.3606.436.5143.014.0204.03.0386.045.0589-.003.1045-.002.2072.003.3005.036.6873.167.6704.328.3092.017-.0455.035-.091.052-.1365.063.0725.125.1439.181.2112.208.2505.443.5594.712 1.0275.158.2737.308.5793.471.9092.001.0021.002.0043.003.0064.085.1741.175.3559.27.5433.129.2515.268.5099.406.7201.13.1981.302.418.497.5072.416.1903 2.046.9506 2.83 1.4011.347.199.755-.3818.976-1.333.194.1734.387.3468.58.5202.021-.1051.046-.2025.077-.2753.064-.1394.161-.2237.265-.3085.198-.1609.421-.3399.493-.9939-.197-.0348-.392-.0696-.588-.1044-.013-.0051-.026-.0103-.038-.0154-.094-.4796.729-1.8113.914-1.1055.149.5521-.078 2.4766-.245 3.5871.09.0831.18.1662.27.2493.041-.1565.077-.3609.114-.5723.059-.3326.123-.6963.223-.9736.506-1.4243 1.4-.1836.834 1.6441.245.2409.315-.1543.397-.6342.088-.5096.19-1.1088.535-1.1313.407-.002.53.4823.644.9483.06.2474.12.4933.219.6493.089.1408.262.1976.456.2649.425.1473.959.3375.984 1.4974.032 1.2855-.222 1.6431-.438 1.8498.485.4292.971.854 1.456 1.2798.033-.3449.067-.7485.107-1.2161.722-.2227.774.7055.564 1.8052.616.5381 1.234 1.0764 1.851 1.6069.156-.2001.308-.359.429-.4663-.008-.4714-.155-.5075-.293-.539-.116-.0267-.227-.0504-.241-.3388-.087-2.3126 1.487-4.606.976-1.5045-.124.7563-.267 1.627-.194 2.2561.056.4603.397.8137.548.6401-.006.0404-.011.0807-.017.1211.011-.0102.035-.0913.067-.2087.041-.1538.082-.3076.123-.4614.109-.4181.244-.923.338-1.1782.113-.2845.24-.5318.369-.7776 1.459-2.7737.402-1.4692 1.46.9309.085.1721.196.1602.302.1539.092-.0055.18-.0042.24.1121.116.1864.211.4348.304.6809.174.4622.342.9125.643.8991.008-.0073-.001-.0913-.016-.2157-.369-3.0625.394.896.421.9603.025.0594.045.1048.042.1566-.032.4931-.304.734-.62 1.0137-.299.2638-.638.561-.854 1.1413.112.0911.223.1823.335.273.142-.2649.295-.3424.436-.1104.037.0779.015.2661-.006.4528 0 .004-.001.0081-.001.0121.101.0799.201.1598.302.2397.031-.1559.044-.3162.046-.3452.003-.0222.006-.0444.01-.0666.199-.2102.923.2107.963.7851.011.1388.013.2914.005.4476.264.2096.529.417.794.624.035-.079.068-.1315.099-.1326.07-.0302.126.1378.178.3518.131.1021.263.2011.394.3026.005-.0384.009-.0769.013-.1153.031-.2742.064-.5633.097-.6411-.737-.0227-.539-.6848-.318-1.4293.102-.3437.209-.7063.231-1.0281.027-.4249-.1-.5627-.22-.6922-.151-.1626-.291-.3186-.104-1.0194.352.7061.654.424.96.1357.963-.9088.901 1.624.275 1.4012-.131-.0466-.267-.0939-.392.1815-.144.3055-.235 1.0076-.316 1.6395-.039.3018-.076.5903-.116.8111.009-.0156.018-.0312.027-.0468.031-.05.684-.5297.742-.5012.363-.0272.333.1878.281.5564-.027.1877-.06.4202-.05.6757.006.0821.046.1442.086.2093.052.0857.105.177.085.3073-.017.1481-.054.3048-.099.4572.085.0641.17.1291.255.1929.065-.1687.123-.3004.168-.3106.02.0111.406.5694.404.6342 0 .0116-.006.0438-.017.0905.848.6291 1.697 1.2462 2.55 1.8431.005.029.011.0581.016.0871.008.0506.017.1038.026.1553.024.149.048.298.072.447.086.5457.214 1.3623.348 1.977.096.4384.227.9456.404 1.3202.175.3697.477.7756.903.48.288-.2002.582-.5881.835-1.2224.325-.8179.53-1.7884.621-2.3551.026-.1624.045-.3265.058-.4851.093-.3524.162-.611.168-.6352.278-.512.232.0606.196.4942-.008.1019-.016.1977-.019.2679-.003.2307-.028 1.295-.047 1.8581.951.6022 1.906 1.1777 2.865 1.7287.97.5571 1.959.9891 2.966 1.3084.646.2046 1.299.3665 1.959.4828-.019-.4451-.01-.8917.228-1.3958.335-.6934.978.4543 1.075.6354.026-.0547.059-.174.098-.3164.092-.3326.223-.8068.403-.9708.401-.375 2.486-4.8644 2.808-3.9786.334-.0125.669-.0334 1.006-.0626.118.0676.232.1216.34.1816.021.1839.05.3515.09.4976.423 1.5358 1.398 2.7385 1.851 4.6449-.205.4904-.436.9161-.649 1.3727.076.5889.154 1.1822.231 1.7713-.044.2511-.087.4975-.13.7485.352.4685.704.937 1.056 1.4055.001-.0289.004-.062.005-.0914.156-.1792.2.0413.21.3728.173.233.346.466.519.6989.068-.1243.142-.2537.217-.3922.103-.7018.207-1.4036.31-2.1055.069.4121.138.8242.207 1.2363.349-.4821.661-.5999.778.5001.183-.052.366-.104.549-.1561.135-.1854.274-.2574.401-.2175.256-.8492 1.251-5.974 2.164-6.6541-.177 1.7982-.354 3.5963-.531 5.3945.276-.2789.553-.5579.829-.8369.16-1.13.319-2.2599.479-3.3899-.046.9006-.093 1.8012-.139 2.7018.494-.1056.988-.2112 1.482-.3167.002-.0132.003-.0296.004-.0426.068-.0622.111-.0424.138.0177.067-.0148.134-.0295.202-.0443-.075.7634-.15 1.5269-.224 2.2903.006.0118.011.0317.02.0385.129.109.274-.0557.427-.3316-.022-.3388-.044-.6775-.066-1.0163.709-.7429 1.419-1.4857 2.128-2.2286.041.5097.081 1.0194.121 1.5291.032-.0333.064-.0526.089-.0476.003.0156-.022.3227-.042.6274.017.2076.033.4151.05.6227.012.0005.024.0047.037.0032.263-1.4133.527-2.8265.79-4.2398.366-.0203.732-.0406 1.098-.061.267.2425.519.5.754.7432.368.9761.736 1.9523 1.103 2.9284.105-.6056.19-1.0511.263-1.3683.155.1957.242.3082.242.3082.05-.3103.099-.6206.148-.9309.19.3042.407 1.1989 1.109-.2745-.163 1.6543-.327 3.3087-.491 4.963.042.1639.086.4095.129.7213.74-1.7142 1.479-3.4284 2.219-5.1427.058 2.4753.115 4.9506.172 7.4258.622.4442 1.243.8883 1.864 1.3324.075-.0469.149-.0833.224-.1283-.129-1.0071-.257-2.0142-.385-3.0213.389-2.201.778-4.402 1.167-6.603.245 1.7948.489 3.5895.734 5.3843 2.165-2.6402 3.304 6.237 3.481-4.1855-.293.3756-.586.7512-.879 1.1268.465-1.5127.929-3.0255 1.394-4.5382.205 1.2483.41 2.4967.615 3.745.427-.497.855-.9941 1.282-1.4911.005 1.2398.01 2.4795.015 3.7192.408-1.1193.817-2.2386 1.225-3.3579.09 2.0533.181 4.1067.271 6.1601 1.571-.2909 3.143-.5817 4.714-.8726 1.914 4.7732 1.422-2.1545 3.182-3.9288.624 1.4264 1.248 2.8528 1.872 4.2793.368-1.1289.736-2.2577 1.104-3.3865.184.6891.367 1.3783.55 2.0674 1.121.2921 2.243.5842 3.364.8762-.052-2.0195-.103-4.0389-.155-6.0584.246-.3776.491-.7551.736-1.1327.351 2.4917.701 4.9833 1.051 7.475.503-.7051 1.005-1.4102 1.508-2.1153.575.5036 1.151 1.0071 1.726 1.5107-.099 1.4719-.197 2.9439-.296 4.4159.423-2.3513.846-4.7026 1.269-7.0539.909-.3464 1.818-.6927 2.727-1.0391-.614 1.0591-1.229 2.1183-1.843 3.1774.363 1.0228.727 2.0456 1.091 3.0683.535-.6268 1.07-1.2537 1.605-1.8806.222-.9246.444-1.8492.666-2.7738.914 1.0321 1.827 2.0642 2.74 3.0963 1.184.1258 2.368.2517 3.551.3775 1.339-3.3912 2.639 3.0244 3.563-6.4449.902.8432 1.802 1.6865 2.704 2.5297.256-.5113.513-1.0227.77-1.534.006 1.2459.012 2.4919.018 3.7378.502-1.0604 1.005-2.1208 1.507-3.1812.566.1231 1.133.2462 1.7.3692-.252.8466-.504 1.6932-.756 2.5398 1.523 1.314 3.046 2.6279 4.569 3.9419.28-2.3327.559-4.6653.839-6.998.553.7202 1.107 1.4404 1.66 2.1605.199-1.4309.397-2.8618.596-4.2927 1.021-.1471 2.042-.2942 3.063-.4414.87 1.935 1.739 3.87 2.609 5.805 1.59-3.6535 4.728-7.5609 4.671.8266 1.71-.8978 3.42-1.7957 5.13-2.6936-.205 1.4018-.41 2.8036-.616 4.2054.109.4174.217.8349.326 1.2523.293-2.0743.586-4.1486.879-6.2229.44 1.5355.88 3.071 1.32 4.6065-.308 1.1952-.615 2.3903-.923 3.5855-.234.0211-.469.0423-.703.0635.202 1.4421.404 2.8841.607 4.3262-.018.0353-.035.0706-.052.1059 1.437 1.3027 2.605 3.2607 3.625 5.1735.08.1639.16.3279.24.4918 1.145 2.5547 1.414 6.4127 1.34 9.4838-.017.687-.055 1.3782-.112 2.0657-.262 3.1188-.937 6.161-1.967 8.3809-.086.1745-.172.349-.258.5235-1.407 2.695-2.791 4.0122-4.051 4.7441.181.4885.35 1.0119.468 1.6195-.174.4976-.37.9344-.551 1.3993.058.5743.119 1.1494.178 1.7239-.061.3872-.104.765-.178 1.1672-.726.0469-1.863 2.2248-2.522 2.3426-.602.1047-.773-1.8208-1.219-1.9336-.447-.1012-2.117 2.4627-1.515-1.3766-.063-.1655-.161-.3147-.217-.5266-.415 4.0519-.746 1.0171-1.419 1.5899-.317.2748-1.481 3.7134-.23-1.9916-.09-.0724-.112-.2856-.181-.4439-1.235 4.9952-1.466 3.3155-2.252 1.5751-.44-.9711-1.395-2.1743-1.243 1.6843-.736 2.4168-1.093-1.4458-1.496-1.2096-.401.2397-.061 2.3658-.598 2.6387-.089.048-.811.0205-.999-.292-.187-.3156.196-1.8858-.168-1.6801-1.577.8764-3.246 4.2331-4.877 4.9198-4.827 2.0491-9.238 1.9571-14.09 1.9971-.802.007-4.975.324-5.331-1.072-1.219-4.805 2.377-6.6851.238-8.9103-1.714 12.8813-2.758 8.9293-4.709 8.9273-1.439-.002-3.902 1.661-5 .046-1.173-1.7196.008-3.1839-.539-6.0107-.973 5.2865-1.696 6.3187-2.801 6.5397-1.162.231-2.156-1.5106-3.304-2.0169-.387-.1705-1.026.9378-1.442.4365-.519-.6261-.12-3.6596-.431-4.1338-.312-.4692-.306 3.0808-.733 3.6074-.194.2389-1.403.2533-1.547-1.1281-.033-.3239.286-1.4305.326-2.4779.022-.5761.397-4.9342.074-4.5876-.585 3.8466-.934 7.7602-1.869 7.9652-1.476.3144-2.686-1.6094-4.195-2.0118-.338-.0828-1.389 2.6994-1.481-.6571-.026-.9829.347-4.7334-.215-4.5874-.484.1247-.701 1.8236-1.218 3.0768-.195.4734-.091-1.3065-.473-.2785-.384 1.0249-1.009 3.3966-.81-1.244-.157 1.4046-.268 2.6498-.408 3.9839-.54.1992-.999-5.0157-1.201-.7317-.537-.0247-1.075-.0491-1.612-.0739.034-1.5294.071-3.0661.105-4.6034.441-1.4313.772.5788 1.071-2.2806-.442-.2646-.889-.5331-1.327-.7973-.519 7.6545-2.282 11.3604-1.292 3.3891.187-1.5129-.864-.3177-1.112.1824-.246.5018-.559 3.5854-.814 1.5916-.145-1.1292-.136-2.9864-.884-.9133.273.8914.554 1.9746.827 2.9543-.491-.3975-1.257.608-1.582-1.0638-.08-.4176.466-1.5194.308-2.1913-.158-.6707-1.057-.3691-1.126 2.6312.089-5.8732-.26-1.0277-1.119-.9453-.109.0041-.497-5.6284-1.136-2.6862-.227 1.0478-.3 5.0198-.828 3.2687-.388-1.2959.402-4.6192.015-6.5648-.122 4.5055-1.195 7.0297-1.705 7.0969-.904.1261-.535-2.6946-.715-3.9556-.325-2.2729-1.08 1.4142-1.079-2.0383.158-.0741.318-.3407.476-.4868-.282-.4668-.567-.9152-.848-1.3819-.143 1.8634-.284 3.7398-.426 5.5871-.59.5706-.627-1.7022-1.036-2.2-.057-.0693-.105 1.2528-.17 1.2659-.527.0719-.633-.6563-1.235 1.9606.369-4.6902-.56-1.6287-.918-3.7399-.101-.595.017-3.0092-.399 2.1349-.913-1.2383-1.707-.8885-2.194-4.8698-.129 5.145-1.295 5.1276-1.85 3.6731-.147-.4011-.003-4.007-.435-3.4237-.026 1.5452-.057 3.3165-.082 4.9178-.812.4312-.245-4.296-.94-3.8398-.306.2062-.571 5.5376-.917 3.1266-.197-1.3865.164-7.8447-.612.0221-.469.3571.016-2.1826-.263-2.5088-.176-.1981-.635 2.7068-.899 2.3256-.501-.7468-.789-6.384-1.306-.6118-.431.3773.058-2.0218-.328-1.7364-.517.3826-2.033 4.0774-1.851-.5044-.002.0081-.003.0162-.004.0242-.614 2.6044-1.82 1.5498-1.17-2.4317.59 1.147 1.477-3.1494.788-3.1497-.695.0007-.833-.5248-.78-2.1786-.416.7808-.713 2.1667-1.219 2.3663-.359.1411-.769-.7356-1.192-.7126-.062.7392-.137 1.3898-.268 1.7661-.339.965-.993-1.312-1.273-1.3134-.005.0003-.011.0045-.016.0048-.115.7307-.201 1.8977-.53 2.375-.091.1313-.193-.9664-.373-1.6667-.225.2527-.441.4848-.634.4919-.073.0024-.147-.0556-.222-.1411-.449.875-1.201 2.269-1.477 2.2711-.162-.0008-.36-1.4718-.416-1.5479-.199-.2126-.274 1.8862-.475 2.0427-1.488 1.169-3.103.4935-4.498 1.0867-1.326.5646-2.051.9247-3.4 1.4543-1.252.488-2.549 4.2946-.711-6.7911-.899-1.1452-.766 1.9011-1.138 4.5536-.22 1.5621-.373.2445-.452.5378-.262 1.009.067 2.0843-.138 2.8305-.822 2.9906-3.198.7374-3.763.8421-2.602.4901-4.688 1.9369-7.092 2.437-1.531.3198-2.913-.2316-4.432.0387-.176-3.2814-.357-6.5442-.54-9.8087.204.2215.295.6329.543.5784.249-.062.821.2655 1.045-1.3395-.15-1.5283-.932-1.6621-1.176-1.5932-.469.1362-.242 1.5845-.581 2.0277-.34.44-.78-1.541-1.211-.6345-1.013 2.1347.663 2.903.999 2.4788-.268 3.5644-.854-.3722-1.283 2.4833.078.8049.466 2.7292.676 2.0779.209-.6632.02-2.6824.381-2.1792.168 1.8722.363 3.8322.528 5.7285-.408.5957-.941-.3803-1.287-.2366-3.851 1.6149-7.495 1.6775-11.277 2.0432-.347.0339-1.036.0851-1.328-.4421-.226-.4164.031-2.8788-.272-2.1605-.036.13-.042 1.6706-.401 2.0489-.682.7264-2.081.9751-2.782 1.0285-6.873.57-13.658 1.7116-20.301-1.4944-.348-.1707-1.701-.2495-1.878-1.1131-.529-2.5931-.113-5.9587-.977-.7128-.422.2568.071-2.2708-.055-2.9814-.055-.2421-.825 3.3619-.909 2.043-.19-3.0415.577-3.2358.961-4.6051-.519-1.7503-1.433 1.1089-2.002 1.1306-.162.0067.053-2.835.028-2.9316-.583-1.0268-.985 4.5581-1.151 6.9045.31.3192.615.6394.925.9351-.718.7636-1.063-.9327-1.661-1.7257-.143-.184-.144 2.3927-.422 1.3857.035-1.8004.086-3.7157.129-5.557-.977 1.5141-1.365 2.5614-.552 5.5093-.416-.0712-.837-.1165-1.254-.2033.31-1.8694.341-4.8641-.222-3.124-.131.4188-.049 2.4415-.22 3.0257-.172.5786-1.039.0087-1.103-.1476-.574-1.5003-.346-5.5608-1.121-3.4996.189-.0911.803 2.1358.189 3.2009-.685 1.1832-2.877-1.3695-3.512-2.1872-1.083-1.402-1.574-2.4637-2.353-5.4895-.147-.5756.08-3.1131-.215-4.1279-.394-1.3501-1.244-2.2161-1.673-3.9134.16-.5334.342-1.0156.51-1.5191-.079-.543-.16-1.0883-.24-1.6311.048-.3939.082-.7706.142-1.1825.736-.2503 1.817-2.7026 2.483-3.0013.607-.2683.847 1.5636 1.303 1.5487.457-.0239 2.067-2.9939 1.587.9233.07.144.178.2564.241.4489.282-4.0675.721-1.2024 1.385-1.948.313-.3555 1.376-4.0403.303 1.8691.094.0453.123.2552.199.3903 1.083-5.2172 1.375-3.6407 2.234-2.1647.481.8224 1.492 1.7196 1.205-1.9937.664-2.5631 1.159 1.0993 1.56.7617.401-.3436-.018-2.3266.52-2.7433.092-.0723.824-.2462 1.024.0063.199.2577-.134 1.8842.229 1.5811 1.571-1.2964 3.15-5.0315 4.784-6.1588.612-.4244 1.219-.8116 1.822-1.1702-1.053-2.2174-1.54-7.2674-4.003 2.8738-1.074.4326-2.148.8653-3.221 1.2979-.013-.5748-.025-1.1495-.038-1.7243-.072.042-.138.0817-.197.1121-.431.2258-.933.4126-1.472.5625-1.085.3016-2.474.5151-4.061.664-3.183.2986-7.294.3272-11.637.1143-.026-.0002-.053-.0004-.08-.0006-.026-.0063-.051-.0125-.077-.0188-.13-.0331-.272-.0801-.408-.1444-.075-.0357-.372-.169-.663-.5824-.08-.1129-.625-.8372-.877-2.7747-.038-.2919-.068-.6103-.089-.9446-.286-.5589-.572-1.1178-.858-1.6768.073-.8065.145-1.613.218-2.4195-.273.0166-.544.0223-.814.0358-.06.2891-.119.5781-.179.8671-.875.3512-1.751.7025-2.626 1.0537-.183-.6074-.366-1.2149-.549-1.8223-.784-.0059-1.54-.0299-2.255-.0789-.118.9457-.235 1.8914-.353 2.837-.299-.9847-.598-1.9693-.897-2.954-.737-.0876-1.415-.2154-2.014-.3711-.013.3725-.027.745-.04 1.1175-.85 1.0864-1.701 2.1727-2.551 3.259-.237-.8692-.475-1.7385-.712-2.6077-.297.6896-.594 1.3793-.892 2.069-1.035.0806-2.07.1612-3.105.2418-.122-1.5456-.243-3.0911-.365-4.6367-.318.1979-.637.3958-.955.5936.158.9627.317 1.9254.476 2.8881-.872.2107-1.743.4214-2.615.6321-.143 1.4376-.286 2.8752-.43 4.3128.268-.2114.525-.3967.743-.3971.183.0045-.006 1.6928.028 1.7357.686.6183 1.029-2.6816 1.17-4.0669-.362-.195-.716-.387-1.076-.568.805-.4384 1.234.5691 1.934 1.0503.166.112.116-1.4103.455-.807-.003 1.0639-.022 2.1987-.033 3.2864 1.086-.8765 1.507-1.492.516-3.2521.477.0504.958.0854 1.436.145-.315 1.0994-.288 2.8672.318 1.852.143-.2405.008-1.4409.191-1.7848.185-.3403 1.192.0132 1.263.1059.687.8986.512 3.2848 1.353 2.0857-.217.0416-.959-1.2759-.281-1.8917.758-.6859 3.313.8727 4.056 1.3692 1.266.8512 1.853 1.4798 2.806 3.2857.18.342-.03 1.8461.328 2.4531.479.8067 1.47 1.3347 1.995 2.3478-.057.1048-.121.192-.183.2909-.595.0869-1.151.0226-1.615-.2824-2.073 3.3084-4.082 2.7601-4.76 3.0431.012-.0881.027-.1861.048-.2901-.083-.0863-.207-.154-.283-.2687-.102 1.0289-.263 1.2853-.473 1.2956-.091-.062-.205-.1412-.346-.2495.003.0481 0 .1005.002.1472-.204-.1029-.437-.2133-.691-.0886-.151-.3941-.316-.6976-.465-.9516.015-.0476.031-.0994.047-.1492-.11-.0286-.149-.1467-.238-.2283-.004.0091-.008.0206-.012.0297-.013-.0226-.026-.0492-.039-.0706-.037-.0641-.08-.1304-.12-.2-.226-.385-.491-.8439-.747-1.1958-.272-.375-.557-.4827-.999-.439-.186.0184-.413.0632-.698.1435.543-1.5133.075-4.3626-1.132-4.3029-.274 1.2293.24.5205.185 1.1977-.059.6798-.444-.1228-.385 1.1376.709.4095.485-1.0388 1.071-1.2822-.195.7265-.166 2.0955-.318 2.7051-.24.9595-.507.3103-.626.9398-.045.0163-.091.0389-.137.0559-.326-.0848-.654-.1613-.981-.2293-.391.6839-1.376-2.5672-1.878-3.8877.042-.0712.086-.1385.128-.2097-.088-.0342-.176-.0736-.264-.108-.037-.0822-.066-.151-.092-.1853-.14-.1793-.191-.6255-.226-.9622.038-.1307.065-.276.069-.4414-.443-.1282-.902-.2477-1.364-.3716.016-.1857.045-.3659.083-.5443-.669.0048-1.34.0495-2.011.1437-1.046.1471-2.094.4084-3.143.7961-1.037.3836-2.075.798-3.113 1.2334-.075.5545-.226 1.5897-.262 1.8278-.009.0696-.02.1701-.028.2732-.037.4336-.086 1.012-.275.4609-.002-.0184-.026-.2869-.059-.6543.014-.1603.022-.3337.024-.5002.004-.5746-.037-1.5614-.221-2.4195-.143-.6663-.369-1.0994-.619-1.3444-.371-.3623-.737-.0066-.971.329-.237.3397-.451.8185-.618 1.2344-.234.5829-.497 1.3621-.673 1.8853-.059.1772-.112.3346-.147.4347-.016.0474-.033.0962-.049.1429-.011.0298-.021.0595-.031.0893-.94.4464-1.881.9075-2.821 1.3866.003.0481.003.0869.001.098-.017.0712-.481.5432-.504.5519-.042-.0179-.08-.1512-.115-.3282-.094.0485-.188.0931-.282.1418.019.1576.03.3247.021.4734-.003.1297-.069.2077-.134.2827-.05.0578-.101.1179-.12.1982-.053.2479-.059.48-.064.6685-.009.3716-.017.5947-.369.508-.066.0128-.624-.5678-.648-.624-.006-.0169-.013-.0337-.019-.0506-.015.5908-.03 1.1817-.045 1.7725.001.2983.017.5587.063.7219.077.2905.22.2684.356.2443.24-.0424.463-.0835.29 1.5923-.357.3201-.577.0314-.795-.2565-.253-.3353-.504-.6698-.969-.0323-.067-.7199.096-.8468.272-.9817.14-.1077.289-.228.333-.652.031-.3203-.015-.6974-.058-1.0522-.094-.7693-.176-1.4564.553-1.3563-.019-.0832-.004-.3684.011-.6422.002-.0407.004-.0813.007-.1219-.147.0782-.295.1596-.442.2386-.086.2012-.169.3586-.232.3174-.03-.0062-.056-.0637-.077-.1474-.295.1598-.59.3209-.885.4832-.018.1534-.046.3009-.08.4343-.134.5602-.919.8545-1.08.6138 0-.0184.001-.0367.001-.055 0 0 .018-.1847.012-.3604-.112.062-.224.1241-.337.1861 0 .0041.001.0082.001.0123-.01.188-.023.383-.072.4534-.178.2044-.313.0965-.409-.1875-.125.0709-.252.1421-.377.2134.116.6085.4.9636.65 1.2735.265.3276.491.6073.442 1.0967-.005.0523-.033.1042-.068.1596-.127.1982-.358.5654-.115 2.1586-.996.5317-.615-.7589-.459-1.2879.036-.1199.059-.2011.052-.2101-.294-.0631-.535.353-.784.7796-.132.2269-.267.4566-.412.6207-.079.1041-.166.0852-.256.0644-.103-.0237-.211-.0482-.323.1076-.092.139-.366.8637-.63 1.5703-.287.7647-.566 1.5151-.599 1.4688.035-1.1389-.169-1.7625-.366-2.3643-.086-.2635-.171-.5295-.234-.8282-.051-.2676-.097-.7932-.135-1.2241-.016-.1564-.031-.3129-.046-.4694-.013-.1214-.025-.1994-.035-.2111v.1102c-.121-.1944-.517.1014-.648.546-.132.4559-.168 1.0643-.178 1.6633-.004.3774-.007.7549-.01 1.1323-.01.5059-.043.8977-.167 1.0211-.586.5773-.809-1.8998-.541-3.1998.061-.2847.177-.2928.296-.2997.141-.0082.291-.0219.377-.483-.102-.126-.227-.3082-.347-.5313-.697.42-1.394.8484-2.092 1.2762.024 1.1188-.181 2.0198-.855 1.68.038-.4661.071-.8724.097-1.2169-.55.3391-1.101.6767-1.651 1.0193.178.2397.371.6395.125 1.9031-.218 1.1381-.775 1.2321-1.219 1.3065-.203.034-.383.067-.495.1913-.123.1372-.223.3641-.323.5976-.044.1021-.09.2032-.138.3008-.286.0501-.597.1177-.923.2044-.068-.2395-.071-.5677-.072-.8697-.001-.4883-.002-.9008-.285-.7038.097.726-.004 1.3304-.178 1.7184-.257.0719-.519.1456-.781.2163-.056-.1097-.104-.2571-.138-.4464-.052-.2904-.054-.665-.057-1.0032-.002-.2132-.004-.417-.018-.5772-.101.0649-.203.1299-.305.1948-.01.5538-.041 1.3072-.096 1.9888-.114.0271-.229.052-.342.0754-.02-.4564-.176-.6476-.319-.8108-.089-.1005-.173-.1887-.213-.3363-.018-.0762-.025-.1784-.028-.2841-.219.1388-.438.2777-.657.4165-.059-.9751-.367-1.6155-.742-1.4772-.285.1052-.668.2108-1.07.333.01-.3917-.029-.8292-.281-1.316-.151.597-.302 1.1061-.454 1.5422-.538.1556-1.016.2965-1.219.351-.207.0555-.413.2437-.575.4173-.17.184-.35.4164-.518.6426-.126.1689-.245.333-.359.4905-.001-.0001-.002-.0002-.004-.0003-.204.2831-.394.5493-.585.7839-1.016-.0913-2.011-.6317-3.069-.729-.457-.0426-1.13.6919-1.641.4626-.637-.2856-.357-2.0952-.744-2.3226-.389-.2255-.17 1.8288-.631 2.195-.211.1662-1.609.3464-1.856-.4312-.056-.1839.247-.8723.23-1.4814-.008-.3499.162-2.8969-.19-2.6498-.445 2.3047-.614 4.6089-1.682 4.8632-1.687.3969-3.199-.5331-4.967-.5452-.395-.0004-1.444 1.7598-1.751-.1652-.089-.5638.117-2.7831-.523-2.6165-.551.1431-.699 1.1571-1.222 1.9556-.198.303-.183-.741-.564-.0902-.382.6482-.962 2.1018-1.01-.6054-.097.8328-.152 1.5676-.234 2.357-.612.19-1.452-2.7432-1.43-.2424-.622.064-1.245.1285-1.866.1925-.053-.8869-.103-1.7796-.155-2.6713.424-.8914.927.2182 1.101-1.4756-.527-.0885-1.06-.1787-1.582-.2675-.142 4.494-1.952 6.8905-1.286 2.1463.123-.8972-1.019-.0518-1.275.2728-.254.3259-.431 2.1442-.844 1.0317-.235-.6304-.337-1.7029-1.078-.3967.37.4748.758 1.0578 1.132 1.5834-.591-.1579-1.415.5328-1.891-.3853-.118-.2294.446-.9393.224-1.3042-.223-.3637-1.243-.061-1.143 1.6804-.249-3.4026-.362-.5623-1.349-.3887-.124.0232-.909-3.1698-1.472-1.3792-.199.6383-.048 2.9421-.763 2.0063-.526-.6917.188-2.7262-.377-3.7924.129 2.6192-.959 4.2355-1.544 4.348-1.037.2046-.779-1.476-1.062-2.1778-.512-1.2636-1.165.9725-1.37-1.0214.178-.0657.348-.2468.523-.3543-.355-.2283-.709-.4487-1.062-.6771-.053 1.0972-.106 2.2062-.16 3.2942-.647.4151-.825-.8955-1.328-1.122-.07-.0269-.045.7401-.12.7555-.605.1183-.769-.281-1.308 1.3175.146-2.7616-.746-.8613-1.287-2.0312-.151-.3303-.159-1.7324-.332 1.2951-1.129-.5817-2.024-.2636-2.826-2.491.159 2.987-1.186 3.1451-1.915 2.3874-.195-.2046-.245-2.3104-.71-1.9093.062.8957.131 1.9249.199 2.8526-.912.3655-.539-2.4468-1.316-2.0826-.34.1639-.327 3.2783-.87 1.9421-.311-.77-.281-4.5545-.707.1-.52.2748-.112-1.263-.455-1.4102-.215-.0873-.571 1.6551-.899 1.4743-.624-.3581-1.295-3.5708-1.547-.1605-.473.2779-.052-1.1728-.48-.9528-.574.2946-2.104 2.6456-2.168-.0287-.001.004-.001.008-.002.012-.554 1.5942-2.012 1.1649-1.5-1.2283.75.5786 1.518-2.0313.721-1.9301-1.305.1653-.995-.6856-1.034-3.8293-.007-.4521-.353-.7018-.229-1.2809.124-.5793.957-1.1414.624-2.4345-.065-.2396-.55.7194-.523-.5951-.107.3026-.172.6078-.262.909-.481-2.8424-.47-3.8148.883-4.1155-.087.6122-.173 1.234-.261 1.8463.252-.7571.476-1.4954.747-2.2588 1.442.131 3.592-2.2038 4.831-1.3466 1.083.7486-.522 1.1168-.559 1.2272-.389 1.1981.092 1.739.036 2.5327-.058.7938-.803 1.977-.192 1.607.082-.0572 1.048-2.4407 1.102-2.768.269-1.6861.165-2.3982.374-2.9025-3.567-1.269-6.448-2.4851-9.249-3.5137-.739-.2559-1.477-.5118-2.215-.7677-2.657-.8629-4.632-2.1165-6.252-3.2255-.573.3868-1.147.7736-1.721 1.1603-.147-.3737-.294-.7474-.442-1.1212-.934-.1008-1.869-.2017-2.804-.3025.003-.5286.007-1.0571.01-1.5856-1.985 4.8429-1.519-6.1815-3.603 2.4112-.596.2379-1.191.4759-1.786.7139-.025-1.2211-.051-2.4421-.077-3.6632-.08.3241-.16.6481-.24.9721-.465-.4616-.93-.9232-1.395-1.3849-.45.8811-.899 1.7621-1.349 2.6432.038-3.6866-3.354 1.4009-2.514-1.736-.429.0436-.858.0873-1.287.131.141-.4741.282-.9482.423-1.4223-.037-.3461-.074-.6923-.111-1.0384-.362.5781-.725 1.1561-1.087 1.7342.006-5.4969-.876-1.2631-1.127-.8909-.406.5777-1.074.6573-1.126.7693-.079.1893.399 1.6769-.177 2.4903-.193-.9044-.387-1.8088-.581-2.7132-.073.4941-.145.9883-.217 1.4824-.159-.3093-.318-.6187-.476-.928.051-.5654.102-1.1307.153-1.6961-.091-.2097-.182-.4195-.273-.6292-.103.4936-.206.9872-.31 1.4808-.485.1941-.969.3882-1.454.5823-.272-.9007-.544-1.8014-.815-2.7021-.189.0821-.378.1643-.5674.2464-.1225.9922-.245 1.9844-.3676 2.9766-.3846-1.2634-.7693-2.5268-1.154-3.7902-.2883.2147-.5767.4294-.865.6441.0198.5162.0396 1.0323.0595 1.5485.1231-.3041.2463-.6082.3695-.9123-.0164.4295-.0328.8589-.0492 1.2883-.4715.6036-.9432 1.2072-1.4147 1.8108-.1311-.4827-.2621-.9653-.3931-1.4479-.1648.3823-.3296.7645-.4945 1.1468-.5735.0438-1.147.0875-1.7205.1313-.0673-.8591-.1346-1.7181-.2019-2.5772-.1765.1097-.353.2195-.5295.3292.0878.5362.1756 1.0723.2634 1.6085-.4839.1187-.9678.2373-1.4517.356-.1082 1.0833-.2163 2.1665-.3244 3.2497-.1919-.2182-.3838-.4364-.5757-.6546.0384-.5991.0767-1.1982.1151-1.7973-.767-1.1423-1.534-2.2847-2.301-3.427-.1305 1.1446-.2611 2.2893-.3916 3.4339-1.0131-1.8881-2.3449-.4559-3.3517-.9732-.4249-.2179-.7391-3.3474-.9139-.242-.822-.4079-1.644-.8158-2.4661-1.2236-.2932.5573-.5865 1.1145-.8797 1.6718-.2943-.9148-.5885-1.8297-.8827-2.7445-.7458 2.2718-3.7086 3.5343-3.3424.13-.7004.7491-.5902.0355-1.4555 1.1458-.1263-.6802-.2526-1.3605-.379-2.0408-.3117-.1527-.6234-.3055-.9351-.4582-.4784.5642-.9568 1.1285-1.4353 1.6927-.1982-1.0865-.3965-2.173-.5947-3.2595-.0841.8321-.1682 1.6642-.2523 2.4963-.2752.2505-.5505.501-.8258.7515-1.0339 4.0979.7916-7.7811-1.772-3.0458.3196.0942.6392.1884.9588.2825.0391 1.0385.0783 2.0769.1174 3.1153-.4885.3796-.9771.7593-1.4656 1.1389-.2918-.3614-.5836-.7227-.8755-1.0841-.2926.2797-.5851.5594-.8777.839-.6542-.7204-1.3082-1.4409-1.9623-2.1613-.6914.1992-1.3827.3985-2.0741.5978-.0654-.6609-.1309-1.3218-.1963-1.9827-.3604.762-.7209 1.524-1.0813 2.2859-.1068-.1396-.2136-.2792-.3203-.4189.0134-.5726.0269-1.1451.0404-1.7177-.5613.2816-1.1226.5632-1.6839.8449-.3302-.5422-.6605-1.0844-.9907-1.6266-.0276.506-.0551 1.0121-.0827 1.5182-1.7126-.2049-3.4251-.4098-5.1377-.6147-.0036-.0064-.0072-.0128-.0109-.0193-.0475-1.6113-1.2457 1.8776-.718-3.1105-.0949.4861-.1899.9723-.2848 1.4584-.1605-.3095-.3209-.619-.4813-.9285.0603-.5768.1206-1.1537.1809-1.7305-.1381-.0361-.2762-.0722-.4143-.1082-.0731.7227-.1462 1.4455-.2194 2.1682.1172.4917.2343.9834.3515 1.475-.3727-.2844-.7454-.5688-1.1181-.8533.0953-.484.1907-.9681.2861-1.4521-.3918-1.3973-2.3974 4.301-.2904-7.0376.2332.4993.4664.9987.6996 1.498-.0653-1.0385-.1306-2.0771-.1959-3.1157.1104-.834.2208-1.6679.3313-2.5019.2022.5703.4045 1.1405.6067 1.7108.1743-.5509.3485-1.1019.5227-1.6528-.0596-.3541-.1192-.7083-.1788-1.0624.1897-.4659.3794-.9319.5691-1.3978.5102-.1124 1.0204-.2248 1.5306-.3371.0556.366.1113.7321.1669 1.0981.8449.2424 1.6897.4847 2.5345.7271-.1575.636-.3151 1.2721-.4726 1.9081.2253.0394.4507.0787.676.118.1225-.5798.245-1.1596.3674-1.7394.2397-.1452.4793-.2905.719-.4358-.1405 1.1418-.2809 2.2836-.4213 3.4254-.2868.7926-.5736 1.5852-.8604 2.3779.1496.382.2991.7641.4487 1.1462.1039-.8406.2077-1.6812.3116-2.5219.2541.0867.5082.1733.7623.26-.073-.6268-.1461-1.2537-.2192-1.8805.1215-.688.2429-1.3761.3643-2.0642.3921-.2734.7842-.5467 1.1763-.8201-.0038.5142-.0077 1.0284-.0115 1.5426.3201-.5796.6403-1.1591.9604-1.7387.1034.3578.2067.7157.3101 1.0735.0862-.3175.1723-.6349.2585-.9523.3037.0847.6074.1694.9112.2541.1424.5734.2848 1.1468.4273 1.7202.235-.4805.47-.961.705-1.4415 1.1118.6302 2.2237 1.2604 3.3355 1.8907 1.0356-2.9202 2.4732 1.761 2.611-1.1653.977.1861 1.954.3721 2.931.5582.1566.4827.3132.9654.4698 1.4482 1.0107-.2093 2.0215-.4185 3.0322-.6277 1.1535.9991 2.3071 1.9983 3.4606 2.9975-.038-1.0383-.0759-2.0767-.1139-3.115.3812.0973.7625.1946 1.1438.292.1711.7493.3423 1.4987.5134 2.2481.2721-.6102.5442-1.2203.8163-1.8304-.1392 5.213 1.1453-.792 1.9973 1.0189.9015-4.435 1.0524 3.2193 2.0748-1.394-.0721.4901-.1442.9802-.2162 1.4703.2054.056.4109.112.6164.1681.4791-.5438.9582-1.0875 1.4373-1.6313-.0429.6743-.0858 1.3485-.1286 2.0228.1743.1371.3486.2742.5228.4113-.1482.5532-.2964 1.1063-.4446 1.6594.1463.194.2926.388.4389.582.6365-.647 1.2731-1.2939 1.9097-1.9408.1056.5377.2111 1.0753.3167 1.613.1211-.4921.2421-.9842.3632-1.4763.3071.4422.6141.8845.9212 1.3267.0178-.5109.0357-1.0219.0535-1.5329-.1511-.0433-.3023-.0866-.4535-.1299.0501-.498.1002-.9961.1503-1.4942l1.5147.4272c-.0128-.3441-.0256-.6881-.0385-1.0322.429.1176.858.2353 1.2869.3529-.0053-.0396-.0137-.0764-.0186-.1179-.0989-.8528.2943-4.0117-.6106-4.0081-.7769.0009-1.0313 1.4202-1.7988 2.385-.2907.3644-.2216-1.1457-.7819-.3474-.5644.7978-1.4454 2.7076-1.3867-1.2494-.1746 1.1749-.2831 2.2207-.4337 3.3385-.8655.051-1.905-4.5389-1.9898-.8957-.8726-.1407-1.7465-.2812-2.6191-.4218-.0321-1.3089-.0637-2.6186-.0952-3.9342.6339-1.1394 1.2876.6669 1.6097-1.727-.7321-.3264-1.4727-.6678-2.1979-.9929-.4066 6.483-3.0516 9.2858-1.8982 2.6339.2132-1.2578-1.4234-.4586-1.7955-.0833-.3712.3765-.7023 2.9649-1.2287 1.1894-.2996-1.005-.3912-2.6036-1.4877-.9823.4942.8286 1.0093 1.819 1.5078 2.7235-.8198-.451-2.0016.2467-2.6249-1.2675-.1546-.3775.6676-1.1981.3735-1.8124-.2943-.6129-1.7332-.5598-1.6744 2.0095-.1894-5.0397-.4821-.9438-1.8704-1.0634-.1761-.0216-1.1258-4.9551-1.9953-2.5561-.3071.8555-.2016 4.2524-1.1578 2.6224-.7031-1.2029.3889-3.8898-.3512-5.6523.0592 3.8565-1.5374 5.7936-2.3604 5.7373-1.4587-.093-1.0185-2.4377-1.3819-3.5644-.6569-2.0327-1.6742.9792-1.8691-1.9943.2521-.0286.4958-.2266.7447-.3173-.4853-.4652-.9717-.9128-1.4547-1.3776-.1248 1.5731-.2464 3.1564-.3723 4.7157-.9245.3612-1.1125-1.6046-1.8046-2.1236-.0972-.0726-.0983 1.0542-.2041 1.0486-.8503-.0549-1.0626-.6985-1.8895 1.4218.3317-3.9602-1.0056-1.5274-1.7074-3.4323-.1955-.5389-.1407-2.5793-.5225 1.7569-1.5514-1.27-2.8174-1.1477-3.8349-4.6888.0853 4.4078-1.8076 4.138-2.7914 2.761-.263-.3704-.232-3.4592-.8997-3.0522.0444 1.3252.0931 2.8456.1444 4.22-1.2918.1896-.641-3.7535-1.7434-3.515-.4845.109-.6096 4.6475-1.3077 2.4935-.3999-1.2366-.1823-6.7267-.9938-.1201-.7404.2033-.0954-1.8815-.5693-2.2222-.2968-.2094-.8743 2.1961-1.325 1.8061-.8557-.7534-1.6444-5.6758-2.1554-.8178-.6752.2284-.0178-1.7239-.6261-1.5654-.8161.2114-3.0686 3.0627-3.0334-.8486-.0007.0081-.0014.0162-.0021.0243-.8475 2.1103-2.8678.9253-2.0382-2.3637 1.0214 1.1222 2.2163-2.3819 1.0987-2.5355-1.8338-.2498-1.3608-1.3648-1.2694-5.9499.0121-.66-.4633-1.156-.2633-1.9514.1997-.7958 1.394-1.2985.9881-3.3044-.0787-.3773-.806.8437-.708-1.0577-.1625.3993-.2656.812-.4056 1.2155-.5409-4.31346-.4806-5.71589 1.4255-5.6442-.149.8589-.2995 1.72526-.4507 2.58374.3874-1.00693.7332-1.99435 1.1486-3.00297 2.0101.7325 5.1235-1.85107 6.8157-.13887 1.4768 1.49209-.7661 1.42634-.8339 1.57159-.601 1.59666.0466 2.56061-.0686 3.69381-.1172 1.1327-1.2162 2.5713-.3434 2.262.116-.0494 1.5714-3.1386 1.6669-3.6026.719-3.72629.0197-4.23634 1.8484-4.97786.6526-.26201 2.4836-.3601 3.1816-.4498.7695-.09497 1.215 1.92218 1.6817 1.75808.4668-.16671.1493-1.45619.697-1.60145 1.0824-.28511 2.4911 1.1338 3.4615 1.19684 1.1018.06642 1.579-1.81252 2.6426-1.73228.7373.05606 1.6051 1.60436 2.4849 1.08431.1093 1.04863-.5921 4.90016-.0193 4.70246.6985-.2474-.0387-2.70324.3941-3.82576.7319-.53809.1011 1.16003.1195 1.21667.2697.78531.882.32989 1.2616.7612-.2058-.8233-.4109-1.57191-.6343-2.40524 1.0173 1.41011.6755-1.40404 1.6224-1.87909.2477-.11709.5363 2.86337 1.421 2.14046.2106-.17107 2.2893-1.89673 2.899-1.72301.2608.07719.5799 1.45775.6677 1.53827.3174.27323.4326-1.52065.753-1.56613 2.3732-.3334 4.9532 1.00432 7.1809 1.12904 2.1173.11769 3.274.13727 5.4288.29606 1.9984.14969 4.0623-2.56166 1.1472 6.21523 1.4353 1.404 1.2169-1.2945 1.8056-3.42565.3485-1.25713.5944-.04465.7201-.25811.419-.75562-.1095-1.84024.2152-2.39525 1.307-2.22373 5.1087.82039 6.0102.98797 4.1541.76691 7.4834.4718 11.3211 1.13936 2.444.42413 4.649 1.53454 7.074 1.99598.287 2.9275.583 5.8374.881 8.7531-.326-.2857-.473-.6741-.869-.7404-.397-.06-1.313-.6116-1.668.6808.242 1.3951 1.493 1.8764 1.882 1.928.749.0974.384-1.2746.926-1.5026.542-.2264 1.245 1.6944 1.933 1.1054 1.615-1.3889-1.063-2.8235-1.598-2.6086.423-2.9675 1.363.7141 2.044-1.5619-.126-.7337-.747-2.5875-1.082-2.1182-.333.479-.03 2.3208-.606 1.7193-.273-1.7029-.584-3.5001-.852-5.2227.651-.3291 1.503.7633 2.055.7972 6.146.3628 11.967 1.9811 18.005 3.3966.555.1298 1.651.4069 2.117.9983.362.4644-.044 2.4787.438 1.9968.058-.0693.059-1.428.638-1.5942 1.087-.3182 3.321.1098 4.44.3847 9.467 2.2902 18.828 4.1805 28.034 8.3967-.066-.3914-.133-.7829-.199-1.1744.342-.841.685-1.682 1.028-2.523.92-.2067 1.84-.4133 2.76-.62.1.6618.201 1.3236.301 1.9854 1.524.4361 3.048.8722 4.572 1.3083-.284 1.1482-.567 2.2963-.851 3.4444.406.0668.813.1335 1.219.2003.221-1.0411.441-2.0823.662-3.1234.432-.2619.863-.5238 1.295-.7857-.253 2.0552-.506 4.1105-.758 6.1657-.335.9213-.669 1.8426-1.004 2.764.004.02.008.044.013.0623.08.2564 1.314-2.5422 1.451-1.3483.022.1976.034.3861.041.5547.231.0806.462.1612.692.2418-.131-1.1298-.261-2.2597-.392-3.3895.218-1.2394.436-2.4788.654-3.7182.708-.4878 1.416-.9756 2.124-1.4634-.007.9182-.015 1.8363-.022 2.7545.577-1.0399 1.153-2.0798 1.73-3.1196.187.6446.375 1.2891.563 1.9337.154-.5689.308-1.1379.463-1.7068.547.1521 1.095.3042 1.642.4563.258 1.0282.516 2.0564.774 3.0846.424-.8629.848-1.7257 1.271-2.5885 2.006 1.138 4.012 2.2761 6.018 3.4141 1.867-5.2593 4.459 3.1694 4.706-2.1043 1.764.3337 3.528.6675 5.291 1.0012.283.871.566 1.7421.849 2.6131 1.821-.3761 3.642-.7522 5.463-1.1282 2.082 1.7936 4.164 3.5873 6.245 5.381-.068-1.8657-.136-3.7314-.204-5.5971.687.174 1.374.348 2.061.5219.309 1.3511.619 2.7021.928 4.0531.491-1.0981.982-2.1962 1.473-3.2943-.249 9.386 2.065-1.4324 3.602 1.8273 1.608-7.8959 1.89 5.5266 3.683-2.2514-.013-.0991-.026-.2096-.039-.3218.076-.5008.139-1.0208.218-1.513.146.4595.327.7787.49 1.1436-.324 2.0473-.499 1.9319-.658.7656-.114.7744-.229 1.5488-.344 2.3231.371.1006.742.2012 1.114.3018.864-.9791 1.728-1.9581 2.592-2.9371-.077 1.2145-.154 2.429-.231 3.6435.206.1602.412.3203.617.4805.023-.4276.066-.84.136-1.1524 1.097-.6537.888 3.446.058 3.4166-.089-.0051-.155-.342-.188-.8182-.16.597-.321 1.1941-.481 1.7911.264.3529.528.7058.792 1.0587 1.048-1.0657 2.096-2.1314 3.144-3.197.025-.7932.061-1.6.152-2.3699.451-.7965 1.621-.9074 2.572-.8685.004-.0343.008-.0687.012-.1031.166.0466.332.0932.498.1398.432.0404.758.0875.847.0832.174-.0098.297.0978.382.2587.301.0825.603.1649.904.2474.031-.0433.063-.0792.095-.1084-.022-.5695-.045-1.139-.067-1.7085.774.212 1.549.424 2.324.636.417-.957.639-2.6978.111-2.7347-1.364-.0932-.968-1.4722-.728-6.9274.034-.7846-.302-1.3165-.123-2.2827.179-.9674 1.092-1.6943.863-4.0314-.044-.44-.635 1.092-.491-1.1744-.136.4913-.228.9901-.347 1.4838-.244-5.06173-.147-6.7304 1.278-6.85702-.143 1.03579-.287 2.08259-.433 3.11812.328-1.23744.622-2.44916.971-3.69167 1.478.64572 3.908-2.77375 5.112-.93103 1.051 1.60874-.633 1.78366-.685 1.96387-.508 1.95869-.062 3.02693-.188 4.38203-.129 1.3574-1.008 3.1957-.344 2.7336.087-.0663 1.303-3.9263 1.386-4.4715.677-4.49952.173-5.02667 1.57-6.1098.499-.38346 1.874-.69884 2.4-.88287.58-.19893.838 2.14856 1.194 1.90097.356-.25037.167-1.74544.583-1.97859.821-.45766 1.823 1.06743 2.548 1.03448.822-.04456 1.249-2.33424 2.043-2.35832.55-.01721 1.142 1.73014 1.82 1.01634.043 1.23192-.626 5.88235-.189 5.58246.532-.37067.072-3.20024.438-4.58161.564-.71496.041 1.33261.044 1.43087.173.9008.649.28883.917.75681-.123-.9531-.249-1.81915-.384-2.78244.708 1.56035.557-1.73406 1.284-2.4036.19-.16936.295 3.33031.985 2.37343.167-.23053 1.786-2.49898 2.236-2.36049.192.06481.38 1.66736.443 1.75214.227.28599.38-1.84691.621-1.93852 1.791-.659604 3.675.63345 5.339.53355 1.582-.09561 2.447-.19698 4.055-.24797 1.491-.04461 3.138-3.49332.626 7.24954 1.022 1.50612.959-1.67822 1.48-4.27369.309-1.52933.448-.10884.55-.38261.342-.94343-.012-2.16903.251-2.86389zm-145.708 72.07931c.706-2.3257.286-3.1912 1.2-.9958-1.257 2.4063.134 3.8972-.039 6.0483-.1 1.2152-.556.4817-.763 1.106-.318.9647-.101 2.5621-.435 3.173-.334.6091-1.226-.611-1.55-.571-.619.0832-1.206.8469-1.724.9212-.518.0736-1.235-.9776-1.557-1.0923-.321-.1136-.659.1264-.724.2579-.376.7687-.302 2.5079-.754 2.5583.086-1.7014-.352-4.3892.373-5.4262-.091-.0465-.187-.366-.282-.3238-.444.2143-.364 2.5577-.593 2.9699-.387.6853-.033-1.1277-.029-1.2336-.243-1.3914-.183.23-.379.9605-.104.3738-.806 1.1959-.942 1.1583-.133-.0435.102-.968.013-1.0096-.381-.1841-.771-.4115-1.178-.1968-.408.2214-.736 1.8274-.576-.4832.026-.3651.272-.7181.257-1.5587.001-.004.001-.0081.001-.0121-.005-.2717-.239-1.5674.258-2.3733.141-.227.284-.3472.426-.387-.072.3133-.142.6294-.213.9438.106.0132.212.0291.318.045-.115.8145-.237 1.6697-.331 2.453.081.8592.308-.2705.334-.2783.347.323.199 1.994.584.0184-.229-.2896-.453-.6195-.672-.9567.034-.4096.066-.8245.099-1.2352.048.0073.096.017.144.0244-.004-.3328-.01-.6678-.014-.9996.341.1181.671.6312.952 1.213-.141.4682-.3.9996-.442 1.5003.455-.4097.141.6117.403 1.1608.213-1.9746.349-1.5201.591-1.3897.243.1276.015-1.3213.282-1.5077.545-.3722 1.274 1.929 1.602-.9314.545 1.7414-.286 2.0164-.38 2.7183-.396 2.9999 1.063 1.6927 1.383.0425.125.9563.035 2.2996.573 1.9223.73-.5165-.665-2.092.299-2.3943.645-.2002.458 1.2242.749 1.5512.54.5998 1.625-.1632 1.397-2.1553-.092-.7992-.606.2527-.72-.5748-.062-.4622.432-4.5735-.325-1.381-.074.318.111 1.8104-.33 1.865-.127.0144-.454-1.3212-.838-.9094-.169.1799-.955 2.0716-1.304 1.3974-.377-.7111.301-1.1178.186-1.7607-.119-.6434-.656-.57-.545-1.9261.391-1.5403.265.8315.366.729.394-.4521.255-2.7725.763-2.5147-.006 1.2591-.706 4.6405.123 3.7528.006-.0631-.12-.8431.146-1.127.467-.4947 1.317-.8221 1.846-.7946.09-1.8724-.571-1.7168-.815-2.9962.739-.3491 1.577-.9557 1.979.8091-.288.2659-.578.5377-.864.8035.324-.1007.648-.1979.97-.2984-.171.7947-1.017 2.7994-.541 3.2192.176-2.0363.906-2.4227 1.242-3.5279zm2.963 10.4896c-.48 1.5202-.993 1.1638-1.559 1.1249.233-1.6352 1.105-.8471 1.559-1.1249zm-14.483-5.3492c-.204-2.6638 1.266-2.4519 1.838-2.106-.138-.0075-.279-.0076-.417-.0105.024.5663.043 1.1362.068 1.7024-.158.078-.316.1519-.473.2298.141.581.257 1.2397.39 1.8213-.555 2.5244-.48.9385-1.029.5997-.352-.2129-.548.643-1.007.7363-2.147.439-4.406 1.7256-6.563 1.4464.133-2.0954.216-2.6182.637-2.9234-.056.623-.107 1.2563-.162 1.8791.28-.2372.558-.5192.835-.812-.221-.3462-.44-.7045-.653-1.0777.127-.0874.284-.1648.48-.2537.145-.0685.234-.9169.419-.8347.395.1791.764 2.6915 1.255 1.9918.284-.4066.083-2.7291.661-2.1128-.476 1.7337-.828 3.2395.169 2.4826-.456-1.4576-.058-.8933.193-1.6927.159-.5112-.663-.2667-.078-1.2745.124-.205 1.812-1.2989 1.655.1388-.345 3.1084-.404 2.7669.759.9335-1.247-1.142.097-3.2879.63-2.4462.272.4321-.335 1.9164.393 1.5825zm-8.1 2.7508c.4.1018.597-1.3197.838-.383.018.1126-.344 1.5551-.544 1.6327-.201.0719-1.421-.4734-1.446-.6971-.212-2.4797 1.013-.5937 1.152-.5526zm-1.263-.1243c-.502.0824-1.004.1587-1.506.2411 0-.0019.001-.0039.002-.0059.039-.3137.081-.6253.122-.9392.46.2338.922.4702 1.382.704zm25.969-.7131c-.283 2.0999.182 2.3501.371 2.3036.678-.1665.947 1.5991 1.375-.4849-.307-1.2217-.688.2098-.872.0616-.401-.3385-.292-2.0623-.874-1.8803zm2.512.517c.145.4233-.012 1.5057.208 1.7876.22.2856.891.6745 1.179.2704.288-.4062.358-2.011.61-2.6255-.672.1614-1.321.3637-1.997.5675zm3.82-.6657c-.364-.1325-.962 2.0589-.082 1.6407.038-.0171.444-1.43.636-.553.121.6052-.042 1.1597.126 1.8542.169.6899.911-2.3556-.68-2.9419zm8.305 1.5724c-.178.0195-.46 1.0354-.386 1.211.585 1.306 1.214-1.3041.386-1.211zm-37.779-1.8517c-.007.0046-.014.006-.02.0106.001-.0109.002-.0257.003-.0365.005.0095.012.0166.017.0259zm36.094 1.4715c.361-.4021.723-.8055 1.084-1.2076-.18-.3542-.359-.7137-.538-1.068-.181.7569-.365 1.5234-.546 2.2756zm-.225-4.3187c-.144 1.3464-.19 2.5457.153 3.3633.176-1.3215.025-2.3224-.153-3.3633zm5.008 3.2253c.378 1.2088 1.052-4.0047.193-1.6682-.082.2285-.221 1.5729-.193 1.6682zm-31.699-2.5239c-.005-.0007-.01-.0006-.014-.0012.011-.0816.023-.1673.035-.2482-.007.0814-.015.1678-.021.2494zm180.855 10.9912c-.152-2.0944-.934 3.0875-.896 3.4346.192 1.6455 1.003-1.9358.896-3.4346zm-158.539-14.8036c-.966-1.9758-1.44 2.0795-1.55 2.4854-.572 2.1073-.448-1.4364-.547-1.424-.474.1141-.176 3.9044-.117 3.9776.943 1.0215.888-1.9616 1.056-2.8821.367-1.9901.947-.421 1.158-2.1569zm-22.186 2.8372c-.082-.0284-.164-.0434-.247-.0207.015-.0666.032-.1374.048-.2043-.145-.1749-.29-.3454-.435-.5203.206-.2034.413-.414.618-.6219.006.4541.01.9144.016 1.3672zm43.768 1.8088c-.507-2.6537-3.072.3796-1.583 1.325.257.161.18-.6913.35-.724 0 .0021.001.0042.001.0062.171-.0263 1.608 1.3729 1.232-.6072zm-30.013-2.5233c.107 1.3293.482.8638.906.6334-.008-.4754-.016-.9538-.024-1.4292-.293.2616-.589.5342-.882.7958zm172.224 12.1415c-.388.4851-.917-.6393-1.121 2.1417.259.3286.518.6676.777.9962.114-1.044.229-2.0939.344-3.1379zm4.034-4.6291c-.398.8933-.18 2.5471-.41 3.8183-.231 1.2683-1.229.6324-.781 3.8607.142.988 1.602-1.6597 1.826.49.714-6.2102-.355-1.8303-.644-4.4457-.086-.7876.581-3.7324.009-3.7233zm-143.972-4.4493c.346-.2518.694-.5076 1.04-.7642-.316-.0539-.634-.1006-.95-.1592-.029.3083-.06.6151-.09.9234zm41.47 2.933c-.07.1228-.14.2455-.209.3683-.187.002-.365.0071-.529-.0014-.038-.385-.076-.77-.114-1.155.284.2627.568.5254.852.7881zm-34.555-5.336c-.489-.8493-1.386 1.132-1.062 2.3059.391 1.3995 1.856-.9173 1.062-2.3059zm-3.407 2.0296c1.171.5694 2.275-2.637.626-1.6687-.092.0566-.337 1.6664-.626 1.6687zm41.075 2.906c-.32-1.6453 1.756-3.8919 2.237-3.1077-.245 1.0391-.489 2.0783-.733 3.1174-.074.0559-.16.1653-.25.2915-.201.0271-.547.0791-.974.1387-.14-.2272-.268-.4549-.278-.5071 0 .0224-.001.0448-.002.0672zm112.934 8.6695c-.648-5.8993-1.375-.3811-.742.9729.076.1663.665.1945.742-.9729zm-178.034-17.4003c.014-.6131.667-3.9999-.21-1.3529-.303.9164-.325 1.8325-.998 1.9988.636-.3081.355 2.2356.407 2.423.43 1.5118 1.237-1.5325 1.229-2.8493-.005-.374-.44.3877-.428-.2196zm-27.2 1.0814c-.326-.0343-.654-.0588-.98-.0884.069-.4483.136-.9079.205-1.3609.26.4723.529.9252.775 1.4493zm201.416 6.4864c-.214 1.7988.129 8.8371.221 9.3164.599 3.0122 1.401-1.1538 2.03.9237.156-4.6571-.676-1.6821-.967-3.9706-.089-.702.768-4.593.12-5.8026 0-.0021 0-.0042-.001-.0062-.208-.3857-1.173.8142-1.403-.4607zm-106.143-1.6931c-.195-.6385.538-3.6453.844-1.1849.008.1177-.018.3084-.042.4865-.023.1654-.045.3261-.036.4073.032.1896.221.4383.442.7354.45.6071 1.038 1.4071.73 2.2357-.326.0444-.653.0824-.982.1258-.053-.2771-.089-.6175-.123-.9597-.046-.4617-.093-.9243-.185-1.2282-.168-.535-.432-.5674-.573-.581-.053-.0051-.088-.0092-.095-.0386.007.0006.013.0011.02.0017zm117.558-3.1684c-.053-.8386-.677-.9781-.788-.2499-.104.6929-.063 1.3069-.028 1.8719.069.0929.138.1884.207.2808-.065.0048-.13.0098-.195.0143.032.6113.028 1.1673-.218 1.7151-.565-.1454-1.143-.3117-1.713-.456-.042 1.3294-.084 2.6654-.128 3.9951.153-.4687.307-.9489.459-1.4254.085.4082.168.8214.253 1.2217-.953 7.4486-1.324-.619-2.511 2.8764.129-1.5492.255-3.1613.386-4.6717-1.419-1.747-.513.172-.718 3.9885-.119 2.1881-.483.2356-.603.5864-.835 2.5264.517 5.6753 1.029 5.5744.511-.0988 1.451-2.9271 2.022-3.046.339-.0636.253 1.5445.594 1.483.509-.088 1.389.0608 1.915-1.0276.191-.3972.286-3.3608.27-3.7015-.046-.7897-.389.7509-.496.4975-.106-.2573.081-1.496-.075-1.6111-.16-.1093-1.086.5366-1.164.7722-.453 1.4392-.051 2.9783-.494 2.7638.26-10.1704 1.276-4 1.539-4.5995.599-1.3904.579-2.1938.444-2.7987-.285-.3468-.56-.763-.56-.9657.018-2.1018.237-2.3314.471-2.0125.067-.3956.127-.774.108-1.0811-.002.0018-.004.0037-.006.0056zm17.384 11.448c.968-.142.051 4.2651-.114 4.3209-.692.2081-.796-4.8652-1.585 1.0248-.434.2762.179-2.094-.049-2.3746-.453-.5467-1.241 2.4877-1.725 2.0543.068-1.3019.065-2.706.207-4.0252.649-1.3915 3.023-.9666 3.266-1.0002zm-211.116-12.2367c.481-.5429.964-1.0863 1.445-1.6244-.655.2535-.903.4643-1.171-1.1763-.091.9311-.183 1.8695-.274 2.8007zm26.166.553c-.045-.198-1.236.1488-1.317 1.1697.185.3205 1.594.3468 1.317-1.1697zm178.801 13.0301c.915-.7177.707 3.3428.019 3.3704-.195.0011-.233-2.275-.019-3.3704zm-66.908-6.267c-.103-.0594-1.548-.0321-1.624 2.5159.744.3952 1.542.7688 2.306 1.1367.019-.7962-.131-1.6647-.215-1.9965-.208-.8409-.085-1.4445-.467-1.6561zm68.986 4.9774c.186.5245-.094 2.42.436 1.5188-.014.1928-.028.3856-.042.5784-.146 1.3207-.593 2.281-.776 2.1889-.006-.0212.139-1.2136.091-1.2602-.364-.2409-1.053.8607-.75-2.4701.195 1.9863.854-1.075 1.041-.5558zm-203.605-16.3416c-.484-.0905-.923 1.8298-.931 3.1008.345-.2565.692-.5139 1.038-.7704-.035-.776-.071-1.5543-.107-2.3304zm126.256 11.1895c.122.2916.246.5722.367.8638-.108.2482-.218.4901-.326.7383.099.2879.201.5764.301.8643.241-1.2836.482-2.5692.725-3.8531-.355.4588-.712.928-1.067 1.3867zm57.22-7.4389c-.251-1.7504-.577 3.8743-.405 4.4435.173.5626.702-.6996.699 1.5654-.385 1.0761-.603-.3694-1.03.2934-.506.7889-.257 3.5635-.078 2.8232.359-1.4929.279-3.6844.694-1.7793.353 1.6275-.57 6.4604-.184 6.7773.49.3914.538-2.6436.503-4.5027.361-.4775.717-.8853 1.076-1.3307-.963-.0157-.774-3.6528-.582-8.2319-.364-.5397-.245 2.6314-.633 2.1886-.136-.1589-.04-2.0879-.06-2.2468zm-16.854 9.9914c-.784.0311-1.072 3.5687-.269 1.9008.171-.356.225-1.1149.269-1.9008zm-168.365-12.2283c.263.0489.526.1031.789.152.03-.3093.061-.625.091-.9296-.263-.0488-.526-.0969-.788-.1457-.03.3082-.063.6151-.092.9233zm-5.267-.5214c.377-.2532.903.7779 1.04-.7458-.301-.2187-.602-.4374-.903-.6515-.046.4616-.093.9313-.137 1.3973zm28.795 2.3661c.068.0824.136.0749.199.029-.066-.0137-.133-.0276-.2-.0413.001.0041.001.0082.001.0123zm-30.22-2.6325c.293-.2614.588-.5163.88-.7776-.248-.2041-.496-.4155-.743-.6197-.046.464-.091.9332-.137 1.3973zm90.458 4.5058c.132-.3474.51.0888.861.4948.231.2672.45.5243.58.5326-.934 5.1465-1.548-.7592-1.441-1.0274zm48.255-2.1637c-1.793-.8575-1.776 8.9584-.267 8.761.278-2.0888-.197-.8688-.127-2.0197.073-1.1472.386.1995.372-1.9287-.608-.6729-.458 1.7733-.977 2.2026.192-1.232.21-3.5371.362-4.5757.283-1.9349.533-.0532.637-2.4395zm64.226 7.0344c.003.0145.008.0283.011.0438.193 1.0343-.218 6.554-.181 6.7347.478 1.4999 1.205-3.5266 1.002-5.5204-.119-1.1623-.759 2.1931-.475-1.2956.387.7395.588.2933.696-.3765-.349.1369-.702.2806-1.053.414zm13.88 8.0242c.345-2.7457 1.021-1.2046 1.433-1.5825-.545 2.4996-.952 1.7711-1.433 1.5825zm-205.08-17.09c.623.0009.574-1.0972.729-1.7334-.141-.0393-.281-.0756-.42-.115-.103.6151-.207 1.2325-.309 1.8484zm221.01 15.6882c-.154-.0027-.486 1.6804-.437 1.9908.385 2.3596 1.153-1.9719.437-1.9908zm-32.089-4.9393c-.583 1.3765-1.377-.4899-1.635 3.5196.623 2.4693.417 1.0336.951-1.0105.361-1.3753.565 1.1385.684-2.5091zm-59.629-.7503c.224.1625.449.3271.673.4975-.02-.7912-.041-1.5966-.061-2.3878-.202.6284-.409 1.262-.612 1.8903zm-51.534-8.5914c.285-2.1119 1.913.0124 1.569.9279-.688-.4631-.709.2319-.733 1.0961-.012.4097-.024.8604-.11 1.2404-.467 1.9931-.962-1.5107-.726-3.2644zm-81.856-4.0662c.154.3376.309.681.461 1.0187.107-.4355.215-.8738.322-1.3082-.163-.0531-.326-.1042-.487-.1572-.098.1478-.198.2994-.296.4467zm197.18 12.2869c.303 4.3519.177 7.1918.521 3.6024-.104-.3821-.136-.8739-.031-1.2889.049.0186.098.045.146.0674.055-.6004.12-1.3088.193-2.1276-.276-.0818-.553-.1715-.829-.2533zm20.971 1.5751c-.299-.2997-1.002 3.3072-.213 2.7813.037-.037.505-2.3391.591-.8079.05 1.0629-.138 1.9788-.055 3.2049.083 1.2204.985-3.8316-.323-5.1783zm-1.565-.2232c-.588.1311-1.161.3362-1.757.5387.086.7555-.144 2.5767.018 3.107.164.5364.705 1.3326.986.7013.281-.6371.483-3.3514.753-4.347zm-127.04-17.1965c.296-.2359.954-.7548.732.3615-.092.4231-.246.3243-.382.2314-.161-.1101-.3-.2065-.292.6063.429 1.729.952 1.4149 1.667.979.021-.0146.043-.0291.064-.0436.009-.0264-.003-.1512-.022-.3326-.047-.4671-.132-1.3095.009-1.8307.035.0916.068.1696.096.2224.255.5021.128.8523.569.9849.028.0083.133.0099.279-.0011.033.1663.074.3094.13.409.084.1521.202.2218.326.2907.199.1113.415.2259.521.7297-.168.873-.554.2731-.869-.226-.195-.3085-.362-.5744-.436-.4224-.017.0337-.075.364-.145.7841-.112.6736-.262 1.5787-.355 1.8567.033.0672.124.0118.224-.0547.2-.1324.44-.2909.345.47-.005.0322-.009.0645-.014.0968-.004.0384-.009.0769-.013.1153-.001.004-.002.008-.003.012-.147 1.1873-.387 3.1339-.811 3.1538-.038.0113-.052-.1444-.068-.3242-.017-.2095-.039-.4498-.105-.4927-.097-.0457-.215.0191-.334.0884-.156.0907-.315.188-.429.0252-.035-.0416-.06-.2438-.086-.4605-.035-.2773-.073-.5838-.141-.6304-.051-.0265-.15.17-.27.4122-.212.4291-.492.9919-.697.6827-.14-.1969-.222-2.4829.113-2.8754.204-.2482.216.071.228.3498.006.1493.014.2841.048.3165.079.063.185.014.288-.0433.243-.1348.478-.2662.352 1.1933.225.0462.336-1.5528.301-1.8919-.087-1.0196-1.909-2.7357-2.147-2.085-.008.0283-.003.0906.004.1841.028.3769.093 1.2751-.403 2.6612-.381 1.044-.73.9243-.891.8686-.048-.0166-.08-.0236-.09.0047-.013.0419-.012.2845-.007.618.018 1.3429.056 4.1881-.837 1.7183-.148.1804-.159.6025-.168.9598-.007.2519-.013.4764-.066.5642-.148.2731-.697.5544-.746.4029.007-.4302.014-.8604.021-1.2906.01-.03.071-.0665.156-.1217.284-.1826.854-.555.901-1.4128-.688.5527-.886.0308-1.299-1.0644-.022-.0478-.05-.1891-.081-.3499-.104-.5393-.259-1.3326-.49.1121-.049.3124.036.463.13.6234.126.2137.267.4543.126 1.156-.347-.0595-.577.4169-.852.982-.017.0353-.034.0706-.052.1059-.053-.3953.056-.7232.152-1.004.066-.1914.128-.3663.123-.5287-.001-.1272-.382-1.5553-.405-1.6204-.084-.1132-.309-.1272-.533-.1366-.152-.0064-.304-.0085-.411-.0467-.115-.0317-.247-.2282-.355-.385-.083-.1202-.152-.2205-.188-.2118-.074.022-.164.2053-.256.3889-.113.2258-.233.4623-.334.4314-.051-.0208-.098-.1919-.149-.4045.056-.1649.116-.3364.18-.5178.091-.2614.176-.5174.258-.7624.149-.4436.291-.8675.452-1.2729.008.1598.023.3161.044.457-.002 1.2026.432 1.4209 1.129 1.1727.163-.0488.204-.3438.237-.5987.021-.1617.042-.3122.09-.3722.266-.2688.583-.3505.907-.4324.366-.0927.744-.187 1.067-.5598.036-.5467-.141-.4185-.279-.3174-.069.0504-.13.0872-.15.0365-.058-.1673.013-1.801.285-2.1138.505-.5379.58.3552.651 1.2061.034.4175.069.8243.153 1.048.551 1.4014 1.555.4655 1.291-2.0661.484.9873.522.7275.579.318.025-.1767.054-.3792.124-.5224.576-1.2262.672-1.0773.834-.806.079.1311.175.2925.347.3354.019-.0063.066-.0443.128-.0934zm123.184 16.3157c-.429 3.5369-.052 4.0561.113 4.0154.594-.1355.667 2.9362 1.217-.5411-.153-2.1518-.604.2097-.749-.0751-.314-.6624-.068-3.5826-.581-3.3992zm-13.506 2.6587c-.098.3257-.311-.317-.749-.3752.089.0596.177.1273.266.1877-.119.6812-.269 1.0498-.422 1.2019.427.0797.717-.0616.868-.7235.012-.0968.024-.1947.037-.2909.022-.0747.044-.1939.055-.3873 0-.0042-.001-.0083-.002-.0125-.019.1303-.036.2668-.053.3998zm-73.245-7.9745c.011.9258.024 1.858.036 2.7838.197-1.2879.395-2.5829.591-3.8705-.209.3607-.419.726-.627 1.0867zm-45.443-2.8252c.154.2814.3.7179.242 1.1657-.225-.2095-.461.1175-.686.5733.004-.016.007-.032.011-.048.004-.0181.008-.0361.012-.0542.004-.0159.008-.0319.013-.0479.123-.5037.269-1.0699.408-1.5889zm-1.693-1.1587c.076-.0036.133.0662.179.1865-.039.1563-.078.3118-.115.4619-.162.6597-.272 1.2329-.37 1.7943-.159-.0312-.317-.0773-.392-.1492.04-1.0558.266-2.2809.698-2.2935zm225.346 18.6856c-.046.8891-.092 1.7821-.138 2.6712.057-.731.174-1.7152.283-2.6897-.048.0071-.097.0124-.145.0185zm-57.715-7.1008c-.342-1.5636-1.282 1.6195-1.11 3.6983.209 2.4801 1.664-1.1518 1.11-3.6983zm-80.844-2.5235c-.152-2.9681-1.212-3.737-.654-.5939.143.7897.443.4546.654.5939zm58.072 4.8093c.344-.6105.692-1.2199 1.036-1.8303-.123-.6446-.248-1.2853-.369-1.9297-.221 1.2549-.446 2.513-.667 3.76zm14.757-1.0899c-.198-4.647-2.658-.0156-1.469 1.9226.204.3245.214-1.1356.362-1.158v.0124c.149-.0074 1.252 2.6875 1.107-.777zm-10.573.2586c.217 2.1373 1.252-6.6233.312-2.8158-.09.3755-.326 2.6364-.312 2.8158zm15.491 1.2748c.95 1.2563 2.186-4.0279.687-2.7232-.085.0941-.441 2.8312-.687 2.7232zm-3.024-.1189c.318-.3562.637-.7133.955-1.0775-.265-.1604-.532-.3211-.796-.4895-.053.5234-.106 1.0437-.159 1.567zm-158.945-13.7413c-.202.1576-.453.1615-.679-.0017.042-.149.082-.2866.119-.4127.049-.1698.1-.3452.152-.514.136.3095.272.6189.408.9284zm119.727 10.0295c.001.0756.008.1331.026.1491.003.0018.009-.0104.013-.0112-.013-.0472-.026-.0932-.039-.1379zm-.242-2.0233c-.223.6131-.029 1.0263.242 2.0233-.002-.408.186-1.5008.126-1.576-.121-.1551-.244-.3177-.368-.4473zm2.174-2.2432c-.104.0185-.208.0522-.304.1338-.135 1.2347-.239 2.6795-.37 3.0498-.05.1386-.086.2159-.111.2357.092.529.263.8508.463.8658.055-1.5769.125-3.1465.322-4.2851zm20.825.2276c-.241 2.2723-.385 4.3019-.164 5.7745.267-2.2218.224-3.956.164-5.7745zm-21.534.8094c-.155.7959-.177 1.5302-.115 2.1034.026-.604.23-1.9833.235-2.0751-.006-.1608-.013-.301-.019-.418-.037.1095-.071.2414-.101.3897zm2.817-.5723c-.114.0977-.228.4098-.301.9915-.135 1.0955.02 1.562.201 1.6767.365-.4671.152-1.6911.1-2.6682zm-1.349-.6093c-.091.0954-.211.1259-.342.1306-.149 1.4992-.092 2.2468.063 2.4737.115-.6586.214-1.5194.279-2.6043zm-317.6241-43.2752c.3447.2035 1.1534-1.5687 1.1707.0124-.4206.4938-.0639 3.4572.3754 2.6592.406-.6358.4127-1.3639.2015-2.2739 1.2014.1472 2.6978-.9664 3.5071.8025-.2101.2902-.2985.9437-.3894 1.6395-.001.0121-.0021.0243-.0031.0365.3755.1034.4854 1.2793.9754.8719.0169-1.0001-.0817-1.5582-.1869-2.0737.9303.5607 2.4593-1.3866 2.9239 1.1334-.7455-.1175-1.2875-.3678-1.3815 2.9895.3317-.1753.659-.4079.9828-.579.3099 2.0608-.7466 3.3731-.2159 3.7243.6041-.8578.5732.928 1.17.043.2173-2.2802.2529-4.3493.0282-7.2375 1.764-.3608 3.5623-.8532 5.2691-.973-.6909 1.6274-1.2598.6926-1.5684.9159-.2749.2118-.3352 1.4369-.5889 1.782.0438-.092-.5688-1.2819-.5843.343.1903.6197.3827 1.2395.5811 1.825.7192.3703.5635-2.1014 1.1768-2.1247.1837 1.5269 1.7288 2.3324 1.563-.9163-.3465.0649-.9846 1.3288-.7759-.9716.6249-.5388.8179.7651 1.5568-.2247.1848 1.2261-.5892 2.7518-.0089 2.8964.2594-.1705.1863-1.3858.4001-1.6814.1191 4.2337 1.3167 3.9031 2.3179 4.3962-.657 1.3713-1.5709 4.8884-2.1549 3.4576.0494 1.3844-.2672 1.5886-.4005 2.4103-.4717-.8914-2.0262 1.0983-1.5587-.4982.1622-.5359.6123.0274.5918-1.0713-.5373-1.4858-2.0487 3.1605-.7935 3.3696-.3238.1712-.6497.4026-.9735.5738-.1762-2.9722.564-3.1283.6089-5.4064-.2063-.7012-.9005.2993-1.1782 1.4386.9598-.1464.0542.3905.3777 2.6532-.8965-.7567-1.583 2.0097-2.3407.6673.6167-.4477 1.2049-2.9211 1.7774-5.388-.3948-.6908-1.4199 1.5001-1.5758 3.8369-.4557.0288-.8301-1.0281-.9774 1.3023.2253.2415.435.5235.5787 1.1082-1.8792 2.647-3.6388 1.5293-6.4497 3.8262-.3411-.4515-.5626-1.4112-.969-1.588-.6988 1.7173-1.4529-.0463-1.7488-.4039-.2946-.3846-.8327.0747-.9736-.1491-.8739-1.4942-1.0433-5.6761-1.528-8.4889-.0048-.0065-.0097-.0131-.0145-.0196.5867-2.2663.6876-6.1448 1.2057-8.6455zm320.1501 45.6982c.362.3088 1.674-4.7302.437-2.2725.028-.7164.056-1.4278.084-2.1429-.005-.0202-.009-.0443-.013-.0684-.169 1.4917-.338 2.9925-.508 4.4838zm.618-.5116c.008-.0191.016-.0394.023-.0594-.012-.0132-.028-.0217-.039-.04.004.0327.011.0669.016.0994zm4.066-3.426c-.218-.3607-.44-1.1222-.748-.026.008 1.2104.018 2.4348.027 3.6529.225-.9628.429-1.5503.627-1.8707.03-.5259.062-1.1123.094-1.7562zm-153.57-10.7117c.237 1.7569 1.464 2.2279.76.3577-.179-.4686-.515-.2714-.76-.3577zm160.725 10.1664c-.105 1.9038-.124 4.2243-.098 4.2978.611 1.6654.858-1.8143 1.057-3.8253-.125.0459-.247.0717-.362.0554-.006.0301-.011.0603-.017.0904-.213.9197-.269.5324-.273-.2312-.054-.0435-.109-.0876-.159-.1541-.059-.0788-.107-.1588-.148-.233zm-22.82 1.7183c-.16.0959-.32.1321-.465.1141-.043.7573.087 1.0468.524.5339-.025-.246-.043-.4626-.059-.648zm-7.904-1.0427c.042.4082.083.8212.125 1.2294.203-1.2731.406-2.5589.609-3.8322-.09-.0223-.184-.048-.273-.0781-.153.8928-.308 1.7881-.461 2.6809zm11.369 1.6518c-.156-.2435-.302.0758-.467.4264.186-.001.384-.0756.566-.2037-.029-.0841-.062-.1624-.099-.2227zm-96.65-8.0816c.231-.2093.463-.4125.694-.6217-.033-.5482-.067-1.1017-.099-1.6499-.199.7566-.398 1.5152-.595 2.2716zm136.403 9.033c-.017-.3518-1.069-.021-1.23 1.71.128.5883 1.332.9437 1.23-1.71zm10.689-4.4323c-.062 1.584-.454 6.201-.263 6.8503.305 1.013.853-.9963.82-3.2449-.009-.6748-.648-2.0011-.557-3.6054zm-60.025 1.4276c.059-.4024.268-.3539.325-.5974-.073-.0978-.146-.1967-.218-.294-.036.2969-.072.5967-.107.8914zm-145.258-12.6178c.187.0214.365.0467.535.0633-.071-.0424-.151-.0676-.252-.0579-.074.0082-.173-.0058-.283-.0054zm1.852-3.0297c-.101.4887.042 1.3531-.325 1.0875-.054-.2623-.112-.5311-.169-.7981-.262.1928-.539.4172-.803.5512.107.7574.214 1.5238.323 2.2811.874.0733 1.498.0822 1.958.0173-.147-.6067-1.244-.8201-1.516-.6417.232-2.106.983.2301 1.414-1.4494-.061-.2723-.243-.7594-.431-1.059-.086-.007-.173-.0204-.26-.0219-.061-.0011-.125.0105-.191.033zm-4.717.8294c-.509.2566-1.021.4534-1.533.5942.095.0873.184.2254.254.4745.025.0949-.004.2883-.051.5348.096.0155.191.0333.284.0483.448.072.871.1314 1.268.1921-.069-.6932-.152-1.3629-.222-1.8439zm-96.7145-6.3475c.1569-.3299.3137-.6597.4706-.9895-.1059-.1151-.2117-.2301-.3176-.3452-.051.4449-.102.8898-.153 1.3347zm110.9525 8.9994c.895-.0027 1.15-2.0879.267-1.1169-.188.2066-.234.6537-.267 1.1169zm-19.497-1.7577c-.001.0081-.001.0162-.002.0243.186.0339.372.0627.555.0956.003-.0266.007-.0587.01-.0849-.187-.0056-.375-.0234-.563-.035zm220.92 16.2258c-.21-1.301-.818.0697-.709 1.6677.11 1.5961.969-.0479.709-1.6677zm-61.34-11.8211c-.194.8279-.816 4.1569-.911 5.5464-.151 2.2208.122 4.0039.521 2.9165.07-.6759.15-1.2438.268-1.319.15-1.3814.254-3.4874.612-1.9087.019.0833.045.5063.078 1.0355.302-.3163.817-.6703 1.064-.2966.121-.8067.223-1.6606.256-2.7287.053-1.7623-.642-.852-.871-1.249-.097-.1751-.036-1.6607-.053-1.7134-.218-.5222-.431.9747-.684 1.1125-.117.0591-.087-2.2046-.28-1.3955zm-95.098.4706c.397-.2646.795-.5359 1.191-.8005-.145-.1746-.29-.3458-.435-.5204.119-.1445.237-.285.356-.4295-.119-.1721-.241-.3481-.36-.5202-.25.7547-.501 1.5158-.752 2.2706zm142.354 10.3162c-.084-.3279-.171-.649-.257-.9771-.058.7962-.115 1.6027-.173 2.3988.292-.7993.583-1.6019.873-2.4013-.046-.4451-.096-.896-.143-1.3411-.1.7685-.199 1.5522-.3 2.3207zm-20.096-3.7251c-.019-.0028-.039.002-.059.0012-.041 1.0662-.151 2.2331-.138 2.4078.203 2.3348.956-1.1747 1.22-3.6095-.153.2139-.347.38-.586.4898.094-1.041.192-2.0951.288-3.1364-.244 1.2897-.463 2.5462-.725 3.8471zm17.608-8.2009c-.675.0641-1.349.1728-2.021.3205-.241 3.539-.902 4.6696-1.099 7.7418-.113 1.7755.594 1.0403.804 1.5069.089.2041-.023 1.702-.008 1.7633.194.5885.456-.8731.707-.939.116-.0234.008 2.2633.223 1.4948.217-.7839.94-4 1.081-5.3852.251-2.4879-.04-4.5707-.578-2.6088-.263.9569-.436 4.6302-.798 2.5301-.048-.2915-.031-4.0732-.314-3.8667.514-2.2311 1.57-2.0653 1.962-1.3728.052-.5175.061-.8987.041-1.1849zm-55.268-.0906c-.346-.8975-.833 1.2184-.721 3.4002.034.6557.729 1.7651.69 3.3533.009-1.5608.248-6.1783.031-6.7535zm33.594 7.9994c-.111.0254-.198.5156-.265 1.2212.081-.1055.172-.1991.257-.2785.018-.537.03-.9387.008-.9427zm-40.723-4.5976c-.167-1.5271-.986.3244-.664 1.8309.259 1.2043.83-.3053.664-1.8309zm25.706 3.3994c-.339-1.3696-.283-2.698-.856-1.897.159 1.246.464 3.8919.856 1.897zm-111.935-9.8291c-.135.15-.267.3135-.37.5141.151.2507.323.3441.506.3425-.06-.0662-.119-.1324-.178-.1986.014-.2194.028-.4387.042-.658zm119.718 6.9783c-.156 1.8293-.5 5.1549.206 1.4138.075-.399.132-.8014.188-1.1786-.086-.0658-.366.6287-.394-.2352zm11.428 1.9385c-.115.317-.256.539-.456.5865.19-.1283.264.2624.28.8504.024.0381.048.0784.071.1162.036-.5173.07-1.0358.105-1.5531zm-31.65-2.5259c.063.4196.128.8398.191 1.2594.075-.7759.151-1.5632.226-2.3392.098.2959.196.5867.294.8822.001-.004.001-.0081.001-.0121.031-.7927.062-1.5885.093-2.3811-.269.8615-.538 1.7296-.805 2.5908zm-104.012-10.4693c.242.0591.486.1133.728.1775.402.1078 1.948.1822 2.169.6964.657 1.544.252 3.5265 1.129.4439.478-.1452-.034 1.3402.126 1.7623.033.0746.256-.4311.483-.8476.016-.2437.032-.4874.047-.7311-1.383-2.0597-2.767-4.1195-4.151-6.1792-.177 1.5593-.354 3.1185-.531 4.6778zm132.114 8.6551c-.307.9885-.599 3.0161-.682 4.5366.147-.1683.294-.3441.441-.5142-.034-.3981-.063-.7898-.039-1.2284.07-1.2898.712-3.2095.28-2.794zm-251.026-20.276c-.259-.0947-.574-.0141-.903.0774.01.35.019.6999.029 1.0499.154-.126.307-.2519.461-.3779-.058.6424-.115 1.2848-.172 1.9272.176.2496.352.4992.528.7487.265-.9537.529-1.9075.794-2.8612-.062-.1093-.124-.2186-.185-.3279-.183-.0851-.367-.1684-.552-.2362zm248.296 24.1018c.131.0451.261.0941.392.137.024-.3487.048-.701.072-1.0475-.033-.1416-.059-.3321-.083-.5704-.074-.025-.148-.0483-.222-.0738-.053.5167-.106 1.038-.159 1.5547zm33.143-4.7296c.113 1.5375-.09 4.0599-.308 6.9567.336.6495.33-2.6087.693-2.0488.128.1976-.032 2.1393-.018 2.3015.184 1.8456.692-3.7588.546-4.395-.149-.6232-.708.5074-.627-1.7921.413-.9877.575.5382 1.014-.0129.132-.1668.221-.4821.278-.8404-.157-.0148-.315-.0295-.472-.0456-.091.5427-.162.7261-.308-.032-.266-.0285-.532-.0606-.798-.0914zm-273.315-18.2436c-.227.334-.459.592-.702.7864.012.5195.024 1.0391.035 1.5587.11.0847.22.1695.329.2542.032-.4766.079-.9722.15-1.482.055-.3978.12-.7729.188-1.1173zm255.626 23.8161c-.112-1.3109-.316-4.0836-.767-2.1652.282 1.4859.181 2.817.767 2.1652zm-15.825-4.647c.002.2148-.001.4325-.021.6597-.118 1.3455-.862 3.2144-.306 2.7122.029-.0384.178-.56.362-1.2314.093-.8206.158-1.6953.174-2.4354-.069.099-.139.1952-.209.2949zm-222.189-21.3671c-.272 1.2101-.543 2.1845-.815 2.9636.146.7085.293 1.417.44 2.1255-.04.2498-.08.4997-.12.7495.009.0038.019.0048.029.0086.194-.6237.353-1.016.49-1.2452-.366-1.7643.654-2.8456 1.217-3.7874-.283-.3116-.565-.6231-.847-.9347-.131.0397-.263.0788-.394.1201zm-32.339.0318c-.112.6521-.224 1.3042-.335 1.9564.329-.246.659-.4919.989-.7378.065.5342.13 1.0685.196 1.6028.179-.6322.358-1.2644.537-1.8966.211.7425.421 1.485.632 2.2274.168-.9741.336-1.9482.504-2.9223-.045.0666-.096.1282-.153.1587-.203.109-1.149.0105-1.845-.4242-.175.0118-.35.0237-.525.0356zm67.167 8.3713c.064.0462.128.0924.192.1386-.01-.0744-.02-.1487-.029-.223-.054.0286-.109.0563-.163.0844zm-36.45-3.6819c.045.2447.089.4893.133.7339.017.0066.036.0101.053.0167-.013-.3318-.026-.6637-.038-.9955-.049.0863-.099.1683-.148.2449zm244.009 15.1609c-.385.0106-.769.0213-1.153.0319-.341 1.9362.12 1.9664.511 1.9784-.144-.5251-.287-1.0591-.42-1.6461.285.0485.571.0925.856.133-.052.5226-.103 1.0522-.154 1.5796.078.0362.136.0974.153.2395.093.8445-.319 4.8603.279 3.1228.227-.6627.183-2.5534-.007-2.806.923-1.8986.842-3.004.444-3.4908-.17.2859-.34.5718-.509.8577zm32.094 5.7299c.045 3.0614 1.052 4.146.616.7927-.111-.843-.415-.5904-.616-.7927zm-22.239.7624c.087.048.179.1011.266.157.18-.8655.361-1.7351.541-2.6006-.027-.4268-.051-.8599-.078-1.2867-.241 1.238-.486 2.4924-.729 3.7303zm-2.68-6.5275c-.015.7546.229 1.2803.288 1.8004.099.891-.414 2.1329-.392 2.9929.002.0002.004.0003.005.0005.026.8624.626 1.1737.759.4679.288-1.5447-.169-2.8815.364-3.8835.545.3065 1.104.6404 1.655.9474.045-.7041.09-1.41.136-2.114-.94-.1017-1.88-.1696-2.815-.2116zm-278.548-22.3759c-.484-.4297-.353 2.0585-.826 2.7789.271.5903.542 1.1806.813 1.7709-.034-.6031-.068-1.2062-.102-1.8093.137-.5317.274-1.0633.411-1.5949-.041-.5278-.102-.9722-.296-1.1456zm253.096 24.9514c.035.1723.07.3911.1.6699.051.0333.103.059.154.0926.037-.5313.074-1.0642.111-1.5955-.087-.0568-.174-.1136-.261-.1689-.034.3346-.07.6697-.104 1.0019zm-59.312-7.9697c-.449 1.4794-.809 2.6077.333 3.4028.008-.0816.018-.1686.026-.2489-.413-.3792-.592-1.2679-.359-3.1539zm-122.406-8.3982c-.108.0193-.178.0856-.225.1894.13-.0238.26-.0476.39-.0714.334.8361.537 1.0234.687.86-.313-.5156-.596-1.0228-.852-.978zm187.401 15.5154c0 .1063.004.2226 0 .3553.03-.1516.053-.3085.078-.459-.012-.04-.037-.0116-.078.1037zm-265.626-22.0211c0-.0429 0-.0857 0-.1286-.032-.007-.063-.0188-.095-.0263.032.0516.063.1033.095.1549zm253.695 21.1307c.008-.0389.017-.0817.026-.1204-.004-.0002-.007-.0005-.011-.0008-.005.0395-.01.0816-.015.1212zm-16.137-1.5065c.002.0175.003.0375.005.0555.013.1457.219.1052.456-.121-.153.027-.307.0474-.461.0655zm-245.2606-21.3972c.0461-.088.0922-.176.1382-.264-.0855-.0045-.1692-.025-.2478-.0698.0366.1113.0731.2225.1096.3338zm236.9406 18.3963c.019.3799.069.7558.163 1.0917.195.6891.493.2495.721-.6072-.302-.2119-.602-.38-.884-.4845zm-233.4032-18.2956c.028-.0855.056-.1709.084-.2564-.0972-.0471-.1961-.0895-.2941-.1349.07.1304.14.2609.2101.3913zm299.2122 22.8718c.002.5051.056.9528.191 1.2778 0 .0041 0 .0081-.001.0122.192.4478 1.173-.5022 1.352.8606.067-.4353.11-1.2056.139-2.126-.56.0082-1.121.0016-1.681-.0246zm-291.508-27.6463c-.301 1.3164-.54 2.6492-.819 3.7595.31.0464.62.0928.93.1392-.029.2956-.059.5912-.089.8868.064-.2686.117-.5618.118-.8537.005-.5032.364-4.1557-.14-3.9318zm141.706 16.5339c.077-.1895.155-.379.232-.5686-.09-.0444-.177-.106-.26-.181.009.2498.019.4997.028.7496zm40.187 3.3583c.026-.0123.053-.0241.078-.0363.001-.0449.001-.0898.001-.1347-.025.0612-.054.1126-.079.171zm104.209 7.5886c.803 1.3192.818 1.0243.78-.2654-.246-.0299-.493-.0629-.739-.0926-.014.1185-.026.2407-.041.358zm8.605.1275c.218 1.098.811 1.3668 1.018 1.3656.369-.0049.338-.9814.485-1.5581-.501.0861-1.002.1494-1.503.1925zm9.411-4.0985c-.504.4493-1.009.8697-1.516 1.2326.075.1519.141.4064.173.8721.056.8252-.697 3.6326-.136 3.78.419-.7963.262-2.5379.53-3.7654.215-.9786.862-.5826.949-2.1193zm-178.073-8.9693c.281-.591.562-1.182.843-1.7729-.19-.2038-.38-.4076-.57-.6114-.091.7948-.182 1.5895-.273 2.3843zm-92.231-8.0908c.02.1119.039.2239.059.3358.005-.1135-.007-.2241-.039-.3402-.007.0017-.014.0027-.02.0044zm271.32 22.6702c.765.1899 1.168-3.3256.327-1.853-.179.3132-.258 1.0672-.327 1.853zm-8.438-1.798c.247.4633.516 1.2805.824.7368.206-.3647.309-.7147.344-1.0248-.389.1105-.779.2089-1.168.288zm15.36-2.3746c-.121.6395-.204 1.3141-.187 1.8035.049 1.3959.456-.2014.733-1.6106-.182-.0646-.363-.1352-.546-.1929zm-324.803-32.3131c-.6436-1.4234-1.9899 1.1118-1.5917 2.9413.4813 2.1824 2.6354-.6243 1.5917-2.9413zm-66.7205-5.8348c.9737-1.0545 4.8437-.1617 5.2364-.1366 1.5649.0908.3252 3.6989.0608 3.7047-1.1103.0251-1.5646-4.374-2.5091.5246-.6911.1447.1699-1.7674-.2186-2.058-.7663-.5696-1.8683 1.8667-2.6778 1.3863-.0012-.0001-.0024-.0002-.0035-.0003.0362-1.1064-.0444-2.316.1118-3.4207zm32.2522 3.9362c-.2507-.0394-.6924 1.3372-.5947 1.6161.7574 2.1181 1.7562-1.4402.5947-1.6161zm-36.9108-4.2779c1.4442-.4164 1.3365 3.04.2222 2.9097-.3178-.0385-.5062-2.012-.2222-2.9097zm3.2988-.6544c.3308.4932-.0194 2.0683.7894 1.4076-.0021.0815-.0042.163-.0062.2445-.0909 1.2411-.8367 2.0831-1.1607 1.9546-.0083-.0303.1571-1.0158.0768-1.0655-.6038-.2889-1.6599.5137-1.3586-2.2883.4291 1.7553 1.3267-.7429 1.6593-.2529zm63.2232 8.4938c1.6102 1.2636 3.3015-2.9817.9503-2.1927-.13.0459-.5467 2.2916-.9503 2.1927zm-8.0773-2.4108c-.5851-4.0493-4.3109-.6123-2.2741 1.3221.3521.3309.2843-.9274.523-.9116.0004.0021.0009.0041.0013.0062.2383.0235 2.1832 2.6032 1.7498-.4167zm3.1549 1.6366c-.0004.004-.0007.0081-.001.0121.4945-.2365.993-.4833 1.4882-.7265-.4392-.1972-.8817-.3907-1.3203-.5946-.0556.4377-.1113.8712-.1669 1.309zm-36.2262-8.2018c-.5029-.3307-1.4432 2.6352-.1903 2.3544.0553-.0145.6842-1.9064.9121-.5666.1423.9276-.1129 1.682.092 2.7579-.0012-.0001-.0024-.0002-.0036-.0003.2046 1.0634 1.3854-3.0955-.8102-4.5454zm-14.2226 3.0886c.4024-2.2933 1.5862-.8147 2.2334-1.05-.7425 2.0336-1.4427 1.3192-2.2334 1.05zm8.8494-3.5576c.1834.6695-.0885 2.196.2068 2.6879-.0003.004-.0006.0081-.001.0121.2956.4984 1.2178 1.3038 1.6387.8235.4208-.4827.5934-2.7957.9748-3.5933-.9469-.0177-1.8644.0275-2.8193.0698zm14.5719 4.6951c.5242-.4498 1.0503-.9006 1.5745-1.3503-.2358-.5831-.4741-1.161-.7076-1.7437-.2882 1.0323-.5793 2.0684-.8669 3.094zm6.7382.2098c.4733 1.8987 1.6552-5.4314.3457-2.3536-.126.3052-.3805 2.2109-.3457 2.3536zm-24.7975-6.5817c-.4933 2.9506.1464 3.4756.4122 3.4769.9564.013 1.2481 2.6807 1.9436-.1923-.372-1.888-.9696.0504-1.2203-.2309-.5471-.6408-.3129-3.0981-1.1355-3.0537zm58.9189 2.565c-.0115 1.3527-.3846 5.2402-.0379 5.8402.5531.9412 1.3262-.6719 1.1449-2.6174-.0569-.5848-1.1637-1.8639-1.107-3.2228zm-40.9732-2.5483c-.2626 1.904-.3818 3.6182.0612 4.9359.3063-1.8544.1392-3.3564-.0612-4.9359zm53.3716 7.4287c-.416-1.1698-1.324-.1248-1.056 1.2773.269 1.4005 1.569.1761 1.056-1.2773zm-78.104-19.6217c1.0959-3.11759.5499-4.5377 1.7273-1.00053-1.8732 3.02813.0059 5.72113-.3367 8.78583-.196 1.7291-.8008.4914-1.1188 1.3272-.4885 1.2832-.2606 3.6699-.7558 4.4324-.4941.7605-1.6832-1.3456-2.1378-1.4104-.8703-.1122-1.7265.7803-2.4537.6946-.7272-.0873-1.6829-1.8807-2.1278-2.1692-.4443-.2863-.9315-.0692-1.0264.0977-.5617.977-.5365 3.5264-1.1701 3.4299.1981-2.4429-.2905-6.5063.7741-7.7384-.1265-.1001-.2462-.6045-.3803-.5771-.6314.1432-.6281 3.578-.9683 4.09-.5765.8592.0153-1.6883.0175-1.8054-.2745-2.1104-.2662.2683-.5734 1.2565-.1599.5046-1.1871 1.4454-1.3733 1.3365-.1836-.1131.1883-1.3691.0675-1.4644-.5253-.4112-1.0594-.891-1.6392-.7316-.5801.168-1.1117 2.3811-.78-.9229.0541-.5203.4091-.9365.4279-2.163.0005-.0061.001-.0122.0015-.0183.0051-.3967-.2606-2.3752.4729-3.3598.208-.2785.4156-.404.6166-.4076-.1151.4307-.2309.8617-.3461 1.294.1485.0593.2956.1271.4431.1903-.1983 1.1404-.4075 2.334-.5759 3.4368.0742 1.2971.4485-.2965.4802-.2721.4699.5993.1834 2.9729.8135.2459-.3074-.5073-.6031-1.0708-.8929-1.6429.0654-.5839.1316-1.1742.1959-1.7599.0665.0286.1328.0615.1996.0903.0093-.4874.0192-.9817.0284-1.4677.471.3004.9071 1.1775 1.272 2.128-.2194.6281-.4639 1.3435-.6855 2.0189.6551-.424.1661.9469.5081 1.8434.3896-2.7956.5587-2.0859.8927-1.8055.3335.2778.0786-1.9117.4621-2.0806.7798-.3405 1.6899 3.282 2.2822-.7579.6823 2.7372-.4913 2.826-.6554 3.8099-.693 4.2121 1.4063 2.8685 1.9315.5908.1302 1.4374-.0572 3.353.7125 3.0059 1.0439-.4772-.8346-3.2967.5276-3.3735.9115-.0502.5857 1.9461.9756 2.5318.7278 1.0769 2.2796.3772 2.0515-2.6087-.0929-1.1906-.8605.1486-.9791-1.105-.0649-.6978.8171-6.47958-.3901-2.1214-.118.4358.0731 2.6626-.5465 2.5757-.1778-.0262-.573-2.0846-1.1296-1.6321-.2432.195-1.4335 2.6626-1.8895 1.5504-.4957-1.1771.4733-1.5151.3396-2.4951-.1358-.979-.8859-1.0684-.6686-2.9961.6195-2.10444.3306 1.3159.4788 1.1917.571-.5105.4826-3.93729 1.1797-3.37401-.0665 1.82731-1.2005 6.48621.0008 5.50651.0123-.0799-.1333-1.2693.2543-1.5834.6741-.5447 1.8782-.7048 2.6168-.4666.2123-2.68973-.7178-2.71029-.9985-4.66529 1.0489-.22993 2.2479-.79104 2.7287 1.92552-.4151.27847-.8316.56617-1.2444.84497.458-.0246.9165-.0435 1.3723-.0686-.2768 1.0916-1.5513 3.6804-.9054 4.4689.3415-2.8923 1.3752-3.1751 1.8963-4.6553zm258.735 36.4374c.005-.193.012-.3872.018-.5743-.481-.0519-.945-.2502-1.402-.5157.461.3633.922.7266 1.384 1.09zm-273.6409-25.3087c.2154.4083.4739.7033.7083 1.0333-.3843 1.8674-.6369 1.5261-.9332.2218.0809-.4139.1401-.8488.2249-1.2551zm63.5221 5.0581c-.043-.308-1.7344-.2568-1.8959 1.2008.2399.5355 2.2127 1.1093 1.8959-1.2008zm-66.1504-5.7747c.5986.1994 1.1866.4936 1.7745.7797-.591 2.1634-2.2235.2372-1.7745-.7797zm161.9212 13.5131c-.205.1735-.406.3622-.565.6264.126.2668.269.4377.42.5497.048-.392.097-.7841.145-1.1761zm-89.189-8.3256c-.1558-.3012-.3133-.5955-.4714-.8971-.0482.6739-.0973 1.3597-.1455 2.0336.4275-.6247.8563-1.2581 1.2815-1.8832-.101-.3936-.2053-.7896-.3062-1.1833-.1189.6395-.2396 1.2905-.3584 1.93zm286.562 22.7173c-.267.3309-.628.578-1.007.7669.213.5202.426 1.0403.639 1.5604.2-.7019.4-1.4038.6-2.1057-.077-.0739-.154-.1477-.232-.2216zm-107.381-14.8801c-.085 3.8755-1.009 6.2346-1.663 6.8799.049.4002.099.8004.148 1.2006.039-.0047.079-.0096.119-.0145.295-1.0369.589-2.0739.884-3.1108.274.9662.548 1.9324.822 2.8987.175-.0244.35-.0538.523-.0787.236-1.3624.472-2.7248.709-4.0872.22.4799.441.9598.661 1.4397-.245-1.5086-.66-3.7857-1.184-1.7102-.262 1.0466-.312 5.0794-.967 3.251-.482-1.3498.436-4.6584-.052-6.6685zm-215.6203-17.4167c-1.2577-3.233-2.1074 2.4686-2.2812 3.0244-.898 2.8524-.5604-2.2489-.6987-2.2759-.669-.0116-.4283 5.6222-.3492 5.7406 1.2735 1.8457 1.3336-2.5282 1.6117-3.7972.6056-2.7526 1.342-.2454 1.7174-2.6919zm212.6063 20.7103c-.203 1.1754-.405 2.3508-.607 3.5262.311-.2312.621-.4624.932-.6936-.142-.8271-.075-2.0222-.158-2.8431-.056.0035-.112.007-.167.0105zm-181.9811-29.47315c-.7654-1.52631-1.9166 2.50165-1.59 4.32575.1923 1.0652 1.2065-1.5506.7585 1.3499-1.1931-1.5789-1.2923.9678-1.3119 1.4151-.1481 3.2058-1.209 4.0037-1.3586 6.6788-.0823 1.5038 1.024 1.0276 1.3909 1.4764.1567.1951.0595 1.4675.0874 1.5141.3494.5554.6887-.6428 1.0936-.6433.1864.0056.1397 1.9469.4458 1.3298.3076-.6274 1.299-3.2367 1.4479-4.3989.2657-2.0879-.3248-3.9427-1.0857-2.3696-.3708.7673-.4433 3.8877-1.15 1.9984-.0942-.2497-.2807-3.5208-.729-3.4055.7072-1.8091 2.4286-1.4226 3.1039-.7381.2745-2.2012-1.0105-1.6084-1.3786-2.7739-.3115-.9863.3379-5.60212.2758-5.75895zm202.9231 34.56175c.031-.167.061-.3339.091-.5009.06-1.3483.127-3.0835-.242-3.2911.05 1.264.101 2.528.151 3.792zm-14.982-2.5919c-.086.1437-.179.2583-.28.3379.114.2505.228.501.342.7515-.02-.3631-.041-.7263-.062-1.0894zm-140.833-13.2635c.247 2.6473 1.946 3.8013 1.048.8168-.229-.7526-.71-.5976-1.048-.8168zm233.588 21.4962c.043.022.087.044.13.0661.025-.0878.051-.1755.076-.2632-.068.0665-.138.1302-.206.1971zm-86.667-9.6025c.21-1.5232-1.05-.3913-1.342.0957-.126.2123-.266.9113-.406 1.4727.005.1965.01.3929.015.5893.213-.0556.405-.109.573-.1602.318-.1019.637-.2038.956-.3057.05-.4922.117-1.0578.204-1.6918zm-259.7593-24.708c-.1622-3.95359 1.8865-3.0973 2.67-2.3792-.1922-.0627-.3871-.1212-.5799-.1773.0081.834.0031 1.6722.0113 2.5062-.2243.0539-.4463.1042-.6706.1581.1706.898.3052 1.8933.4645 2.7891-.8933 3.4676-.7168 1.1892-1.4683.4894-.4827-.4438-.7983.737-1.4449.6996-3.0219-.1684-6.24065.846-9.24339-.371.28266-2.996.42304-3.7199 1.02547-4.0056-.10685.8841-.20778 1.7785-.31264 2.6627.40237-.2399.80601-.5443 1.20698-.8665-.29351-.587-.58368-1.1827-.86494-1.806.18162-.0798.40516-.1319.68382-.1876.20533-.0444.37049-1.2507.62499-1.0624.54374.4091.94323 4.1998 1.66109 3.3673.41636-.4835.24213-3.925 1.02182-2.8115-.74633 2.3412-1.30737 4.3865.1216 3.6608-.56881-2.2868-.0406-1.321.3483-2.3841.2452-.683-.91485-.6327-.0497-1.8785.1753-.2493 2.5983-1.2114 2.3061.8305-.6246 4.3855-.6901 3.853 1.0232 1.6232-1.6931-2.1301.2859-4.73237.9916-3.304.3584.7305-.5587 2.6583.4736 2.4468zm220.5723 20.0799c-.37-.396-.903.8066-1.392 1.5126.088.4402.175.8804.263 1.3205.217-.8822.434-1.7644.651-2.6466.164.2344.329.4687.494.7031.053-.4187.083-.7816-.016-.8896zm-180.7524-17.4323c.0482-.888 1.1164-5.56-.2325-2.0407-.4652 1.2181-.5373 2.5445-1.4862 2.5336.903-.2071.3898 3.3844.4544 3.6764.5307 2.3613 1.8003-1.7609 1.8502-3.6791.013-.5547-.6324.3967-.5859-.4902zm220.8634 23.4609c.019-.0036.039-.0039.058-.0074-.014-.0256-.028-.0513-.042-.077-.005.0272-.011.0576-.016.0844zm-38.846-5.6958c-.298-.8585-.548-1.493-.989.9338.303.4358.607.8716.91 1.3075.027-.7471.053-1.4942.079-2.2413zm-138.2861-22.0538c-.7849-.5667-.8576 2.0517-.7982 3.6816-.5762.2485-1.1403.4429-1.7117.665 1.5347.4558 1.24 3.5154.9407 7.3984.5832.6373.3878-2.1683 1.0082-1.606.2182.1995.0676 1.8389.1001 1.9807.4032 1.6315.9107-3.0994.6347-3.6708-.2771-.5668-1.1165.2828-1.1166-1.6801.6139-.7603.9631.5969 1.6448.2176.8071-.4535.4055-2.9781.1199-2.4094-.5697 1.1312-.4392 3.0593-1.1043 1.2182-.5647-1.575.9007-5.3459.2824-5.7952zm-96.63779 2.963c-.18332-3.6933 1.4479-.4816 1.63752-.3772.55391.2991.89279-1.6879 1.18637-.2374.0234.1602-.55353 2.1423-.8377 2.1716-.28677.0269-1.96195-1.2229-1.98619-1.557zm230.82789 15.5989c.229.5489-.09 2.4521.541 1.5767-.005.0976-.01.1951-.015.2927-.115 1.4825-.706 2.5724-.944 2.4566-.007-.0216.157-1.2266.098-1.278-.441-.2759-1.262.7913-.931-2.571.256 2.0377 1.021-1.0237 1.251-.477zm23.681 3.8788c-.029-.2883-.075-.1384-.232 1.5486.073.1225.145.2449.218.3674.005-.6387.009-1.2773.014-1.916zm-218.2017-18.0129c.0868 1.9733.6322 1.4307 1.2362 1.2552.0108-.6922.022-1.3814.0328-2.0736-.4215.2706-.8475.5478-1.269.8184zm53.5898 5.7442c.0012.0001.0024.0002.0035.0003.1442.0607.2902.1282.4338.1956.2431-.7058.4907-1.4193.7338-2.1251-.0682-.3739-.134-.7518-.2022-1.1256-.3211 1.0131-.6455 2.0421-.9689 3.0548zm-90.02162-8.2362c-.70577-.0689-1.410904-.1455-2.11667288-.2143.00076139-.002.00152266-.004.00228393-.006.06995965-.4428.14238495-.8809.21460095-1.3234.633201.513 1.266578 1.0307 1.899788 1.5437zm92.68212-5.08331c-.8163-.14892-2.3112 1.87441-3.2234 1.71421-.5412-.1-.4063-1.4552-.952-1.55602-.8135-.15718-2.2184-.68665-3.0562.0193-.3033.26343-.4499 2.78392-.4229 3.08222.0749.7024.6223-.4793.7929-.2091.1692.2718-.1291 1.2599.1211 1.4311.2523.1694 1.7386.0374 1.8581-.132.7235-1.0414.074-2.5605.784-2.1699-.3997 8.7085-2.0327 2.8792-2.4513 3.2857-1.573 1.5394-.4739 2.4583-.26 3.249.2121.7904-.5512 1.7443-.4661 2.4906.0025-.0018.005-.0037.0076-.0055.0873.7514 1.0823 1.1571 1.2591.5773.378-1.2677-.4399-2.5195.3685-3.2645.9024.3852 1.8258.7983 2.7373 1.1851.0644-1.1346.1297-2.2732.1964-3.4074-.2424.3371-.4894.6789-.7324 1.0227-.1356-.3933-.2708-.7868-.4071-1.1734 1.5107-6.03039 2.1158 1.1418 4.0055-1.3485-.2038 1.2862-.4005 2.6298-.6078 3.8814 2.2686 2.1657.821.0852 1.1433-3.1321.1859-1.8496.7695.0165.9614-.2379 1.328-1.8112-.8392-5.15826-1.656-5.30231zm-18.7634 7.81611c3.0874-3.1785-1.6319-4.0907-2.0738-2.6852-.8305 2.6724 1.4112 1.6144 1.6158 2.3528.2008.7454-.2419 4.1148.6305 2.7479.331-.5206.152-2.1574-.1725-2.4155zm-6.9997 2.0345c-.2554-1.1542-.7439-3.5966-1.3671-2.038.5422 1.3429.4548 2.469 1.3671 2.038zm-62.91422-5.3625c-.00974.0042-.0199.0053-.0294.0098.00185-.0153.0056-.033.00763-.0483.00034-.0041.00068-.0082.00102-.0122.00691.0153.01383.0354.02075.0507zm271.45272 22.6017c.208.0521.415.1042.623.1563.006-.0528.016-.113.023-.1695-.239-.1362-.48-.2715-.72-.4095.025.1409.049.2818.074.4227zm-157.325-20.4778c-1.131 5.0643.571 1.7517 1.036 4.1601-.002-.0001-.003-.0002-.004-.0003.138.7238-.918 2.9765-.001 3.2278.634-.5933.28-2.133.645-3.131.367-.9952 1.96.0201 1.242-2.9829-.224-.9294-2.557.698-2.918-1.2737zm5.063 7.7074c1.252.3329 1.707-2.6129.427-1.5323-.274.2298-.359.869-.427 1.5323zm221.49 11.79c.842.4131 8.474-7.4975 5.746 3.6118-.023.0957-.038.1592-.034.1871.524 2.8271 3.566-11.5924 3.537.511-.001.4259-.001.7612.01.7971.047.1649.258-.0714.503-.3438.393-.4389.873-.9737.895-.0903-.189.482-.421.5683-.637.6449-.133.0474-.261.0961-.369.2324-.145.1799-.26.5456-.375.9118-.169.5393-.34 1.0772-.604 1.0213-.658-.1267-.24-1.6405-.051-2.3257.047-.1726.08-.294.077-.3243-.019-.0159-.039-.0319-.058-.0478-.632-.5491-1.095-.9534-1.806.6816-.143.7993.009.7343.186.6526.15-.0692.319-.1501.339.2857.033 1.139-.53.51-.782.2284-.053-.0593-.094-.0986-.111-.1073-.178.0134-.298.1505-.397.2668-.207.2411-.325.3779-.689-.9275-.046-.1534-.04-.3631-.035-.542.012-.4121.017-.6743-.624.2172.682-2.452-.152-3.5424-.929-2.2523-.12.2063-.222.6069-.326 1.0139-.212.8271-.434 1.69-.842 1.0747-.217-.3548-.013-1.9871.071-2.1316.028-.0479.081.0052.141.0669.12.1232.271.2772.327-.2727-.257-.421-.612-.5772-.957-.7295-.306-.1349-.605-.2673-.822-.5773-.038-.0674-.033-.2173-.027-.382.055-1.4937-1.233-.93-1.445.3442-.044.136-.083.2867-.118.4434-.091-.4271-.16-.8675-.233-1.3303-.04-.2559-.081-.521-.128-.7947-.033-.1902-.063-.3683-.09-.5405.383-.9061.363.3766.657.5268zm-303.0709-18.9263c.6987-.6084 1.3976-1.2132 2.0957-1.8149-.9274.1224-1.2838.3371-1.5829-2.1479-.17 1.3195-.3429 2.6433-.5128 3.9628zm58.4079-4.8831c-.24 3.9647 1.081 1.7659 1.549 3.8847.142.6515-1.216 3.6316-.179 4.9769 0 .002 0 .0041.001.0062.334.4301 1.872-.1698 2.24 1.0454.339-1.4592-.22-7.7221-.367-8.1895-.962-2.8875-2.237.3635-3.244-1.7237zm-83.0835 2.5134c-.0066-.0028-.0142-.0052-.0208-.0078.0199-.1143.0396-.2311.0592-.3442-.0126.1162-.0257.2355-.0384.352zm264.7555 17.4277c-.429-1.6156-1.532 1.5492-1.301 3.6762.279 2.5333 1.997-1.0422 1.301-3.6762zm-146.285-11.044c-.309-1.5216-1.601 1.2251-1.427 2.5753.246 1.876 1.486-2.2475 1.427-2.5753zm-88.7953-8.6111c-.6733-.3151-1.3769 2.327-1.4467 4.1723.4949-.2431.9907-.4959 1.4856-.739-.0134-1.1421-.0255-2.2912-.0389-3.4333zm189.7093.8311c.938-3.82279.58-5.44947 1.329-1.3831-1.515 3.8022-.208 6.7924-.579 10.4682-.212 2.0746-.618.6703-.888 1.6958-.414 1.5771-.333 4.3923-.733 5.3531-.398.9564-1.209-1.4122-1.547-1.4406-.648-.0373-1.324 1.1145-1.866 1.0931-.541-.0237-1.189-2.038-1.512-2.3319-.321-.2904-.695.0205-.773.2292-.457 1.2232-.534 4.2471-1.004 4.2033.24-2.9226.026-7.6998.871-9.28-.091-.1032-.163-.6864-.264-.6408-.479.2405-.606 4.3288-.88 4.9733-.46 1.0715.071-1.9858.082-2.1491-.127-2.4786-.21.3448-.477 1.5525-.139.6161-.941 1.84-1.078 1.7349-.133-.1131.19-1.638.105-1.743-.378-.4298-.761-.9423-1.201-.6888-.441.2653-.922 2.9572-.551-.9955.059-.6265.342-1.1612.402-2.6246.001-.0081.002-.0162.002-.0243.019-.474-.106-2.7897.48-4.0391.166-.3525.325-.5205.475-.5482-.102.5231-.203 1.048-.305 1.5731.108.0535.216.1098.323.168-.191 1.3769-.389 2.8198-.557 4.149.007 1.5384.349-.4148.369-.3734.001-.004.001-.0081.001-.0121.329.6608.025 3.5208.598.2155-.211-.5681-.411-1.2045-.607-1.8517.071-.7015.142-1.4164.212-2.1199.049.0265.099.0531.148.0798.026-.5795.05-1.1615.075-1.7394.342.3032.635 1.3.873 2.3886-.188.7691-.396 1.6426-.587 2.4681.505-.5728.087 1.1136.31 2.1392.396-3.3601.497-2.5438.737-2.2474.239.2916.131-2.2639.423-2.5125.597-.4888 1.144 3.7017 1.739-1.1588.409 3.1775-.476 3.4116-.635 4.6018-.676 5.076.947 3.2375 1.425.4748.044 1.6919-.167 3.9873.422 3.49.799-.6837-.501-3.8119.522-4.0539.684-.1578.364 2.2443.635 2.8952.504 1.1967 1.692.1981 1.634-3.3175-.024-1.4123-.649.2611-.691-1.2156-.021-.8315.854-7.775-.213-2.474-.105.5293-.045 3.1508-.506 3.1181-.132-.0174-.352-2.4093-.786-1.8055-.191.2611-1.172 3.3101-1.472 2.0388-.326-1.342.412-1.8477.348-2.9967-.065-1.147-.624-1.1666-.389-3.481.543-2.5652.198 1.519.313 1.3615.447-.6682.51-4.7264 1.011-4.1354-.117 2.1749-1.143 7.8359-.207 6.5426.015-.0563-.055-1.4849.251-1.9083.526-.7218 1.435-1.0522 1.979-.8508.26-3.2161-.438-3.1368-.575-5.42615.794-.38938 1.715-1.19291 1.974 1.97865-.322.3768-.646.7669-.966 1.144.344-.0803.688-.1516 1.03-.2321-.248 1.3258-1.299 4.5392-.846 5.4049.364-3.4693 1.152-3.9196 1.597-5.7339zm4.627 13.6918c-.481 3.5603-.02 4.116.179 4.0882.715-.0886.834 3.0436 1.462-.4409-.207-2.2047-.729.1646-.906-.1434-.385-.7017-.118-3.6474-.735-3.5039zm-223.7835-13.6729c-.1135-.0723-.2286-.1166-.3458-.1147.0244-.0914.0487-.184.0731-.2757-.1944-.3085-.3877-.61-.5821-.9185.2983-.218.5958-.4474.8924-.6725-.0126.661-.0251 1.3223-.0376 1.9814zm254.8675 19.3547c-.258-4.2671-2.648-1.0518-2.064 1.1438.195.0122.389.0245.584.0368.04-.2582.083-.4924.153-.4956v.0123c.179.0037 1.539 2.8415 1.327-.6973zm5.948 1.9628c1.161 1.3652 2.601-3.9016.806-2.701-.101.0761-.506 2.8478-.806 2.701zm-3.647-.3611c.379-.3357.761-.6813 1.141-1.0251-.321-.1851-.645-.3656-.966-.5588-.058.5287-.117 1.0553-.175 1.5839zm-20.097-1.7222c.14-.2018.281-.406.421-.6079 0-.0285 0-.0571 0-.0857.018.0015.037.0031.055.0046.251-.363.503-.7252.754-1.0883-.155-.6657-.31-1.3272-.463-1.9927-.255 1.2578-.513 2.5202-.767 3.77zm-128.646-10.8448c.618-.2474 1.468.9806 1.79-1.3383-.415-.4044-.83-.8208-1.244-1.2253-.181.8534-.365 1.7102-.546 2.5636zm121.914 6.8562c-.364-.3374-1.178 3.2811-.23 2.8105.045-.0363.584-2.3335.704-.7739.027.3984.01.7794-.011 1.1567.121-.3635.242-.727.363-1.0905-.095-.848-.335-1.6469-.826-2.1028zm-192.805-20.78906c-.8115 1.66611-1.4402 1.74221-2.2299 1.05025-.4307 2.13816-.8629 4.27021-1.2913 6.40881 1.2802.349.6468-3.3046 1.7383-2.7085.2337-1.0052-.4508-.5651-.2872-1.1327.7931-2.75804 1.2237 1.0424 2.1216-.44074-.015-1.05309-.035-2.11692-.0515-3.17712zm168.097 19.83156c.441.1702.87.4534 1.3.7277-.524 2.6317-1.674.5292-1.3-.7277zm28.537 4.2554c.207-8.1442-1.076-5.9886-1.455-1.1388.295.0595.59.1189.885.1784.19.3201.38.6403.57.9604zm-207.231-17.84c.3656.17.7328.3448 1.0983.5148.0557-.4381.1137-.8775.1687-1.3089-.3653-.1699-.7306-.3508-1.096-.5207-.0558.4394-.1152.8754-.171 1.3148zm215.172 18.0345c.284 2.1993 1.446-6.6322.351-2.8372-.105.3693-.369 2.6561-.351 2.8372zm-13.664-3.8472c-.708.0842-1.396.2423-2.113.3985.055.3773.019 1.0082-.007 1.6165.43-.062.86-.1239 1.29-.1859.124.2309.248.4618.372.6928.146-.9459.289-1.9883.458-2.5219zm8.779-3.1899c-.268 2.2887-.42 4.335-.138 5.8501.298-2.2348.229-3.9974.138-5.8501zm-217.628-13.7324c.5404-.23018 1.2285 1.4724 1.4897-.70192-.4099-.4309-.8218-.8552-1.2324-1.27938-.0857.65644-.1732 1.31787-.2573 1.9813zm24.2662-1.97057c-.5786-.43474-2.6657 3.34107-.6935 1.77324-.0488.67913-.0969 1.35443-.1456 2.03363.2781-1.2657.5588-2.54161.8391-3.80687zm-15.4511.50489c.1996.54885.3981 1.1063.5954 1.65468.3535-1.23163.7099-2.45832 1.0633-3.68998-.5524.67619-1.1062 1.35911-1.6587 2.0353zm-10.7917.54041c.4211-.27033.8446-.53003 1.2657-.80036-.3371-.38975-.6736-.79163-1.0084-1.18097-.0861.65934-.1712 1.322-.2573 1.98133zm50.1353 1.50377c-1.0007-2.43183-.6666-1.08814-1.5162.4424-.5743 1.028-.9018-1.25395-1.0859 1.8506.9282-.9254 2.1951 1.0622 2.6021-2.293zm-17.5113.3627c1.0445-2.61368-1.6948-5.43292-2.3448.3546.5804-.1661 1.8525.8722 2.3448-.3546zm217.5776 11.2658c-.059 1.6065-.483 6.2655-.246 6.9375.379 1.0532 1.018-.9454.956-3.2335-.02-.6877-.803-2.0832-.71-3.704zm-61.027-4.6407c.026-4.6771 1.529-3.8856 2.089-3.1201-.142-.0531-.287-.095-.43-.1401-.025.9877-.059 1.9759-.084 2.9636-.17.0892-.34.1804-.51.2696.094 1.0468.159 2.2092.245 3.2546-.799 4.215-.582 1.4933-1.118.7454-.345-.4727-.625.9576-1.108.9851-2.258.1359-4.707 1.7013-6.911.5902.324-3.5913.458-4.4664.921-4.8718-.113 1.0621-.224 2.1378-.336 3.1997.31-.3292.623-.7323.935-1.1588-.198-.6634-.391-1.3497-.578-2.0575.139-.1145.309-.1903.519-.2872.156-.0807.323-1.527.506-1.3296.393.4251.552 4.8765 1.121 3.8058.329-.6261.327-4.6853.869-3.4552-.647 2.8625-1.144 5.3644-.047 4.3449-.341-2.6555.021-1.5709.352-2.8799.209-.837-.661-.6467.033-2.2206.148-.3195 1.989-1.7293 1.696.7179-.633 5.2833-.663 4.6615.704 1.8232-1.187-2.3397.392-5.6503.868-4.0372.241.8271-.518 3.2241.264 2.858zm48.172 8.2544c-.024-.3589-1.289-.1117-1.464 1.6351.16.6086 1.614 1.0701 1.464-1.6351zm-208.7447-16.39901c.3889-1.61383-.7276-1.89359-.8946-1.45318-.6605 1.74802.5015 3.06409.8946 1.45318zm35.3157.59151c-.126-.1794-1.0624-.46567-1.184.5071 1.044 5.4183 2.196.9577 1.184-.5071zm151.445 7.0545c-.821-3.6958-1.672 3.166-1.823 3.8468-.78 3.4879-.335-2.6031-.438-2.6154-.501.0608-.531 6.7143-.476 6.8447.884 2.0488 1.092-3.1441 1.348-4.6829.557-3.3383 1.016-.443 1.389-3.3932zm43.944 9.5535c-.268-1.3417-.988.0041-.84 1.6385.15 1.6302 1.17.0295.84-1.6385zm-79.986-6.0286c.001-4.3659 1.103-.7347 1.241-.6309.404.2927.732-2.1051.898-.4148.012.1852-.494 2.5942-.708 2.6664-.215.0641-1.423-1.2254-1.431-1.6207zm127.77 12.0515c-.632-.1258-.131-4.7784.171-.635.011.1538.023.3144.035.4746-.065.1104-.132.1763-.206.1604zm-64.791-8.2516c-.105-.3406-.213-.6723-.32-1.0131-.061.8055-.123 1.623-.184 2.4285.343-.7881.686-1.5816 1.028-2.37-.061-.4558-.123-.9193-.183-1.3751-.113.772-.228 1.5576-.341 2.3297zm-63.033-5.0111c-.526-.0033-1.053-.0128-1.579-.0161.001-.0019.003-.0038.004-.0057.069-.5338.138-1.066.209-1.5995.455.5386.911 1.0827 1.366 1.6213zm59.364-16.11593c-.516-1.72547-1.531 3.19041-1.355 5.31929.105 1.23694.964-1.97944.52 1.51364-.835-1.74244-1.002 1.2835-1.034 1.8182-.23 3.8251-1.056 4.8892-1.269 8.0829-.118 1.7964.728 1.1097.986 1.6017.108.2148-.008 1.6943.008 1.783.001.0001.002.0002.003.0003.241.6187.538-.8385.841-.885.139-.0125.032 2.2953.284 1.5306.254-.781 1.094-3.9809 1.249-5.3772.278-2.5088-.095-4.6505-.723-2.7006-.307.9514-.479 4.6669-.938 2.5062-.061-.2872-.078-4.1486-.417-3.9674.598-2.2249 1.873-1.9553 2.353-1.2175.289-2.6463-.701-1.7904-.932-3.1346-.197-1.13185.462-6.67315.424-6.87353zm-19.728 13.02113c.069-1.0573 1.045-6.72627-.098-2.397-.393 1.497-.497 3.0757-1.207 3.1696.682-.3412.165 3.9649.201 4.3106.309 2.7436 1.416-2.2875 1.525-4.5701.031-.6605-.488.5404-.421-.5131zm-36.613 1.9396c-.007.0056-.014.0109-.021.0166.002-.0223.004-.0446.006-.0669.004.0171.011.0333.015.0503zm24.172.0673c-.008 2.3323.421 1.6293.88 1.3539.034-.8238.067-1.6421.101-2.466-.325.3678-.655.7443-.981 1.1121zm-14.498-1.118c-.005-.0029-.011-.0047-.016-.0074.019-.137.041-.276.06-.4115-.014.1383-.03.2802-.044.4189zm81.254 3.0602c.086 3.1147 1.316 4.2917.754.8473-.143-.8638-.509-.6254-.754-.8473zm-21.397-13.90393c-.566-.58544-.719 2.53031-.736 4.45853-.441.3588-.871.6475-1.307.9745 1.133.37.795 4.0441.425 8.6905.413.6944.374-2.6202.818-2.0201.155.2147-.018 2.1641 0 2.3337.241 1.8973.798-3.7773.613-4.4261-.187-.6392-.846.4574-.772-1.8716.488-.9686.699.5965 1.223.0719.621-.6272.417-3.5713.182-2.8757-.47 1.406-.446 3.6928-.876 1.5803-.365-1.8052.876-6.44999.43-6.91593zm-41.461 10.92273c.546-.7999 1.092-1.5943 1.638-2.3862-.699.2484-.976.5394-1.107-2.3774-.176 1.5863-.354 3.1772-.531 4.7636zm-18.173-1.7386c-.082-.0728-.167-.1103-.255-.0948.022-.1101.044-.2209.066-.3314-.135-.3448-.267-.6874-.402-1.0321.232-.2918.465-.5971.696-.8972-.035.7851-.071 1.5727-.105 2.3555zm54.206 3.6337c.106.056.214.122.319.186.208-.8649.42-1.7345.628-2.5995-.037-.4357-.074-.8721-.111-1.3079-.279 1.2369-.556 2.4848-.836 3.7214zm-17.178-1.5448c-.148-1.3415-.421-4.1821-.946-2.2661.355 1.5327.247 2.8786.946 2.2661zm-14.938-6.3612c-.492-.2997-1.117 2.9039-1.238 5.1024.379-.3436.761-.6938 1.141-1.0374.032-1.3542.065-2.7108.097-4.065zm20.259 3.1752c2.432-4.1177-1.074-4.67839-1.454-2.9579-.722 3.2653.998 1.7545 1.122 2.6116.122.8657-.334 4.9099.37 3.1916.266-.6552.194-2.5708-.038-2.8453zm14.348-11.37759c-.606-.08746-1.803 2.49132-2.481 2.40124-.401-.05917-.249-1.6864-.654-1.74537-.603-.09622-1.636-.57153-2.29.35921-.237.34614-.442 3.366-.432 3.71227.029.82762.483-.63698.601-.33543.117.30383-.144 1.51166.037 1.68752.183.17277 1.3-.15237 1.398-.3667.58-1.31639.151-3.04742.668-2.66351-.626 10.38346-1.631 3.64163-1.96 4.17226-1.235 2.0019-.446 2.9727-.315 3.8875.129.915-.48 2.1367-.444 3.0131.002-.0039.004-.0078.007-.0118.036.8837.768 1.2581.922.549.331-1.5478-.236-2.9426.398-3.9173.661.3568 1.337.7414 2.005 1.0992.091-1.3533.182-2.7094.274-4.0624-.194.4272-.392.863-.587 1.2982-.087-.4518-.173-.9071-.26-1.3509 1.357-7.3278 1.543 1.1157 3.051-2.04717-.201 1.54997-.399 3.16917-.601 4.67817 1.618 2.3197.612.0002.975-3.85665.209-2.21165.576-.0552.729-.37991 1.063-2.29773-.435-6.04032-1.041-6.12053zm-36.544 10.32449c.267.161.535.329.802.4899.058-.5284.118-1.0634.176-1.5839-.267-.1608-.534-.3289-.801-.4897-.058.5281-.119 1.0556-.177 1.5837zm8.17-8.60039c-.67 2.06663-1.143 2.23101-1.708 1.49825-.402 2.5824-.806 5.15634-1.206 7.73894.946.273.606-3.9803 1.402-3.392.213-1.2194-.317-.6229-.174-1.31312.698-3.36826.879 1.10102 1.607-.75949.029-1.2496.052-2.51469.079-3.77258zm33.785.1936c-.329 4.73949.745 1.97918 1.016 4.44637.078.76582-1.047 4.45332-.322 5.93272.235.4713 1.408-.4088 1.639.9888.309-1.7753.124-9.16403.031-9.68115-.612-3.31904-1.688.68086-2.364-1.68674zm13.403 3.12095c-1.036 6.12984.364 2.00684.622 4.81134.074.8458-.801 3.6248-.126 3.8238.497-.7744.291-2.5525.601-3.7778.312-1.2232 1.469-.1981 1.043-3.68559-.133-1.07787-1.942 1.12279-2.14-1.17175zm3.505 8.57514c.926.2556 1.376-3.2864.376-1.8611-.213.3038-.3 1.0671-.376 1.8611zm-64.258-5.7324c.413-.3292.863 1.617 1.14-.9885-.29-.46549-.582-.92662-.873-1.38406-.089.78758-.179 1.57686-.267 2.37256zm-1.449-.8749c.326-.36784.654-.72603.98-1.09387-.238-.42505-.476-.85995-.712-1.28475-.089.79131-.179 1.5873-.268 2.37862zm8.105-1.83765c.129.62873.257 1.27186.384 1.90035.311-1.50192.624-3.00129.935-4.50318-.439.8642-.88 1.73863-1.319 2.60283zm11.591-2.31704c-.418-.44407-2.118 4.25979-.583 2.18064-.062.81193-.124 1.6225-.186 2.43445.256-1.53402.512-3.08135.769-4.61509zm47.9 7.53939c.472-.3615 1.062.9954 1.39-1.7945-.295-.4337-.589-.8777-.885-1.3115-.167 1.0336-.337 2.0724-.505 3.106zm-43.229-4.78338c.882-3.21973-1.063-6.27613-1.767.66643.44-.26114 1.351.83785 1.767-.66643zm-2.953-1.36243c.352-1.95654-.472-2.17006-.615-1.63187-.561 2.14924.26 3.58861.615 1.63187zm16.086-1.02129c-.659-2.77586-.458-1.22376-1.151.68748-.47 1.28874-.631-1.38303-.886 2.33293.731-1.20512 1.606 1.00999 2.037-3.02041zm10.346-2.20088c-.085-.19957-.78-.4393-.906.73858.579 6.3112 1.609.88856.906-.73858z" fill="#d7a8ff"/></svg>