<svg fill="none" height="40" viewBox="0 0 40 40" width="40" xmlns="http://www.w3.org/2000/svg"><path d="m20 .5c10.7696 0 19.5 8.73045 19.5 19.5 0 10.7696-8.7304 19.5-19.5 19.5-10.76955 0-19.5-8.7304-19.5-19.5 0-10.76955 8.73045-19.5 19.5-19.5z" fill="#fff" fill-opacity=".1"/><path d="m20 .5c10.7696 0 19.5 8.73045 19.5 19.5 0 10.7696-8.7304 19.5-19.5 19.5-10.76955 0-19.5-8.7304-19.5-19.5 0-10.76955 8.73045-19.5 19.5-19.5z" stroke="#000"/><path d="m20 .5c10.7696 0 19.5 8.73045 19.5 19.5 0 10.7696-8.7304 19.5-19.5 19.5-10.76955 0-19.5-8.7304-19.5-19.5 0-10.76955 8.73045-19.5 19.5-19.5z" stroke="#000" stroke-opacity=".2"/><g stroke="#fff" stroke-linecap="round" stroke-linejoin="round" stroke-width="1.66667"><path d="m23.333 16.667c1.3261 0 2.5979.5268 3.5355 1.4645.9377.9376 1.4645 2.2094 1.4645 3.5355v5.8333h-3.3333v-5.8333c0-.442-.1756-.866-.4882-1.1785-.3125-.3126-.7365-.4882-1.1785-.4882s-.8659.1756-1.1785.4882c-.3126.3125-.4882.7365-.4882 1.1785v5.8333h-3.3333v-5.8333c0-1.3261.5268-2.5979 1.4645-3.5355.9377-.9377 2.2094-1.4645 3.5355-1.4645z"/><path d="m15.0003 17.5h-3.3333v10h3.3333z"/><path d="m13.3337 15.0003c.9204 0 1.6666-.7462 1.6666-1.6666 0-.9205-.7462-1.6667-1.6666-1.6667-.9205 0-1.6667.7462-1.6667 1.6667 0 .9204.7462 1.6666 1.6667 1.6666z"/></g></svg>