<svg fill="none" height="9" viewBox="0 0 9 9" width="9" xmlns="http://www.w3.org/2000/svg" xmlns:xlink="http://www.w3.org/1999/xlink"><mask id="a" fill="#fff"><path d="m0 0h8.48527v8.48535h-8.48527z" fill="#fff"/></mask><path d="m0 0h8.48527v8.48535h-8.48527z" fill="#f9375b"/><path d="m0 0v-2h-2v2zm8.48527 0h2.00003v-2h-2.00003zm0 8.48535v2.00005h2.00003v-2.00005zm-8.48527 0h-2v2.00005h2zm0-8.48535v2h8.48527v-2-2h-8.48527zm8.48527 0h-2v8.48535h2 2.00003v-8.48535zm0 8.48535v-2h-8.48527v2 2.00005h8.48527zm-8.48527 0h2v-8.48535h-2-2v8.48535z" fill="#000" mask="url(#a)"/></svg>