<svg width="318" height="272" viewBox="0 0 318 272" fill="none" xmlns="http://www.w3.org/2000/svg">
<g opacity="0.7">
<rect width="3" height="272" rx="1.5" fill="#FF2E84"/>
</g>
<g opacity="0.7">
<rect x="9" y="20" width="3" height="232" rx="1.5" fill="#FF2E84"/>
</g>
<g opacity="0.7">
<rect x="18" y="41" width="3" height="190" rx="1.5" fill="#FF2E84"/>
</g>
<g opacity="0.7">
<rect x="27" y="61" width="3" height="150" rx="1.5" fill="#FF2E84"/>
</g>
<g opacity="0.7">
<rect x="35" y="74" width="3" height="124" rx="1.5" fill="#FF2E84"/>
</g>
<g opacity="0.7">
<rect x="45" y="82" width="3" height="108" rx="1.5" fill="#FF2E84"/>
</g>
<g opacity="0.7">
<rect x="53" y="89" width="3" height="94" rx="1.5" fill="#FF2E84"/>
</g>
<g opacity="0.7">
<rect x="61" y="95" width="3" height="82" rx="1.5" fill="#FF2E84"/>
</g>
<g opacity="0.7">
<rect x="70" y="102" width="3" height="68" rx="1.5" fill="#FF2E84"/>
</g>
<g opacity="0.7">
<rect x="79" y="111" width="3" height="50" rx="1.5" fill="#FF2E84"/>
</g>
<g opacity="0.7">
<rect x="88" y="111" width="3" height="50" rx="1.5" fill="#FF2E84"/>
</g>
<g opacity="0.7">
<rect x="96" y="113" width="3" height="46" rx="1.5" fill="#FF2E84"/>
</g>
<g opacity="0.7">
<rect x="105" y="115" width="3" height="42" rx="1.5" fill="#FF2E84"/>
</g>
<g opacity="0.7">
<rect x="114" y="119" width="3" height="34" rx="1.5" fill="#FF2E84"/>
</g>
<g opacity="0.7">
<rect x="122" y="120" width="3" height="32" rx="1.5" fill="#FF2E84"/>
</g>
<g opacity="0.7">
<rect x="132" y="122" width="3" height="28" rx="1.5" fill="#FF2E84"/>
</g>
<g opacity="0.7">
<rect x="140" y="124" width="3" height="24" rx="1.5" fill="#FF2E84"/>
</g>
<g opacity="0.7">
<rect x="149" y="126" width="3" height="20" rx="1.5" fill="#FF2E84"/>
</g>
<g opacity="0.7">
<rect x="157" y="128" width="3" height="16" rx="1.5" fill="#FF2E84"/>
</g>
<g opacity="0.7">
<rect x="166" y="128" width="3" height="16" rx="1.5" fill="#FF2E84"/>
</g>
<g opacity="0.7">
<rect x="175" y="124" width="3" height="24" rx="1.5" fill="#FF2E84"/>
</g>
<g opacity="0.7">
<rect x="183" y="120" width="3" height="32" rx="1.5" fill="#FF2E84"/>
</g>
<g opacity="0.7">
<rect x="193" y="119" width="3" height="34" rx="1.5" fill="#FF2E84"/>
</g>
<g opacity="0.7">
<rect x="201" y="115" width="3" height="42" rx="1.5" fill="#FF2E84"/>
</g>
<g opacity="0.7">
<rect x="209" y="114" width="3" height="44" rx="1.5" fill="#FF2E84"/>
</g>
<g opacity="0.7">
<rect x="218" y="111" width="3" height="50" rx="1.5" fill="#FF2E84"/>
</g>
<g opacity="0.7">
<rect x="227" y="109" width="3" height="54" rx="1.5" fill="#FF2E84"/>
</g>
<g opacity="0.7">
<rect x="236" y="107" width="3" height="58" rx="1.5" fill="#FF2E84"/>
</g>
<g opacity="0.7">
<rect x="244" y="113" width="3" height="46" rx="1.5" fill="#FF2E84"/>
</g>
<g opacity="0.7">
<rect x="254" y="105" width="3" height="62" rx="1.5" fill="#FF2E84"/>
</g>
<g opacity="0.7">
<rect x="262" y="100" width="3" height="72" rx="1.5" fill="#FF2E84"/>
</g>
<g opacity="0.7">
<rect x="270" y="95" width="3" height="82" rx="1.5" fill="#FF2E84"/>
</g>
<g opacity="0.7">
<rect x="279" y="89" width="3" height="94" rx="1.5" fill="#FF2E84"/>
</g>
<g opacity="0.7">
<rect x="288" y="83" width="3" height="106" rx="1.5" fill="#FF2E84"/>
</g>
<g opacity="0.7">
<rect x="297" y="78" width="3" height="118" rx="1.5" fill="#FF2E84"/>
</g>
<g opacity="0.7">
<rect x="305" y="56" width="3" height="160" rx="1.5" fill="#FF2E84"/>
</g>
<g opacity="0.7">
<rect x="314" y="35" width="3" height="202" rx="1.5" fill="#FF2E84"/>
</g>
<rect y="130" width="3" height="1" rx="0.5" fill="white" fill-opacity="0.6"/>
</svg>
