<svg fill="none" height="40" viewBox="0 0 40 40" width="40" xmlns="http://www.w3.org/2000/svg"><path d="m0 20c0-11.04569 8.95431-20 20-20 11.0457 0 20 8.95431 20 20 0 11.0457-8.9543 20-20 20-11.04569 0-20-8.9543-20-20z" fill="#fff" fill-opacity=".1"/><path d="m28.3337 13.3337s-.5834 1.75-1.6667 2.8333c1.3333 8.3333-7.8333 14.4167-15 9.6667 1.8333.0833 3.6667-.5 5-1.6667-4.1667-1.25-6.25-6.1667-4.1667-10 1.8334 2.1667 4.6667 3.4167 7.5 3.3333-.75-3.5 3.3334-5.5 5.8334-3.1666.9166 0 2.5-1 2.5-1z" stroke="#fff" stroke-linecap="round" stroke-linejoin="round" stroke-width="1.66667"/></svg>